<svg width="44" height="71" viewBox="0 0 44 71" fill="none" xmlns="http://www.w3.org/2000/svg">
<path d="M15.4432 12.2142V20.1313H15.559H28.2399H28.3734V11.9867C29.6516 11.5779 30.7472 10.6295 31.2582 9.27364C32.148 6.92034 30.9597 4.28905 28.6078 3.39924C27.9414 3.14715 27.256 3.07902 26.5924 3.13761C26.0733 1.88942 25.0744 0.844266 23.7063 0.327821C21.3176 -0.574256 18.6918 0.449096 17.4844 2.61571C15.3819 2.5067 13.3542 3.729 12.5734 5.80569C11.5991 8.37292 12.8882 11.2318 15.4432 12.2142Z" fill="#F2E8CF"/>
<path d="M19.726 28.9775L22.593 32.113L25.5623 29.2283C24.111 29.0539 22.048 28.8917 19.726 28.9775Z" fill="#F2E8CF"/>
<path d="M16.0319 53.9399L12.6975 59.7176H10.1207H8.70899H4.77774V61.0407H3.34286C2.85776 61.0407 2.46259 61.4372 2.46259 61.921C2.46259 62.4075 2.85776 62.8013 3.34286 62.8013H4.77774V70.2958H25.2775V62.8013H26.7096C27.1961 62.8013 27.5926 62.4075 27.5926 61.921C27.5926 61.4372 27.1961 61.0407 26.7096 61.0407H25.2775V59.7176H13.8217L16.9735 54.252C17.1206 54.301 17.2774 54.3528 17.4204 54.3991C22.6435 56.1093 24.8632 47.8993 19.6797 46.2001C16.2295 45.0731 10.9628 43.4734 8.74578 40.417C8.78257 40.3856 8.82073 40.3529 8.86842 40.3216C9.34262 39.9973 9.85907 39.7288 10.3932 39.4904V40.1976C10.9192 40.6145 11.4057 40.9647 11.8213 41.1937C14.0438 42.9256 17.6058 44.0852 20.1267 44.9055L20.6595 45.0786C23.9571 46.1592 25.024 49.1802 24.6248 51.6929C24.1615 54.5913 21.9662 56.6148 19.2845 56.6148C18.6727 56.6148 18.0404 56.5112 17.4082 56.3028C17.3087 56.2714 17.1942 56.2319 17.0961 56.1992L15.7035 58.4776H26.3812V59.8007H26.7505C27.8216 59.8007 28.695 60.6742 28.695 61.7452C28.695 62.8162 27.8216 63.6883 26.7505 63.6883H26.3812V70.6038H32.3483V40.0095C32.4205 40.0681 32.4968 40.1199 32.569 40.1826C35.6459 42.8588 35.3502 47.5164 34.8842 51.1683C34.192 56.5916 42.6977 56.529 43.3817 51.1683C44.168 45.0173 43.1432 38.6755 38.5783 34.1746C35.7236 31.3649 31.8986 30.0499 27.9592 29.5989L23.8998 33.5451L27.3951 37.3673L25.9643 38.6755L17.2705 29.1655C16.1872 29.2923 15.0848 29.4749 13.9852 29.7487C7.85869 30.971 -1.4455 33.9866 0.189683 41.8505C1.57959 48.5261 10.0131 51.9096 16.0319 53.9399Z" fill="#F2E8CF"/>
<path d="M28.2576 21.0537H15.54C15.54 24.5666 18.3893 27.4132 21.8995 27.4132C25.4138 27.4132 28.2576 24.5666 28.2576 21.0537Z" fill="#F2E8CF"/>
<path d="M10.6508 53.8447L10.6331 58.4777H12.1252L14.1037 55.1801C13.0123 54.7904 11.8131 54.3503 10.6508 53.8447Z" fill="#F2E8CF"/>
<path d="M3.11803 51.9873C3.02265 52.4274 3.09078 52.8989 3.23386 53.3213C3.39329 53.741 3.64401 54.1008 3.91655 54.4183C4.21224 54.7303 4.49704 54.9579 4.70961 55.195C4.94807 55.4307 5.1334 55.6923 5.26149 55.9471C5.37595 56.2033 5.41683 56.4636 5.2901 56.7525C5.17564 57.0468 4.9181 57.3207 4.61831 57.5673C5.01076 57.5346 5.40048 57.3711 5.7207 57.0495C6.04229 56.7293 6.1731 56.1693 6.05728 55.7128C5.86514 54.7998 5.13748 54.1798 4.70688 53.711C4.25448 53.2273 3.96015 52.6836 3.94108 52.0745C3.92609 51.4627 4.19998 50.78 4.61831 50.1313C3.91246 50.4461 3.29654 51.1002 3.11803 51.9873Z" fill="#F2E8CF"/>
<path d="M7.06834 54.5027C7.00293 54.7984 7.05062 55.1159 7.14601 55.4007C7.25502 55.6841 7.42399 55.9294 7.60795 56.142C7.80826 56.3559 8.00039 56.5113 8.14483 56.6693C8.30699 56.8288 8.43099 57.0073 8.5182 57.1803C8.59587 57.3534 8.62176 57.5292 8.53728 57.7213C8.46097 57.9203 8.28655 58.1069 8.08351 58.2732C8.34787 58.2487 8.61222 58.1396 8.82889 57.9216C9.04418 57.705 9.13412 57.3248 9.05645 57.0168C8.927 56.3995 8.43372 55.9785 8.14347 55.6623C7.83551 55.3353 7.63656 54.9674 7.62566 54.5559C7.61476 54.1389 7.79872 53.6756 8.08487 53.2368C7.60522 53.4562 7.18825 53.8977 7.06834 54.5027Z" fill="#F2E8CF"/>
</svg>
