<svg width="80" height="80" viewBox="0 0 80 80" fill="none" xmlns="http://www.w3.org/2000/svg">
<path d="M33.04 44.64C38.4303 44.64 42.8 39.8047 42.8 33.84C42.8 27.8754 38.4303 23.04 33.04 23.04C27.6497 23.04 23.28 27.8754 23.28 33.84C23.28 39.8047 27.6497 44.64 33.04 44.64Z" fill="#F2E8CF"/>
<path d="M42.08 45.9201C39.6 48.1601 36.48 49.5201 33.04 49.5201C29.6 49.5201 26.4 48.1601 24 45.8401C19.6 47.8401 15.2 50.4001 15.2 54.4001V56.0801C15.2 58.0801 16.8 59.6801 18.8 59.6801H47.36C49.36 59.6801 50.96 58.0801 50.96 56.0801V54.4001C50.88 50.4001 46.56 47.9201 42.08 45.9201Z" fill="#F2E8CF"/>
<path d="M54.4 37.9201C54.24 37.8401 54.16 37.7601 54 37.6801C53.68 37.5201 53.28 37.5201 52.96 37.7601C51.28 38.8001 49.28 39.4401 47.2 39.4401C46.96 39.4401 46.64 39.4401 46.4 39.4401C46 40.4801 45.6 41.5201 45.04 42.4001C45.36 42.5601 45.76 42.6401 46.16 42.8801C50.72 44.8801 53.92 47.3601 56.16 50.7201H60C61.76 50.7201 63.2 49.2801 63.2 47.5201V46.0001C63.2 42.0801 58.64 39.6801 54.4 37.9201Z" fill="#F2E8CF"/>
<path d="M53.52 27.36C53.52 23.44 50.64 20.24 47.2 20.24C45.44 20.24 43.92 21.04 42.72 22.24C45.52 25.12 47.28 29.2 47.28 33.76C47.28 34 47.28 34.16 47.28 34.4C50.72 34.4 53.52 31.28 53.52 27.36Z" fill="#F2E8CF"/>
</svg>
