<svg width="16" height="17" viewBox="0 0 16 17" fill="none" xmlns="http://www.w3.org/2000/svg">
<path d="M16 8.48761C16 12.7598 12.4183 16.2231 8 16.2231C3.58172 16.2231 0 12.7598 0 8.48761C0 4.21539 3.58172 0.752075 8 0.752075C12.4183 0.752075 16 4.21539 16 8.48761ZM8 4.13637C8 3.86936 7.77614 3.6529 7.5 3.6529C7.22386 3.6529 7 3.86936 7 4.13637V9.45455C7 9.62805 7.09614 9.78825 7.25193 9.87433L10.7519 11.8082C10.9917 11.9407 11.2971 11.8601 11.4341 11.6283C11.5711 11.3965 11.4878 11.1011 11.2481 10.9687L8 9.17399V4.13637Z" fill="#FF6A07"/>
</svg>
