<svg width="254" height="222" viewBox="0 0 254 222" fill="none" xmlns="http://www.w3.org/2000/svg">
<path d="M161.352 165.777C191.056 135.258 191.055 85.7766 161.351 55.2583C131.646 24.74 83.4864 24.7408 53.7829 55.2602C24.0794 85.7796 24.0803 135.261 53.7848 165.779C83.4893 196.297 131.649 196.296 161.352 165.777Z" fill="#6E2C00"/>
<path d="M154.979 159.229C181.163 132.326 181.162 88.7086 154.977 61.8066C128.793 34.9046 86.3398 34.9053 60.1561 61.8082C33.9725 88.7112 33.9732 132.329 60.1579 159.231C86.3425 186.133 128.795 186.132 154.979 159.229Z" fill="#F2E8CF"/>
<path opacity="0.25" d="M129.064 52.0457C155.956 62.8311 171.004 87.7252 154.949 89.3424C138.894 90.9597 117.393 47.3649 129.064 52.0457ZM168.976 138.193C158.616 162.459 135.025 179.405 107.572 179.405C75.5477 179.405 48.767 156.334 42.1151 125.485C56.7368 145.867 81.9271 159.929 110.089 160.853C133.998 161.637 155.081 152.795 168.976 138.193Z" fill="#6E2C00"/>
<path d="M89.3352 71.2544C91.16 70.5623 93.2162 71.5177 93.9265 73.397L108.726 112.426C109.438 114.3 108.534 116.381 106.709 117.074C105.436 117.557 104.05 117.236 103.088 116.361C102.67 115.982 102.332 115.498 102.118 114.931L87.3178 75.9022C86.6067 74.0279 87.5101 71.9473 89.3352 71.2544Z" fill="#6E2C00" fill-opacity="0.5"/>
<path d="M120.355 108.475C118.546 105.202 115.653 102.966 112.405 101.947L114.037 56.2221C114.108 54.218 112.584 52.5338 110.635 52.4605C108.681 52.3873 107.044 53.9528 106.974 55.9564L105.343 101.669C104.059 101.968 102.795 102.459 101.591 103.161C94.9802 107.019 92.665 115.649 96.4191 122.441C100.172 129.232 108.574 131.611 115.184 127.753C121.793 123.897 124.109 115.266 120.355 108.475Z" fill="#6E2C00"/>
<path d="M112.863 115.147C112.926 112.78 111.111 110.81 108.808 110.745C106.504 110.679 104.586 112.545 104.523 114.911C104.459 117.277 106.274 119.249 108.578 119.313C110.881 119.379 112.799 117.513 112.863 115.147Z" fill="#6E2C00" fill-opacity="0.5"/>
<path d="M110.342 37.0349H104.796V46.0061H110.342V37.0349Z" fill="#6E2C00"/>
<path d="M110.342 174.919H104.796V183.891H110.342V174.919Z" fill="#6E2C00"/>
<path d="M36.1021 107.614V113.312H44.8337V107.614H36.1021Z" fill="#6E2C00"/>
<path d="M170.305 107.613V113.312H179.037V107.613H170.305Z" fill="#6E2C00"/>
<path opacity="0.5" d="M253.814 194.066C253.828 198 228.137 201.288 196.431 201.409C164.726 201.53 139.014 198.44 139 194.505C138.985 190.571 164.677 187.283 196.382 187.161C228.088 187.041 253.8 190.133 253.814 194.066Z" fill="#6E2C00"/>
<path d="M163.875 92.6604H237.47C240.678 92.6604 243.437 95.3659 243.632 98.7036L248.884 188.275C249.079 191.612 246.638 194.318 243.43 194.318H169.835C166.627 194.318 163.868 191.612 163.673 188.275L158.421 98.7036C158.225 95.3657 160.667 92.6604 163.875 92.6604Z" fill="#6E2C00"/>
<path d="M238.816 92.6604H164.863C161.64 92.6604 158.867 95.3895 158.67 98.7563L153.393 189.112C153.197 192.479 155.65 195.208 158.873 195.208H232.827C236.051 195.208 238.823 192.479 239.02 189.112L244.297 98.7563C244.494 95.3893 242.04 92.6604 238.816 92.6604Z" fill="#FFFCF3"/>
<path opacity="0.2" d="M243.235 117.037L241.949 139.055C222.377 143.797 176.794 154.781 155.112 159.67L156.415 137.36L243.235 117.037Z" fill="#6E2C00"/>
<path opacity="0.2" d="M154.76 165.693L241.467 147.308L241.086 153.83L154.143 176.262L154.76 165.693Z" fill="#6E2C00"/>
<path d="M238.976 89.917H165.023C161.8 89.917 159.027 92.6468 158.831 96.0129L157.978 110.608H243.605L244.457 96.0129C244.654 92.6468 242.2 89.917 238.976 89.917Z" fill="#6E2C00"/>
<path d="M173.363 90.4004C173.286 91.7264 172.445 92.8015 171.483 92.8015C170.523 92.8015 169.807 91.7264 169.885 90.4004C169.962 89.0748 170.803 88 171.764 88C172.725 88 173.441 89.0748 173.363 90.4004Z" fill="#6E2C00"/>
<path d="M231.845 90.4004C231.768 91.7264 230.926 92.8015 229.966 92.8015C229.006 92.8015 228.29 91.7264 228.367 90.4004C228.444 89.0748 229.286 88 230.247 88C231.207 88 231.923 89.0748 231.845 90.4004Z" fill="#6E2C00"/>
<path d="M208.152 124.012L203.24 178.506L190.269 177.883L193.302 138.221L188.328 141.649L184.476 130.991L194.646 123.39L208.152 124.012Z" fill="#6E2C00"/>
<path d="M182.015 99.6609C182.002 99.8783 181.99 100.094 181.977 100.308C181.965 100.521 181.941 100.737 181.908 100.954C181.841 101.415 181.721 101.851 181.545 102.262C181.369 102.673 181.143 103.034 180.865 103.343C180.587 103.653 180.258 103.897 179.877 104.078C179.497 104.259 179.066 104.349 178.586 104.349C178.399 104.349 178.205 104.332 178.004 104.3C177.803 104.266 177.605 104.216 177.41 104.15C177.214 104.083 177.028 104.002 176.852 103.904C176.676 103.806 176.521 103.693 176.387 103.564L176.849 101.275C177.045 101.485 177.266 101.656 177.513 101.787C177.759 101.917 178.033 101.983 178.332 101.983C178.527 101.983 178.692 101.954 178.83 101.895C178.967 101.836 179.083 101.755 179.177 101.651C179.272 101.548 179.348 101.428 179.407 101.289C179.466 101.151 179.512 101.003 179.545 100.847C179.577 100.691 179.6 100.529 179.615 100.363C179.63 100.197 179.642 100.034 179.652 99.8717C179.686 99.2852 179.691 98.7023 179.669 98.1217C179.646 97.5411 179.631 96.9593 179.623 96.3771L182.057 96.212C182.096 97.3614 182.082 98.5115 182.015 99.6609ZM189.241 103.741L186.595 104.095L186.35 102.845H185.144L184.807 104.095L182.123 103.819L184.66 96.4544L187.612 96.3001L189.241 103.741ZM186.259 101.154L185.969 99.2301L185.465 101.154H186.259ZM197.529 96.2891L196.71 103.786L193.92 104.05L192.673 100.038L192.201 104.128H189.819L190.467 96.2891L193.122 96.1568L194.72 100.136L195.025 96.3771L197.529 96.2891ZM204.726 98.0692C204.71 98.3415 204.68 98.6422 204.637 98.9703C204.593 99.2979 204.532 99.6373 204.455 99.9874C204.378 100.338 204.285 100.692 204.173 101.051C204.063 101.411 203.93 101.756 203.777 102.088C203.623 102.419 203.449 102.73 203.255 103.02C203.058 103.309 202.839 103.562 202.596 103.777C202.352 103.992 202.084 104.161 201.79 104.286C201.498 104.409 201.176 104.471 200.827 104.471C200.418 104.471 200.066 104.401 199.773 104.263C199.479 104.125 199.231 103.939 199.03 103.705C198.828 103.471 198.668 103.198 198.549 102.887C198.429 102.576 198.341 102.246 198.283 101.897C198.226 101.55 198.193 101.194 198.184 100.83C198.175 100.468 198.181 100.119 198.2 99.783C198.23 99.2669 198.285 98.7518 198.365 98.2378C198.444 97.7243 198.545 97.2107 198.666 96.6983L201.138 96.7979C201.008 97.3762 200.892 97.958 200.79 98.5413C200.686 99.126 200.618 99.7128 200.583 100.302C200.58 100.365 200.577 100.458 200.575 100.582C200.573 100.705 200.575 100.843 200.58 100.996C200.586 101.149 200.597 101.306 200.614 101.466C200.631 101.626 200.659 101.773 200.697 101.906C200.735 102.039 200.784 102.147 200.845 102.232C200.904 102.317 200.979 102.359 201.068 102.359C201.169 102.359 201.264 102.308 201.351 102.207C201.438 102.106 201.518 101.97 201.589 101.8C201.661 101.631 201.726 101.436 201.785 101.215C201.844 100.994 201.896 100.763 201.942 100.524C201.988 100.284 202.027 100.045 202.06 99.8051C202.094 99.5655 202.123 99.3422 202.147 99.1364C202.172 98.9296 202.191 98.7475 202.203 98.5886C202.216 98.4301 202.225 98.3124 202.229 98.2353C202.246 97.9473 202.259 97.6611 202.266 97.3756C202.274 97.0898 202.277 96.8054 202.276 96.521H204.753C204.766 97.0293 204.757 97.5463 204.726 98.0692ZM211.675 103.741L209.029 104.095L208.784 102.845H207.577L207.24 104.095L204.556 103.819L207.093 96.4544L210.045 96.3001L211.675 103.741ZM208.693 101.154L208.403 99.2301L207.899 101.154H208.693ZM218.815 98.8875C218.799 99.1749 218.759 99.4361 218.698 99.6691C218.637 99.9028 218.549 100.118 218.435 100.313C218.322 100.509 218.179 100.69 218.007 100.855C217.835 101.021 217.63 101.179 217.392 101.331L218.515 103.675L216.104 104.161L215.427 101.806L214.768 101.828L214.539 104.127H212.263C212.33 103.287 212.396 102.451 212.46 101.617C212.525 100.784 212.592 99.9485 212.663 99.1078C212.694 98.6841 212.726 98.2644 212.757 97.847C212.788 97.4308 212.827 97.0112 212.873 96.5867C213.125 96.491 213.374 96.4119 213.617 96.3489C213.861 96.2864 214.105 96.2375 214.348 96.2032C214.592 96.1677 214.839 96.1438 215.088 96.1309C215.338 96.1182 215.593 96.1116 215.854 96.1116C216.257 96.1116 216.643 96.17 217.012 96.2855C217.381 96.4014 217.702 96.5758 217.979 96.8083C218.255 97.0398 218.47 97.3301 218.624 97.6763C218.778 98.023 218.842 98.4265 218.815 98.8875ZM216.434 99.0642C216.443 98.9091 216.431 98.7675 216.398 98.6382C216.365 98.5097 216.312 98.3986 216.237 98.3042C216.164 98.2103 216.069 98.1362 215.954 98.0835C215.839 98.0296 215.702 98.003 215.543 98.003C215.472 98.003 215.403 98.0078 215.336 98.0171C215.268 98.0264 215.202 98.0405 215.137 98.0584L214.932 100.114H215.06C215.212 100.114 215.367 100.094 215.526 100.054C215.686 100.014 215.83 99.9506 215.961 99.8667C216.091 99.7814 216.2 99.6725 216.287 99.5402C216.373 99.407 216.423 99.2486 216.434 99.0642ZM226.417 96.7313L223.258 100.977L222.919 104.438H220.41L220.674 100.999L219.4 96.8975L222.12 96.543L222.405 98.9312L223.888 96.543L226.417 96.7313Z" fill="#FFFCF3"/>
</svg>
