<svg width="167" height="188" viewBox="0 0 167 188" fill="none" xmlns="http://www.w3.org/2000/svg">
<path d="M150.437 68.0001H121.563C115.597 68.0001 110.76 63.1596 110.76 57.1661V57.1571C110.76 56.0929 111.619 55.2212 112.678 55.2212H159.322C160.381 55.2212 161.24 56.102 161.24 57.1661V57.1571C161.24 63.1505 156.403 68.0001 150.437 68.0001Z" fill="#EAA772"/>
<g opacity="0.25">
<path d="M121.626 57.1661V57.1571C121.626 56.0929 122.485 55.2212 123.545 55.2212H112.678C111.619 55.2212 110.76 56.0929 110.76 57.1571V57.1661C110.76 63.1596 115.597 68.0001 121.563 68.0001H132.429C126.463 68.0001 121.626 63.1596 121.626 57.1661Z" fill="#EAA772"/>
<path d="M110.803 57.2646H161.194C161.006 56.2525 160.24 55.4817 159.322 55.4817H112.678C111.757 55.4817 110.989 56.2495 110.803 57.2646Z" fill="#EAA772"/>
</g>
<path fill-rule="evenodd" clip-rule="evenodd" d="M112.678 55.8927C111.992 55.8927 111.428 56.4597 111.428 57.157V57.1661C111.428 62.7872 115.964 67.3285 121.563 67.3285H150.437C156.033 67.3285 160.568 62.7825 160.571 57.1637C160.57 56.4634 160.003 55.8927 159.322 55.8927H112.678ZM161.909 57.169C161.902 63.5286 156.768 68.6717 150.437 68.6717H121.563C115.229 68.6717 110.091 63.5319 110.091 57.1661V57.157C110.091 55.7261 111.245 54.5496 112.678 54.5496H159.322C160.753 54.5496 161.899 55.7291 161.909 57.1478C161.909 57.1509 161.909 57.154 161.909 57.157" fill="#442F2F"/>
<path d="M138.014 17H133.849C121.059 17 110.762 24.1728 110.762 32.8223V32.8016C110.762 34.6571 112.915 36.1404 115.659 36.1404H156.204C158.948 36.1404 161.238 34.6623 161.238 32.8066V32.8092C161.238 24.1599 150.804 17 138.014 17Z" fill="#EAA772"/>
<path d="M138.014 17H133.849C121.059 17 110.762 24.1728 110.762 32.8223V32.8016C110.762 34.6571 112.915 36.1404 115.659 36.1404H156.204C158.948 36.1404 161.238 34.6623 161.238 32.8066V32.8092C161.238 24.1599 150.804 17 138.014 17Z" fill="#EAA772"/>
<g opacity="0.3">
<path d="M110.762 32.8235L110.763 32.809L110.762 32.8015V32.8235Z" fill="#EAA772"/>
<path d="M141.417 17.1719C140.286 17.0573 139.151 17 138.014 17H133.849C121.066 17 110.773 24.1652 110.763 32.8085C110.768 34.6607 112.919 36.1404 115.659 36.1404H122.229V33.3035C123.787 24.7165 130.606 18.2859 141.417 17.1719Z" fill="#EAA772"/>
</g>
<path d="M162.25 49.7445C162.25 52.7692 159.809 55.2212 156.798 55.2212H115.202C112.191 55.2212 109.75 52.7692 109.75 49.7445C109.75 46.7198 112.191 44.2678 115.202 44.2678H156.798C159.809 44.2678 162.25 46.7198 162.25 49.7445Z" fill="#6E2C00"/>
<g opacity="0.6">
<path d="M112.58 51.4419C112.79 51.4419 112.961 51.2705 112.961 51.0591C112.961 50.8477 112.79 50.6763 112.58 50.6763C112.37 50.6763 112.199 50.8477 112.199 51.0591C112.199 51.2705 112.37 51.4419 112.58 51.4419Z" fill="#442F2F"/>
<path d="M115.17 53.176C115.381 53.176 115.552 53.0046 115.552 52.7932C115.552 52.5818 115.381 52.4104 115.17 52.4104C114.96 52.4104 114.789 52.5818 114.789 52.7932C114.789 53.0046 114.96 53.176 115.17 53.176Z" fill="#442F2F"/>
<path d="M113.545 53.176C113.755 53.176 113.926 53.0046 113.926 52.7932C113.926 52.5818 113.755 52.4104 113.545 52.4104C113.334 52.4104 113.164 52.5818 113.164 52.7932C113.164 53.0046 113.334 53.176 113.545 53.176Z" fill="#442F2F"/>
<path d="M112.58 50.115C112.79 50.115 112.961 49.9436 112.961 49.7322C112.961 49.5208 112.79 49.3494 112.58 49.3494C112.37 49.3494 112.199 49.5208 112.199 49.7322C112.199 49.9436 112.37 50.115 112.58 50.115Z" fill="#442F2F"/>
<path d="M114.789 51.0593C115 51.0593 115.17 50.8879 115.17 50.6765C115.17 50.4651 115 50.2937 114.789 50.2937C114.579 50.2937 114.408 50.4651 114.408 50.6765C114.408 50.8879 114.579 51.0593 114.789 51.0593Z" fill="#442F2F"/>
<path d="M120.816 52.2075C121.026 52.2075 121.197 52.0361 121.197 51.8247C121.197 51.6133 121.026 51.4419 120.816 51.4419C120.605 51.4419 120.434 51.6133 120.434 51.8247C120.434 52.0361 120.605 52.2075 120.816 52.2075Z" fill="#442F2F"/>
<path d="M127.88 51.4419C128.091 51.4419 128.262 51.2705 128.262 51.0591C128.262 50.8477 128.091 50.6763 127.88 50.6763C127.67 50.6763 127.499 50.8477 127.499 51.0591C127.499 51.2705 127.67 51.4419 127.88 51.4419Z" fill="#442F2F"/>
<path d="M154.654 53.176C154.864 53.176 155.035 53.0046 155.035 52.7932C155.035 52.5818 154.864 52.4104 154.654 52.4104C154.443 52.4104 154.273 52.5818 154.273 52.7932C154.273 53.0046 154.443 53.176 154.654 53.176Z" fill="#442F2F"/>
<path d="M152.279 53.176C152.489 53.176 152.66 53.0046 152.66 52.7932C152.66 52.5818 152.489 52.4104 152.279 52.4104C152.068 52.4104 151.898 52.5818 151.898 52.7932C151.898 53.0046 152.068 53.176 152.279 53.176Z" fill="#442F2F"/>
<path d="M150.809 53.176C151.019 53.176 151.19 53.0046 151.19 52.7932C151.19 52.5818 151.019 52.4104 150.809 52.4104C150.598 52.4104 150.428 52.5818 150.428 52.7932C150.428 53.0046 150.598 53.176 150.809 53.176Z" fill="#442F2F"/>
<path d="M151.571 52.2075C151.781 52.2075 151.952 52.0361 151.952 51.8247C151.952 51.6133 151.781 51.4419 151.571 51.4419C151.36 51.4419 151.19 51.6133 151.19 51.8247C151.19 52.0361 151.36 52.2075 151.571 52.2075Z" fill="#442F2F"/>
<path d="M158.644 50.115C158.855 50.115 159.025 49.9436 159.025 49.7322C159.025 49.5208 158.855 49.3494 158.644 49.3494C158.434 49.3494 158.263 49.5208 158.263 49.7322C158.263 49.9436 158.434 50.115 158.644 50.115Z" fill="#442F2F"/>
<path d="M158.263 52.2075C158.474 52.2075 158.644 52.0361 158.644 51.8247C158.644 51.6133 158.474 51.4419 158.263 51.4419C158.053 51.4419 157.882 51.6133 157.882 51.8247C157.882 52.0361 158.053 52.2075 158.263 52.2075Z" fill="#442F2F"/>
<path d="M155.035 49.7324C155.245 49.7324 155.416 49.561 155.416 49.3496C155.416 49.1382 155.245 48.9668 155.035 48.9668C154.824 48.9668 154.654 49.1382 154.654 49.3496C154.654 49.561 154.824 49.7324 155.035 49.7324Z" fill="#442F2F"/>
<path d="M141.285 53.176C141.495 53.176 141.666 53.0046 141.666 52.7932C141.666 52.5818 141.495 52.4104 141.285 52.4104C141.074 52.4104 140.904 52.5818 140.904 52.7932C140.904 53.0046 141.074 53.176 141.285 53.176Z" fill="#442F2F"/>
<path d="M137.86 53.176C138.071 53.176 138.241 53.0046 138.241 52.7932C138.241 52.5818 138.071 52.4104 137.86 52.4104C137.65 52.4104 137.479 52.5818 137.479 52.7932C137.479 53.0046 137.65 53.176 137.86 53.176Z" fill="#442F2F"/>
<path d="M139.214 53.176C139.425 53.176 139.595 53.0046 139.595 52.7932C139.595 52.5818 139.425 52.4104 139.214 52.4104C139.004 52.4104 138.833 52.5818 138.833 52.7932C138.833 53.0046 139.004 53.176 139.214 53.176Z" fill="#442F2F"/>
<path d="M134.064 53.176C134.275 53.176 134.445 53.0046 134.445 52.7932C134.445 52.5818 134.275 52.4104 134.064 52.4104C133.854 52.4104 133.683 52.5818 133.683 52.7932C133.683 53.0046 133.854 53.176 134.064 53.176Z" fill="#442F2F"/>
<path d="M132.427 52.5903C132.638 52.5903 132.808 52.4189 132.808 52.2075C132.808 51.9961 132.638 51.8247 132.427 51.8247C132.217 51.8247 132.046 51.9961 132.046 52.2075C132.046 52.4189 132.217 52.5903 132.427 52.5903Z" fill="#442F2F"/>
<path d="M127.338 52.9731C127.548 52.9731 127.719 52.8017 127.719 52.5903C127.719 52.3789 127.548 52.2075 127.338 52.2075C127.127 52.2075 126.957 52.3789 126.957 52.5903C126.957 52.8017 127.127 52.9731 127.338 52.9731Z" fill="#442F2F"/>
</g>
<g opacity="0.15">
<path d="M120.345 52.2625V47.2265C120.345 45.5925 121.664 44.2678 123.291 44.2678H115.202C112.191 44.2678 109.75 46.7198 109.75 49.7445C109.75 52.7692 112.191 55.2212 115.202 55.2212H123.291C121.664 55.2212 120.345 53.8965 120.345 52.2625Z" fill="#6E2C00"/>
<path d="M156.798 45.1074H115.202C112.191 45.1074 109.75 47.5594 109.75 50.5841C109.75 50.6635 109.753 50.7424 109.756 50.821C110.976 50.5237 112.6 50.2256 114.21 50.2256C115.842 50.2256 116.605 50.5126 117.489 50.8447C118.42 51.1948 119.475 51.5915 121.47 51.5915C123.464 51.5915 124.517 51.1946 125.447 50.8445C126.328 50.5124 127.089 50.2256 128.719 50.2256C130.35 50.2256 131.111 50.5124 131.992 50.8445C132.921 51.1946 133.974 51.5915 135.969 51.5915C137.963 51.5915 139.016 51.1946 139.945 50.8443C140.826 50.5124 141.587 50.2256 143.217 50.2256C144.848 50.2256 145.608 50.5124 146.489 50.8443C147.418 51.1946 148.47 51.5915 150.465 51.5915C152.459 51.5915 153.511 51.1946 154.439 50.8442C155.319 50.5121 156.079 50.2255 157.709 50.2255C159.331 50.2255 160.078 50.5099 160.943 50.8393C161.315 50.981 161.722 51.1346 162.206 51.2656C162.234 51.0421 162.249 50.8151 162.249 50.5841C162.25 47.5594 159.809 45.1074 156.798 45.1074Z" fill="#6E2C00"/>
</g>
<path fill-rule="evenodd" clip-rule="evenodd" d="M115.202 44.9394C112.56 44.9394 110.419 47.0907 110.419 49.7445C110.419 52.3983 112.56 54.5496 115.202 54.5496H156.798C159.44 54.5496 161.581 52.3983 161.581 49.7445C161.581 47.0907 159.44 44.9394 156.798 44.9394H115.202ZM109.082 49.7445C109.082 46.3489 111.822 43.5962 115.202 43.5962H156.798C160.178 43.5962 162.918 46.3489 162.918 49.7445C162.918 53.1401 160.178 55.8927 156.798 55.8927H115.202C111.822 55.8927 109.082 53.1401 109.082 49.7445Z" fill="#442F2F"/>
<path d="M161.24 43.0506C161.24 43.3734 161.112 43.683 160.885 43.9112C160.658 44.1395 160.35 44.2677 160.028 44.2677H111.971C111.65 44.2677 111.342 44.1395 111.115 43.9112C110.888 43.683 110.76 43.3734 110.76 43.0506V40.2107C110.76 39.8879 110.888 39.5784 111.115 39.3501C111.342 39.1219 111.65 38.9937 111.971 38.9937H160.029C160.35 38.9937 160.658 39.1219 160.885 39.3501C161.113 39.5784 161.24 39.8879 161.24 40.2107V43.0506H161.24Z" fill="#FF6A07"/>
<path d="M161.24 43.0506C161.24 43.3734 161.112 43.683 160.885 43.9112C160.658 44.1395 160.35 44.2677 160.028 44.2677H111.971C111.65 44.2677 111.342 44.1395 111.115 43.9112C110.888 43.683 110.76 43.3734 110.76 43.0506V40.2107C110.76 39.8879 110.888 39.5784 111.115 39.3501C111.342 39.1219 111.65 38.9937 111.971 38.9937H160.029C160.35 38.9937 160.658 39.1219 160.885 39.3501C161.113 39.5784 161.24 39.8879 161.24 40.2107V43.0506H161.24Z" fill="#FF6A07"/>
<path opacity="0.3" d="M119.935 43.0506V40.2107C119.935 40.0509 119.966 39.8926 120.027 39.745C120.088 39.5973 120.177 39.4631 120.29 39.3501C120.402 39.2371 120.536 39.1475 120.683 39.0863C120.83 39.0251 120.987 38.9937 121.146 38.9937H111.971C111.65 38.9937 111.342 39.1219 111.115 39.3501C110.888 39.5784 110.76 39.8879 110.76 40.2107V43.0506C110.76 43.3734 110.888 43.683 111.115 43.9112C111.342 44.1395 111.65 44.2677 111.971 44.2677H121.146C120.987 44.2677 120.83 44.2362 120.683 44.175C120.536 44.1139 120.402 44.0242 120.29 43.9112C120.177 43.7982 120.088 43.664 120.027 43.5163C119.966 43.3687 119.935 43.2104 119.935 43.0506Z" fill="#FF6A07"/>
<path opacity="0.2" d="M139.453 38.9939H143.252V44.2678H139.453V38.9939ZM144.428 38.9939H145.534V44.2678H144.428V38.9939Z" fill="white"/>
<path fill-rule="evenodd" clip-rule="evenodd" d="M111.971 39.6655C111.827 39.6655 111.689 39.7229 111.587 39.8252C111.486 39.9275 111.428 40.0663 111.428 40.211V43.0508C111.428 43.1955 111.486 43.3342 111.587 43.4365C111.689 43.5388 111.827 43.5963 111.971 43.5963H160.028C160.172 43.5963 160.311 43.5388 160.412 43.4365C160.514 43.3342 160.571 43.1955 160.571 43.0508C160.571 43.0457 160.572 43.0406 160.572 43.0355V40.211C160.572 40.0663 160.514 39.9275 160.413 39.8252C160.311 39.7229 160.173 39.6655 160.029 39.6655H111.971ZM161.909 43.0701C161.909 43.0637 161.909 43.0573 161.909 43.0508V40.211C161.909 39.71 161.711 39.2296 161.358 38.8754C161.006 38.5212 160.527 38.3223 160.029 38.3223H111.971C111.473 38.3223 110.995 38.5212 110.642 38.8754C110.289 39.2296 110.091 39.71 110.091 40.211V43.0508C110.091 43.5517 110.289 44.0321 110.642 44.3863C110.995 44.7405 111.473 44.9395 111.971 44.9395H160.028C160.527 44.9395 161.005 44.7405 161.358 44.3863C161.706 44.0367 161.903 43.564 161.909 43.0701Z" fill="#442F2F"/>
<path d="M107 42.6756V42.6741C108.891 38.7377 113.597 36.1406 118.844 36.1406H153.156C158.403 36.1406 163.109 38.7377 165 42.6741V42.6747C161.376 42.6747 161.376 39.4267 157.751 39.4267C154.127 39.4267 154.127 42.6752 150.502 42.6752C146.877 42.6752 146.877 39.4271 143.252 39.4271C139.627 39.4271 139.627 42.6754 136.002 42.6754C132.377 42.6754 132.377 39.4272 128.752 39.4272C125.127 39.4272 125.127 42.6756 121.502 42.6756C117.877 42.6756 117.877 39.4272 114.251 39.4272C110.626 39.4272 110.626 42.6756 107 42.6756Z" fill="#FF6A07"/>
<path d="M158.414 37.1067C156.414 36.0763 155.64 36.1404 153.156 36.1404H118.844C113.597 36.1404 108.891 38.7375 107 42.6739V42.6754C110.626 42.6754 110.626 39.4271 114.251 39.4271C116.575 39.4271 118.435 41.373 119.689 42.3312L120.084 41.8764C120.829 41.0196 121.419 40.0395 121.829 38.9798C122.259 37.8688 123.309 37.126 124.496 37.1253L158.414 37.1067Z" fill="#FF6A07"/>
<path fill-rule="evenodd" clip-rule="evenodd" d="M118.844 36.8122C114.337 36.8122 110.324 38.8016 108.264 41.8209C109.036 41.5715 109.574 41.0933 110.181 40.5502L110.194 40.5382C111.114 39.7135 112.183 38.7556 114.251 38.7556C116.319 38.7556 117.388 39.7135 118.308 40.5382L118.322 40.5502C119.211 41.3469 119.954 42.0039 121.502 42.0039C123.05 42.0039 123.793 41.347 124.682 40.5502L124.695 40.5382C125.616 39.7135 126.685 38.7556 128.752 38.7556C130.82 38.7556 131.889 39.7135 132.809 40.5381L132.822 40.5501C133.712 41.3468 134.455 42.0038 136.002 42.0038C137.55 42.0038 138.293 41.3468 139.182 40.55L139.196 40.5381C140.116 39.7134 141.185 38.7554 143.252 38.7554C145.32 38.7554 146.389 39.7133 147.309 40.538L147.322 40.5499C148.212 41.3467 148.955 42.0036 150.502 42.0036C152.049 42.0036 152.793 41.3467 153.682 40.5498L153.695 40.5379C154.615 39.7131 155.684 38.7551 157.751 38.7551C159.818 38.7551 160.887 39.713 161.807 40.5376L161.821 40.5495C162.426 41.0923 162.964 41.5702 163.735 41.8197C161.675 38.8011 157.662 36.8122 153.156 36.8122H118.844ZM106.398 42.3822C108.426 38.1606 113.405 35.469 118.844 35.469H153.156C158.595 35.469 163.574 38.1606 165.602 42.3822C165.646 42.4732 165.669 42.573 165.669 42.674V42.6747C165.669 43.0456 165.369 43.3463 165 43.3463C162.933 43.3463 161.864 42.3884 160.944 41.5638L160.931 41.5519C160.042 40.7551 159.298 40.0983 157.751 40.0983C156.204 40.0983 155.461 40.7552 154.572 41.5521L154.558 41.5641C153.638 42.3888 152.569 43.3468 150.502 43.3468C148.435 43.3468 147.366 42.3889 146.446 41.5643L146.432 41.5523C145.543 40.7556 144.8 40.0986 143.252 40.0986C141.705 40.0986 140.962 40.7556 140.072 41.5524L140.059 41.5644C139.139 42.3891 138.07 43.347 136.002 43.347C133.935 43.347 132.866 42.3891 131.946 41.5644L131.932 41.5525C131.043 40.7557 130.3 40.0988 128.752 40.0988C127.205 40.0988 126.461 40.7558 125.572 41.5525L125.559 41.5645C124.639 42.3892 123.57 43.3471 121.502 43.3471C119.434 43.3471 118.365 42.3892 117.445 41.5645L117.432 41.5526C116.542 40.7558 115.799 40.0988 114.251 40.0988C112.703 40.0988 111.96 40.7558 111.071 41.5526L111.057 41.5645C110.137 42.3892 109.068 43.3471 107 43.3471C106.631 43.3471 106.331 43.0464 106.331 42.6755V42.674C106.331 42.573 106.354 42.4732 106.398 42.3822Z" fill="#442F2F"/>
<path d="M107.355 47.9565C107.182 48.7361 108.056 49.3872 108.95 49.1476C110.337 48.7766 112.275 48.3787 114.21 48.3787C117.836 48.3787 117.844 49.7445 121.47 49.7445C125.095 49.7445 125.094 48.3787 128.719 48.3787C132.345 48.3787 132.344 49.7445 135.969 49.7445C139.594 49.7445 139.593 48.3787 143.218 48.3787C146.843 48.3787 146.84 49.7445 150.465 49.7445C154.089 49.7445 154.084 48.3785 157.709 48.3785C160.637 48.3785 161.158 49.2697 163.189 49.6124C164.048 49.7573 164.807 49.1167 164.645 48.3894L164.493 48.0711C163.401 45.7734 160.765 44.2678 157.834 44.2678H113.959C111.081 44.2678 108.482 45.7198 107.355 47.9565Z" fill="#FAAB35"/>
<path d="M162.077 45.4458C160.871 44.6986 159.396 44.2678 157.834 44.2678H113.958C111.081 44.2678 108.482 45.7198 107.355 47.9565C107.182 48.7361 108.055 49.3872 108.95 49.1476C110.336 48.7766 112.275 48.3787 114.21 48.3787C115.978 48.3787 116.885 48.7034 117.772 49.036L118.11 48.7687C118.577 48.4003 119.105 47.764 119.562 47.1461C120.352 46.0786 121.594 45.4458 122.918 45.4458H162.077Z" fill="#FAAB35"/>
<path fill-rule="evenodd" clip-rule="evenodd" d="M106.759 47.6533C108.019 45.1511 110.876 43.5962 113.959 43.5962H157.834C160.972 43.5962 163.873 45.2083 165.096 47.7815C165.096 47.7814 165.096 47.7815 165.096 47.7815L165.248 48.0998C165.269 48.1453 165.286 48.1931 165.297 48.2423C165.442 48.8938 165.162 49.4786 164.729 49.8428C164.3 50.204 163.697 50.3791 163.078 50.2747C162.229 50.1313 161.595 49.8896 161.031 49.6745C160.87 49.6133 160.716 49.5543 160.563 49.5003C159.877 49.2573 159.09 49.05 157.709 49.05C156.018 49.05 155.199 49.3593 154.334 49.6858L154.322 49.6901C153.382 50.0451 152.391 50.4161 150.465 50.4161C148.539 50.4161 147.547 50.0451 146.606 49.6903L146.595 49.686C145.729 49.3595 144.909 49.0502 143.218 49.0502C141.526 49.0502 140.706 49.3595 139.84 49.686L139.828 49.6903C138.887 50.0452 137.895 50.4161 135.969 50.4161C134.043 50.4161 133.051 50.0452 132.109 49.6903L132.098 49.6861C131.231 49.3595 130.411 49.0502 128.719 49.0502C127.028 49.0502 126.207 49.3595 125.341 49.6861L125.329 49.6904C124.388 50.0452 123.396 50.4161 121.47 50.4161C119.543 50.4161 118.549 50.0452 117.606 49.6905L117.594 49.6863C116.725 49.3596 115.902 49.0502 114.21 49.0502C112.356 49.0502 110.481 49.4328 109.123 49.7965C108.478 49.9692 107.826 49.8255 107.354 49.4734C106.878 49.1183 106.547 48.5092 106.703 47.8103C106.715 47.7558 106.734 47.7031 106.759 47.6533ZM108.002 48.162C108.005 48.2321 108.042 48.3138 108.151 48.3951C108.296 48.5035 108.528 48.5656 108.778 48.4987C110.192 48.1203 112.193 47.707 114.21 47.707C116.137 47.707 117.131 48.0779 118.074 48.4325L118.085 48.4368C118.955 48.7635 119.778 49.0729 121.47 49.0729C123.161 49.0729 123.982 48.7636 124.848 48.437L124.86 48.4327C125.801 48.0779 126.793 47.707 128.719 47.707C130.646 47.707 131.637 48.0779 132.579 48.4327L132.59 48.4371C133.457 48.7636 134.278 49.0729 135.969 49.0729C137.66 49.0729 138.481 48.7636 139.347 48.4371L139.358 48.4328C140.3 48.0779 141.291 47.707 143.218 47.707C145.144 47.707 146.135 48.0779 147.076 48.4328L147.088 48.4371C147.954 48.7636 148.774 49.0729 150.465 49.0729C152.156 49.0729 152.975 48.7636 153.84 48.4371L153.852 48.4328C154.792 48.0778 155.783 47.7068 157.709 47.7068C159.256 47.7068 160.193 47.9452 161.008 48.2335C161.208 48.3043 161.391 48.374 161.568 48.4414C162.11 48.6474 162.592 48.8305 163.3 48.95C163.54 48.9905 163.746 48.9178 163.871 48.8131C163.966 48.7328 163.997 48.6541 163.998 48.5871L163.89 48.3606C162.929 46.3384 160.557 44.9394 157.834 44.9394H113.959C111.33 44.9394 109.023 46.244 108.002 48.162ZM119.677 55.221C119.677 54.8501 119.976 54.5494 120.345 54.5494H124.113C124.482 54.5494 124.781 54.8501 124.781 55.221V61.2336C124.781 62.6496 123.639 63.7976 122.229 63.7976C120.819 63.7976 119.677 62.6497 119.677 61.2336V55.221ZM121.014 55.8926V61.2336C121.014 61.9079 121.558 62.4544 122.229 62.4544C122.9 62.4544 123.444 61.9079 123.444 61.2336V55.8926H121.014Z" fill="#442F2F"/>
<path d="M122.229 63.1259C121.189 63.1259 120.345 62.2787 120.345 61.2336V55.2209H124.113V61.2336C124.113 62.2787 123.269 63.1259 122.229 63.1259ZM128.651 59.3076C128.452 59.3076 128.255 59.2683 128.072 59.1919C127.888 59.1156 127.722 59.0036 127.581 58.8625C127.441 58.7214 127.329 58.5539 127.253 58.3695C127.177 58.1851 127.138 57.9875 127.138 57.7879V55.2209H130.163V57.7879C130.163 57.9875 130.124 58.1851 130.048 58.3695C129.972 58.5538 129.861 58.7214 129.72 58.8625C129.58 59.0036 129.413 59.1155 129.23 59.1919C129.046 59.2683 128.849 59.3076 128.651 59.3076Z" fill="#FF6A07"/>
<path fill-rule="evenodd" clip-rule="evenodd" d="M119.677 55.2209C119.677 54.85 119.976 54.5493 120.345 54.5493H124.113C124.482 54.5493 124.781 54.85 124.781 55.2209V61.2335C124.781 62.6496 123.639 63.7975 122.229 63.7975C120.819 63.7975 119.677 62.6496 119.677 61.2335V55.2209ZM121.014 55.8925V61.2335C121.014 61.9078 121.558 62.4543 122.229 62.4543C122.9 62.4543 123.444 61.9078 123.444 61.2335V55.8925H121.014ZM126.469 55.2209C126.469 54.85 126.769 54.5493 127.138 54.5493H130.163C130.533 54.5493 130.832 54.85 130.832 55.2209V57.7878C130.832 57.7878 130.832 57.7879 130.832 57.7878C130.832 58.0756 130.776 58.3606 130.666 58.6264C130.556 58.8923 130.396 59.1338 130.193 59.3373C129.991 59.5408 129.75 59.7022 129.486 59.8123C129.221 59.9225 128.937 59.9792 128.651 59.9792C128.364 59.9792 128.081 59.9225 127.816 59.8124C127.551 59.7022 127.311 59.5408 127.108 59.3374C126.906 59.1339 126.745 58.8923 126.636 58.6265C126.526 58.3606 126.469 58.0757 126.469 57.7879V55.2209ZM127.807 55.8925V57.7879C127.807 57.8993 127.828 58.0096 127.871 58.1125C127.913 58.2153 127.975 58.3088 128.054 58.3876C128.132 58.4663 128.225 58.5288 128.328 58.5714C128.43 58.614 128.54 58.636 128.651 58.636C128.762 58.636 128.871 58.614 128.974 58.5714C129.076 58.5288 129.169 58.4663 129.248 58.3876C129.326 58.3089 129.388 58.2154 129.431 58.1125C129.473 58.0096 129.495 57.8993 129.495 57.788V55.8925H127.807Z" fill="#442F2F"/>
<path d="M146.988 64.2773C145.427 64.2773 144.161 63.0063 144.161 61.4383V55.2212H149.814V61.4383C149.814 63.0062 148.549 64.2773 146.988 64.2773Z" fill="#FF6A07"/>
<path fill-rule="evenodd" clip-rule="evenodd" d="M143.493 55.2212C143.493 54.8502 143.792 54.5496 144.161 54.5496H149.814C150.183 54.5496 150.482 54.8502 150.482 55.2212V61.4382C150.482 61.4382 150.482 61.4382 150.482 61.4382C150.482 63.377 148.918 64.9489 146.988 64.9489C145.057 64.9489 143.493 63.3772 143.493 61.4383V55.2212ZM144.83 55.8927V61.4383C144.83 62.6354 145.796 63.6057 146.988 63.6057C148.179 63.6057 149.145 62.6352 149.145 61.4384V55.8927H144.83Z" fill="#442F2F"/>
<path d="M118.037 61.1779C118.365 61.1779 118.631 60.9107 118.631 60.581C118.631 60.2514 118.365 59.9841 118.037 59.9841C117.709 59.9841 117.443 60.2514 117.443 60.581C117.443 60.9107 117.709 61.1779 118.037 61.1779Z" fill="#442F2F"/>
<path d="M152.056 64.6039C152.24 64.6039 152.39 64.4536 152.39 64.2682C152.39 64.0829 152.24 63.9326 152.056 63.9326C151.871 63.9326 151.722 64.0829 151.722 64.2682C151.722 64.4536 151.871 64.6039 152.056 64.6039Z" fill="#442F2F"/>
<path d="M135.356 64.3641C135.497 64.3641 135.612 64.2489 135.612 64.1068C135.612 63.9646 135.497 63.8494 135.356 63.8494C135.214 63.8494 135.1 63.9646 135.1 64.1068C135.1 64.2489 135.214 64.3641 135.356 64.3641Z" fill="#442F2F"/>
<path d="M133.296 60.6736C133.655 60.6736 133.946 60.3812 133.946 60.0206C133.946 59.66 133.655 59.3677 133.296 59.3677C132.937 59.3677 132.646 59.66 132.646 60.0206C132.646 60.3812 132.937 60.6736 133.296 60.6736Z" fill="#442F2F"/>
<path d="M128.907 63.5072C129.049 63.5072 129.163 63.392 129.163 63.2498C129.163 63.1077 129.049 62.9924 128.907 62.9924C128.766 62.9924 128.651 63.1077 128.651 63.2498C128.651 63.392 128.766 63.5072 128.907 63.5072Z" fill="#442F2F"/>
<path d="M140.411 62.6402C140.977 62.6402 141.436 62.1792 141.436 61.6106C141.436 61.042 140.977 60.5811 140.411 60.5811C139.845 60.5811 139.386 61.042 139.386 61.6106C139.386 62.1792 139.845 62.6402 140.411 62.6402Z" fill="#442F2F"/>
<path d="M152.851 60.7788C153.105 60.7788 153.312 60.5716 153.312 60.3159C153.312 60.0603 153.105 59.853 152.851 59.853C152.596 59.853 152.39 60.0603 152.39 60.3159C152.39 60.5716 152.596 60.7788 152.851 60.7788Z" fill="#442F2F"/>
<path d="M137.569 59.6454C137.763 59.6454 137.921 59.4869 137.921 59.2914C137.921 59.096 137.763 58.9375 137.569 58.9375C137.374 58.9375 137.216 59.096 137.216 59.2914C137.216 59.4869 137.374 59.6454 137.569 59.6454Z" fill="#442F2F"/>
<path d="M123.946 24.9642C124.308 24.9642 124.602 24.6688 124.602 24.3044C124.602 23.94 124.308 23.6445 123.946 23.6445C123.583 23.6445 123.289 23.94 123.289 24.3044C123.289 24.6688 123.583 24.9642 123.946 24.9642Z" fill="#442F2F"/>
<path d="M133.946 27.4795C134.305 27.4795 134.596 27.1872 134.596 26.8265C134.596 26.4659 134.305 26.1736 133.946 26.1736C133.587 26.1736 133.296 26.4659 133.296 26.8265C133.296 27.1872 133.587 27.4795 133.946 27.4795Z" fill="#442F2F"/>
<path d="M137.702 29.4081C137.886 29.4081 138.036 29.2578 138.036 29.0724C138.036 28.8871 137.886 28.7368 137.702 28.7368C137.517 28.7368 137.367 28.8871 137.367 29.0724C137.367 29.2578 137.517 29.4081 137.702 29.4081Z" fill="#442F2F"/>
<path d="M149.655 25.6107C149.932 25.6107 150.156 25.3852 150.156 25.107C150.156 24.8288 149.932 24.6033 149.655 24.6033C149.378 24.6033 149.154 24.8288 149.154 25.107C149.154 25.3852 149.378 25.6107 149.655 25.6107Z" fill="#442F2F"/>
<path d="M137.367 22.1004C137.933 22.1004 138.392 21.6394 138.392 21.0708C138.392 20.5022 137.933 20.0413 137.367 20.0413C136.801 20.0413 136.342 20.5022 136.342 21.0708C136.342 21.6394 136.801 22.1004 137.367 22.1004Z" fill="#442F2F"/>
<path d="M145.175 23.9527C145.613 23.9527 145.969 23.5956 145.969 23.1552C145.969 22.7147 145.613 22.3577 145.175 22.3577C144.736 22.3577 144.381 22.7147 144.381 23.1552C144.381 23.5956 144.736 23.9527 145.175 23.9527Z" fill="#442F2F"/>
<path d="M128.269 27.4234C128.49 27.4234 128.669 27.2437 128.669 27.0221C128.669 26.8005 128.49 26.6208 128.269 26.6208C128.049 26.6208 127.87 26.8005 127.87 27.0221C127.87 27.2437 128.049 27.4234 128.269 27.4234Z" fill="#442F2F"/>
<path d="M140.411 25.7742C140.778 25.7742 141.075 25.4754 141.075 25.1069C141.075 24.7383 140.778 24.4395 140.411 24.4395C140.044 24.4395 139.747 24.7383 139.747 25.1069C139.747 25.4754 140.044 25.7742 140.411 25.7742Z" fill="#442F2F"/>
<path d="M132.703 22.6151C132.844 22.6151 132.959 22.4999 132.959 22.3577C132.959 22.2156 132.844 22.1003 132.703 22.1003C132.561 22.1003 132.447 22.2156 132.447 22.3577C132.447 22.4999 132.561 22.6151 132.703 22.6151Z" fill="#442F2F"/>
<path d="M152.683 25.8791C152.754 25.8791 152.811 25.8215 152.811 25.7504C152.811 25.6792 152.754 25.6216 152.683 25.6216C152.612 25.6216 152.555 25.6792 152.555 25.7504C152.555 25.8215 152.612 25.8791 152.683 25.8791Z" fill="#442F2F"/>
<path d="M128.669 22.3578C128.81 22.3578 128.925 22.2426 128.925 22.1004C128.925 21.9583 128.81 21.843 128.669 21.843C128.527 21.843 128.413 21.9583 128.413 22.1004C128.413 22.2426 128.527 22.3578 128.669 22.3578Z" fill="#442F2F"/>
<path d="M147.457 29.4081C147.599 29.4081 147.713 29.2929 147.713 29.1507C147.713 29.0086 147.599 28.8933 147.457 28.8933C147.316 28.8933 147.201 29.0086 147.201 29.1507C147.201 29.2929 147.316 29.4081 147.457 29.4081Z" fill="#442F2F"/>
<path d="M143.492 27.0322C143.605 27.0322 143.696 26.9401 143.696 26.8265C143.696 26.7129 143.605 26.6208 143.492 26.6208C143.379 26.6208 143.287 26.7129 143.287 26.8265C143.287 26.9401 143.379 27.0322 143.492 27.0322Z" fill="#442F2F"/>
<path fill-rule="evenodd" clip-rule="evenodd" d="M113.355 34.4319C112.689 34.4319 112.142 33.7107 112.142 32.8236V32.8121C112.142 25.6613 115.251 22.4569 124.215 19.8842L125.44 19.6125C128.241 18.9911 131.084 18.5785 133.946 18.3779L136.834 18.1755L144.104 18.6792C148.377 19.4793 152.843 20.4024 156.145 23.2301C158.722 25.4371 159.852 28.2006 159.854 32.8151C159.853 33.706 159.303 34.4319 158.641 34.4319H113.355ZM161.152 32.8084C161.148 26.7391 158.704 22.9109 154.616 20.3492C151.742 18.5478 148.333 17.8888 144.989 17.3188L144.104 17.1681L140.911 16.924C137.919 16.6953 134.914 16.6992 131.922 16.9355L128.979 17.1681L123.964 17.8397C116.861 19.1829 110.844 24.7139 110.844 32.8121V32.8236C110.844 34.6439 111.965 36.1406 113.355 36.1406H158.641C160.03 36.1406 161.143 34.6401 161.152 32.8353C161.152 32.8314 161.152 32.8275 161.152 32.8236" fill="#442F2F"/>
<path fill-rule="evenodd" clip-rule="evenodd" d="M60.0154 17.2385C57.8374 14.682 56.3632 11.5489 56.6096 8.03814C57.3193 -2.07725 71.4003 0.148003 74.1393 5.25338C76.8783 10.3588 76.5529 23.309 73.0129 24.2215C71.6012 24.5853 68.5938 23.694 65.5329 21.849L67.4542 35.441H56.11L60.0154 17.2385Z" fill="#57331F"/>
<path fill-rule="evenodd" clip-rule="evenodd" d="M66.1001 9.15519C66.5343 15.204 67.683 18.2285 69.5461 18.2285C72.3409 18.2285 74.7121 16.4542 75.9384 16.4542C76.8323 16.4542 76.6328 17.5729 76.0402 18.4023C75.5513 19.0866 73.1706 19.7462 73.1706 20.8071C73.1706 21.8679 75.0516 21.0472 75.0516 21.6764C75.0516 22.7171 75.3822 24.674 73.5758 24.674C71.7478 24.674 66.5063 24.0078 65.6081 21.2946C65.0284 19.5436 64.6536 15.9152 64.4837 10.4093C64.3728 10.3961 64.2599 10.3894 64.1455 10.3894C62.5792 10.3894 61.3094 11.6591 61.3094 13.2254C61.3094 14.0205 61.6367 14.7392 62.1638 15.2542C61.5076 16.1804 60.7721 17.148 59.9294 18.1465C56.7635 16.247 54.4142 10.6867 57.5094 5.34515C58.3649 2.72843 60.3017 1.33073 62.5891 0.681742C64.442 -0.0933388 66.3655 -0.18073 67.9893 0.283924C71.1722 0.556935 74.0144 1.52749 74.8199 2.10389C74.8199 5.11727 74.236 6.01133 69.2488 5.93252C68.0234 6.5797 67.0813 7.69413 66.1001 9.15519Z" fill="black"/>
<path fill-rule="evenodd" clip-rule="evenodd" d="M55.2 74.5557L78.3995 133.274L93.9595 182.916H100.104L76.316 74.5557L55.2 74.5557Z" fill="#3D2216"/>
<path fill-rule="evenodd" clip-rule="evenodd" d="M50.5284 74.5557C50.2814 95.1897 46.6786 122.97 46.103 124.256C45.7192 125.114 32.4721 136.018 6.36163 156.97L10.5936 161.498C41.4015 143.535 57.5183 133.356 58.944 130.96C61.0824 127.366 68.0445 94.2959 73.6342 74.5557H50.5284Z" fill="#57331F"/>
<path fill-rule="evenodd" clip-rule="evenodd" d="M5.79563 155.458C4.37435 155.96 3.39528 156.436 2.85842 156.887C2.20548 157.435 1.34394 158.343 0.273812 159.612C0.909399 160.369 6.62153 167.177 17.4102 180.034C19.61 179.093 20.3002 177.991 19.4806 176.731C18.6611 175.47 17.9904 174.414 17.4685 173.563L13.7353 160.52C13.6635 160.269 13.4018 160.124 13.1508 160.196C13.1465 160.197 13.1422 160.198 13.138 160.2L11.1459 160.832C9.76388 160.187 8.7952 159.534 8.2399 158.873C7.78873 158.335 7.38281 157.41 7.02215 156.098C6.88374 155.595 6.36344 155.299 5.86002 155.438C5.83832 155.443 5.81684 155.45 5.79563 155.458Z" fill="#FAAB35"/>
<path fill-rule="evenodd" clip-rule="evenodd" d="M91.4436 180.624C90.9148 182.036 90.6504 183.092 90.6504 183.793C90.6504 184.645 90.7924 185.889 91.0764 187.524C92.0652 187.524 100.952 187.524 117.736 187.524C118.429 185.234 118.029 183.997 116.536 183.815C115.043 183.632 113.804 183.467 112.816 183.32L100.425 177.796C100.187 177.69 99.9073 177.797 99.801 178.035C99.7992 178.039 99.7974 178.043 99.7957 178.048L98.9993 179.98C97.6175 180.624 96.4946 180.947 95.6307 180.947C94.9289 180.947 93.9595 180.663 92.7228 180.096C92.2482 179.879 91.687 180.087 91.4695 180.562C91.4601 180.582 91.4515 180.603 91.4436 180.624Z" fill="#FAAB35"/>
<path fill-rule="evenodd" clip-rule="evenodd" d="M70.7982 177.803L100.011 174.632L78.3609 74.5557H52.1958L70.7982 177.803Z" fill="#69A1AC"/>
<path fill-rule="evenodd" clip-rule="evenodd" d="M12.4043 149.663L31.5664 172.345C51.7495 150.301 63.5162 135.918 66.8667 129.195C70.2172 122.471 73.2291 104.258 75.9025 74.5557H46.4452C44.9849 100.687 44.0006 114.36 43.4922 115.576C42.9838 116.792 32.6212 128.155 12.4043 149.663Z" fill="#89C5CC"/>
<path fill-rule="evenodd" clip-rule="evenodd" d="M96.546 68.6944L109.936 81.7567C113.832 83.4185 117.024 85.2535 119.512 87.2616C120.072 87.9366 120.681 89.23 118.048 88.6512C115.415 88.0725 112.62 87.5821 112.125 88.4384C111.63 89.2946 113.088 90.6067 112.174 91.7272C111.564 92.4743 109.514 90.098 106.022 84.5985L92.0988 76.3894L96.546 68.6944ZM31.07 56.8726L41.4203 56.9114C33.5372 82.4516 29.3526 95.8241 28.8665 97.0288C27.7728 99.7393 30.0872 103.867 31.077 106.086C27.8534 107.528 28.1969 102.186 24.1303 104.078C20.4186 105.805 17.5951 108.934 13.3067 106.288C12.7794 105.963 12.2017 104.738 13.5976 103.78C17.0754 101.396 22.0871 97.2221 22.7643 95.8484C23.6877 93.975 26.4563 80.983 31.07 56.8726Z" fill="#57331F"/>
<path fill-rule="evenodd" clip-rule="evenodd" d="M62.6091 27.5113L66.6963 26.8102C73.135 49.5702 106.217 65.0844 108.247 73.5926C108.992 76.7128 106.747 78.2901 107.907 79.2405L102.594 83.1296C101.694 82.0799 99.7744 84 95.7652 82.6569C91.756 81.3138 62.6091 54.4611 62.6091 27.5113Z" fill="#DE5901"/>
<path fill-rule="evenodd" clip-rule="evenodd" d="M69.4844 30.5372C69.0132 60.6697 86.4321 68.356 82.5522 80.444C79.3482 90.426 48.6806 101.157 43.3737 91.3719C41.2256 87.4112 40.251 82.6209 40.1404 77.4129C38.7841 81.4141 37.7114 84.8585 36.9223 87.7464C35.561 92.7284 30.2837 93.5203 30.2837 95.4395L23.3309 93.5203C23.8025 90.9129 20.5248 89.6433 21.4036 83.8182C25.3413 57.7186 35.9213 38.7997 53.1436 27.0617L53.3217 24.5138C53.3946 23.4721 54.2981 22.6867 55.3397 22.7596L68.0707 23.6498C69.1124 23.7226 69.8978 24.6261 69.8249 25.6678L69.4844 30.5372Z" fill="#FF6A07"/>
</svg>
