<svg width="35" height="46" viewBox="0 0 35 46" fill="none" xmlns="http://www.w3.org/2000/svg">
<path d="M6.48483 27.5067C6.38946 27.5055 6.23081 27.4796 6.00888 27.4291C5.68751 27.379 5.42137 27.1769 5.25058 26.9001C5.01224 26.5138 4.80424 26.0483 4.62658 25.5036C4.38203 24.7373 4.18609 23.9002 4.03875 22.9921C3.89161 22.0681 3.78443 21.1287 3.71718 20.174C3.64993 19.2192 3.60591 18.3124 3.58513 17.4537C3.57389 16.9758 2.25216 15.6061 0.884203 14.1124C-0.46214 12.6424 0.614002 10.7704 2.6014 10.9248L7.10657 11.2749C8.55975 11.3879 9.52775 12.6671 9.12296 14.0673C8.63487 15.7558 8.04256 17.6605 7.98669 18.2494C7.89477 19.218 7.84311 20.1474 7.8317 21.0375C7.82253 21.7528 7.83709 22.4764 7.8754 23.2082C7.88565 23.3431 7.89698 23.4807 7.90941 23.6213C8.0038 24.6884 9.10295 25.4467 9.88313 24.7125C10.3659 24.2576 10.7544 23.7141 11.0487 23.082C11.3591 22.4341 11.5824 21.7534 11.7188 21.0397C11.8551 20.326 11.9277 19.6274 11.9364 18.9439C11.9381 18.8168 11.9321 18.6656 11.9184 18.4906C11.9208 18.2998 11.901 17.9896 11.8588 17.5598C11.8467 17.3538 11.9309 16.583 12.0165 15.7271C12.1401 14.4912 13.4627 13.517 14.6576 13.8562C15.461 14.0842 15.9945 14.8445 15.9357 15.6776L15.1992 26.1093C15.1545 26.7431 14.6526 27.2486 14.0191 27.2981C13.3198 27.3526 12.7063 26.8354 12.6418 26.1369L12.348 22.9541C12.3431 22.9006 12.2986 22.8595 12.2449 22.8588C12.2013 22.8583 12.1618 22.8851 12.1457 22.9256C11.4933 24.567 10.6999 25.7424 9.76544 26.4518C8.81822 27.171 7.72469 27.5226 6.48483 27.5067Z" fill="#FAAB35"/>
<path fill-rule="evenodd" clip-rule="evenodd" d="M4.53591 25.5332L4.53572 25.5326C4.28956 24.7613 4.0926 23.9194 3.94461 23.0074L3.94456 23.0071C3.79698 22.0803 3.68948 21.1381 3.62204 20.1807C3.55471 19.2246 3.51061 18.3164 3.48979 17.456L3.48979 17.4559C3.48883 17.4153 3.47312 17.3556 3.43542 17.2742C3.3984 17.1943 3.34343 17.1003 3.27154 16.9932C3.12776 16.7788 2.92157 16.5194 2.67091 16.2259C2.29209 15.7822 1.81688 15.2665 1.31158 14.7181C1.14808 14.5407 0.981429 14.3598 0.813875 14.1768C0.116445 13.4153 0.0378753 12.5359 0.40916 11.8634C0.779046 11.1934 1.5836 10.7501 2.60881 10.8298L7.11397 11.1799C8.62202 11.297 9.63764 12.6304 9.21461 14.0938C9.11 14.4557 9.00087 14.8266 8.89331 15.1922C8.74936 15.6814 8.60822 16.1611 8.48451 16.5968C8.26745 17.3611 8.10858 17.9747 8.08165 18.2584C7.98997 19.2247 7.93846 20.1514 7.92708 21.0388C7.91794 21.7516 7.93245 22.4727 7.97061 23.2021C7.9808 23.3362 7.99207 23.4731 8.00444 23.6129C8.04906 24.1173 8.33136 24.5458 8.6883 24.7607C9.04059 24.9727 9.46269 24.9771 9.81774 24.6431C10.2913 24.1969 10.6728 23.6635 10.9623 23.0417L10.9627 23.0408C11.2695 22.4004 11.4903 21.7275 11.6251 21.0218C11.7605 20.3133 11.8324 19.6203 11.8411 18.9427C11.8427 18.8193 11.8368 18.6712 11.8233 18.498L11.823 18.4937L11.823 18.4894C11.8254 18.3043 11.806 17.9986 11.7639 17.5691L11.7637 17.5672L11.7636 17.5653C11.757 17.4534 11.7761 17.2004 11.806 16.8783C11.827 16.653 11.8538 16.3886 11.8824 16.1056C11.8952 15.9794 11.9084 15.8495 11.9216 15.7176C11.9865 15.0686 12.3653 14.4928 12.8797 14.1235C13.3943 13.7541 14.0533 13.5855 14.6836 13.7644C15.5305 14.0048 16.0928 14.8061 16.0308 15.6843L15.2944 26.116C15.2463 26.7969 14.7071 27.3401 14.0266 27.3931C13.2752 27.4517 12.6161 26.8961 12.5469 26.1456L12.253 22.9628C12.2526 22.958 12.2486 22.9543 12.2437 22.9542C12.2401 22.9542 12.2361 22.9565 12.2343 22.9608C11.5785 24.6108 10.7767 25.8038 9.82313 26.5278C8.85823 27.2604 7.74375 27.6183 6.48362 27.6021C6.37763 27.6008 6.21127 27.5729 5.99086 27.5228C5.63899 27.4668 5.35172 27.2456 5.16942 26.9501C4.92623 26.556 4.71534 26.0833 4.53591 25.5332ZM6.00889 27.4291C6.23082 27.4796 6.38947 27.5055 6.48484 27.5067C7.7247 27.5226 8.81823 27.171 9.76545 26.4518C10.6999 25.7424 11.4933 24.567 12.1457 22.9256C12.1618 22.8851 12.2013 22.8583 12.2449 22.8588C12.2986 22.8595 12.3431 22.9006 12.348 22.9541L12.6418 26.1369C12.7063 26.8354 13.3198 27.3526 14.0192 27.2981C14.6526 27.2486 15.1545 26.7431 15.1992 26.1093L15.9357 15.6776C15.9945 14.8445 15.4611 14.0842 14.6576 13.8562C13.4627 13.517 12.1401 14.4912 12.0165 15.7271C12.0033 15.8593 11.9901 15.9894 11.9773 16.1157C11.9072 16.8076 11.8486 17.3856 11.8588 17.5598C11.901 17.9896 11.9209 18.2998 11.9184 18.4906C11.9321 18.6656 11.9381 18.8167 11.9364 18.9439C11.9277 19.6274 11.8551 20.326 11.7188 21.0397C11.5825 21.7534 11.3591 22.4341 11.0487 23.082C10.7545 23.7141 10.3659 24.2576 9.88315 24.7125C9.10296 25.4467 8.00381 24.6884 7.90943 23.6213C7.897 23.4807 7.88566 23.3431 7.87541 23.2082C7.8371 22.4764 7.82254 21.7528 7.83171 21.0375C7.84313 20.1474 7.89479 19.218 7.9867 18.2494C8.03064 17.7864 8.40625 16.5097 8.80208 15.1643C8.90963 14.7988 9.01868 14.4281 9.12298 14.0673C9.52776 12.6671 8.55977 11.3879 7.10658 11.2749L2.60142 10.9248C0.614014 10.7704 -0.462128 12.6424 0.884215 14.1124C1.05116 14.2947 1.21742 14.4751 1.38069 14.6523C2.55526 15.9271 3.57527 17.0341 3.58514 17.4537C3.60593 18.3124 3.64994 19.2192 3.71719 20.174C3.78444 21.1287 3.89163 22.0681 4.03876 22.9921C4.1861 23.9002 4.38204 24.7373 4.62659 25.5036C4.80425 26.0483 5.01225 26.5138 5.25059 26.9001C5.42138 27.1769 5.68752 27.379 6.00889 27.4291Z" fill="#FAAB35"/>
<path d="M32.5068 27.5774C31.7855 27.6347 31.1528 27.1 31.089 26.3792L30.3319 17.8225C30.2253 16.6185 31.0787 15.5413 32.2752 15.3695C33.7696 15.155 35.0548 16.4287 34.8537 17.9251L33.7092 26.4387C33.6265 27.054 33.1257 27.5283 32.5068 27.5774Z" fill="#FAAB35"/>
<path fill-rule="evenodd" clip-rule="evenodd" d="M30.994 26.3876L30.2369 17.8309C30.1258 16.5764 31.015 15.4541 32.2616 15.2751C33.8187 15.0516 35.1577 16.3787 34.9482 17.9378L33.8037 26.4514C33.7151 27.1112 33.1781 27.6198 32.5144 27.6725C31.7409 27.734 31.0624 27.1606 30.994 26.3876ZM31.089 26.3792C31.1528 27.1 31.7855 27.6347 32.5068 27.5774C33.1257 27.5283 33.6265 27.054 33.7092 26.4387L34.8536 17.9251C35.0548 16.4288 33.7696 15.155 32.2752 15.3695C31.0787 15.5413 30.2253 16.6185 30.3319 17.8225L31.089 26.3792Z" fill="#FAAB35"/>
<path d="M18.7738 27.439C17.3804 27.5237 16.2657 26.2985 16.4813 24.9193L17.8466 16.1872C17.9771 15.3525 18.6224 14.6922 19.4539 14.5427C20.7033 14.318 21.8389 15.3094 21.7848 16.5777L21.6812 19.0085C21.6782 19.0808 21.7355 19.1414 21.8079 19.1423C21.858 19.1429 21.904 19.1141 21.9258 19.0689C22.5545 17.7608 23.2718 16.7219 24.0774 15.952C24.8983 15.1676 25.7538 14.7811 26.6439 14.7926C26.6959 14.7932 26.7476 14.7953 26.799 14.7988C27.283 14.8315 27.6995 15.1407 27.9293 15.568C28.1171 15.9173 28.2843 16.3262 28.4307 16.7948C28.6752 17.5611 28.8709 18.4141 29.0179 19.354C29.1648 20.2939 29.2717 21.2571 29.3385 22.2436C29.4056 23.2143 29.4493 24.1449 29.4697 25.0355C29.472 25.1341 29.4741 25.2312 29.4761 25.3267C29.4989 26.4427 28.6319 27.3615 27.5185 27.4399C26.266 27.5282 25.2081 26.5269 25.2077 25.2714C25.2075 24.6705 25.2035 24.1125 25.1956 23.5975C25.1783 22.4685 25.1438 21.4347 25.0923 20.496C25.0717 19.9427 25.0432 19.3865 25.0066 18.8276C24.9663 18.2103 24.355 17.8467 23.8576 18.2147C23.4722 18.5118 23.0765 18.9996 22.6703 19.678C22.2642 20.3564 21.8783 21.3133 21.5127 22.5487C21.2645 23.377 21.0398 24.3779 20.8385 25.5516C20.6619 26.5815 19.8168 27.3756 18.7738 27.439Z" fill="#FAAB35"/>
<path fill-rule="evenodd" clip-rule="evenodd" d="M23.8576 18.2147C23.4722 18.5118 23.0765 18.9996 22.6703 19.678C22.2642 20.3564 21.8783 21.3133 21.5127 22.5487C21.2645 23.377 21.0398 24.3779 20.8385 25.5516C20.6619 26.5815 19.8168 27.3756 18.7738 27.439C17.3804 27.5237 16.2657 26.2985 16.4813 24.9193L17.8466 16.1872C17.9771 15.3525 18.6224 14.6922 19.4539 14.5427C20.7033 14.318 21.8389 15.3094 21.7848 16.5777L21.6812 19.0085C21.6782 19.0808 21.7355 19.1414 21.8079 19.1423C21.858 19.1429 21.904 19.1141 21.9258 19.0689C22.5545 17.7608 23.2717 16.7218 24.0774 15.952C24.8983 15.1676 25.7538 14.7811 26.6439 14.7926C26.6959 14.7932 26.7476 14.7953 26.799 14.7988C27.283 14.8315 27.6995 15.1407 27.9293 15.568C28.1171 15.9172 28.2843 16.3262 28.4307 16.7948C28.6752 17.561 28.8709 18.4141 29.0179 19.354C29.1648 20.2939 29.2717 21.2571 29.3385 22.2436C29.4056 23.2143 29.4493 24.1449 29.4697 25.0355C29.472 25.1341 29.4741 25.2312 29.4761 25.3267C29.4989 26.4426 28.6319 27.3615 27.5185 27.4399C26.266 27.5282 25.2081 26.5269 25.2077 25.2714C25.2075 24.6705 25.2035 24.1125 25.1956 23.5975C25.1782 22.4685 25.1438 21.4347 25.0923 20.496C25.0717 19.9427 25.0432 19.3865 25.0066 18.8276C24.9663 18.2102 24.355 17.8467 23.8576 18.2147ZM29.565 25.0332C29.5673 25.1319 29.5695 25.2291 29.5714 25.3248C29.5953 26.4933 28.6875 27.4532 27.5252 27.5351C26.2167 27.6273 25.1127 26.5813 25.1123 25.2714C25.1121 24.6709 25.1081 24.1134 25.1002 23.599C25.0829 22.471 25.0485 21.4384 24.997 20.5013L24.997 20.5004L24.9969 20.4996C24.9764 19.9471 24.9479 19.3919 24.9115 18.8339C24.8933 18.5555 24.7472 18.3404 24.5572 18.235C24.3697 18.131 24.1332 18.1298 23.9151 18.2908C23.5435 18.5776 23.1553 19.0537 22.7522 19.727C22.3519 20.3956 21.9687 21.3439 21.6041 22.5758L21.604 22.5761C21.3573 23.3996 21.1333 24.3966 20.9325 25.5677C20.7488 26.639 19.869 27.468 18.7796 27.5342C17.3254 27.6226 16.1621 26.3439 16.3871 24.9045L17.7523 16.1724C17.8891 15.2975 18.5655 14.6056 19.437 14.4488C20.7465 14.2133 21.9368 15.2524 21.8801 16.5817L21.7765 19.0125C21.7757 19.0311 21.7905 19.0467 21.8091 19.0469C21.8218 19.0471 21.834 19.0397 21.8398 19.0276C22.4721 17.7121 23.1955 16.6628 24.0115 15.883C24.8452 15.0864 25.7237 14.6854 26.6452 14.6972C26.6988 14.6979 26.7523 14.7 26.8055 14.7036C27.3273 14.7389 27.7705 15.0715 28.0133 15.5228C28.2046 15.8784 28.3738 16.2931 28.5216 16.7661M29.565 25.0332C29.5446 24.1411 29.5008 23.2091 29.4337 22.2371L29.565 25.0332Z" fill="#FAAB35"/>
<path d="M33.7075 14.2647C32.9435 14.8837 32.0261 14.9914 31.3027 14.197C30.3851 13.0531 31.1269 12.3399 31.1577 12.3037C31.7121 11.652 31.9968 11.6398 32.8773 11.698C33.6591 11.7497 34.2074 12.6254 34.1412 13.4061C34.1134 13.7347 34.0694 13.9715 33.7075 14.2647Z" fill="#FAAB35"/>
<path fill-rule="evenodd" clip-rule="evenodd" d="M32.4887 14.6655C32.8768 14.6608 33.277 14.4907 33.6475 14.1906C33.8197 14.0511 33.9101 13.9302 33.9622 13.8106C34.0152 13.6892 34.0323 13.5615 34.0462 13.3981C34.0773 13.0315 33.9637 12.6394 33.7492 12.3334C33.5348 12.0277 33.2261 11.8166 32.871 11.7931C32.4266 11.7638 32.1539 11.7547 31.9233 11.8258C31.6986 11.8951 31.5033 12.0446 31.2303 12.3655C31.2289 12.3672 31.2263 12.3699 31.2229 12.3736C31.1843 12.4153 31.0305 12.5812 30.9675 12.8562C30.9003 13.1496 30.9339 13.5838 31.3752 14.135C31.7201 14.5127 32.1044 14.6701 32.4887 14.6655ZM31.3027 14.197C32.0261 14.9914 32.9435 14.8837 33.7075 14.2647C34.0694 13.9715 34.1134 13.7347 34.1412 13.4061C34.2074 12.6254 33.6591 11.7497 32.8773 11.698C31.9968 11.6398 31.7121 11.652 31.1577 12.3037C31.1565 12.305 31.1544 12.3073 31.1514 12.3105C31.074 12.3936 30.4192 13.0957 31.3027 14.197Z" fill="#FAAB35"/>
<path d="M29.2746 30.1483C29.5377 30.2009 29.8994 30.3588 30.3598 30.6219C30.8202 30.8718 31.2806 31.1612 31.741 31.49C32.2146 31.8057 32.6289 32.1214 32.9841 32.4371C33.3393 32.7397 33.5497 32.9567 33.6155 33.0883C33.6681 33.2198 33.6879 33.4632 33.6747 33.8183C33.6616 34.1735 33.6221 34.6076 33.5563 35.1206C33.4905 35.6205 33.405 36.173 33.2998 36.7781C33.1946 37.3832 33.0762 37.9948 32.9446 38.6131C32.8131 39.2182 32.6684 39.8101 32.5106 40.3889C32.3659 40.9545 32.2146 41.4544 32.0567 41.8885C31.991 42.099 31.8463 42.3292 31.6226 42.5791C31.399 42.829 31.1359 43.079 30.8334 43.3289C30.5308 43.5657 30.2086 43.7893 29.8665 43.9998C29.5377 44.2102 29.222 44.3878 28.9194 44.5325C28.63 44.6772 28.367 44.7759 28.1302 44.8285C27.9066 44.8811 27.7553 44.8679 27.6764 44.789C27.5974 44.7101 27.5119 44.4602 27.4198 44.0392C27.3409 43.6051 27.262 43.0658 27.1831 42.4213C27.1041 41.7635 27.0318 41.0335 26.966 40.2311C26.9003 39.4155 26.8411 38.5868 26.7884 37.7449C26.7358 36.903 26.6898 36.0809 26.6503 35.2785C26.624 34.4629 26.6043 33.7328 26.5911 33.0883C26.5911 32.4306 26.6043 31.8847 26.6306 31.4506C26.6569 31.0033 26.7029 30.7337 26.7687 30.6416C26.8213 30.5758 26.9529 30.51 27.1633 30.4443C27.387 30.3785 27.6303 30.3193 27.8934 30.2667C28.1696 30.2141 28.4393 30.1746 28.7024 30.1483C28.9655 30.122 29.1562 30.122 29.2746 30.1483ZM29.1562 32.6542C29.0641 32.72 28.9984 32.9239 28.9589 33.2659C28.9194 33.5947 28.8865 33.9959 28.8602 34.4695C28.8471 34.9299 28.8405 35.4232 28.8405 35.9493C28.8405 36.4755 28.8339 36.9556 28.8208 37.3897C28.7945 38.521 28.7813 39.4155 28.7813 40.0732C28.7945 40.7178 28.8076 41.2045 28.8208 41.5333C28.8471 41.849 28.88 42.0529 28.9194 42.145C28.9589 42.2239 29.0115 42.2634 29.0773 42.2634C29.1299 42.2634 29.2154 42.2239 29.3338 42.145C29.4653 42.0661 29.6035 41.9674 29.7482 41.849C29.8929 41.7306 30.031 41.6057 30.1625 41.4741C30.2941 41.3294 30.3861 41.2045 30.4388 41.0992C30.4914 40.994 30.5571 40.7901 30.6361 40.4876C30.715 40.1719 30.7939 39.8101 30.8728 39.4023C30.9518 38.9814 31.0307 38.5407 31.1096 38.0803C31.1885 37.6068 31.2543 37.1595 31.3069 36.7386C31.3727 36.3045 31.4187 35.923 31.4451 35.5942C31.4845 35.2522 31.5043 35.0088 31.5043 34.8641C31.4911 34.5879 31.3793 34.3051 31.1688 34.0157C30.9583 33.7263 30.715 33.4698 30.4388 33.2461C30.1757 33.0225 29.9126 32.8515 29.6495 32.7331C29.3996 32.6147 29.2351 32.5884 29.1562 32.6542Z" fill="url(#paint0_linear_150_58)"/>
<path d="M19.2708 32.1017C19.3366 31.9833 19.4747 31.832 19.6851 31.6479C19.8956 31.4506 20.1455 31.2533 20.4349 31.0559C20.7375 30.8586 21.0598 30.681 21.4018 30.5232C21.7438 30.3522 22.0858 30.2404 22.4278 30.1878C22.783 30.122 23.1118 30.1351 23.4144 30.2272C23.7301 30.3061 23.9997 30.4903 24.2234 30.7797C24.3418 30.9244 24.4536 31.2138 24.5588 31.6479C24.664 32.082 24.7627 32.6081 24.8548 33.2264C24.96 33.8315 25.0521 34.5089 25.131 35.2587C25.2099 35.9954 25.2757 36.7517 25.3283 37.5279C25.3809 38.2908 25.4138 39.0472 25.427 39.797C25.4533 40.5336 25.4533 41.2176 25.427 41.849C25.4138 42.4673 25.3744 43 25.3086 43.4473C25.256 43.8814 25.1705 44.1839 25.0521 44.3549C24.8153 44.6969 24.447 44.9271 23.9471 45.0455C23.4473 45.1639 22.9211 45.1639 22.3686 45.0455C21.8161 44.9403 21.29 44.7167 20.7901 44.3747C20.2902 44.0326 19.9219 43.5722 19.6851 42.9935C19.5273 42.612 19.3957 42.0924 19.2905 41.4347C19.1984 40.777 19.1261 40.0666 19.0735 39.3037C19.0208 38.5276 18.988 37.7383 18.9748 36.9359C18.9748 36.1335 18.9814 35.3969 18.9945 34.726C19.0208 34.042 19.0537 33.4632 19.0932 32.9896C19.1458 32.5161 19.205 32.2201 19.2708 32.1017ZM23.1381 42.1055C23.2171 42.0266 23.2697 41.8161 23.296 41.4741C23.3355 41.119 23.3552 40.7046 23.3552 40.2311C23.3683 39.7443 23.3683 39.2313 23.3552 38.692C23.3552 38.1527 23.3552 37.6528 23.3552 37.1924C23.3552 36.0217 23.3157 35.114 23.2368 34.4695C23.1579 33.8249 23.0658 33.3448 22.9606 33.0291C22.8422 32.6608 22.7106 32.4306 22.5659 32.3385C22.3686 32.3779 22.2042 32.4437 22.0726 32.5358C21.9411 32.6147 21.8359 32.7068 21.7569 32.812C21.6649 32.9304 21.5925 33.0554 21.5399 33.1869C21.5004 33.3053 21.4544 33.5355 21.4018 33.8775C21.3623 34.2195 21.3228 34.6273 21.2834 35.1009C21.2439 35.5613 21.2045 36.0677 21.165 36.6202C21.1387 37.1595 21.1124 37.6923 21.0861 38.2185C21.0729 38.7446 21.0598 39.2445 21.0466 39.718C21.0466 40.1784 21.0532 40.5599 21.0663 40.8625C21.0926 41.3229 21.1979 41.6583 21.382 41.8688C21.5794 42.0792 21.7898 42.2174 22.0134 42.2831C22.2371 42.3357 22.4541 42.3357 22.6646 42.2831C22.8882 42.2305 23.0461 42.1713 23.1381 42.1055Z" fill="url(#paint1_linear_150_58)"/>
<path d="M11.4769 32.1017C11.5427 31.9833 11.6808 31.832 11.8912 31.6479C12.1017 31.4506 12.3516 31.2533 12.641 31.0559C12.9436 30.8586 13.2659 30.681 13.6079 30.5232C13.9499 30.3522 14.2919 30.2404 14.6339 30.1878C14.9891 30.122 15.3179 30.1351 15.6205 30.2272C15.9362 30.3061 16.2058 30.4903 16.4295 30.7797C16.5479 30.9244 16.6597 31.2138 16.7649 31.6479C16.8701 32.082 16.9688 32.6081 17.0609 33.2264C17.1661 33.8315 17.2582 34.5089 17.3371 35.2587C17.416 35.9954 17.4818 36.7517 17.5344 37.5279C17.587 38.2908 17.6199 39.0472 17.6331 39.797C17.6594 40.5336 17.6594 41.2176 17.6331 41.849C17.6199 42.4673 17.5805 43 17.5147 43.4473C17.4621 43.8814 17.3766 44.1839 17.2582 44.3549C17.0214 44.6969 16.6531 44.9271 16.1532 45.0455C15.6534 45.1639 15.1272 45.1639 14.5747 45.0455C14.0222 44.9403 13.4961 44.7167 12.9962 44.3747C12.4963 44.0326 12.128 43.5722 11.8912 42.9935C11.7334 42.612 11.6018 42.0924 11.4966 41.4347C11.4045 40.777 11.3322 40.0666 11.2796 39.3037C11.2269 38.5276 11.1941 37.7383 11.1809 36.9359C11.1809 36.1335 11.1875 35.3969 11.2006 34.726C11.2269 34.042 11.2598 33.4632 11.2993 32.9896C11.3519 32.5161 11.4111 32.2201 11.4769 32.1017ZM15.3442 42.1055C15.4232 42.0266 15.4758 41.8161 15.5021 41.4741C15.5416 41.119 15.5613 40.7046 15.5613 40.2311C15.5744 39.7443 15.5744 39.2313 15.5613 38.692C15.5613 38.1527 15.5613 37.6528 15.5613 37.1924C15.5613 36.0217 15.5218 35.114 15.4429 34.4695C15.364 33.8249 15.2719 33.3448 15.1667 33.0291C15.0483 32.6608 14.9167 32.4306 14.772 32.3385C14.5747 32.3779 14.4103 32.4437 14.2787 32.5358C14.1472 32.6147 14.042 32.7068 13.963 32.812C13.871 32.9304 13.7986 33.0554 13.746 33.1869C13.7065 33.3053 13.6605 33.5355 13.6079 33.8775C13.5684 34.2195 13.5289 34.6273 13.4895 35.1009C13.45 35.5613 13.4106 36.0677 13.3711 36.6202C13.3448 37.1595 13.3185 37.6923 13.2922 38.2185C13.279 38.7446 13.2659 39.2445 13.2527 39.718C13.2527 40.1784 13.2593 40.5599 13.2724 40.8625C13.2987 41.3229 13.404 41.6583 13.5881 41.8688C13.7855 42.0792 13.9959 42.2174 14.2195 42.2831C14.4432 42.3357 14.6602 42.3357 14.8707 42.2831C15.0943 42.2305 15.2522 42.1713 15.3442 42.1055Z" fill="url(#paint2_linear_150_58)"/>
<path d="M6.9781 38.6525C6.9781 38.8235 6.97153 39.0932 6.95837 39.4615C6.95837 39.8298 6.95179 40.2442 6.93864 40.7046C6.92549 41.165 6.90575 41.6451 6.87945 42.145C6.86629 42.6317 6.83998 43.0789 6.80052 43.4867C6.76106 43.8814 6.71502 44.2102 6.6624 44.4733C6.62294 44.7364 6.57032 44.8679 6.50455 44.8679C6.30723 44.8679 6.1165 44.7298 5.93234 44.4536C5.76133 44.1642 5.58375 43.8551 5.39959 43.5262C5.36013 43.4473 5.31409 43.2171 5.26147 42.8356C5.22201 42.441 5.17597 41.9477 5.12335 41.3557C5.08389 40.7638 5.04442 40.1061 5.00496 39.3826C4.9655 38.6591 4.92603 37.9225 4.88657 37.1727C4.84711 36.4229 4.81422 35.6862 4.78791 34.9628C4.77476 34.2393 4.76161 33.5881 4.74845 33.0093C4.7353 32.4306 4.7353 31.9504 4.74845 31.569C4.76161 31.1743 4.78791 30.9441 4.82738 30.8784C4.87999 30.7863 5.06415 30.7205 5.37986 30.681C5.69556 30.6284 6.07703 30.6021 6.52428 30.6021C6.98468 30.6021 7.47797 30.6153 8.00414 30.6416C8.53031 30.6679 9.01702 30.7073 9.46426 30.76C9.92466 30.7994 10.3061 30.8455 10.6087 30.8981C10.9244 30.9507 11.102 30.9967 11.1414 31.0362C11.1941 31.0888 11.2006 31.2335 11.1612 31.4703C11.1349 31.6939 11.0822 31.9438 11.0033 32.2201C10.9375 32.4832 10.852 32.7331 10.7468 32.9699C10.6547 33.2067 10.5758 33.3579 10.51 33.4237C10.4443 33.4895 10.1351 33.4829 9.58265 33.404C9.04333 33.325 8.17514 33.233 6.9781 33.1277V36.4229C7.8989 36.5018 8.61581 36.5742 9.12883 36.6399C9.655 36.7057 9.93124 36.7517 9.95755 36.778C10.0102 36.8307 10.0299 36.9359 10.0167 37.0938C10.0036 37.2516 9.9707 37.4226 9.91809 37.6068C9.86547 37.7778 9.7997 37.9422 9.72077 38.1001C9.64185 38.2448 9.56292 38.3434 9.48399 38.396C9.44453 38.4223 9.20775 38.4618 8.77366 38.5144C8.35273 38.567 7.75421 38.6131 6.9781 38.6525Z" fill="url(#paint3_linear_150_58)"/>
<path d="M13.8994 30.6376C13.8869 30.6218 13.8671 30.6149 13.848 30.6196C13.7367 30.6479 13.6321 30.7155 13.5455 30.8149L13.5111 30.8544L13.5074 30.801C13.5062 30.7823 13.5049 30.7635 13.5037 30.7445C13.484 30.4426 13.4617 30.1004 13.2099 29.894C12.8089 29.5649 12.6235 29.3003 12.5387 29.1361C12.5288 29.1172 12.5091 29.1061 12.4888 29.1083C12.4684 29.1105 12.4511 29.1252 12.4449 29.1459C12.4019 29.2885 12.3555 29.4904 12.3784 29.6423C12.3968 29.7633 12.4761 29.8864 12.553 30.0057C12.6402 30.1411 12.7227 30.269 12.6985 30.3778C12.6871 30.4293 12.6522 30.4728 12.5948 30.5071C12.5552 30.5308 12.5154 30.5423 12.4763 30.5415C12.3993 30.5397 12.3255 30.4879 12.2684 30.3956C12.2037 30.291 12.1663 30.1457 12.1731 30.0255C12.174 30.0084 12.1672 29.9918 12.1548 29.9808C12.1422 29.9698 12.1255 29.9658 12.1098 29.9699C12.0234 29.9925 11.9391 30.0448 11.8725 30.1173C11.7799 30.218 11.7301 30.3451 11.736 30.466C11.7431 30.6097 11.8158 30.7384 11.886 30.8629C11.9482 30.9729 12.0124 31.0867 12.0249 31.2056C12.0328 31.2803 12.0202 31.3372 11.9876 31.3749C11.9675 31.3981 11.929 31.4254 11.8598 31.4238C11.7795 31.422 11.6788 31.3829 11.5905 31.3192C11.5748 31.3079 11.5545 31.3067 11.5376 31.3161C11.5208 31.3255 11.5103 31.344 11.5103 31.3641C11.5104 31.6806 11.6072 31.9645 11.7904 32.1852C11.9936 32.4301 12.2856 32.5691 12.6126 32.5766C12.7457 32.5796 12.8838 32.5609 13.023 32.5211C13.485 32.3889 13.8156 31.8894 13.7757 31.3839C13.7641 31.2376 13.7775 30.9992 13.9067 30.6942C13.9147 30.6754 13.9118 30.6535 13.8994 30.6376Z" fill="#FF6A07"/>
<path d="M15.9697 29.6886C15.9579 29.6731 15.9383 29.6658 15.9191 29.6695C15.8069 29.6917 15.6999 29.7514 15.6097 29.842L15.574 29.8779L15.5722 29.8272C15.5716 29.8095 15.5711 29.7917 15.5705 29.7736C15.5618 29.4871 15.5519 29.1624 15.3079 28.9567C14.9191 28.6289 14.7435 28.3709 14.6647 28.2121C14.6556 28.1937 14.6363 28.1825 14.6159 28.1838C14.5954 28.1849 14.5776 28.1982 14.5706 28.2175C14.5225 28.3507 14.4688 28.5399 14.4863 28.6846C14.5002 28.7998 14.575 28.9196 14.6474 29.0356C14.7297 29.1673 14.8075 29.2918 14.7794 29.3938C14.7661 29.442 14.7296 29.4817 14.671 29.5119C14.6306 29.5327 14.5904 29.542 14.5514 29.5396C14.4746 29.5348 14.4027 29.4827 14.349 29.393C14.2881 29.2914 14.256 29.1524 14.2672 29.0389C14.2687 29.0227 14.2625 29.0067 14.2505 28.9958C14.2384 28.9849 14.2218 28.9804 14.2059 28.9837C14.1188 29.0015 14.0327 29.0476 13.9635 29.1135C13.8673 29.2051 13.813 29.3233 13.8144 29.4379C13.8163 29.5742 13.8843 29.699 13.95 29.8197C14.0081 29.9264 14.0681 30.0367 14.0763 30.1497C14.0815 30.2207 14.0669 30.2741 14.0329 30.3084C14.0119 30.3295 13.9725 30.3538 13.9034 30.3495C13.8232 30.3445 13.724 30.3034 13.6381 30.2395C13.6229 30.2282 13.6026 30.2262 13.5854 30.2344C13.5683 30.2426 13.5571 30.2597 13.5564 30.2787C13.5449 30.5782 13.6314 30.8509 13.8064 31.0672C14.0006 31.3073 14.2873 31.4508 14.6138 31.4711C14.7466 31.4794 14.8852 31.4674 15.0258 31.4354C15.4922 31.3291 15.8406 30.8699 15.8191 30.3898C15.8129 30.2509 15.8349 30.0259 15.975 29.7425C15.9837 29.725 15.9816 29.7041 15.9697 29.6886Z" fill="#FF6A07"/>
<path d="M17.1702 31.2874C17.1694 31.2679 17.1577 31.2507 17.1398 31.2427C17.0352 31.1963 16.9134 31.1835 16.7875 31.2058L16.7376 31.2146L16.7653 31.1721C16.775 31.1573 16.7849 31.1423 16.7948 31.1273C16.9525 30.8879 17.1312 30.6166 17.0499 30.308C16.9205 29.8163 16.9254 29.5042 16.9522 29.3289C16.9553 29.3087 16.946 29.2884 16.9286 29.2777C16.9112 29.2669 16.889 29.2674 16.8722 29.2792C16.7561 29.3605 16.6034 29.4844 16.5344 29.6128C16.4795 29.715 16.4718 29.856 16.4643 29.9926C16.4558 30.1477 16.4478 30.2942 16.3662 30.3614C16.3276 30.3932 16.2749 30.4048 16.2096 30.3957C16.1646 30.3895 16.1264 30.374 16.0959 30.3496C16.0358 30.3014 16.0069 30.2175 16.0146 30.1132C16.0233 29.9951 16.077 29.8629 16.1514 29.7765C16.162 29.7642 16.1661 29.7476 16.1625 29.7317C16.1589 29.7158 16.1479 29.7026 16.133 29.6961C16.0516 29.6606 15.9546 29.6488 15.8601 29.6628C15.7287 29.6824 15.6163 29.7478 15.5515 29.8424C15.4747 29.955 15.4585 30.0962 15.4428 30.2327C15.4289 30.3534 15.4146 30.4781 15.3563 30.5753C15.3197 30.6363 15.277 30.6716 15.2294 30.6801C15.2001 30.6854 15.1539 30.6825 15.0999 30.6392C15.0372 30.589 14.9797 30.4983 14.9462 30.3967C14.9402 30.3786 14.9247 30.3654 14.906 30.3622C14.8872 30.359 14.8683 30.3665 14.8568 30.3817C14.6751 30.6201 14.589 30.8929 14.6076 31.1705C14.6283 31.4786 14.7803 31.7609 15.0357 31.9654C15.1395 32.0486 15.2599 32.1185 15.3932 32.1731C15.8359 32.3545 16.3851 32.1793 16.6436 31.7743C16.7184 31.6571 16.8659 31.4857 17.1436 31.3345C17.1607 31.3252 17.171 31.3069 17.1702 31.2874Z" fill="#FF6A07"/>
<path d="M21.6134 30.5745C21.601 30.5587 21.5811 30.5518 21.5621 30.5565C21.4508 30.5848 21.3462 30.6524 21.2595 30.7518L21.2252 30.7913L21.2215 30.7378C21.2202 30.7192 21.219 30.7004 21.2178 30.6814C21.198 30.3795 21.1757 30.0373 20.924 29.8309C20.523 29.5018 20.3376 29.2371 20.2527 29.073C20.2429 29.054 20.2232 29.043 20.2029 29.0452C20.1824 29.0474 20.1651 29.0621 20.1589 29.0828C20.1159 29.2254 20.0695 29.4273 20.0925 29.5792C20.1108 29.7002 20.1902 29.8233 20.267 29.9426C20.3543 30.078 20.4367 30.2059 20.4126 30.3147C20.4012 30.3662 20.3663 30.4097 20.3088 30.444C20.2693 30.4677 20.2295 30.4792 20.1904 30.4783C20.1134 30.4766 20.0395 30.4248 19.9825 30.3325C19.9178 30.2278 19.8804 30.0826 19.8871 29.9624C19.8881 29.9453 19.8813 29.9287 19.8688 29.9177C19.8563 29.9067 19.8396 29.9027 19.8238 29.9068C19.7375 29.9293 19.6532 29.9817 19.5866 30.0542C19.4939 30.1549 19.4442 30.282 19.45 30.4029C19.4571 30.5466 19.5298 30.6753 19.6001 30.7998C19.6622 30.9098 19.7265 31.0236 19.739 31.1425C19.7469 31.2171 19.7343 31.2741 19.7017 31.3118C19.6816 31.335 19.6431 31.3623 19.5738 31.3607C19.4935 31.3589 19.3929 31.3198 19.3045 31.2561C19.2889 31.2448 19.2685 31.2436 19.2517 31.253C19.2349 31.2624 19.2243 31.2809 19.2244 31.301C19.2244 31.6175 19.3213 31.9014 19.5044 32.1221C19.7077 32.367 19.9997 32.506 20.3267 32.5134C20.4598 32.5165 20.5978 32.4978 20.7371 32.458C21.1991 32.3257 21.5297 31.8262 21.4897 31.3208C21.4782 31.1745 21.4916 30.9361 21.6208 30.6311C21.6287 30.6123 21.6259 30.5904 21.6134 30.5745Z" fill="#FF6A07"/>
<path d="M23.6838 29.6255C23.6719 29.61 23.6523 29.6027 23.6332 29.6064C23.5209 29.6286 23.414 29.6883 23.3238 29.7789L23.288 29.8148L23.2863 29.7641C23.2857 29.7464 23.2851 29.7285 23.2846 29.7105C23.2758 29.424 23.266 29.0993 23.0219 28.8936C22.6332 28.5658 22.4576 28.3078 22.3788 28.149C22.3696 28.1306 22.3503 28.1194 22.3299 28.1207C22.3095 28.1218 22.2917 28.1351 22.2847 28.1544C22.2366 28.2876 22.1829 28.4768 22.2003 28.6215C22.2142 28.7367 22.289 28.8565 22.3615 28.9725C22.4438 29.1042 22.5215 29.2287 22.4934 29.3306C22.4802 29.3789 22.4437 29.4186 22.385 29.4488C22.3447 29.4696 22.3045 29.4789 22.2655 29.4765C22.1886 29.4717 22.1167 29.4196 22.063 29.3299C22.0022 29.2283 21.9701 29.0892 21.9812 28.9758C21.9828 28.9596 21.9766 28.9436 21.9645 28.9327C21.9524 28.9218 21.9359 28.9173 21.92 28.9206C21.8328 28.9384 21.7468 28.9845 21.6776 29.0504C21.5813 29.142 21.527 29.2602 21.5285 29.3748C21.5304 29.5111 21.5983 29.6359 21.664 29.7566C21.7221 29.8633 21.7822 29.9735 21.7904 30.0866C21.7955 30.1576 21.7809 30.211 21.7469 30.2453C21.726 30.2664 21.6866 30.2907 21.6174 30.2864C21.5373 30.2814 21.4381 30.2403 21.3522 30.1764C21.3369 30.1651 21.3166 30.1631 21.2995 30.1713C21.2823 30.1795 21.2711 30.1966 21.2704 30.2156C21.259 30.5151 21.3454 30.7878 21.5204 31.0041C21.7146 31.2442 22.0013 31.3876 22.3278 31.408C22.4606 31.4163 22.5993 31.4043 22.7398 31.3723C23.2062 31.266 23.5547 30.8067 23.5331 30.3267C23.5269 30.1878 23.5489 29.9628 23.6891 29.6794C23.6977 29.6619 23.6957 29.641 23.6838 29.6255Z" fill="#FF6A07"/>
<path d="M24.8843 31.2243C24.8835 31.2048 24.8717 31.1875 24.8539 31.1796C24.7493 31.1332 24.6275 31.1204 24.5016 31.1426L24.4517 31.1515L24.4794 31.109C24.4891 31.0942 24.4989 31.0792 24.5089 31.0642C24.6665 30.8248 24.8453 30.5535 24.764 30.2449C24.6346 29.7532 24.6394 29.4411 24.6663 29.2658C24.6694 29.2456 24.6601 29.2252 24.6427 29.2146C24.6252 29.2037 24.603 29.2043 24.5862 29.2161C24.4702 29.2974 24.3175 29.4213 24.2485 29.5496C24.1936 29.6519 24.1859 29.7929 24.1784 29.9295C24.1699 30.0846 24.1619 30.2311 24.0803 30.2983C24.0417 30.3301 23.989 30.3417 23.9237 30.3326C23.8787 30.3264 23.8405 30.3109 23.81 30.2865C23.7498 30.2383 23.721 30.1544 23.7287 30.0501C23.7374 29.932 23.7911 29.7998 23.8655 29.7134C23.8761 29.7011 23.8802 29.6844 23.8766 29.6686C23.873 29.6527 23.862 29.6395 23.8471 29.633C23.7656 29.5975 23.6687 29.5856 23.5742 29.5997C23.4428 29.6193 23.3303 29.6847 23.2656 29.7793C23.1887 29.8919 23.1725 30.0331 23.1568 30.1696C23.143 30.2903 23.1286 30.415 23.0703 30.5122C23.0337 30.5732 22.991 30.6085 22.9435 30.617C22.9142 30.6223 22.868 30.6194 22.8139 30.5761C22.7512 30.5259 22.6938 30.4352 22.6602 30.3336C22.6543 30.3155 22.6388 30.3022 22.62 30.2991C22.6013 30.2959 22.5823 30.3034 22.5708 30.3186C22.3892 30.557 22.303 30.8298 22.3217 31.1074C22.3424 31.4155 22.4944 31.6978 22.7497 31.9022C22.8536 31.9854 22.9739 32.0554 23.1073 32.11C23.5499 32.2914 24.0991 32.1162 24.3577 31.7112C24.4325 31.594 24.58 31.4226 24.8576 31.2714C24.8748 31.2621 24.8851 31.2438 24.8843 31.2243Z" fill="#FF6A07"/>
<path d="M32.5909 30.3342C32.5826 30.3165 32.5651 30.3051 32.5455 30.3046C32.4312 30.3021 32.3139 30.3373 32.2062 30.4063L32.1636 30.4337L32.1728 30.3838C32.176 30.3664 32.1793 30.3488 32.1827 30.3311C32.236 30.0494 32.2964 29.7302 32.1025 29.4768C31.7936 29.0728 31.6778 28.783 31.6351 28.6109C31.6301 28.591 31.6137 28.5759 31.5935 28.5727C31.5733 28.5695 31.553 28.5786 31.5421 28.5959C31.4663 28.7156 31.3731 28.8888 31.3589 29.0338C31.3476 29.1493 31.3949 29.2824 31.4406 29.4113C31.4925 29.5577 31.5416 29.696 31.4921 29.7895C31.4688 29.8337 31.4246 29.8647 31.3608 29.8815C31.3169 29.8931 31.2757 29.8935 31.2381 29.8827C31.1641 29.8614 31.1051 29.7951 31.072 29.6959C31.0346 29.5835 31.0332 29.4409 31.0685 29.3325C31.0736 29.317 31.071 29.3001 31.0615 29.2869C31.0521 29.2736 31.0369 29.2656 31.0206 29.2654C30.9317 29.264 30.8378 29.2904 30.7559 29.3398C30.6422 29.4085 30.5637 29.5122 30.5404 29.6245C30.5128 29.758 30.5523 29.8945 30.5904 30.0265C30.6241 30.1432 30.6589 30.2638 30.6426 30.376C30.6323 30.4464 30.6065 30.4954 30.5659 30.5216C30.5409 30.5377 30.4972 30.5529 30.4306 30.5337C30.3534 30.5116 30.2654 30.45 30.1953 30.3691C30.1829 30.3548 30.1635 30.3485 30.1449 30.3528C30.1264 30.3571 30.1118 30.3713 30.107 30.3897C30.0313 30.6797 30.0568 30.9646 30.181 31.2137C30.3188 31.49 30.5679 31.6919 30.8823 31.7822C31.0102 31.819 31.1482 31.8371 31.2923 31.8362C31.7706 31.833 32.21 31.4598 32.2925 30.9864C32.3164 30.8494 32.3864 30.6344 32.5844 30.388C32.5966 30.3728 32.5991 30.3519 32.5909 30.3342Z" fill="#FF6A07"/>
<path d="M31.1601 29.6666C31.1519 29.6489 31.1344 29.6375 31.1148 29.637C31.0004 29.6345 30.8831 29.6696 30.7755 29.7386L30.7328 29.766L30.7421 29.7161C30.7453 29.6987 30.7486 29.6811 30.752 29.6635C30.8053 29.3818 30.8657 29.0626 30.6718 28.8091C30.3629 28.4052 30.2471 28.1153 30.2044 27.9433C30.1994 27.9234 30.183 27.9082 30.1628 27.9051C30.1426 27.9018 30.1223 27.9109 30.1113 27.9282C30.0356 28.048 29.9424 28.2211 29.9282 28.3661C29.9169 28.4817 29.9641 28.6148 30.0098 28.7437C30.0618 28.89 29.8568 29.1215 29.8074 29.215C29.784 29.2593 29.9939 29.197 29.9301 29.2138C29.8862 29.2254 29.8449 29.2258 29.8074 29.215C29.7334 29.1938 29.6744 29.1274 29.6413 29.0283C29.6038 28.9159 29.6025 28.7732 29.6378 28.6648C29.6428 28.6494 29.6403 28.6324 29.6308 28.6192C29.6214 28.6059 29.6062 28.598 29.5899 28.5977C29.501 28.5963 29.407 28.6227 29.3252 28.6722C29.2115 28.7408 29.1329 28.8446 29.1097 28.9568C29.0821 29.0903 29.1215 29.2268 29.1597 29.3588C29.1934 29.4755 29.2282 29.5961 29.2118 29.7083C29.2016 29.7787 29.1758 29.8277 29.1352 29.8539C29.1102 29.87 29.0664 29.8852 28.9999 29.8661C28.9227 29.8439 28.8347 29.7824 28.7646 29.7015C28.7521 29.6871 28.7327 29.6808 28.7142 29.6851C28.6957 29.6894 28.6811 29.7037 28.6763 29.7221C28.6005 30.0121 28.6261 30.297 28.7503 30.546C28.8881 30.8223 29.1372 31.0242 29.4515 31.1146C29.5795 31.1513 29.7174 31.1695 29.8616 31.1685C30.3399 31.1654 30.7792 30.7921 30.8618 30.3188C30.8856 30.1818 30.9557 29.9668 31.1537 29.7203C31.1659 29.7051 31.1684 29.6843 31.1601 29.6666Z" fill="#FF6A07"/>
<path d="M29.7294 29.8573C29.7212 29.8396 29.7036 29.8282 29.6841 29.8277C29.5697 29.8252 29.4524 29.8604 29.3448 29.9294L29.3021 29.9568L29.3113 29.9069C29.3146 29.8895 29.3179 29.8719 29.3213 29.8542C29.3745 29.5725 29.4349 29.2533 29.241 28.9999C28.9321 28.5959 28.8164 28.3061 28.7736 28.134C28.7687 28.1141 28.7523 28.099 28.7321 28.0958C28.7118 28.0925 28.6916 28.1016 28.6806 28.119C28.6049 28.2387 28.5116 28.4119 28.4974 28.5569C28.4862 28.6724 28.5334 28.8055 28.5791 28.9344C28.631 29.0808 28.6801 29.2191 28.6307 29.3126C28.6073 29.3568 28.5631 29.3878 28.4994 29.4046C28.4555 29.4161 28.4142 29.4166 28.3767 29.4058C28.3026 29.3845 28.2436 29.3182 28.2106 29.219C28.1731 29.1066 28.1717 28.964 28.2071 28.8556C28.2121 28.8401 28.2095 28.8232 28.2001 28.8099C28.1906 28.7967 28.1754 28.7887 28.1592 28.7885C28.0703 28.7871 27.9763 28.8135 27.8945 28.8629C27.7808 28.9316 27.7022 29.0353 27.6789 29.1475C27.6514 29.2811 27.6908 29.4175 27.7289 29.5496C27.7626 29.6663 27.7975 29.7869 27.7811 29.8991C27.7708 29.9695 27.745 30.0185 27.7044 30.0447C27.6794 30.0608 27.6357 30.0759 27.5691 30.0568C27.4919 30.0346 27.404 29.9731 27.3338 29.8922C27.3214 29.8779 27.302 29.8716 27.2835 29.8759C27.265 29.8802 27.2504 29.8944 27.2455 29.9128C27.1698 30.2028 27.1954 30.4877 27.3196 30.7368C27.4574 31.0131 27.7064 31.215 28.0208 31.3053C28.1487 31.3421 28.2867 31.3602 28.4308 31.3593C28.9092 31.3561 29.3485 30.9829 29.431 30.5095C29.4549 30.3725 29.5249 30.1575 29.7229 29.911C29.7351 29.8958 29.7376 29.875 29.7294 29.8573Z" fill="#FF6A07"/>
<path d="M33.7021 31.1339C33.6951 31.1166 33.6793 31.1057 33.6615 31.1057C33.5571 31.106 33.4491 31.1439 33.3491 31.2151L33.3095 31.2433L33.3191 31.1935C33.3225 31.1762 33.326 31.1587 33.3295 31.141C33.3852 30.86 33.4483 30.5416 33.2776 30.2948C33.0056 29.9015 32.9071 29.6166 32.8724 29.4468C32.8684 29.4272 32.8538 29.4126 32.8354 29.4099C32.817 29.4072 32.7983 29.4167 32.7878 29.4342C32.7157 29.555 32.6262 29.7292 32.6097 29.8736C32.5965 29.9885 32.6363 30.1195 32.6748 30.2463C32.7186 30.3904 32.7599 30.5264 32.7124 30.6205C32.69 30.665 32.6489 30.6968 32.5902 30.7151C32.5499 30.7277 32.5122 30.7291 32.4782 30.7194C32.4111 30.7001 32.3589 30.6357 32.3312 30.5381C32.2998 30.4275 32.3021 30.2858 32.3371 30.1774C32.342 30.1619 32.3401 30.1451 32.3318 30.1322C32.3235 30.1193 32.3098 30.1118 32.295 30.1119C32.2138 30.1127 32.1274 30.1413 32.0514 30.1924C31.9459 30.2634 31.8716 30.3684 31.8475 30.4804C31.819 30.6137 31.8516 30.7482 31.8831 30.8783C31.911 30.9933 31.9398 31.1122 31.922 31.224C31.9109 31.2941 31.8861 31.3434 31.8484 31.3705C31.8252 31.3871 31.7849 31.4032 31.7245 31.3859C31.6546 31.3658 31.5758 31.3069 31.5138 31.2284C31.5028 31.2144 31.4852 31.2087 31.4682 31.2134C31.4512 31.2181 31.4375 31.2326 31.4327 31.251C31.3562 31.5408 31.3725 31.8231 31.4797 32.0672C31.5986 32.3381 31.821 32.5323 32.1058 32.6142C32.2217 32.6475 32.3472 32.6621 32.4789 32.6575C32.9158 32.6424 33.3262 32.2609 33.4134 31.7889C33.4386 31.6523 33.5079 31.4371 33.6949 31.1874C33.7064 31.172 33.7092 31.1513 33.7021 31.1339Z" fill="#FF6A07"/>
<path d="M11.062 30.048C11.0538 30.0304 11.0363 30.019 11.0167 30.0185C10.9023 30.0159 10.785 30.0511 10.6774 30.1201L10.6347 30.1475L10.644 30.0976C10.6472 30.0802 10.6505 30.0626 10.6539 30.0449C10.7072 29.7633 10.7676 29.444 10.5737 29.1906C10.2648 28.7867 10.149 28.4968 10.1063 28.3248C10.1013 28.3048 10.0849 28.2897 10.0647 28.2865C10.0445 28.2833 10.0242 28.2924 10.0132 28.3097C9.93751 28.4295 9.84426 28.6026 9.83009 28.7476C9.81881 28.8631 9.86604 28.9962 9.91175 29.1251C9.96367 29.2715 10.0127 29.4098 9.96331 29.5033C9.93995 29.5475 9.89576 29.5785 9.832 29.5953C9.7881 29.6069 9.74685 29.6073 9.7093 29.5965C9.63526 29.5752 9.57627 29.5089 9.54322 29.4098C9.50574 29.2974 9.50437 29.1547 9.53972 29.0463C9.54475 29.0309 9.54215 29.0139 9.53271 29.0007C9.52325 28.9874 9.50806 28.9795 9.49181 28.9792C9.40291 28.9778 9.30893 29.0042 9.22712 29.0536C9.11341 29.1223 9.03485 29.226 9.01157 29.3383C8.98402 29.4718 9.02344 29.6083 9.06156 29.7403C9.09526 29.857 9.1301 29.9776 9.11374 30.0898C9.10347 30.1602 9.07766 30.2092 9.03708 30.2354C9.01208 30.2515 8.96835 30.2667 8.90177 30.2476C8.82456 30.2254 8.7366 30.1638 8.66646 30.0829C8.65403 30.0686 8.63464 30.0623 8.61611 30.0666C8.59759 30.0709 8.58299 30.0852 8.57819 30.1036C8.50243 30.3936 8.52802 30.6785 8.65222 30.9275C8.79003 31.2038 9.03906 31.4057 9.35344 31.4961C9.48137 31.5328 9.61933 31.551 9.76348 31.55C10.2418 31.5469 10.6811 31.1736 10.7637 30.7002C10.7875 30.5633 10.8576 30.3483 11.0556 30.1018C11.0678 30.0866 11.0703 30.0657 11.062 30.048Z" fill="#FF6A07"/>
<path d="M8.8274 29.4444C8.8146 29.4307 8.79459 29.4251 8.77567 29.4296C8.66505 29.4568 8.56201 29.5183 8.47765 29.6077L8.44418 29.6431L8.43927 29.5961C8.4376 29.5798 8.43592 29.5632 8.43428 29.5465C8.40769 29.281 8.3776 28.9801 8.12123 28.8034C7.71281 28.5216 7.52148 28.2922 7.4329 28.1494C7.42264 28.1329 7.40268 28.1235 7.38242 28.1259C7.36205 28.1282 7.3451 28.1415 7.33935 28.1599C7.29962 28.2863 7.25781 28.4651 7.28424 28.5984C7.3053 28.7045 7.38745 28.8114 7.46698 28.9149C7.5573 29.0324 7.64264 29.1434 7.62097 29.2397C7.61073 29.2852 7.57681 29.3242 7.52017 29.3557C7.48117 29.3773 7.44164 29.3882 7.40257 29.3883C7.32553 29.3883 7.25053 29.3441 7.19138 29.264C7.12432 29.1731 7.0836 29.0459 7.08765 28.94C7.08821 28.9249 7.08104 28.9104 7.06831 28.901C7.05556 28.8915 7.03876 28.8883 7.02307 28.8923C6.93724 28.9138 6.85421 28.9616 6.78923 29.0268C6.6989 29.1174 6.65204 29.2303 6.66066 29.3366C6.67105 29.4631 6.74664 29.5749 6.81974 29.6832C6.88435 29.7788 6.95115 29.8777 6.9664 29.9822C6.97597 30.0478 6.96469 30.0982 6.93293 30.1321C6.91335 30.1529 6.87551 30.1777 6.80624 30.1777C6.7259 30.1777 6.62437 30.1453 6.53463 30.091C6.51871 30.0813 6.49833 30.0807 6.48172 30.0893C6.46512 30.0979 6.45501 30.1144 6.45547 30.1321C6.46275 30.4108 6.56603 30.6589 6.75416 30.8496C6.96292 31.0612 7.25803 31.1778 7.58513 31.1778C7.71823 31.1778 7.85584 31.1586 7.99412 31.1207C8.45299 30.995 8.77214 30.5485 8.72074 30.1041C8.70585 29.9755 8.7138 29.7653 8.83602 29.4941C8.84356 29.4774 8.84021 29.4581 8.8274 29.4444Z" fill="#FF6A07"/>
<path d="M4.05118 30.0042C4.05823 29.9848 4.07603 29.9705 4.09712 29.967C4.22069 29.9472 4.35139 29.9656 4.47514 30.0203L4.52424 30.0419L4.509 29.9921C4.50365 29.9748 4.49822 29.9572 4.4927 29.9395C4.40543 29.6585 4.30646 29.3399 4.48975 29.0506C4.78169 28.5894 4.87657 28.2745 4.90475 28.0914C4.90802 28.0702 4.92419 28.0522 4.94571 28.0459C4.96729 28.0395 4.99017 28.0458 5.00387 28.062C5.09845 28.1735 5.21761 28.3372 5.2482 28.4839C5.27256 28.6007 5.23542 28.7445 5.19948 28.8837C5.15866 29.0417 5.12008 29.1911 5.18342 29.2796C5.21336 29.3215 5.26445 29.3466 5.33526 29.3543C5.384 29.3595 5.4287 29.3537 5.46822 29.337C5.54614 29.304 5.60302 29.227 5.62839 29.1203C5.65715 28.9993 5.64363 28.8527 5.59397 28.7467C5.5869 28.7316 5.58793 28.7138 5.59675 28.6988C5.6056 28.6838 5.62121 28.6733 5.63877 28.6706C5.73487 28.6558 5.8394 28.6688 5.93317 28.7072C6.06349 28.7605 6.15945 28.8552 6.19645 28.9669C6.24032 29.0998 6.21198 29.2458 6.1846 29.3871C6.16038 29.5119 6.13534 29.641 6.16485 29.7536C6.18337 29.8243 6.21647 29.8708 6.26316 29.8915C6.29191 29.9043 6.34085 29.9133 6.41092 29.8836C6.49218 29.8492 6.58093 29.7728 6.64836 29.6792C6.66031 29.6626 6.68065 29.6533 6.70116 29.6549C6.72166 29.6565 6.73896 29.6689 6.7461 29.6871C6.85861 29.9734 6.86085 30.2697 6.75257 30.544C6.63243 30.8483 6.38405 31.0931 6.05319 31.2332C5.91855 31.2901 5.7711 31.3296 5.61494 31.3503C5.09674 31.4191 4.58189 31.1021 4.44277 30.6287C4.40252 30.4917 4.30408 30.2816 4.06382 30.0584C4.049 30.0446 4.04411 30.0236 4.05118 30.0042Z" fill="#FF6A07"/>
<path d="M21.4215 1.68148C21.5194 2.20395 21.3545 2.62883 20.8335 2.68365C20.1122 2.70978 19.9672 2.16672 19.9583 2.14207C19.8136 1.74364 20.0024 0.974827 20.224 0.427016C20.3914 0.0131415 20.771 0.0542443 20.9749 0.451392C21.2205 0.92975 21.3523 1.31192 21.4215 1.68148Z" fill="#FAAB35"/>
<path fill-rule="evenodd" clip-rule="evenodd" d="M21.2752 2.31343C21.3557 2.16102 21.3745 1.9484 21.3278 1.69905C21.2605 1.34029 21.1324 0.966884 20.89 0.494959C20.7966 0.313027 20.6751 0.235786 20.5802 0.230293C20.4934 0.225262 20.3866 0.279319 20.3124 0.462777C20.2036 0.73177 20.1031 1.05467 20.0476 1.35773C19.9914 1.66509 19.9847 1.93547 20.0479 2.10952C20.0484 2.11082 20.0491 2.11289 20.0499 2.11564C20.0596 2.1456 20.0958 2.25764 20.1982 2.36655C20.3068 2.48193 20.496 2.59961 20.8268 2.58845C21.0576 2.56334 21.1981 2.45968 21.2752 2.31343ZM20.8335 2.68365C21.3545 2.62882 21.5194 2.20395 21.4215 1.68148C21.3523 1.31192 21.2205 0.92975 20.9749 0.451392C20.771 0.0542444 20.3914 0.0131415 20.224 0.427016C20.0024 0.974827 19.8136 1.74364 19.9583 2.14207C19.9586 2.14299 19.9591 2.14463 19.9598 2.14693C19.9788 2.20637 20.139 2.7088 20.8335 2.68365Z" fill="#FAAB35"/>
<path d="M33.6345 8.66776C33.6345 10.9066 30.7731 12.5784 22.761 8.66776C14.749 4.75712 5.59236 11.5265 5.59236 9.28774C5.59236 7.04894 11.0291 3.2787 19.3273 2.56334C27.387 2.56334 33.6345 6.42895 33.6345 8.66776Z" fill="#FAAB35"/>
<defs>
<linearGradient id="paint0_linear_150_58" x1="30.0954" y1="30.1286" x2="28.8676" y2="65.6448" gradientUnits="userSpaceOnUse">
<stop offset="0.0436803" stop-color="#FF6A07"/>
<stop offset="0.75" stop-color="#994004"/>
</linearGradient>
<linearGradient id="paint1_linear_150_58" x1="22.2108" y1="30.1467" x2="20.8194" y2="66.2701" gradientUnits="userSpaceOnUse">
<stop offset="0.0436803" stop-color="#FF6A07"/>
<stop offset="0.754" stop-color="#994004"/>
</linearGradient>
<linearGradient id="paint2_linear_150_58" x1="14.4169" y1="30.1467" x2="13.0255" y2="66.2701" gradientUnits="userSpaceOnUse">
<stop offset="0.0436803" stop-color="#FF6A07"/>
<stop offset="0.754" stop-color="#994004"/>
</linearGradient>
<linearGradient id="paint3_linear_150_58" x1="7.96256" y1="30.6021" x2="6.69715" y2="64.9902" gradientUnits="userSpaceOnUse">
<stop offset="0.0436803" stop-color="#FF6A07"/>
<stop offset="0.754" stop-color="#994004"/>
</linearGradient>
</defs>
</svg>
