<svg width="200" height="184" viewBox="0 0 200 184" fill="none" xmlns="http://www.w3.org/2000/svg">
<path d="M55.4242 99.0001H20.5759C13.3751 99.0001 7.53784 92.7359 7.53784 84.9796V84.9679C7.53784 83.5908 8.57427 82.4626 9.85275 82.4626H66.1473C67.4258 82.4626 68.4622 83.6025 68.4622 84.9796V84.9679C68.4622 92.7242 62.6249 99.0001 55.4242 99.0001Z" fill="#EAA772"/>
<g opacity="0.25">
<path d="M20.6527 84.9796V84.9679C20.6527 83.5908 21.6891 82.4626 22.9676 82.4626H9.85275C8.57427 82.4626 7.53784 83.5908 7.53784 84.9679V84.9796C7.53784 92.7359 13.3751 99.0001 20.5759 99.0001H33.6907C26.49 99.0001 20.6527 92.7359 20.6527 84.9796Z" fill="#EAA772"/>
<path d="M7.59027 85.1069H68.4071C68.1791 83.7971 67.2547 82.7996 66.1472 82.7996H9.85274C8.74147 82.7996 7.81418 83.7932 7.59027 85.1069Z" fill="#EAA772"/>
</g>
<path fill-rule="evenodd" clip-rule="evenodd" d="M9.85274 83.3317C9.0248 83.3317 8.3447 84.0654 8.3447 84.9679V84.9796C8.3447 92.254 13.819 98.1309 20.5758 98.1309H55.4241C62.1774 98.1309 67.6509 92.2479 67.6553 84.9766C67.6537 84.0702 66.9694 83.3317 66.1472 83.3317H9.85274ZM69.269 84.9833C69.2613 93.2134 63.0648 99.8692 55.4241 99.8692H20.5758C12.9313 99.8692 6.73096 93.2178 6.73096 84.9796V84.9679C6.73096 83.1161 8.12371 81.5935 9.85274 81.5935H66.1472C67.8738 81.5935 69.2572 83.12 69.2689 84.956C69.269 84.9599 69.269 84.9639 69.269 84.9679" fill="#442F2F"/>
<path d="M40.4309 33H35.4037C19.9681 33 7.54065 42.2824 7.54065 53.4759V53.4491C7.54065 55.8503 10.1394 57.77 13.4508 57.77H62.3842C65.6954 57.77 68.4595 55.857 68.4595 53.4557V53.4589C68.4593 42.2657 55.8665 33 40.4309 33Z" fill="#EAA772"/>
<path d="M40.4309 33H35.4037C19.9681 33 7.54065 42.2824 7.54065 53.4759V53.4491C7.54065 55.8503 10.1394 57.77 13.4508 57.77H62.3842C65.6954 57.77 68.4595 55.857 68.4595 53.4557V53.4589C68.4593 42.2657 55.8665 33 40.4309 33Z" fill="#EAA772"/>
<g opacity="0.3">
<path d="M7.54065 53.4764L7.5411 53.4583L7.54065 53.449V53.4764Z" fill="#EAA772"/>
<path d="M44.5375 33.2225C43.173 33.0742 41.8025 33 40.4311 33H35.4039C19.9766 33 7.55419 42.2727 7.54108 53.458C7.54773 55.8551 10.1438 57.77 13.4508 57.77H21.3799V54.0986C23.2605 42.986 31.4904 34.6642 44.5375 33.2225Z" fill="#EAA772"/>
</g>
<path d="M69.6807 75.3751C69.6807 79.2894 66.7349 82.4625 63.1009 82.4625H12.8991C9.26515 82.4625 6.31927 79.2894 6.31927 75.3751C6.31927 71.4608 9.26515 68.2876 12.8991 68.2876H63.1007C66.7349 68.2876 69.6807 71.4608 69.6807 75.3751Z" fill="#6A2A00"/>
<g opacity="0.6">
<path d="M9.73451 77.5719C9.98852 77.5719 10.1944 77.35 10.1944 77.0764C10.1944 76.8028 9.98852 76.5811 9.73451 76.5811C9.48051 76.5811 9.2746 76.8028 9.2746 77.0764C9.2746 77.35 9.48051 77.5719 9.73451 77.5719Z" fill="#442F2F"/>
<path d="M12.8609 79.816C13.1149 79.816 13.3208 79.5942 13.3208 79.3206C13.3208 79.047 13.1149 78.8252 12.8609 78.8252C12.6069 78.8252 12.401 79.047 12.401 79.3206C12.401 79.5942 12.6069 79.816 12.8609 79.816Z" fill="#442F2F"/>
<path d="M10.899 79.816C11.153 79.816 11.3589 79.5942 11.3589 79.3206C11.3589 79.047 11.153 78.8252 10.899 78.8252C10.645 78.8252 10.4391 79.047 10.4391 79.3206C10.4391 79.5942 10.645 79.816 10.899 79.816Z" fill="#442F2F"/>
<path d="M9.73451 75.8546C9.98852 75.8546 10.1944 75.6328 10.1944 75.3592C10.1944 75.0856 9.98852 74.8638 9.73451 74.8638C9.48051 74.8638 9.2746 75.0856 9.2746 75.3592C9.2746 75.6328 9.48051 75.8546 9.73451 75.8546Z" fill="#442F2F"/>
<path d="M12.401 77.0767C12.655 77.0767 12.8609 76.8549 12.8609 76.5813C12.8609 76.3077 12.655 76.0859 12.401 76.0859C12.147 76.0859 11.9411 76.3077 11.9411 76.5813C11.9411 76.8549 12.147 77.0767 12.401 77.0767Z" fill="#442F2F"/>
<path d="M19.6739 78.5626C19.9279 78.5626 20.1339 78.3408 20.1339 78.0672C20.1339 77.7936 19.9279 77.5718 19.6739 77.5718C19.4199 77.5718 19.214 77.7936 19.214 78.0672C19.214 78.3408 19.4199 78.5626 19.6739 78.5626Z" fill="#442F2F"/>
<path d="M28.2005 77.5719C28.4546 77.5719 28.6605 77.35 28.6605 77.0764C28.6605 76.8028 28.4546 76.5811 28.2005 76.5811C27.9465 76.5811 27.7406 76.8028 27.7406 77.0764C27.7406 77.35 27.9465 77.5719 28.2005 77.5719Z" fill="#442F2F"/>
<path d="M60.5133 79.816C60.7673 79.816 60.9732 79.5942 60.9732 79.3206C60.9732 79.047 60.7673 78.8252 60.5133 78.8252C60.2592 78.8252 60.0533 79.047 60.0533 79.3206C60.0533 79.5942 60.2592 79.816 60.5133 79.816Z" fill="#442F2F"/>
<path d="M57.647 79.816C57.901 79.816 58.107 79.5942 58.107 79.3206C58.107 79.047 57.901 78.8252 57.647 78.8252C57.393 78.8252 57.1871 79.047 57.1871 79.3206C57.1871 79.5942 57.393 79.816 57.647 79.816Z" fill="#442F2F"/>
<path d="M55.8725 79.816C56.1265 79.816 56.3325 79.5942 56.3325 79.3206C56.3325 79.047 56.1265 78.8252 55.8725 78.8252C55.6185 78.8252 55.4126 79.047 55.4126 79.3206C55.4126 79.5942 55.6185 79.816 55.8725 79.816Z" fill="#442F2F"/>
<path d="M56.7922 78.5626C57.0462 78.5626 57.2521 78.3408 57.2521 78.0672C57.2521 77.7936 57.0462 77.5718 56.7922 77.5718C56.5382 77.5718 56.3322 77.7936 56.3322 78.0672C56.3322 78.3408 56.5382 78.5626 56.7922 78.5626Z" fill="#442F2F"/>
<path d="M65.3293 75.8546C65.5833 75.8546 65.7892 75.6328 65.7892 75.3592C65.7892 75.0856 65.5833 74.8638 65.3293 74.8638C65.0753 74.8638 64.8694 75.0856 64.8694 75.3592C64.8694 75.6328 65.0753 75.8546 65.3293 75.8546Z" fill="#442F2F"/>
<path d="M64.8693 78.5626C65.1234 78.5626 65.3293 78.3408 65.3293 78.0672C65.3293 77.7936 65.1234 77.5718 64.8693 77.5718C64.6153 77.5718 64.4094 77.7936 64.4094 78.0672C64.4094 78.3408 64.6153 78.5626 64.8693 78.5626Z" fill="#442F2F"/>
<path d="M60.973 75.3595C61.227 75.3595 61.4329 75.1377 61.4329 74.8641C61.4329 74.5905 61.227 74.3687 60.973 74.3687C60.719 74.3687 60.5131 74.5905 60.5131 74.8641C60.5131 75.1377 60.719 75.3595 60.973 75.3595Z" fill="#442F2F"/>
<path d="M44.3781 79.816C44.6321 79.816 44.838 79.5942 44.838 79.3206C44.838 79.047 44.6321 78.8252 44.3781 78.8252C44.1241 78.8252 43.9182 79.047 43.9182 79.3206C43.9182 79.5942 44.1241 79.816 44.3781 79.816Z" fill="#442F2F"/>
<path d="M40.2451 79.816C40.4991 79.816 40.705 79.5942 40.705 79.3206C40.705 79.047 40.4991 78.8252 40.2451 78.8252C39.9911 78.8252 39.7852 79.047 39.7852 79.3206C39.7852 79.5942 39.9911 79.816 40.2451 79.816Z" fill="#442F2F"/>
<path d="M41.8794 79.816C42.1334 79.816 42.3393 79.5942 42.3393 79.3206C42.3393 79.047 42.1334 78.8252 41.8794 78.8252C41.6254 78.8252 41.4195 79.047 41.4195 79.3206C41.4195 79.5942 41.6254 79.816 41.8794 79.816Z" fill="#442F2F"/>
<path d="M35.6637 79.816C35.9177 79.816 36.1236 79.5942 36.1236 79.3206C36.1236 79.047 35.9177 78.8252 35.6637 78.8252C35.4097 78.8252 35.2038 79.047 35.2038 79.3206C35.2038 79.5942 35.4097 79.816 35.6637 79.816Z" fill="#442F2F"/>
<path d="M33.6879 79.0577C33.9419 79.0577 34.1478 78.8359 34.1478 78.5623C34.1478 78.2887 33.9419 78.0669 33.6879 78.0669C33.4338 78.0669 33.2279 78.2887 33.2279 78.5623C33.2279 78.8359 33.4338 79.0577 33.6879 79.0577Z" fill="#442F2F"/>
<path d="M27.5458 79.5533C27.7998 79.5533 28.0057 79.3315 28.0057 79.0579C28.0057 78.7843 27.7998 78.5625 27.5458 78.5625C27.2918 78.5625 27.0858 78.7843 27.0858 79.0579C27.0858 79.3315 27.2918 79.5533 27.5458 79.5533Z" fill="#442F2F"/>
</g>
<g opacity="0.15">
<path d="M19.1063 78.6336V72.1165C19.1063 70.0019 20.6979 68.2876 22.661 68.2876H12.8991C9.26515 68.2876 6.31927 71.4608 6.31927 75.3751C6.31927 79.2894 9.26515 82.4625 12.8991 82.4625H22.661C20.6979 82.4625 19.1063 80.7482 19.1063 78.6336Z" fill="#6A2A00"/>
<path d="M63.1009 69.374H12.8991C9.26515 69.374 6.31927 72.5472 6.31927 76.4615C6.31927 76.5643 6.3225 76.6664 6.32653 76.7681C7.79907 76.3833 9.75896 75.9976 11.7021 75.9976C13.6709 75.9976 14.5921 76.3689 15.6586 76.7987C16.7826 77.2517 18.0566 77.7652 20.4633 77.7652C22.8704 77.7652 24.1416 77.2515 25.2632 76.7985C26.3264 76.3687 27.2448 75.9976 29.213 75.9976C31.1812 75.9976 32.0994 76.3687 33.1626 76.7985C34.2842 77.2515 35.5554 77.7652 37.9625 77.7652C40.3696 77.7652 41.6406 77.2515 42.7618 76.7983C43.825 76.3687 44.7428 75.9976 46.7108 75.9976C48.6785 75.9976 49.5963 76.3687 50.6588 76.7983C51.7799 77.2515 53.0502 77.7652 55.4575 77.7652C57.8645 77.7652 59.1341 77.2515 60.2543 76.7981C61.3159 76.3683 62.2327 75.9974 64.2003 75.9974C66.1578 75.9974 67.0596 76.3655 68.1039 76.7918C68.5531 76.9751 69.0441 77.174 69.6279 77.3434C69.6612 77.0542 69.6803 76.7605 69.6803 76.4615C69.6807 72.5472 66.7349 69.374 63.1009 69.374Z" fill="#6A2A00"/>
</g>
<path fill-rule="evenodd" clip-rule="evenodd" d="M12.8991 69.1567C9.71076 69.1567 7.12613 71.9407 7.12613 75.3751C7.12613 78.8094 9.71076 81.5934 12.8991 81.5934H63.1009C66.2892 81.5934 68.8739 78.8094 68.8739 75.3751C68.8739 71.9408 66.2892 69.1567 63.1007 69.1567H12.8991ZM5.51239 75.3751C5.51239 70.9807 8.81952 67.4185 12.8991 67.4185H63.1007C67.1805 67.4185 70.4876 70.9807 70.4876 75.3751C70.4876 79.7694 67.1805 83.3316 63.1009 83.3316H12.8991C8.81952 83.3316 5.51239 79.7694 5.51239 75.3751Z" fill="#442F2F"/>
<path d="M68.4622 66.7125C68.4622 67.1303 68.3081 67.5309 68.0339 67.8263C67.7597 68.1217 67.3877 68.2876 66.9999 68.2876H9.00009C8.61228 68.2876 8.24035 68.1217 7.96613 67.8263C7.6919 67.5309 7.53784 67.1303 7.53784 66.7125V63.0375C7.53784 62.6197 7.6919 62.2191 7.96613 61.9237C8.24035 61.6283 8.61228 61.4624 9.00009 61.4624H67.0001C67.3879 61.4624 67.7599 61.6283 68.0341 61.9237C68.3083 62.2191 68.4624 62.6197 68.4624 63.0375V66.7125H68.4622Z" fill="#FF6A07"/>
<path d="M68.4622 66.7125C68.4622 67.1303 68.3081 67.5309 68.0339 67.8263C67.7597 68.1217 67.3877 68.2876 66.9999 68.2876H9.00009C8.61228 68.2876 8.24035 68.1217 7.96613 67.8263C7.6919 67.5309 7.53784 67.1303 7.53784 66.7125V63.0375C7.53784 62.6197 7.6919 62.2191 7.96613 61.9237C8.24035 61.6283 8.61228 61.4624 9.00009 61.4624H67.0001C67.3879 61.4624 67.7599 61.6283 68.0341 61.9237C68.3083 62.2191 68.4624 62.6197 68.4624 63.0375V66.7125H68.4622Z" fill="#FF6A07"/>
<path opacity="0.3" d="M18.6109 66.7125V63.0375C18.6109 62.8306 18.6487 62.6258 18.7222 62.4347C18.7957 62.2436 18.9034 62.07 19.0392 61.9237C19.175 61.7775 19.3362 61.6614 19.5136 61.5823C19.691 61.5031 19.8811 61.4624 20.0732 61.4624H9.00009C8.61228 61.4624 8.24035 61.6283 7.96613 61.9237C7.6919 62.2191 7.53784 62.6197 7.53784 63.0375V66.7125C7.53784 67.1303 7.6919 67.5309 7.96613 67.8263C8.24035 68.1217 8.61228 68.2876 9.00009 68.2876H20.0732C19.8811 68.2876 19.691 68.2469 19.5136 68.1677C19.3362 68.0886 19.175 67.9725 19.0392 67.8263C18.9034 67.68 18.7957 67.5064 18.7222 67.3153C18.6487 67.1242 18.6109 66.9194 18.6109 66.7125Z" fill="#FF6A07"/>
<path opacity="0.2" d="M42.1671 61.4626H46.7521V68.2876H42.1671V61.4626ZM48.172 61.4626H49.5065V68.2876H48.172V61.4626Z" fill="white"/>
<path fill-rule="evenodd" clip-rule="evenodd" d="M9.00008 62.3315C8.82626 62.3315 8.65956 62.4059 8.53666 62.5383C8.41374 62.6707 8.3447 62.8502 8.3447 63.0374V66.7125C8.3447 66.8998 8.41375 67.0793 8.53666 67.2117C8.65956 67.3441 8.82626 67.4185 9.00008 67.4185H66.9999C67.1737 67.4185 67.3404 67.3441 67.4633 67.2117C67.5862 67.0793 67.6553 66.8998 67.6553 66.7125C67.6553 66.7059 67.6553 66.6993 67.6555 66.6927V63.0374C67.6555 62.8502 67.5864 62.6707 67.4635 62.5383C67.3406 62.4059 67.1739 62.3315 67.0001 62.3315H9.00008ZM69.2689 66.7376C69.2691 66.7292 69.2692 66.7209 69.2692 66.7125V63.0374C69.2692 62.3892 69.0302 61.7675 68.6046 61.3091C68.1791 60.8508 67.6019 60.5933 67.0001 60.5933H9.00008C8.39827 60.5933 7.82111 60.8508 7.39557 61.3091C6.97003 61.7675 6.73096 62.3892 6.73096 63.0374V66.7125C6.73096 67.3608 6.97003 67.9825 7.39557 68.4408C7.82111 68.8992 8.39827 69.1567 9.00008 69.1567H66.9999C67.6017 69.1567 68.1789 68.8992 68.6044 68.4408C69.0245 67.9884 69.2628 67.3767 69.2689 66.7376Z" fill="#442F2F"/>
<path d="M3 66.227V66.2251C5.28203 61.1309 10.962 57.77 17.2941 57.77H58.7059C65.038 57.77 70.718 61.1309 73 66.2251V66.2259C68.6258 66.2259 68.6258 62.0226 64.2515 62.0226C59.8771 62.0226 59.8771 66.2266 55.5028 66.2266C51.128 66.2266 51.128 62.0231 46.7529 62.0231C42.3779 62.0231 42.3779 66.2268 38.003 66.2268C33.6278 66.2268 33.6278 62.0233 29.2527 62.0233C24.8777 62.0233 24.8777 66.227 20.5026 66.227C16.127 66.227 16.127 62.0233 11.7513 62.0233C7.37566 62.0233 7.37566 66.227 3 66.227Z" fill="#FF6A07"/>
<path d="M65.0517 59.0203C62.6378 57.6868 61.7032 57.7698 58.7059 57.7698H17.2941C10.962 57.7698 5.28203 61.1307 3 66.2249V66.2268C7.37565 66.2268 7.37566 62.0231 11.7513 62.0231C14.5558 62.0231 16.8011 64.5414 18.3148 65.7814L18.7917 65.1928C19.6897 64.0841 20.402 62.8157 20.8968 61.4442C21.4156 60.0065 22.6836 59.0453 24.1156 59.0444L65.0517 59.0203Z" fill="#FF6A07"/>
<path fill-rule="evenodd" clip-rule="evenodd" d="M17.2941 58.6391C11.8552 58.6391 7.01202 61.2137 4.52571 65.121C5.45707 64.7983 6.1069 64.1794 6.83857 63.4765L6.85467 63.461C7.96554 62.3938 9.2558 61.1541 11.7513 61.1541C14.2468 61.1541 15.537 62.3938 16.6479 63.461L16.664 63.4765C17.7373 64.5076 18.6345 65.3579 20.5026 65.3579C22.3704 65.3579 23.2674 64.5077 24.3405 63.4765L24.3567 63.4611C25.4674 62.3938 26.7575 61.1541 29.2527 61.1541C31.7479 61.1541 33.038 62.3937 34.1487 63.4609L34.1649 63.4764C35.238 64.5075 36.1351 65.3577 38.003 65.3577C39.8707 65.3577 40.7676 64.5075 41.8408 63.4763L41.8568 63.4609C42.9675 62.3936 44.2577 61.1539 46.7529 61.1539C49.2482 61.1539 50.5383 62.3935 51.649 63.4608L51.665 63.4762C52.7382 64.5073 53.6352 65.3574 55.5028 65.3574C57.3701 65.3574 58.2669 64.5073 59.3399 63.4761L59.356 63.4606C60.4665 62.3933 61.7565 61.1535 64.2515 61.1535C66.7463 61.1535 68.0363 62.3931 69.1468 63.4602L69.1629 63.4757C69.8939 64.1781 70.5431 64.7966 71.4732 65.1194C68.9866 61.213 64.144 58.6391 58.7059 58.6391H17.2941ZM2.27329 65.8473C4.72063 60.3842 10.7298 56.9009 17.2941 56.9009H58.7059C65.2701 56.9009 71.2793 60.3842 73.7267 65.8473C73.7794 65.9651 73.8069 66.0942 73.8069 66.225V66.2259C73.8069 66.7059 73.4456 67.095 73 67.095C70.5051 67.095 69.2152 65.8554 68.1047 64.7883L68.0886 64.7728C67.0156 63.7418 66.1188 62.8917 64.2515 62.8917C62.3841 62.8917 61.4872 63.7419 60.4142 64.7731L60.3981 64.7886C59.2876 65.8559 57.9977 67.0957 55.5028 67.0957C53.0077 67.0957 51.7177 65.8561 50.607 64.7889L50.5908 64.7734C49.5177 63.7423 48.6207 62.8922 46.7529 62.8922C44.8852 62.8922 43.9881 63.7424 42.915 64.7735L42.8989 64.789C41.7882 65.8563 40.4981 67.0959 38.003 67.0959C35.5077 67.0959 34.2175 65.8563 33.1068 64.7891L33.0907 64.7736C32.0175 63.7425 31.1205 62.8924 29.2527 62.8924C27.385 62.8924 26.4879 63.7426 25.4148 64.7737L25.3987 64.7892C24.288 65.8565 22.9978 67.0961 20.5026 67.0961C18.0071 67.0961 16.7169 65.8565 15.606 64.7892L15.5899 64.7737C14.5166 63.7426 13.6194 62.8924 11.7513 62.8924C9.8832 62.8924 8.98601 63.7426 7.91271 64.7737L7.89662 64.7892C6.78574 65.8565 5.49549 67.0961 2.99999 67.0961C2.55436 67.0961 2.19312 66.707 2.19312 66.227V66.225C2.19312 66.0942 2.22052 65.9651 2.27329 65.8473Z" fill="#442F2F"/>
<path d="M3.42865 73.0612C3.21967 74.0701 4.27405 74.9127 5.35405 74.6026C7.02689 74.1225 9.36601 73.6075 11.7021 73.6075C16.0778 73.6075 16.0876 75.3751 20.4633 75.3751C24.8383 75.3751 24.8379 73.6075 29.213 73.6075C33.5882 73.6075 33.5874 75.3751 37.9625 75.3751C42.3375 75.3751 42.3359 73.6075 46.711 73.6075C51.0858 73.6075 51.0828 75.3751 55.4576 75.3751C59.8321 75.3751 59.826 73.6073 64.2003 73.6073C67.734 73.6073 68.3635 74.7606 70.8144 75.2041C71.8512 75.3916 72.7672 74.5627 72.5712 73.6214L72.3884 73.2094C71.07 70.2359 67.8883 68.2876 64.3512 68.2876H11.3983C7.92554 68.2876 4.78843 70.1666 3.42865 73.0612Z" fill="#FAAB35"/>
<path d="M69.472 69.812C68.0172 68.8451 66.2364 68.2876 64.3516 68.2876H11.3981C7.92535 68.2876 4.78845 70.1666 3.42847 73.0612C3.21949 74.0701 4.27386 74.9127 5.35386 74.6026C7.0267 74.1225 9.36582 73.6075 11.7019 73.6075C13.8351 73.6075 14.9306 74.0277 16.0003 74.4581L16.4092 74.1122C16.9728 73.6355 17.6096 72.812 18.1613 72.0124C19.1144 70.631 20.6138 69.812 22.2116 69.812H69.472Z" fill="#FAAB35"/>
<path fill-rule="evenodd" clip-rule="evenodd" d="M2.70868 72.6688C4.22983 69.4307 7.67839 67.4185 11.3983 67.4185H64.3511C68.1389 67.4185 71.6398 69.5047 73.1164 72.8347C73.1164 72.8347 73.1164 72.8348 73.1164 72.8347L73.2991 73.2467C73.3253 73.3056 73.3451 73.3674 73.3584 73.4311C73.534 74.2742 73.1955 75.031 72.6732 75.5023C72.1551 75.9697 71.4279 76.1963 70.6808 76.0612C69.6555 75.8757 68.8905 75.5629 68.2097 75.2845C68.0161 75.2053 67.8292 75.1289 67.6451 75.059C66.817 74.7446 65.8668 74.4764 64.2002 74.4764C62.1596 74.4764 61.1707 74.8766 60.1267 75.2991L60.1128 75.3047C58.9778 75.7641 57.7823 76.2442 55.4576 76.2442C53.1328 76.2442 51.9365 75.7642 50.8007 75.305L50.7869 75.2994C49.7419 74.8768 48.752 74.4766 46.7109 74.4766C44.6697 74.4766 43.6794 74.8769 42.634 75.2994L42.6202 75.305C41.484 75.7642 40.2873 76.2442 37.9625 76.2442C35.6376 76.2442 34.4407 75.7642 33.3044 75.305L33.2906 75.2995C32.2449 74.8769 31.2543 74.4766 29.213 74.4766C27.1717 74.4766 26.1811 74.8769 25.1353 75.2995L25.1215 75.305C23.9851 75.7642 22.7881 76.2442 20.4633 76.2442C18.1383 76.2442 16.9387 75.7643 15.7999 75.3053L15.7863 75.2998C14.7374 74.877 13.744 74.4766 11.7021 74.4766C9.46476 74.4766 7.20163 74.9717 5.56179 75.4424C4.78356 75.6659 3.99642 75.4799 3.42684 75.0242C2.85244 74.5647 2.45376 73.7764 2.64112 72.872C2.65572 72.8015 2.67841 72.7332 2.70868 72.6688ZM4.20968 73.3271C4.21323 73.4178 4.25764 73.5236 4.38907 73.6288C4.56444 73.7691 4.84446 73.8495 5.14622 73.7628C6.85207 73.2732 9.2672 72.7384 11.7021 72.7384C14.027 72.7384 15.2266 73.2183 16.3654 73.6773L16.379 73.6827C17.4279 74.1055 18.4214 74.5059 20.4633 74.5059C22.5045 74.5059 23.4951 74.1057 24.541 73.6831L24.5547 73.6775C25.6911 73.2183 26.8881 72.7384 29.213 72.7384C31.5379 72.7384 32.7348 73.2183 33.8712 73.6775L33.885 73.6831C34.9307 74.1057 35.9212 74.5059 37.9625 74.5059C40.0037 74.5059 40.994 74.1057 42.0394 73.6831L42.0532 73.6775C43.1894 73.2184 44.3861 72.7384 46.7109 72.7384C49.0357 72.7384 50.2321 73.2184 51.3678 73.6776L51.3816 73.6832C52.4267 74.1057 53.4165 74.5059 55.4576 74.5059C57.4984 74.5059 58.4873 74.1057 59.5314 73.6832L59.5452 73.6776C60.6802 73.2182 61.8757 72.7381 64.2002 72.7381C66.0674 72.7381 67.1988 73.0465 68.1816 73.4197C68.4229 73.5113 68.6444 73.6016 68.8581 73.6887C69.512 73.9553 70.0933 74.1923 70.948 74.3469C71.2377 74.3993 71.4868 74.3052 71.6369 74.1697C71.7522 74.0658 71.7898 73.9639 71.7904 73.8773L71.6603 73.5841C70.5 70.9672 67.6375 69.1567 64.3511 69.1567H11.3983C8.22625 69.1567 5.44102 70.845 4.20968 73.3271ZM18.2994 82.4623C18.2994 81.9823 18.6607 81.5932 19.1063 81.5932H23.6532C24.0988 81.5932 24.4601 81.9823 24.4601 82.4623V90.2433C24.4601 92.0759 23.081 93.5614 21.3799 93.5614C19.6786 93.5614 18.2994 92.0759 18.2994 90.2433V82.4623ZM19.9132 83.3314V90.2433C19.9132 91.1159 20.5698 91.8232 21.3799 91.8232C22.1897 91.8232 22.8464 91.1159 22.8464 90.2433V83.3314H19.9132Z" fill="#442F2F"/>
<path d="M21.3799 92.6924C20.1242 92.6924 19.1063 91.596 19.1063 90.2434V82.4624H23.6532V90.2434C23.6532 91.596 22.6354 92.6924 21.3799 92.6924ZM29.1303 87.751C28.8905 87.751 28.6531 87.7001 28.4316 87.6013C28.2101 87.5025 28.0088 87.3576 27.8393 87.175C27.6697 86.9924 27.5353 86.7756 27.4435 86.537C27.3517 86.2984 27.3045 86.0427 27.3045 85.7844V82.4624H30.9558V85.7844C30.9558 86.0427 30.9086 86.2984 30.8169 86.537C30.7252 86.7756 30.5907 86.9924 30.4212 87.175C30.2517 87.3576 30.0504 87.5025 29.8289 87.6013C29.6074 87.7001 29.37 87.751 29.1303 87.751Z" fill="#FF6A07"/>
<path fill-rule="evenodd" clip-rule="evenodd" d="M18.2994 82.4624C18.2994 81.9824 18.6607 81.5933 19.1063 81.5933H23.6532C24.0988 81.5933 24.4601 81.9824 24.4601 82.4624V90.2434C24.4601 92.0759 23.081 93.5615 21.3799 93.5615C19.6786 93.5615 18.2994 92.076 18.2994 90.2434V82.4624ZM19.9132 83.3315V90.2434C19.9132 91.116 20.5698 91.8233 21.3799 91.8233C22.1897 91.8233 22.8464 91.116 22.8464 90.2434V83.3315H19.9132ZM26.4976 82.4624C26.4976 81.9824 26.8589 81.5933 27.3045 81.5933H30.9558C31.4014 81.5933 31.7627 81.9824 31.7627 82.4624V85.7843C31.7627 85.7843 31.7627 85.7843 31.7627 85.7843C31.7627 86.1566 31.6946 86.5255 31.5624 86.8695C31.4301 87.2135 31.2362 87.5262 30.9918 87.7895C30.7473 88.0528 30.4571 88.2617 30.1377 88.4042C29.8183 88.5468 29.476 88.6201 29.1303 88.6201C28.7845 88.6201 28.4422 88.5468 28.1228 88.4043C27.8034 88.2618 27.5132 88.0529 27.2687 87.7895C27.0243 87.5262 26.8303 87.2136 26.698 86.8696C26.5657 86.5255 26.4976 86.1568 26.4976 85.7844V82.4624ZM28.1114 83.3315V85.7844C28.1114 85.9285 28.1377 86.0712 28.1889 86.2044C28.2401 86.3375 28.3152 86.4585 28.4098 86.5604C28.5044 86.6623 28.6167 86.7432 28.7403 86.7983C28.864 86.8535 28.9965 86.8819 29.1303 86.8819C29.264 86.8819 29.3965 86.8535 29.5201 86.7983C29.6437 86.7432 29.756 86.6623 29.8506 86.5604C29.9452 86.4585 30.0202 86.3376 30.0714 86.2044C30.1226 86.0713 30.1489 85.9286 30.1489 85.7845V83.3315H28.1114Z" fill="#442F2F"/>
<path d="M51.2609 94.1823C49.3771 94.1823 47.8501 92.5375 47.8501 90.5083V82.4626H54.6717V90.5083C54.6719 92.5373 53.1447 94.1823 51.2609 94.1823Z" fill="#FF6A07"/>
<path fill-rule="evenodd" clip-rule="evenodd" d="M47.0432 82.4626C47.0432 81.9826 47.4045 81.5935 47.8501 81.5935H54.6718C55.1174 81.5935 55.4786 81.9826 55.4786 82.4626V90.5082C55.4786 90.5082 55.4786 90.5083 55.4786 90.5082C55.4788 93.0173 53.5903 95.0514 51.2609 95.0514C48.9315 95.0514 47.0432 93.0175 47.0432 90.5083V82.4626ZM48.657 83.3317V90.5083C48.657 92.0575 49.8227 93.3132 51.2609 93.3132C52.6992 93.3132 53.865 92.0573 53.8649 90.5084V83.3317H48.657Z" fill="#442F2F"/>
<path d="M16.3204 90.1713C16.7165 90.1713 17.0375 89.8255 17.0375 89.3989C17.0375 88.9723 16.7165 88.6265 16.3204 88.6265C15.9244 88.6265 15.6033 88.9723 15.6033 89.3989C15.6033 89.8255 15.9244 90.1713 16.3204 90.1713Z" fill="#442F2F"/>
<path d="M57.3778 94.605C57.6005 94.605 57.781 94.4105 57.781 94.1707C57.781 93.9308 57.6005 93.7363 57.3778 93.7363C57.1551 93.7363 56.9745 93.9308 56.9745 94.1707C56.9745 94.4105 57.1551 94.605 57.3778 94.605Z" fill="#442F2F"/>
<path d="M37.2228 94.2948C37.3936 94.2948 37.532 94.1457 37.532 93.9618C37.532 93.7778 37.3936 93.6287 37.2228 93.6287C37.052 93.6287 36.9135 93.7778 36.9135 93.9618C36.9135 94.1457 37.052 94.2948 37.2228 94.2948Z" fill="#442F2F"/>
<path d="M34.7366 89.5186C35.1698 89.5186 35.5211 89.1403 35.5211 88.6736C35.5211 88.2069 35.1698 87.8286 34.7366 87.8286C34.3033 87.8286 33.9521 88.2069 33.9521 88.6736C33.9521 89.1403 34.3033 89.5186 34.7366 89.5186Z" fill="#442F2F"/>
<path d="M29.4395 93.1857C29.6103 93.1857 29.7487 93.0366 29.7487 92.8526C29.7487 92.6687 29.6103 92.5195 29.4395 92.5195C29.2687 92.5195 29.1303 92.6687 29.1303 92.8526C29.1303 93.0366 29.2687 93.1857 29.4395 93.1857Z" fill="#442F2F"/>
<path d="M43.3235 92.0636C44.0067 92.0636 44.5604 91.4671 44.5604 90.7313C44.5604 89.9954 44.0067 89.3989 43.3235 89.3989C42.6404 89.3989 42.0866 89.9954 42.0866 90.7313C42.0866 91.4671 42.6404 92.0636 43.3235 92.0636Z" fill="#442F2F"/>
<path d="M58.3371 89.6549C58.6443 89.6549 58.8933 89.3867 58.8933 89.0558C58.8933 88.725 58.6443 88.4568 58.3371 88.4568C58.03 88.4568 57.781 88.725 57.781 89.0558C57.781 89.3867 58.03 89.6549 58.3371 89.6549Z" fill="#442F2F"/>
<path d="M39.8933 88.1878C40.1282 88.1878 40.3185 87.9827 40.3185 87.7297C40.3185 87.4768 40.1282 87.2717 39.8933 87.2717C39.6585 87.2717 39.4681 87.4768 39.4681 87.7297C39.4681 87.9827 39.6585 88.1878 39.8933 88.1878Z" fill="#442F2F"/>
<path d="M23.4515 43.3067C23.8893 43.3067 24.2443 42.9244 24.2443 42.4528C24.2443 41.9812 23.8893 41.5989 23.4515 41.5989C23.0137 41.5989 22.6588 41.9812 22.6588 42.4528C22.6588 42.9244 23.0137 43.3067 23.4515 43.3067Z" fill="#442F2F"/>
<path d="M35.5213 46.5618C35.9545 46.5618 36.3057 46.1835 36.3057 45.7168C36.3057 45.2501 35.9545 44.8718 35.5213 44.8718C35.088 44.8718 34.7368 45.2501 34.7368 45.7168C34.7368 46.1835 35.088 46.5618 35.5213 46.5618Z" fill="#442F2F"/>
<path d="M40.0537 49.0574C40.2764 49.0574 40.4569 48.863 40.4569 48.6231C40.4569 48.3832 40.2764 48.1887 40.0537 48.1887C39.831 48.1887 39.6505 48.3832 39.6505 48.6231C39.6505 48.863 39.831 49.0574 40.0537 49.0574Z" fill="#442F2F"/>
<path d="M54.4801 44.143C54.8143 44.143 55.0853 43.8512 55.0853 43.4912C55.0853 43.1312 54.8143 42.8394 54.4801 42.8394C54.1459 42.8394 53.875 43.1312 53.875 43.4912C53.875 43.8512 54.1459 44.143 54.4801 44.143Z" fill="#442F2F"/>
<path d="M39.6503 39.6003C40.3334 39.6003 40.8872 39.0038 40.8872 38.2679C40.8872 37.5321 40.3334 36.9355 39.6503 36.9355C38.9671 36.9355 38.4133 37.5321 38.4133 38.2679C38.4133 39.0038 38.9671 39.6003 39.6503 39.6003Z" fill="#442F2F"/>
<path d="M49.0731 41.9975C49.6023 41.9975 50.0312 41.5354 50.0312 40.9654C50.0312 40.3954 49.6023 39.9333 49.0731 39.9333C48.5439 39.9333 48.1149 40.3954 48.1149 40.9654C48.1149 41.5354 48.5439 41.9975 49.0731 41.9975Z" fill="#442F2F"/>
<path d="M28.6699 46.489C28.9362 46.489 29.152 46.2565 29.152 45.9697C29.152 45.6829 28.9362 45.4504 28.6699 45.4504C28.4037 45.4504 28.1878 45.6829 28.1878 45.9697C28.1878 46.2565 28.4037 46.489 28.6699 46.489Z" fill="#442F2F"/>
<path d="M43.3235 44.3548C43.7664 44.3548 44.1254 43.9681 44.1254 43.4911C44.1254 43.0141 43.7664 42.6274 43.3235 42.6274C42.8807 42.6274 42.5217 43.0141 42.5217 43.4911C42.5217 43.9681 42.8807 44.3548 43.3235 44.3548Z" fill="#442F2F"/>
<path d="M34.0207 40.2665C34.1915 40.2665 34.33 40.1174 34.33 39.9334C34.33 39.7495 34.1915 39.6003 34.0207 39.6003C33.8499 39.6003 33.7115 39.7495 33.7115 39.9334C33.7115 40.1174 33.8499 40.2665 34.0207 40.2665Z" fill="#442F2F"/>
<path d="M58.1346 44.4905C58.2201 44.4905 58.2894 44.4159 58.2894 44.3239C58.2894 44.2318 58.2201 44.1572 58.1346 44.1572C58.0492 44.1572 57.9799 44.2318 57.9799 44.3239C57.9799 44.4159 58.0492 44.4905 58.1346 44.4905Z" fill="#442F2F"/>
<path d="M29.152 39.9333C29.3228 39.9333 29.4613 39.7841 29.4613 39.6002C29.4613 39.4162 29.3228 39.2671 29.152 39.2671C28.9813 39.2671 28.8428 39.4162 28.8428 39.6002C28.8428 39.7841 28.9813 39.9333 29.152 39.9333Z" fill="#442F2F"/>
<path d="M51.8275 49.0575C51.9983 49.0575 52.1368 48.9084 52.1368 48.7245C52.1368 48.5405 51.9983 48.3914 51.8275 48.3914C51.6568 48.3914 51.5183 48.5405 51.5183 48.7245C51.5183 48.9084 51.6568 49.0575 51.8275 49.0575Z" fill="#442F2F"/>
<path d="M47.0418 45.9828C47.1782 45.9828 47.2889 45.8636 47.2889 45.7166C47.2889 45.5696 47.1782 45.4504 47.0418 45.4504C46.9053 45.4504 46.7947 45.5696 46.7947 45.7166C46.7947 45.8636 46.9053 45.9828 47.0418 45.9828Z" fill="#442F2F"/>
<path fill-rule="evenodd" clip-rule="evenodd" d="M10.6703 55.5588C9.86651 55.5588 9.20621 54.6254 9.20621 53.4774V53.4625C9.20621 44.2085 12.9581 40.0617 23.7769 36.7323L25.9723 36.21C28.8747 35.5197 31.8272 35.0605 34.8021 34.837C37.6011 34.6266 40.412 34.6254 43.2113 34.8334L47.7812 35.1728L47.9622 35.2092C52.9967 36.2201 58.2234 37.4513 62.0746 40.8479C65.3535 43.7399 66.7869 47.3444 66.7897 53.4663C66.7882 54.6193 66.1238 55.5588 65.3256 55.5588H10.6703ZM68.3564 53.4577C68.3505 45.2431 65.1252 40.2009 59.7768 36.8881C56.7145 34.9913 53.1314 34.1951 49.5879 33.5475L47.7812 33.2173L43.3197 32.8517C40.1136 32.5889 36.8912 32.5933 33.6859 32.8649L29.5258 33.2173L23.4743 34.0864C14.9013 35.8247 7.63947 42.9825 7.63947 53.4625V53.4774C7.63947 55.8331 8.99166 57.77 10.6703 57.77H65.3256C67.0018 57.77 68.3449 55.8281 68.3563 53.4925C68.3564 53.4875 68.3564 53.4824 68.3564 53.4774" fill="#442F2F"/>
<path d="M158.733 131.744L147.76 173.978" stroke="#FFFDF9" stroke-width="1.875" stroke-miterlimit="10"/>
<path d="M179.693 149.911L152.693 173.978" stroke="#FAAB35" stroke-width="1.875" stroke-miterlimit="10"/>
<path d="M192.32 165.392L157.453 173.978" stroke="#FAAB35" stroke-width="1.875" stroke-miterlimit="10"/>
<path d="M123.933 136.712L144.133 173.978" stroke="#FFFDF9" stroke-width="1.875" stroke-miterlimit="10"/>
<path d="M105.493 159.552L139.307 173.978" stroke="#FFFDF9" stroke-width="1.875" stroke-miterlimit="10"/>
<path d="M156.853 174.665H148.173L166.493 28.7898H175.173C177.653 28.7898 179.427 30.6298 179.133 32.9114L161.84 170.543C161.56 172.825 159.333 174.665 156.853 174.665Z" fill="#89C5CC"/>
<path d="M82.0933 174.665H147.227C149.813 174.665 152.147 172.739 152.453 170.359L169.693 33.0954C170 30.7157 168.133 28.7898 165.547 28.7898H100.413C97.8267 28.7898 95.4933 30.7157 95.1867 33.0954L77.9467 170.359C77.6533 172.739 79.5067 174.665 82.0933 174.665Z" fill="#294146"/>
<path d="M82.64 166.814H148.64L164.987 36.6406H98.9867L82.64 166.814Z" fill="#FFFDF9"/>
<path d="M167.173 92.5765C168.333 92.5765 169.387 91.7056 169.52 90.6384L173.44 59.3952C173.573 58.328 172.733 57.457 171.573 57.457C170.413 57.457 169.36 58.328 169.227 59.3952L165.307 90.6384C165.173 91.7056 166 92.5765 167.173 92.5765Z" stroke="#FFFDF9" stroke-width="1.59" stroke-miterlimit="10"/>
<path d="M170.507 59.3706C170.453 59.8 170.787 60.1312 171.24 60.1312C171.693 60.1312 172.12 59.7877 172.16 59.3706C172.213 58.9413 171.88 58.6101 171.427 58.6101C170.973 58.6101 170.56 58.9413 170.507 59.3706Z" stroke="#FFFDF9" stroke-width="1.59" stroke-miterlimit="10"/>
<path d="M128.693 33.3775H140.533C141 33.3775 141.413 33.034 141.453 32.617C141.507 32.1876 141.173 31.8564 140.72 31.8564H128.88C128.413 31.8564 128 32.1999 127.96 32.617C127.907 33.0463 128.227 33.3775 128.693 33.3775ZM123.533 32.617C123.44 33.3407 124 33.9295 124.787 33.9295C125.573 33.9295 126.28 33.3407 126.373 32.617C126.467 31.8932 125.907 31.3044 125.12 31.3044C124.333 31.3044 123.613 31.8932 123.533 32.617Z" fill="#89C5CC"/>
<path d="M130.173 104.328C130.92 104.267 131.333 103.506 130.933 102.917C126.64 96.7348 120.187 79.1199 99.68 80.1994C82.2667 81.1194 62.2 82.8612 53.2667 83.6708C51.72 83.8058 51.2534 85.6703 52.5734 86.4186L54.8934 87.7556C56.6934 88.786 58.8 89.2522 60.9067 89.0927L77.1067 87.8538C80.8534 87.5716 84.4534 89.2644 86.3734 92.233L101.6 115.748C101.8 116.055 102.16 116.227 102.547 116.19L130.173 104.328Z" fill="#833704"/>
<path d="M55.72 97.8757C74.5334 90.0618 87.52 87.081 94.7467 85.9525C98.5067 85.3637 102.12 87.5594 103 90.9818L105.227 99.728C106.227 103.678 103.187 107.53 98.8 107.861L53.92 111.295C53.2934 111.344 52.6534 111.32 52.04 111.21L5.45336 103.482C4.09336 103.261 3.53336 101.752 4.45336 100.807C5.64003 99.593 10.2534 97.4709 14.1867 97.7162C20.7734 98.1333 46.0134 98.4154 52.6534 98.489C53.72 98.4768 54.76 98.2805 55.72 97.8757ZM125.6 94.2447L141.187 118.79C141.187 118.79 131.04 135.166 108.333 133.106L99.3067 112.179L125.6 94.2447Z" fill="#833704"/>
<path d="M138.613 127.009C138.613 127.009 136.507 130.566 127.173 134.136M103.24 130.566C103.24 130.566 106.227 136.712 109.227 136.393M122.96 138.012C122.96 138.012 128.027 137.35 132.6 134.749" stroke="#89C5CC" stroke-width="1.875" stroke-miterlimit="10"/>
</svg>
