<svg width="30" height="30" viewBox="0 0 30 30" fill="none" xmlns="http://www.w3.org/2000/svg">
<path d="M10 27.5C10.6904 27.5 11.25 26.9404 11.25 26.25C11.25 25.5596 10.6904 25 10 25C9.30964 25 8.75 25.5596 8.75 26.25C8.75 26.9404 9.30964 27.5 10 27.5Z" stroke="#6E2C00" stroke-width="2" stroke-linecap="round" stroke-linejoin="round"/>
<path d="M23.75 27.5C24.4404 27.5 25 26.9404 25 26.25C25 25.5596 24.4404 25 23.75 25C23.0596 25 22.5 25.5596 22.5 26.25C22.5 26.9404 23.0596 27.5 23.75 27.5Z" stroke="#6E2C00" stroke-width="2" stroke-linecap="round" stroke-linejoin="round"/>
<path d="M2.5625 2.5625H5.0625L8.3875 18.0875C8.50947 18.6561 8.82584 19.1643 9.28214 19.5248C9.73844 19.8853 10.3061 20.0754 10.8875 20.0625H23.1125C23.6815 20.0616 24.2331 19.8666 24.6763 19.5098C25.1195 19.153 25.4277 18.6557 25.55 18.1L27.6125 8.8125H6.4" stroke="#6E2C00" stroke-width="2" stroke-linecap="round" stroke-linejoin="round"/>
</svg>
