<svg width="120" height="155" viewBox="0 0 120 155" fill="none" xmlns="http://www.w3.org/2000/svg">
<path d="M22.2338 94.3087C21.9068 94.3045 21.3628 94.2158 20.6019 94.0425C19.5001 93.8707 18.5876 93.1777 18.0021 92.2287C17.1849 90.9042 16.4718 89.3083 15.8626 87.4408C15.0242 84.8136 14.3524 81.9433 13.8472 78.8299C13.3428 75.6619 12.9752 72.4413 12.7447 69.1678C12.5141 65.8944 12.3632 62.7854 12.2919 59.8411C12.2534 58.2026 7.72176 53.5064 3.03162 48.3854C-1.58441 43.3453 2.10522 36.927 8.91917 37.4565L24.3655 38.6569C29.3478 39.0441 32.6666 43.43 31.2788 48.2308C29.6053 54.0197 27.5746 60.5503 27.383 62.5692C27.0679 65.8902 26.8907 69.0767 26.8516 72.1286C26.8202 74.5811 26.8701 77.0619 27.0014 79.5709C27.0366 80.0333 27.0754 80.5053 27.1181 80.9871C27.4417 84.6459 31.2102 87.2456 33.8851 84.7284C35.5403 83.1689 36.8724 81.3055 37.8814 79.1381C38.9455 76.9169 39.7113 74.5829 40.1788 72.136C40.6462 69.6891 40.8949 67.294 40.925 64.9505C40.9306 64.5145 40.91 63.9964 40.8632 63.3962C40.8716 62.7422 40.8034 61.6784 40.6588 60.2048C40.6175 59.4987 40.9059 56.8559 41.1994 53.9215C41.6233 49.6841 46.1579 46.3439 50.2546 47.5067C53.0093 48.2887 54.8384 50.8952 54.6367 53.7518L52.1116 89.5175C51.9582 91.6905 50.2375 93.4239 48.0657 93.5932C45.668 93.7802 43.5645 92.0069 43.3435 89.6121L42.336 78.6995C42.3191 78.5163 42.1666 78.3754 41.9826 78.3731C41.8331 78.3711 41.6977 78.463 41.6424 78.602C39.4056 84.2295 36.6853 88.2595 33.4816 90.6919C30.234 93.1576 26.4847 94.3633 22.2338 94.3087Z" fill="#FAAB35"/>
<path fill-rule="evenodd" clip-rule="evenodd" d="M15.5516 87.542L15.551 87.5401C14.707 84.8955 14.0317 82.0093 13.5243 78.8821L13.5242 78.8812C13.0182 75.7036 12.6496 72.4734 12.4184 69.1906C12.1875 65.9127 12.0363 62.7988 11.9649 59.8488L11.9649 59.8486C11.9617 59.7095 11.9078 59.5047 11.7785 59.2258C11.6516 58.9517 11.4631 58.6295 11.2166 58.262C10.7237 57.5272 10.0168 56.6378 9.15735 55.6314C7.85854 54.1103 6.22924 52.342 4.4968 50.4618C3.93622 49.8534 3.36485 49.2333 2.79038 48.6061C0.399189 45.9952 0.129806 42.9799 1.40278 40.6741C2.67096 38.3771 5.42945 36.8572 8.94443 37.1304L24.3907 38.3307C29.5612 38.7325 33.0433 43.3041 31.5929 48.3215C31.2342 49.5622 30.8601 50.8339 30.4913 52.0873C29.9977 53.7647 29.5138 55.4094 29.0897 56.903C28.3455 59.5235 27.8008 61.6273 27.7085 62.6C27.3941 65.9129 27.2175 69.0904 27.1785 72.1327C27.1472 74.5766 27.1969 77.049 27.3277 79.5498C27.3627 80.0096 27.4013 80.479 27.4437 80.9582C27.5967 82.6878 28.5646 84.1569 29.7884 84.8934C30.9963 85.6204 32.4435 85.6357 33.6608 84.4903C35.2843 82.9606 36.5925 81.1317 37.5848 78.9999L37.5864 78.9966C38.6382 76.8012 39.3952 74.494 39.8575 72.0745C40.3215 69.6453 40.5681 67.2693 40.5979 64.9461C40.6033 64.5229 40.5834 64.0152 40.537 63.4215L40.5359 63.4067L40.5361 63.3919C40.5442 62.7575 40.4778 61.7093 40.3333 60.2366L40.3326 60.2302L40.3323 60.2238C40.3098 59.8399 40.3753 58.9726 40.4778 57.8684C40.5496 57.0958 40.6414 56.1893 40.7397 55.2191C40.7836 54.7863 40.8287 54.3407 40.8739 53.8888C41.0965 51.6637 42.3952 49.6892 44.1589 48.4232C45.9231 47.1568 48.1825 46.5785 50.3438 47.192C53.2475 48.0162 55.1754 50.7637 54.9628 53.7746L52.4377 89.5404C52.2729 91.8749 50.4243 93.7371 48.0911 93.9191C45.5151 94.12 43.2552 92.2149 43.0177 89.642L42.0103 78.7294C42.0088 78.7129 41.995 78.7001 41.9784 78.6999C41.9662 78.6998 41.9521 78.7078 41.9462 78.7227C39.6977 84.3796 36.9486 88.47 33.6793 90.9522C30.371 93.464 26.55 94.691 22.2295 94.6356C21.8661 94.6309 21.2957 94.5355 20.5401 94.3637C19.3336 94.1717 18.3487 93.4133 17.7237 92.4002C16.8899 91.0489 16.1668 89.4281 15.5516 87.542ZM20.6019 94.0424C21.3628 94.2157 21.9067 94.3044 22.2337 94.3086C26.4846 94.3631 30.2339 93.1575 33.4815 90.6918C36.6852 88.2593 39.4055 84.2294 41.6423 78.6019C41.6976 78.4629 41.833 78.371 41.9826 78.3729C42.1665 78.3753 42.3191 78.5162 42.336 78.6994L43.3434 89.6119C43.5644 92.0068 45.6679 93.7801 48.0656 93.5931C50.2374 93.4237 51.9581 91.6903 52.1115 89.5173L54.6366 53.7516C54.8383 50.8951 53.0093 48.2885 50.2545 47.5066C46.1578 46.3437 41.6233 49.684 41.1993 53.9213C41.154 54.3744 41.1088 54.8205 41.0649 55.2537C40.8246 57.6257 40.6238 59.6076 40.6587 60.2047C40.8033 61.6783 40.8715 62.7421 40.8631 63.3961C40.9099 63.9962 40.9305 64.5143 40.9249 64.9503C40.8949 67.2938 40.6461 69.689 40.1787 72.1359C39.7112 74.5827 38.9454 76.9168 37.8813 79.1379C36.8724 81.3053 35.5403 83.1688 33.885 84.7283C31.2101 87.2455 27.4416 84.6458 27.118 80.987C27.0754 80.5052 27.0365 80.0331 27.0014 79.5708C26.87 77.0617 26.8201 74.5809 26.8515 72.1285C26.8907 69.0765 27.0678 65.8901 27.3829 62.5691C27.5336 60.9816 28.8214 56.6044 30.1785 51.9918C30.5473 50.7384 30.9212 49.4676 31.2787 48.2306C32.6665 43.4298 29.3477 39.0439 24.3654 38.6567L8.91909 37.4564C2.10514 36.9269 -1.58449 43.3451 3.03154 48.3852C3.60392 49.0102 4.17394 49.6288 4.73373 50.2363C8.76084 54.6069 12.258 58.4024 12.2919 59.8409C12.3631 62.7853 12.514 65.8942 12.7446 69.1677C12.9752 72.4411 13.3427 75.6618 13.8471 78.8297C14.3523 81.9432 15.0241 84.8135 15.8625 87.4406C16.4717 89.3081 17.1848 90.9041 18.002 92.2285C18.5875 93.1776 19.5 93.8705 20.6019 94.0424Z" fill="#FAAB35"/>
<path d="M111.452 94.5512C108.979 94.7476 106.81 92.9143 106.591 90.4431L103.995 61.1056C103.63 56.9776 106.556 53.2843 110.658 52.6955C115.782 51.9601 120.188 56.3271 119.498 61.4573L115.574 90.6469C115.291 92.7566 113.574 94.3826 111.452 94.5512Z" fill="#FAAB35"/>
<path fill-rule="evenodd" clip-rule="evenodd" d="M106.265 90.4719L103.669 61.1344C103.289 56.8334 106.337 52.9853 110.611 52.3718C115.95 51.6055 120.541 56.1556 119.822 61.5009L115.899 90.6904C115.595 92.9527 113.753 94.6964 111.478 94.8772C108.826 95.0878 106.5 93.1219 106.265 90.4719ZM106.591 90.4431C106.81 92.9143 108.979 94.7476 111.452 94.5512C113.574 94.3826 115.291 92.7566 115.575 90.6469L119.498 61.4573C120.188 56.3271 115.782 51.9601 110.658 52.6955C106.556 53.2843 103.63 56.9776 103.995 61.1056L106.591 90.4431Z" fill="#FAAB35"/>
<path d="M64.3673 94.0767C59.59 94.3671 55.7682 90.1663 56.5075 85.4376L61.1883 55.499C61.6358 52.6371 63.8482 50.3735 66.6991 49.8608C70.9827 49.0904 74.8762 52.4895 74.6909 56.8379L74.3358 65.172C74.3252 65.42 74.5217 65.6277 74.7699 65.6309C74.9419 65.6331 75.0996 65.5343 75.1741 65.3793C77.3299 60.8944 79.7889 57.3322 82.5511 54.6928C85.3656 52.0034 88.2987 50.6783 91.3507 50.7175C91.5288 50.7198 91.7061 50.7269 91.8825 50.7388C93.5419 50.8511 94.9698 51.9112 95.7576 53.376C96.4017 54.5736 96.9747 55.9757 97.4766 57.5823C98.315 60.2095 98.9861 63.1343 99.4899 66.3567C99.9937 69.5791 100.36 72.8816 100.589 76.2641C100.819 79.592 100.969 82.7827 101.039 85.836C101.047 86.1741 101.054 86.507 101.061 86.8346C101.139 90.6607 98.1665 93.8111 94.3492 94.08C90.0551 94.3824 86.4277 90.9496 86.4264 86.6449C86.4258 84.5846 86.412 82.6716 86.3849 80.9059C86.3255 77.035 86.2074 73.4905 86.0307 70.2722C85.9602 68.375 85.8623 66.4683 85.7371 64.5521C85.5988 62.4353 83.5028 61.1887 81.7976 62.4505C80.4763 63.4692 79.1194 65.1416 77.7269 67.4676C76.3343 69.7936 75.0113 73.0744 73.7578 77.3099C72.9069 80.1498 72.1364 83.5816 71.4463 87.6055C70.8407 91.1366 67.9433 93.8594 64.3673 94.0767Z" fill="#FAAB35"/>
<path fill-rule="evenodd" clip-rule="evenodd" d="M81.7977 62.4505C80.4764 63.4692 79.1195 65.1416 77.727 67.4676C76.3345 69.7936 75.0114 73.0744 73.7579 77.3099C72.907 80.1498 72.1365 83.5817 71.4464 87.6055C70.8409 91.1366 67.9435 93.8594 64.3674 94.0767C59.5901 94.3671 55.7683 90.1663 56.5076 85.4377L61.1885 55.499C61.6359 52.6371 63.8483 50.3736 66.6992 49.8608C70.9829 49.0904 74.8763 52.4895 74.691 56.8379L74.3359 65.172C74.3253 65.42 74.5218 65.6277 74.77 65.6309C74.9421 65.6331 75.0997 65.5343 75.1742 65.3793C77.33 60.8944 79.7891 57.3322 82.5513 54.6928C85.3657 52.0034 88.2989 50.6783 91.3508 50.7175C91.529 50.7198 91.7062 50.7269 91.8826 50.7388C93.542 50.8512 94.9699 51.9113 95.7577 53.376C96.4018 54.5736 96.9748 55.9757 97.4767 57.5823C98.3152 60.2095 98.9863 63.1343 99.49 66.3567C99.9938 69.5792 100.36 72.8816 100.589 76.2641C100.819 79.592 100.969 82.7827 101.039 85.836C101.047 86.1741 101.054 86.507 101.061 86.8346C101.139 90.6607 98.1667 93.8111 94.3493 94.08C90.0552 94.3824 86.4279 90.9496 86.4266 86.6449C86.4259 84.5846 86.4121 82.6716 86.385 80.9059C86.3256 77.035 86.2076 73.4905 86.0308 70.2722C85.9603 68.375 85.8625 66.4683 85.7372 64.5521C85.5989 62.4353 83.5029 61.1887 81.7977 62.4505ZM101.366 85.8283C101.374 86.1667 101.381 86.4999 101.388 86.828C101.47 90.8342 98.3575 94.1255 94.3723 94.4062C89.8859 94.7222 86.1009 91.1362 86.0995 86.645C86.0989 84.5861 86.0851 82.6747 86.058 80.9109C85.9987 77.0435 85.8807 73.5034 85.7043 70.2902L85.7041 70.2873L85.704 70.2844C85.6336 68.3903 85.5359 66.4866 85.4109 64.5734C85.3486 63.6191 84.8477 62.8816 84.1964 62.5203C83.5536 62.1637 82.7426 62.1596 81.9948 62.7115C80.7207 63.6946 79.3897 65.327 78.0076 67.6356C76.6352 69.9279 75.3215 73.1792 74.0715 77.4027L74.0712 77.4038C73.2252 80.2273 72.4574 83.6455 71.7688 87.6608C71.1388 91.3338 68.1224 94.1762 64.3873 94.4032C59.4015 94.7061 55.413 90.3221 56.1845 85.3871L60.8654 55.4485C61.3344 52.4489 63.6533 50.0764 66.6413 49.539C71.1311 48.7315 75.212 52.2941 75.0178 56.8519L74.6626 65.1859C74.6599 65.2497 74.7104 65.3031 74.7742 65.3039C74.8177 65.3045 74.8595 65.2792 74.8795 65.2376C77.0475 60.7274 79.5275 57.1298 82.3253 54.4563C85.1838 51.7249 88.1956 50.35 91.355 50.3905C91.5391 50.3928 91.7223 50.4002 91.9047 50.4125C93.6938 50.5337 95.2135 51.6738 96.0457 53.2211C96.7015 54.4405 97.282 55.8623 97.7886 57.4839M101.366 85.8283C101.296 82.7697 101.146 79.5741 100.916 76.2418L101.366 85.8283Z" fill="#FAAB35"/>
<path d="M115.569 48.9075C112.949 51.0295 109.804 51.399 107.323 48.6752C104.177 44.7533 106.721 42.308 106.826 42.1838C108.727 39.9496 109.703 39.9075 112.722 40.1071C115.402 40.2844 117.282 43.287 117.056 45.9637C116.96 47.0904 116.809 47.9022 115.569 48.9075Z" fill="#FAAB35"/>
<path fill-rule="evenodd" clip-rule="evenodd" d="M111.39 50.2815C112.72 50.2655 114.093 49.6823 115.363 48.6534C115.953 48.1749 116.263 47.7604 116.442 47.3504C116.623 46.9342 116.682 46.4966 116.73 45.9361C116.836 44.6792 116.447 43.3349 115.711 42.2859C114.976 41.2378 113.918 40.514 112.7 40.4334C111.177 40.3327 110.242 40.3015 109.451 40.5453C108.681 40.7828 108.011 41.2957 107.075 42.3957C107.07 42.4016 107.062 42.4109 107.05 42.4236C106.917 42.5665 106.39 43.1354 106.174 44.0783C105.944 45.084 106.059 46.5727 107.572 48.4625C108.755 49.7577 110.072 50.2974 111.39 50.2815ZM107.323 48.6752C109.804 51.399 112.949 51.0295 115.569 48.9075C116.809 47.9022 116.96 47.0904 117.056 45.9637C117.282 43.287 115.402 40.2844 112.722 40.1071C109.703 39.9075 108.727 39.9496 106.826 42.1838C106.822 42.1884 106.815 42.1963 106.805 42.2073C106.539 42.4921 104.294 44.8993 107.323 48.6752Z" fill="#FAAB35"/>
<path d="M100.37 103.366C101.272 103.546 102.512 104.087 104.091 104.989C105.669 105.846 107.248 106.838 108.826 107.966C110.45 109.048 111.871 110.131 113.088 111.213C114.306 112.25 115.028 112.994 115.253 113.445C115.434 113.896 115.501 114.731 115.456 115.949C115.411 117.166 115.276 118.655 115.05 120.413C114.825 122.127 114.532 124.021 114.171 126.096C113.81 128.171 113.404 130.268 112.953 132.388C112.502 134.462 112.006 136.492 111.465 138.476C110.969 140.415 110.45 142.129 109.909 143.618C109.683 144.339 109.187 145.128 108.421 145.985C107.654 146.842 106.752 147.699 105.715 148.556C104.677 149.368 103.572 150.135 102.4 150.856C101.272 151.578 100.19 152.187 99.1524 152.683C98.1602 153.179 97.2582 153.517 96.4464 153.698C95.6797 153.878 95.1611 153.833 94.8905 153.562C94.6199 153.292 94.3267 152.435 94.011 150.992C93.7404 149.503 93.4698 147.654 93.1992 145.444C92.9286 143.189 92.6805 140.686 92.455 137.935C92.2295 135.139 92.0266 132.297 91.8462 129.411C91.6658 126.525 91.5079 123.706 91.3726 120.955C91.2824 118.158 91.2148 115.655 91.1697 113.445C91.1697 111.19 91.2148 109.319 91.305 107.83C91.3952 106.297 91.553 105.372 91.7785 105.057C91.9589 104.831 92.4099 104.606 93.1315 104.38C93.8983 104.155 94.7326 103.952 95.6346 103.771C96.5817 103.591 97.5063 103.456 98.4083 103.366C99.3103 103.275 99.9643 103.275 100.37 103.366ZM99.9643 111.957C99.6486 112.183 99.4231 112.882 99.2878 114.054C99.1524 115.182 99.0397 116.557 98.9495 118.181C98.9044 119.76 98.8818 121.451 98.8818 123.255C98.8818 125.059 98.8593 126.705 98.8142 128.193C98.724 132.072 98.6789 135.139 98.6789 137.394C98.724 139.604 98.7691 141.272 98.8142 142.4C98.9044 143.482 99.0171 144.181 99.1524 144.497C99.2878 144.768 99.4682 144.903 99.6937 144.903C99.8741 144.903 100.167 144.768 100.573 144.497C101.024 144.226 101.498 143.888 101.994 143.482C102.49 143.076 102.963 142.648 103.414 142.197C103.865 141.701 104.181 141.272 104.362 140.912C104.542 140.551 104.767 139.852 105.038 138.814C105.309 137.732 105.579 136.492 105.85 135.094C106.12 133.65 106.391 132.14 106.662 130.561C106.932 128.937 107.158 127.404 107.338 125.961C107.564 124.472 107.722 123.165 107.812 122.037C107.947 120.864 108.015 120.03 108.015 119.534C107.97 118.587 107.586 117.617 106.865 116.625C106.143 115.633 105.309 114.753 104.362 113.987C103.46 113.22 102.558 112.634 101.656 112.228C100.799 111.822 100.235 111.732 99.9643 111.957Z" fill="url(#paint0_linear_460_841)"/>
<path d="M66.0711 110.063C66.2966 109.657 66.7702 109.139 67.4918 108.507C68.2134 107.831 69.0703 107.154 70.0625 106.478C71.0998 105.801 72.2047 105.192 73.3774 104.651C74.55 104.065 75.7226 103.681 76.8952 103.501C78.1129 103.276 79.2404 103.321 80.2777 103.636C81.3601 103.907 82.2847 104.538 83.0514 105.531C83.4573 106.027 83.8407 107.019 84.2015 108.507C84.5623 109.996 84.9005 111.8 85.2162 113.919C85.577 115.994 85.8927 118.317 86.1633 120.887C86.4339 123.413 86.6594 126.006 86.8398 128.667C87.0202 131.283 87.133 133.876 87.1781 136.447C87.2683 138.973 87.2683 141.318 87.1781 143.483C87.133 145.602 86.9977 147.429 86.7722 148.962C86.5918 150.451 86.2986 151.488 85.8927 152.074C85.0809 153.247 83.8181 154.036 82.1043 154.442C80.3905 154.848 78.5865 154.848 76.6922 154.442C74.798 154.081 72.994 153.314 71.2802 152.142C69.5664 150.969 68.3036 149.391 67.4918 147.406C66.9506 146.098 66.4995 144.317 66.1387 142.062C65.823 139.807 65.575 137.371 65.3946 134.756C65.2142 132.095 65.1014 129.389 65.0563 126.638C65.0563 123.886 65.0789 121.361 65.124 119.061C65.2142 116.715 65.3269 114.731 65.4622 113.107C65.6426 111.484 65.8456 110.469 66.0711 110.063ZM79.3306 144.362C79.6012 144.091 79.7816 143.37 79.8718 142.197C80.0071 140.979 80.0748 139.559 80.0748 137.935C80.1199 136.266 80.1199 134.508 80.0748 132.658C80.0748 130.809 80.0748 129.096 80.0748 127.517C80.0748 123.503 79.9395 120.391 79.6689 118.181C79.3983 115.971 79.0826 114.325 78.7218 113.243C78.3159 111.98 77.8649 111.191 77.3687 110.875C76.6922 111.01 76.1285 111.236 75.6775 111.551C75.2265 111.822 74.8657 112.138 74.5951 112.499C74.2794 112.904 74.0313 113.333 73.8509 113.784C73.7156 114.19 73.5578 114.979 73.3774 116.152C73.2421 117.324 73.1068 118.722 72.9715 120.346C72.8362 121.925 72.7009 123.661 72.5656 125.555C72.4754 127.404 72.3852 129.231 72.295 131.035C72.2498 132.839 72.2047 134.553 72.1596 136.176C72.1596 137.755 72.1822 139.063 72.2273 140.1C72.3175 141.679 72.6783 142.829 73.3097 143.55C73.9862 144.272 74.7078 144.745 75.4745 144.971C76.2412 145.151 76.9854 145.151 77.707 144.971C78.4737 144.79 79.0149 144.588 79.3306 144.362Z" fill="url(#paint1_linear_460_841)"/>
<path d="M39.3492 110.063C39.5747 109.657 40.0483 109.139 40.7699 108.507C41.4915 107.831 42.3484 107.154 43.3406 106.478C44.3779 105.801 45.4829 105.192 46.6555 104.651C47.8281 104.065 49.0007 103.681 50.1733 103.501C51.391 103.276 52.5185 103.321 53.5559 103.636C54.6383 103.907 55.5628 104.538 56.3295 105.531C56.7354 106.027 57.1188 107.019 57.4796 108.507C57.8404 109.996 58.1786 111.8 58.4944 113.919C58.8552 115.994 59.1709 118.317 59.4415 120.887C59.7121 123.413 59.9376 126.006 60.118 128.667C60.2984 131.283 60.4111 133.876 60.4562 136.447C60.5464 138.973 60.5464 141.318 60.4562 143.483C60.4111 145.602 60.2758 147.429 60.0503 148.962C59.8699 150.451 59.5768 151.488 59.1709 152.074C58.3591 153.247 57.0962 154.036 55.3824 154.442C53.6686 154.848 51.8646 154.848 49.9704 154.442C48.0762 154.081 46.2721 153.314 44.5583 152.142C42.8445 150.969 41.5817 149.391 40.7699 147.406C40.2287 146.098 39.7777 144.317 39.4169 142.062C39.1012 139.807 38.8531 137.371 38.6727 134.756C38.4923 132.095 38.3796 129.389 38.3345 126.638C38.3345 123.886 38.357 121.361 38.4021 119.061C38.4923 116.715 38.6051 114.731 38.7404 113.107C38.9208 111.484 39.1237 110.469 39.3492 110.063ZM52.6088 144.362C52.8794 144.091 53.0598 143.37 53.15 142.197C53.2853 140.979 53.3529 139.559 53.3529 137.935C53.398 136.266 53.398 134.508 53.3529 132.658C53.3529 130.809 53.3529 129.096 53.3529 127.517C53.3529 123.503 53.2176 120.391 52.947 118.181C52.6764 115.971 52.3607 114.325 51.9999 113.243C51.594 111.98 51.143 111.191 50.6469 110.875C49.9704 111.01 49.4066 111.236 48.9556 111.551C48.5046 111.822 48.1438 112.138 47.8732 112.499C47.5575 112.904 47.3095 113.333 47.1291 113.784C46.9938 114.19 46.8359 114.979 46.6555 116.152C46.5202 117.324 46.3849 118.722 46.2496 120.346C46.1143 121.925 45.979 123.661 45.8437 125.555C45.7535 127.404 45.6633 129.231 45.5731 131.035C45.528 132.839 45.4829 134.553 45.4378 136.176C45.4378 137.755 45.4603 139.063 45.5054 140.1C45.5956 141.679 45.9564 142.829 46.5878 143.55C47.2644 144.272 47.986 144.745 48.7527 144.971C49.5194 145.151 50.2635 145.151 50.9851 144.971C51.7518 144.79 52.293 144.588 52.6088 144.362Z" fill="url(#paint2_linear_460_841)"/>
<path d="M23.9248 132.523C23.9248 133.109 23.9023 134.034 23.8572 135.297C23.8572 136.56 23.8346 137.98 23.7895 139.559C23.7444 141.137 23.6768 142.783 23.5865 144.497C23.5414 146.166 23.4512 147.699 23.3159 149.097C23.1806 150.45 23.0228 151.578 22.8424 152.48C22.7071 153.382 22.5267 153.833 22.3012 153.833C21.6247 153.833 20.9707 153.359 20.3393 152.412C19.753 151.42 19.1442 150.36 18.5128 149.233C18.3775 148.962 18.2196 148.173 18.0392 146.865C17.9039 145.512 17.746 143.821 17.5656 141.791C17.4303 139.762 17.295 137.507 17.1597 135.026C17.0244 132.546 16.8891 130.02 16.7538 127.449C16.6185 124.879 16.5058 122.353 16.4156 119.872C16.3705 117.392 16.3254 115.159 16.2803 113.175C16.2352 111.191 16.2352 109.544 16.2803 108.237C16.3254 106.883 16.4156 106.094 16.5509 105.869C16.7313 105.553 17.3627 105.328 18.4451 105.192C19.5275 105.012 20.8354 104.922 22.3688 104.922C23.9474 104.922 25.6386 104.967 27.4426 105.057C29.2466 105.147 30.9154 105.282 32.4488 105.463C34.0273 105.598 35.3352 105.756 36.3725 105.936C37.4549 106.117 38.0638 106.275 38.1991 106.41C38.3795 106.59 38.402 107.086 38.2667 107.898C38.1765 108.665 37.9961 109.522 37.7255 110.469C37.5 111.371 37.2069 112.228 36.8461 113.04C36.5304 113.852 36.2598 114.37 36.0343 114.596C35.8088 114.821 34.7489 114.799 32.8547 114.528C31.0056 114.257 28.0289 113.942 23.9248 113.581V124.879C27.0818 125.149 29.5398 125.397 31.2987 125.623C33.1027 125.848 34.0498 126.006 34.14 126.096C34.3204 126.277 34.3881 126.637 34.343 127.179C34.2979 127.72 34.1851 128.306 34.0047 128.938C33.8243 129.524 33.5988 130.088 33.3282 130.629C33.0576 131.125 32.787 131.463 32.5164 131.644C32.3811 131.734 31.5693 131.869 30.081 132.05C28.6378 132.23 26.5857 132.388 23.9248 132.523Z" fill="url(#paint3_linear_460_841)"/>
<path d="M47.655 105.043C47.6123 104.989 47.5442 104.965 47.479 104.981C47.0974 105.078 46.7388 105.31 46.4417 105.651L46.3238 105.786L46.3112 105.603C46.3069 105.539 46.3026 105.474 46.2984 105.409C46.2308 104.374 46.1543 103.201 45.2912 102.493C43.9162 101.365 43.2807 100.458 42.9897 99.8949C42.956 99.8298 42.8884 99.7919 42.8188 99.7996C42.7488 99.8068 42.6895 99.8574 42.6681 99.9283C42.5207 100.417 42.3616 101.11 42.4404 101.63C42.5032 102.045 42.7753 102.467 43.0388 102.876C43.338 103.34 43.6206 103.779 43.5378 104.152C43.4987 104.328 43.379 104.478 43.182 104.595C43.0465 104.677 42.91 104.716 42.7761 104.713C42.512 104.707 42.2588 104.529 42.0632 104.213C41.8414 103.854 41.7131 103.356 41.7363 102.944C41.7396 102.885 41.7163 102.828 41.6735 102.791C41.6306 102.753 41.5733 102.739 41.5192 102.754C41.2231 102.831 40.9343 103.01 40.7057 103.259C40.3881 103.604 40.2175 104.04 40.2376 104.454C40.262 104.947 40.5112 105.388 40.7522 105.815C40.9652 106.192 41.1854 106.582 41.2284 106.99C41.2554 107.246 41.2123 107.442 41.1004 107.571C41.0315 107.65 40.8996 107.744 40.6621 107.738C40.3868 107.732 40.0416 107.598 39.7388 107.38C39.6851 107.341 39.6153 107.337 39.5576 107.369C39.4999 107.401 39.4638 107.465 39.4639 107.534C39.4641 108.619 39.7962 109.592 40.4241 110.349C41.121 111.189 42.1222 111.665 43.2434 111.691C43.6996 111.701 44.173 111.637 44.6503 111.5C46.2343 111.047 47.3678 109.334 47.2309 107.601C47.1913 107.1 47.2372 106.283 47.6801 105.237C47.7074 105.172 47.6977 105.097 47.655 105.043Z" fill="#FF6A07"/>
<path d="M54.7534 101.789C54.7127 101.736 54.6456 101.711 54.5798 101.724C54.195 101.8 53.8283 102.005 53.5191 102.315L53.3964 102.438L53.3904 102.264C53.3884 102.204 53.3865 102.143 53.3847 102.081C53.3547 101.098 53.3209 99.9851 52.4842 99.28C51.1513 98.1561 50.5493 97.2714 50.279 96.727C50.2477 96.664 50.1815 96.6254 50.1116 96.6298C50.0414 96.6338 49.9803 96.6793 49.9565 96.7455C49.7915 97.2023 49.6074 97.851 49.6672 98.3469C49.7148 98.742 49.9714 99.1527 50.2198 99.5504C50.5019 100.002 50.7684 100.429 50.6721 100.778C50.6266 100.944 50.5016 101.08 50.3005 101.183C50.1621 101.255 50.0243 101.287 49.8906 101.278C49.627 101.262 49.3805 101.083 49.1965 100.776C48.9879 100.427 48.8778 99.9507 48.916 99.5617C48.9214 99.5063 48.9002 99.4514 48.8588 99.4141C48.8173 99.3767 48.7605 99.3613 48.706 99.3724C48.4073 99.4335 48.1122 99.5915 47.8749 99.8174C47.545 100.131 47.3587 100.537 47.3638 100.93C47.3703 101.397 47.6032 101.825 47.8285 102.239C48.0276 102.604 48.2335 102.983 48.2617 103.37C48.2794 103.613 48.2292 103.797 48.1127 103.914C48.041 103.987 47.9058 104.07 47.6687 104.055C47.3938 104.038 47.0538 103.897 46.7592 103.678C46.707 103.639 46.6374 103.633 46.5785 103.661C46.5198 103.689 46.4814 103.747 46.4789 103.812C46.4398 104.839 46.7362 105.774 47.3362 106.516C48.0019 107.339 48.985 107.831 50.1043 107.901C50.5598 107.929 51.0351 107.888 51.517 107.778C53.116 107.414 54.3107 105.839 54.2369 104.194C54.2155 103.717 54.291 102.946 54.7715 101.974C54.8011 101.914 54.7941 101.842 54.7534 101.789Z" fill="#FF6A07"/>
<path d="M58.8694 107.271C58.8667 107.204 58.8263 107.145 58.7651 107.118C58.4066 106.959 57.989 106.915 57.5574 106.991L57.3861 107.021L57.4813 106.876C57.5145 106.825 57.5482 106.774 57.5823 106.722C58.1229 105.901 58.7357 104.971 58.4569 103.913C58.0133 102.227 58.0298 101.157 58.1219 100.556C58.1326 100.487 58.1007 100.417 58.041 100.38C57.9812 100.343 57.9051 100.345 57.8475 100.386C57.4497 100.665 56.926 101.089 56.6895 101.529C56.5012 101.88 56.4748 102.363 56.4492 102.832C56.4201 103.363 56.3927 103.866 56.1128 104.096C55.9804 104.205 55.7998 104.245 55.5758 104.214C55.4216 104.192 55.2906 104.139 55.186 104.055C54.9798 103.89 54.8809 103.603 54.9073 103.245C54.9371 102.84 55.1213 102.387 55.3763 102.091C55.4126 102.048 55.4268 101.991 55.4144 101.937C55.402 101.883 55.3644 101.837 55.3134 101.815C55.034 101.693 54.7017 101.653 54.3776 101.701C53.9271 101.768 53.5415 101.992 53.3196 102.317C53.0561 102.703 53.0005 103.187 52.9467 103.655C52.8992 104.068 52.8501 104.496 52.6501 104.829C52.5246 105.039 52.3782 105.16 52.2152 105.189C52.1148 105.207 51.9565 105.197 51.7711 105.049C51.5561 104.876 51.3591 104.566 51.244 104.217C51.2237 104.155 51.1706 104.11 51.1063 104.099C51.042 104.088 50.977 104.114 50.9375 104.166C50.3147 104.983 50.0194 105.918 50.0834 106.87C50.1543 107.926 50.6755 108.894 51.5509 109.595C51.907 109.881 52.3196 110.12 52.7769 110.308C54.2945 110.93 56.1775 110.329 57.0639 108.94C57.3204 108.538 57.826 107.951 58.778 107.432C58.8367 107.401 58.8721 107.338 58.8694 107.271Z" fill="#FF6A07"/>
<path d="M74.1031 104.827C74.0604 104.772 73.9923 104.749 73.9271 104.765C73.5455 104.862 73.1869 105.094 72.8898 105.435L72.7719 105.57L72.7593 105.387C72.755 105.323 72.7507 105.258 72.7466 105.193C72.6789 104.158 72.6024 102.985 71.7393 102.277C70.3643 101.149 69.7288 100.241 69.4378 99.6788C69.4041 99.6137 69.3366 99.5758 69.2669 99.5835C69.1969 99.5908 69.1376 99.6413 69.1162 99.7122C68.9689 100.201 68.8098 100.894 68.8885 101.414C68.9513 101.829 69.2234 102.251 69.4869 102.66C69.7861 103.124 70.0688 103.563 69.9859 103.936C69.9468 104.112 69.8271 104.262 69.6302 104.379C69.4946 104.46 69.3581 104.5 69.2242 104.497C68.9601 104.491 68.7069 104.313 68.5113 103.997C68.2895 103.638 68.1612 103.14 68.1844 102.728C68.1877 102.669 68.1644 102.612 68.1216 102.575C68.0787 102.537 68.0214 102.523 67.9673 102.537C67.6712 102.615 67.3824 102.794 67.1539 103.043C66.8362 103.388 66.6656 103.824 66.6857 104.238C66.7102 104.731 66.9593 105.172 67.2003 105.599C67.4133 105.976 67.6335 106.366 67.6765 106.774C67.7035 107.03 67.6604 107.225 67.5485 107.355C67.4796 107.434 67.3477 107.528 67.1103 107.522C66.8349 107.516 66.4898 107.382 66.1869 107.164C66.1332 107.125 66.0634 107.121 66.0057 107.153C65.9481 107.185 65.912 107.249 65.912 107.317C65.9122 108.403 66.2443 109.376 66.8723 110.133C67.5691 110.973 68.5703 111.449 69.6915 111.474C70.1477 111.485 70.6211 111.421 71.0985 111.284C72.6824 110.831 73.8159 109.118 73.6791 107.385C73.6394 106.884 73.6853 106.067 74.1282 105.021C74.1556 104.956 74.1458 104.881 74.1031 104.827Z" fill="#FF6A07"/>
<path d="M81.2016 101.573C81.1609 101.52 81.0937 101.495 81.028 101.508C80.6432 101.584 80.2765 101.788 79.9673 102.099L79.8446 102.222L79.8386 102.048C79.8366 101.988 79.8347 101.926 79.8329 101.865C79.8029 100.882 79.769 99.7687 78.9324 99.0637C77.5995 97.9398 76.9975 97.0551 76.7272 96.5107C76.6959 96.4477 76.6297 96.4091 76.5598 96.4135C76.4896 96.4175 76.4285 96.463 76.4046 96.5292C76.2396 96.986 76.0555 97.6347 76.1153 98.1306C76.163 98.5257 76.4196 98.9364 76.668 99.3341C76.9501 99.7858 77.2166 100.212 77.1203 100.562C77.0748 100.727 76.9498 100.864 76.7487 100.967C76.6103 101.038 76.4725 101.07 76.3388 101.062C76.0752 101.045 75.8287 100.867 75.6447 100.56C75.4361 100.211 75.326 99.7344 75.3642 99.3454C75.3696 99.2899 75.3483 99.2351 75.307 99.1978C75.2655 99.1604 75.2087 99.145 75.1541 99.1561C74.8555 99.2172 74.5604 99.3752 74.323 99.6011C73.9932 99.9151 73.8069 100.321 73.812 100.713C73.8185 101.181 74.0514 101.609 74.2767 102.022C74.4758 102.388 74.6817 102.766 74.7099 103.154C74.7275 103.397 74.6774 103.58 74.5609 103.698C74.4891 103.77 74.3539 103.854 74.1169 103.839C73.842 103.822 73.502 103.681 73.2074 103.462C73.1552 103.423 73.0856 103.416 73.0267 103.444C72.9679 103.472 72.9296 103.531 72.9271 103.596C72.888 104.623 73.1844 105.558 73.7844 106.3C74.4501 107.123 75.4332 107.615 76.5525 107.685C77.0079 107.713 77.4832 107.672 77.9651 107.562C79.5642 107.197 80.7589 105.623 80.685 103.977C80.6637 103.501 80.7391 102.729 81.2197 101.758C81.2493 101.698 81.2422 101.626 81.2016 101.573Z" fill="#FF6A07"/>
<path d="M85.3177 107.055C85.315 106.988 85.2745 106.929 85.2134 106.901C84.8548 106.742 84.4372 106.699 84.0056 106.775L83.8344 106.805L83.9295 106.659C83.9627 106.609 83.9964 106.557 84.0305 106.506C84.5711 105.685 85.1839 104.755 84.9052 103.697C84.4615 102.011 84.4781 100.941 84.5702 100.34C84.5808 100.271 84.5489 100.201 84.4892 100.164C84.4294 100.127 84.3533 100.129 84.2957 100.17C83.8979 100.448 83.3742 100.873 83.1378 101.313C82.9495 101.664 82.9231 102.147 82.8974 102.615C82.8684 103.147 82.8409 103.649 82.561 103.88C82.4287 103.989 82.248 104.029 82.024 103.998C81.8699 103.976 81.7388 103.923 81.6342 103.839C81.4281 103.674 81.3291 103.387 81.3555 103.029C81.3854 102.624 81.5695 102.171 81.8245 101.875C81.8608 101.832 81.875 101.775 81.8626 101.721C81.8502 101.667 81.8127 101.621 81.7616 101.599C81.4822 101.477 81.1499 101.437 80.8258 101.485C80.3753 101.552 79.9898 101.776 79.7679 102.101C79.5043 102.487 79.4487 102.971 79.3949 103.439C79.3474 103.852 79.2983 104.28 79.0984 104.613C78.9729 104.823 78.8265 104.944 78.6634 104.973C78.5631 104.991 78.4047 104.981 78.2193 104.833C78.0043 104.66 77.8073 104.349 77.6923 104.001C77.6719 103.939 77.6188 103.894 77.5545 103.883C77.4903 103.872 77.4253 103.898 77.3857 103.95C76.763 104.767 76.4676 105.702 76.5316 106.654C76.6026 107.71 77.1238 108.678 77.9991 109.379C78.3553 109.665 78.7678 109.904 79.2251 110.092C80.7427 110.713 82.6257 110.113 83.5121 108.724C83.7686 108.322 84.2742 107.735 85.2262 107.216C85.285 107.184 85.3204 107.122 85.3177 107.055Z" fill="#FF6A07"/>
<path d="M111.74 104.003C111.712 103.942 111.652 103.903 111.585 103.902C111.193 103.893 110.79 104.014 110.421 104.25L110.275 104.344L110.307 104.173C110.318 104.113 110.329 104.053 110.341 103.992C110.523 103.027 110.731 101.932 110.066 101.063C109.007 99.6784 108.61 98.6846 108.463 98.0947C108.446 98.0264 108.39 97.9745 108.321 97.9637C108.251 97.9525 108.182 97.9837 108.144 98.0432C107.885 98.4536 107.565 99.0473 107.516 99.5445C107.478 99.9406 107.64 100.397 107.796 100.839C107.974 101.341 108.143 101.815 107.973 102.135C107.893 102.287 107.741 102.393 107.523 102.451C107.372 102.491 107.231 102.492 107.102 102.455C106.848 102.382 106.646 102.155 106.533 101.815C106.404 101.429 106.4 100.94 106.521 100.569C106.538 100.516 106.529 100.458 106.497 100.412C106.464 100.367 106.412 100.339 106.357 100.338C106.052 100.334 105.73 100.424 105.449 100.594C105.059 100.829 104.79 101.185 104.71 101.57C104.616 102.027 104.751 102.495 104.881 102.948C104.997 103.348 105.116 103.762 105.06 104.146C105.025 104.388 104.937 104.556 104.797 104.645C104.712 104.701 104.562 104.753 104.334 104.687C104.069 104.611 103.767 104.4 103.527 104.123C103.484 104.074 103.418 104.052 103.354 104.067C103.291 104.082 103.241 104.13 103.224 104.193C102.964 105.188 103.052 106.165 103.478 107.018C103.95 107.966 104.804 108.658 105.882 108.968C106.321 109.094 106.794 109.156 107.288 109.153C108.928 109.142 110.434 107.862 110.717 106.239C110.799 105.77 111.039 105.032 111.718 104.187C111.76 104.135 111.768 104.064 111.74 104.003Z" fill="#FF6A07"/>
<path d="M106.835 101.714C106.807 101.653 106.746 101.614 106.679 101.612C106.287 101.604 105.885 101.724 105.516 101.961L105.37 102.055L105.401 101.884C105.413 101.824 105.424 101.764 105.435 101.703C105.618 100.737 105.825 99.6429 105.16 98.774C104.101 97.3891 103.704 96.3953 103.558 95.8054C103.541 95.7371 103.485 95.6852 103.415 95.6744C103.346 95.6632 103.277 95.6943 103.239 95.7539C102.979 96.1643 102.66 96.758 102.611 97.2552C102.572 97.6513 102.734 98.1076 102.891 98.5496C103.069 99.0514 102.366 99.845 102.197 100.166C102.117 100.317 102.836 100.104 102.617 100.162C102.467 100.201 102.326 100.203 102.197 100.166C101.943 100.093 101.741 99.8653 101.627 99.5254C101.499 99.14 101.494 98.6509 101.615 98.2793C101.633 98.2263 101.624 98.1682 101.591 98.1228C101.559 98.0773 101.507 98.0501 101.451 98.0492C101.146 98.0444 100.824 98.135 100.544 98.3044C100.154 98.5398 99.8844 98.8955 99.8046 99.2803C99.7101 99.7381 99.8453 100.206 99.976 100.659C100.092 101.059 100.211 101.472 100.155 101.857C100.12 102.098 100.031 102.266 99.892 102.356C99.8063 102.411 99.6564 102.463 99.4281 102.398C99.1634 102.322 98.8618 102.111 98.6214 101.833C98.5787 101.784 98.5122 101.763 98.4487 101.777C98.3852 101.792 98.3352 101.841 98.3187 101.904C98.0589 102.898 98.1467 103.875 98.5725 104.729C99.045 105.676 99.8988 106.369 100.977 106.678C101.415 106.804 101.888 106.867 102.383 106.863C104.023 106.853 105.529 105.573 105.812 103.95C105.894 103.48 106.134 102.743 106.813 101.898C106.854 101.846 106.863 101.774 106.835 101.714Z" fill="#FF6A07"/>
<path d="M101.929 102.368C101.901 102.307 101.841 102.268 101.774 102.266C101.382 102.258 100.98 102.378 100.611 102.615L100.464 102.709L100.496 102.538C100.507 102.478 100.518 102.418 100.53 102.357C100.713 101.391 100.92 100.297 100.255 99.4281C99.1959 98.0431 98.7989 97.0493 98.6524 96.4594C98.6354 96.3912 98.5792 96.3392 98.51 96.3284C98.4406 96.3172 98.3711 96.3484 98.3335 96.4079C98.0738 96.8184 97.7541 97.412 97.7055 97.9092C97.6669 98.3053 97.8288 98.7617 97.9855 99.2036C98.1635 99.7055 98.3317 100.18 98.1623 100.5C98.0822 100.652 97.9307 100.758 97.7121 100.816C97.5616 100.855 97.4201 100.857 97.2914 100.82C97.0375 100.747 96.8353 100.519 96.722 100.179C96.5935 99.7941 96.5888 99.3049 96.71 98.9334C96.7272 98.8804 96.7183 98.8223 96.686 98.7769C96.6535 98.7314 96.6014 98.7041 96.5457 98.7032C96.2409 98.6984 95.9187 98.789 95.6382 98.9585C95.2483 99.1939 94.979 99.5495 94.8992 99.9343C94.8047 100.392 94.9399 100.86 95.0706 101.313C95.1861 101.713 95.3056 102.126 95.2495 102.511C95.2143 102.752 95.1258 102.92 94.9866 103.01C94.9009 103.065 94.751 103.117 94.5227 103.052C94.258 102.976 93.9564 102.765 93.716 102.488C93.6733 102.438 93.6068 102.417 93.5433 102.432C93.4798 102.446 93.4298 102.495 93.4133 102.558C93.1535 103.553 93.2413 104.529 93.6671 105.383C94.1396 106.33 94.9934 107.023 96.0713 107.332C96.5099 107.458 96.9829 107.521 97.4772 107.517C99.1172 107.507 100.623 106.227 100.906 104.604C100.988 104.134 101.228 103.397 101.907 102.552C101.949 102.5 101.958 102.429 101.929 102.368Z" fill="#FF6A07"/>
<path d="M115.55 106.745C115.526 106.685 115.472 106.648 115.411 106.648C115.053 106.649 114.683 106.779 114.34 107.023L114.204 107.12L114.237 106.949C114.249 106.89 114.261 106.829 114.273 106.769C114.464 105.806 114.68 104.714 114.095 103.868C113.162 102.519 112.825 101.542 112.705 100.96C112.692 100.893 112.642 100.843 112.579 100.834C112.516 100.824 112.451 100.857 112.416 100.917C112.168 101.331 111.861 101.928 111.805 102.423C111.759 102.818 111.896 103.267 112.028 103.701C112.178 104.195 112.32 104.662 112.157 104.984C112.08 105.137 111.939 105.246 111.738 105.309C111.6 105.352 111.47 105.357 111.354 105.323C111.124 105.257 110.945 105.036 110.85 104.702C110.742 104.322 110.75 103.837 110.87 103.465C110.887 103.412 110.88 103.354 110.852 103.31C110.824 103.266 110.777 103.24 110.726 103.241C110.448 103.243 110.151 103.341 109.891 103.517C109.529 103.76 109.274 104.12 109.192 104.504C109.094 104.961 109.206 105.422 109.314 105.868C109.409 106.263 109.508 106.67 109.447 107.053C109.409 107.294 109.324 107.463 109.195 107.556C109.115 107.613 108.977 107.668 108.77 107.609C108.53 107.54 108.26 107.338 108.047 107.068C108.01 107.021 107.95 107.001 107.891 107.017C107.833 107.033 107.786 107.083 107.769 107.146C107.507 108.14 107.563 109.107 107.931 109.944C108.338 110.873 109.101 111.539 110.077 111.82C110.475 111.934 110.905 111.984 111.356 111.968C112.854 111.917 114.261 110.608 114.56 108.99C114.647 108.522 114.885 107.784 115.525 106.928C115.565 106.875 115.575 106.804 115.55 106.745Z" fill="#FF6A07"/>
<path d="M37.927 103.022C37.8987 102.961 37.8386 102.922 37.7716 102.92C37.3795 102.912 36.9772 103.032 36.6083 103.269L36.4619 103.363L36.4936 103.192C36.5047 103.132 36.5161 103.072 36.5277 103.011C36.7103 102.046 36.9174 100.951 36.2526 100.082C35.1935 98.6972 34.7965 97.7034 34.65 97.1135C34.6331 97.0452 34.5768 96.9933 34.5076 96.9825C34.4382 96.9713 34.3687 97.0025 34.3311 97.062C34.0715 97.4724 33.7518 98.0661 33.7032 98.5633C33.6645 98.9594 33.8264 99.4157 33.9831 99.8577C34.1611 100.36 34.3294 100.834 34.1599 101.154C34.0798 101.306 33.9283 101.412 33.7097 101.47C33.5592 101.509 33.4178 101.511 33.289 101.474C33.0352 101.401 32.8329 101.173 32.7196 100.833C32.5911 100.448 32.5864 99.959 32.7076 99.5874C32.7248 99.5344 32.7159 99.4763 32.6836 99.4309C32.6511 99.3854 32.5991 99.3582 32.5434 99.3573C32.2386 99.3525 31.9163 99.4431 31.6358 99.6125C31.246 99.848 30.9766 100.204 30.8968 100.588C30.8023 101.046 30.9375 101.514 31.0682 101.967C31.1837 102.367 31.3032 102.78 31.2471 103.165C31.2119 103.406 31.1234 103.574 30.9842 103.664C30.8985 103.72 30.7486 103.772 30.5203 103.706C30.2556 103.63 29.9541 103.419 29.7136 103.142C29.671 103.092 29.6045 103.071 29.5409 103.086C29.4775 103.1 29.4274 103.149 29.4109 103.212C29.1512 104.207 29.2389 105.183 29.6648 106.037C30.1372 106.985 30.9911 107.677 32.0689 107.986C32.5075 108.113 32.9805 108.175 33.4748 108.172C35.1148 108.161 36.621 106.881 36.904 105.258C36.9858 104.788 37.226 104.051 37.9048 103.206C37.9467 103.154 37.9552 103.083 37.927 103.022Z" fill="#FF6A07"/>
<path d="M30.2653 100.952C30.2214 100.905 30.1528 100.886 30.088 100.902C29.7087 100.995 29.3554 101.206 29.0662 101.512L28.9514 101.633L28.9346 101.472C28.9288 101.416 28.9231 101.359 28.9175 101.302C28.8263 100.392 28.7231 99.3604 27.8442 98.7544C26.4439 97.7883 25.7879 97.0019 25.4842 96.5122C25.449 96.4555 25.3806 96.4235 25.3111 96.4317C25.2412 96.4395 25.1831 96.4852 25.1634 96.5481C25.0272 96.9817 24.8839 97.5945 24.9745 98.0515C25.0467 98.4155 25.3283 98.7819 25.601 99.1367C25.9107 99.5396 26.2033 99.9202 26.129 100.25C26.0939 100.406 25.9776 100.54 25.7834 100.648C25.6497 100.722 25.5141 100.76 25.3802 100.76C25.116 100.76 24.8589 100.608 24.6561 100.334C24.4262 100.022 24.2866 99.586 24.3004 99.2227C24.3024 99.1709 24.2778 99.1213 24.2341 99.089C24.1904 99.0567 24.1328 99.0457 24.079 99.0592C23.7848 99.1332 23.5001 99.2969 23.2773 99.5204C22.9676 99.8311 22.8069 100.218 22.8365 100.583C22.8721 101.016 23.1313 101.4 23.3819 101.771C23.6034 102.099 23.8324 102.438 23.8847 102.796C23.9175 103.021 23.8789 103.194 23.77 103.31C23.7028 103.381 23.5731 103.466 23.3356 103.466C23.0602 103.466 22.7121 103.355 22.4044 103.169C22.3498 103.136 22.2799 103.134 22.223 103.163C22.166 103.193 22.1314 103.249 22.133 103.31C22.1579 104.266 22.512 105.116 23.1571 105.77C23.8728 106.496 24.8846 106.895 26.0061 106.895C26.4624 106.895 26.9342 106.829 27.4084 106.699C28.9816 106.268 30.0758 104.738 29.8996 103.214C29.8486 102.773 29.8758 102.053 30.2949 101.123C30.3207 101.065 30.3092 100.999 30.2653 100.952Z" fill="#FF6A07"/>
<path d="M13.8896 102.872C13.9137 102.805 13.9748 102.756 14.0471 102.744C14.4707 102.676 14.9189 102.739 15.3432 102.927L15.5115 103.001L15.4592 102.83C15.4409 102.771 15.4223 102.71 15.4034 102.65C15.1041 101.686 14.7648 100.594 15.3933 99.602C16.3942 98.0209 16.7195 96.941 16.8161 96.3135C16.8273 96.2409 16.8827 96.1791 16.9565 96.1576C17.0305 96.1356 17.109 96.1572 17.1559 96.2126C17.4802 96.5948 17.8887 97.156 17.9936 97.659C18.0772 98.0597 17.9498 98.5526 17.8266 99.0298C17.6866 99.5717 17.5544 100.084 17.7715 100.387C17.8742 100.531 18.0493 100.617 18.2921 100.643C18.4592 100.661 18.6125 100.641 18.748 100.584C19.0152 100.471 19.2102 100.207 19.2971 99.8411C19.3957 99.4262 19.3494 98.9234 19.1791 98.5603C19.1549 98.5085 19.1584 98.4475 19.1887 98.396C19.219 98.3445 19.2725 98.3086 19.3327 98.2993C19.6622 98.2485 20.0206 98.293 20.3421 98.4246C20.7889 98.6076 21.1179 98.932 21.2448 99.315C21.3952 99.7706 21.298 100.271 21.2041 100.756C21.1211 101.184 21.0353 101.626 21.1364 102.013C21.1999 102.255 21.3134 102.414 21.4735 102.485C21.5721 102.529 21.7399 102.56 21.9801 102.458C22.2587 102.34 22.563 102.078 22.7942 101.757C22.8352 101.701 22.9049 101.668 22.9752 101.674C23.0455 101.68 23.1048 101.722 23.1293 101.784C23.5151 102.766 23.5227 103.782 23.1515 104.722C22.7396 105.766 21.888 106.605 20.7536 107.085C20.292 107.281 19.7864 107.416 19.251 107.487C17.4743 107.723 15.7091 106.636 15.2322 105.013C15.0942 104.543 14.7567 103.823 13.9329 103.057C13.8821 103.01 13.8653 102.938 13.8896 102.872Z" fill="#FF6A07"/>
<path d="M73.4452 5.76477C73.7809 7.55609 73.2155 9.0128 71.4293 9.20078C68.9561 9.29035 68.459 7.42845 68.4283 7.34394C67.9323 5.97786 68.5797 3.34195 69.3394 1.46374C69.9132 0.0447425 71.2147 0.185666 71.9139 1.54731C72.756 3.1874 73.2078 4.49769 73.4452 5.76477Z" fill="#FAAB35"/>
<path fill-rule="evenodd" clip-rule="evenodd" d="M72.9437 7.93143C73.2194 7.40891 73.284 6.67992 73.1238 5.825C72.8933 4.59497 72.4538 3.31472 71.623 1.69669C71.3027 1.07292 70.886 0.808096 70.5607 0.789261C70.2629 0.772012 69.8969 0.95735 69.6425 1.58635C69.2695 2.50861 68.9248 3.61569 68.7347 4.65476C68.5418 5.70856 68.519 6.63557 68.7357 7.23234C68.7373 7.2368 68.7396 7.24386 68.7426 7.25331C68.7758 7.35604 68.8998 7.74016 69.2511 8.11358C69.6232 8.50917 70.2718 8.91263 71.4061 8.87437C72.1975 8.78826 72.6791 8.43289 72.9437 7.93143ZM71.4293 9.20078C73.2155 9.0128 73.7809 7.55609 73.4452 5.76477C73.2078 4.49769 72.756 3.1874 71.9139 1.54731C71.2147 0.185667 69.9132 0.0447422 69.3394 1.46374C68.5797 3.34195 67.9323 5.97786 68.4283 7.34394C68.4295 7.34709 68.4312 7.3527 68.4338 7.36058C68.4988 7.56437 69.0481 9.28702 71.4293 9.20078Z" fill="#FAAB35"/>
<path d="M115.318 29.7178C115.318 37.3937 105.508 43.1257 78.0379 29.7178C50.568 16.3099 19.1738 39.5193 19.1738 31.8434C19.1738 24.1675 37.8141 11.241 66.2651 8.78833C93.8983 8.78833 115.318 22.0419 115.318 29.7178Z" fill="#FAAB35"/>
<defs>
<linearGradient id="paint0_linear_460_841" x1="103.184" y1="103.298" x2="98.9748" y2="225.068" gradientUnits="userSpaceOnUse">
<stop offset="0.0436803" stop-color="#FF6A07"/>
<stop offset="0.75" stop-color="#994004"/>
</linearGradient>
<linearGradient id="paint1_linear_460_841" x1="76.151" y1="103.36" x2="71.3807" y2="227.212" gradientUnits="userSpaceOnUse">
<stop offset="0.0436803" stop-color="#FF6A07"/>
<stop offset="0.754" stop-color="#994004"/>
</linearGradient>
<linearGradient id="paint2_linear_460_841" x1="49.4292" y1="103.36" x2="44.6588" y2="227.212" gradientUnits="userSpaceOnUse">
<stop offset="0.0436803" stop-color="#FF6A07"/>
<stop offset="0.754" stop-color="#994004"/>
</linearGradient>
<linearGradient id="paint3_linear_460_841" x1="27.3001" y1="104.922" x2="22.9615" y2="222.824" gradientUnits="userSpaceOnUse">
<stop offset="0.0436803" stop-color="#FF6A07"/>
<stop offset="0.754" stop-color="#994004"/>
</linearGradient>
</defs>
</svg>
