<svg width="20" height="20" viewBox="0 0 20 20" fill="none" xmlns="http://www.w3.org/2000/svg">
<path d="M17.0012 3.15862C16.0845 2.26359 14.9926 1.55403 13.7893 1.07135C12.586 0.588658 11.2953 0.342501 9.9925 0.347235C4.53375 0.347235 0.085 4.64771 0.08 9.92721C0.08 11.6182 0.5375 13.2632 1.40125 14.7196L0 19.6861L5.255 18.3541C6.70811 19.1207 8.33719 19.5218 9.9925 19.5205H9.9975C15.4575 19.5205 19.905 15.22 19.91 9.93567C19.9111 8.6763 19.6546 7.42916 19.1551 6.26606C18.6557 5.10296 17.9245 4.04687 17.0012 3.15862ZM9.9925 17.8984C8.51647 17.8973 7.06778 17.5133 5.7975 16.7865L5.4975 16.6124L2.38 17.4029L3.2125 14.4622L3.0175 14.1588C2.19226 12.8901 1.75581 11.4212 1.75875 9.92238C1.75875 5.53971 5.455 1.96445 9.9975 1.96445C11.0797 1.96257 12.1515 2.16784 13.1513 2.56841C14.151 2.96899 15.0589 3.55695 15.8225 4.2984C16.5886 5.03708 17.196 5.91506 17.6096 6.88174C18.0232 7.84842 18.2349 8.88469 18.2325 9.93084C18.2275 14.3292 14.5312 17.8984 9.9925 17.8984ZM14.5112 11.9348C14.265 11.8152 13.0487 11.2362 12.82 11.154C12.5925 11.0755 12.4262 11.0344 12.2637 11.2737C12.0975 11.5118 11.6225 12.0545 11.48 12.2104C11.3375 12.3712 11.19 12.3893 10.9425 12.2708C10.6962 12.15 9.8975 11.8986 8.9525 11.0803C8.215 10.4457 7.72125 9.6601 7.57375 9.42199C7.43125 9.18267 7.56 9.05455 7.68375 8.93489C7.7925 8.82853 7.93 8.65448 8.05375 8.51669C8.17875 8.3789 8.22 8.27737 8.30125 8.11782C8.3825 7.95586 8.34375 7.81807 8.2825 7.69841C8.22 7.57875 7.72625 6.39788 7.5175 5.92166C7.3175 5.45148 7.11375 5.51675 6.96125 5.51071C6.81875 5.50224 6.6525 5.50224 6.48625 5.50224C6.36072 5.50533 6.2372 5.53344 6.12342 5.58481C6.00963 5.63618 5.90804 5.70971 5.825 5.80079C5.5975 6.04011 4.96125 6.61906 4.96125 7.79994C4.96125 8.98082 5.84875 10.1158 5.97375 10.2765C6.09625 10.4373 7.71625 12.8534 10.2025 13.8929C10.79 14.1407 11.2525 14.2869 11.6137 14.3981C12.2075 14.5818 12.7437 14.554 13.1712 14.4948C13.6462 14.4247 14.635 13.9146 14.8437 13.355C15.0487 12.7942 15.0487 12.3156 14.9862 12.2152C14.925 12.1137 14.7587 12.0545 14.5112 11.9348Z" fill="#FF6A07"/>
</svg>
