<svg width="1920" height="1080" viewBox="0 0 1920 1080" fill="none" xmlns="http://www.w3.org/2000/svg">
<rect width="1920" height="1080" fill="#FFE5D4"/>
<path d="M247.335 196.418V235H240.684V196.418H247.335ZM263.076 213.298V218.571H245.639V213.298H263.076ZM265.275 196.418V201.718H245.639V196.418H265.275ZM268.137 220.982V220.373C268.137 218.306 268.437 216.389 269.038 214.623C269.638 212.838 270.504 211.293 271.635 209.985C272.783 208.66 274.179 207.636 275.821 206.911C277.482 206.169 279.355 205.798 281.439 205.798C283.541 205.798 285.414 206.169 287.057 206.911C288.717 207.636 290.122 208.66 291.27 209.985C292.418 211.293 293.293 212.838 293.894 214.623C294.494 216.389 294.794 218.306 294.794 220.373V220.982C294.794 223.049 294.494 224.966 293.894 226.732C293.293 228.499 292.418 230.045 291.27 231.37C290.122 232.677 288.726 233.702 287.083 234.444C285.44 235.168 283.577 235.53 281.492 235.53C279.39 235.53 277.509 235.168 275.848 234.444C274.205 233.702 272.809 232.677 271.661 231.37C270.513 230.045 269.638 228.499 269.038 226.732C268.437 224.966 268.137 223.049 268.137 220.982ZM274.523 220.373V220.982C274.523 222.272 274.655 223.491 274.92 224.639C275.185 225.787 275.601 226.794 276.166 227.66C276.731 228.525 277.456 229.206 278.339 229.7C279.222 230.195 280.273 230.442 281.492 230.442C282.676 230.442 283.7 230.195 284.566 229.7C285.449 229.206 286.174 228.525 286.739 227.66C287.304 226.794 287.719 225.787 287.984 224.639C288.267 223.491 288.408 222.272 288.408 220.982V220.373C288.408 219.101 288.267 217.9 287.984 216.769C287.719 215.621 287.295 214.605 286.712 213.722C286.147 212.838 285.423 212.149 284.539 211.655C283.674 211.142 282.64 210.886 281.439 210.886C280.238 210.886 279.196 211.142 278.312 211.655C277.447 212.149 276.731 212.838 276.166 213.722C275.601 214.605 275.185 215.621 274.92 216.769C274.655 217.9 274.523 219.101 274.523 220.373ZM306.48 212.45V235H300.094V206.328H306.109L306.48 212.45ZM305.341 219.604L303.274 219.578C303.292 217.546 303.574 215.682 304.122 213.987C304.687 212.291 305.465 210.833 306.454 209.614C307.461 208.395 308.662 207.459 310.058 206.805C311.453 206.134 313.008 205.798 314.721 205.798C316.099 205.798 317.345 205.993 318.458 206.381C319.588 206.752 320.551 207.362 321.346 208.21C322.159 209.058 322.777 210.162 323.201 211.522C323.625 212.865 323.837 214.517 323.837 216.477V235H317.424V216.451C317.424 215.073 317.221 213.987 316.815 213.192C316.426 212.379 315.852 211.805 315.092 211.469C314.35 211.116 313.423 210.939 312.31 210.939C311.215 210.939 310.234 211.169 309.369 211.628C308.503 212.088 307.77 212.715 307.169 213.51C306.586 214.305 306.136 215.223 305.818 216.265C305.5 217.308 305.341 218.421 305.341 219.604ZM343.499 206.328V210.992H327.335V206.328H343.499ZM331.999 199.306H338.385V227.077C338.385 227.96 338.508 228.64 338.756 229.117C339.021 229.577 339.383 229.886 339.842 230.045C340.301 230.204 340.84 230.283 341.459 230.283C341.9 230.283 342.324 230.257 342.731 230.204C343.137 230.151 343.464 230.098 343.711 230.045L343.737 234.921C343.207 235.079 342.589 235.221 341.883 235.344C341.194 235.468 340.399 235.53 339.498 235.53C338.031 235.53 336.733 235.274 335.602 234.762C334.472 234.232 333.588 233.375 332.953 232.191C332.317 231.008 331.999 229.435 331.999 227.474V199.306ZM361.068 235.53C358.948 235.53 357.031 235.185 355.317 234.497C353.621 233.79 352.173 232.809 350.972 231.555C349.788 230.301 348.878 228.826 348.242 227.13C347.606 225.434 347.288 223.606 347.288 221.645V220.585C347.288 218.341 347.615 216.31 348.269 214.49C348.922 212.67 349.832 211.116 350.998 209.826C352.164 208.519 353.542 207.521 355.132 206.832C356.722 206.143 358.444 205.798 360.299 205.798C362.348 205.798 364.141 206.143 365.678 206.832C367.215 207.521 368.487 208.493 369.494 209.747C370.519 210.983 371.278 212.458 371.773 214.172C372.285 215.886 372.541 217.776 372.541 219.843V222.572H350.389V217.988H366.235V217.484C366.199 216.336 365.97 215.259 365.546 214.252C365.14 213.245 364.512 212.432 363.664 211.814C362.816 211.195 361.686 210.886 360.273 210.886C359.213 210.886 358.268 211.116 357.437 211.575C356.625 212.017 355.945 212.662 355.397 213.51C354.849 214.358 354.425 215.382 354.125 216.583C353.842 217.767 353.701 219.101 353.701 220.585V221.645C353.701 222.899 353.869 224.065 354.204 225.143C354.558 226.202 355.07 227.13 355.741 227.925C356.413 228.72 357.225 229.347 358.179 229.806C359.133 230.248 360.22 230.469 361.439 230.469C362.975 230.469 364.345 230.16 365.546 229.541C366.747 228.923 367.789 228.049 368.673 226.918L372.038 230.177C371.42 231.078 370.616 231.944 369.627 232.774C368.637 233.587 367.427 234.249 365.996 234.762C364.583 235.274 362.94 235.53 361.068 235.53Z" fill="#1E1E1E"/>
<path d="M272.489 434.168C272.489 435.56 272.009 436.72 271.049 437.648C270.105 438.56 268.657 439.016 266.705 439.016H263.489V446H261.305V429.272H266.705C268.593 429.272 270.025 429.728 271.001 430.64C271.993 431.552 272.489 432.728 272.489 434.168ZM266.705 437.216C267.921 437.216 268.817 436.952 269.393 436.424C269.969 435.896 270.257 435.144 270.257 434.168C270.257 432.104 269.073 431.072 266.705 431.072H263.489V437.216H266.705ZM280.94 446.216C279.708 446.216 278.588 445.936 277.58 445.376C276.588 444.816 275.804 444.024 275.228 443C274.668 441.96 274.388 440.76 274.388 439.4C274.388 438.056 274.676 436.872 275.252 435.848C275.844 434.808 276.644 434.016 277.652 433.472C278.66 432.912 279.788 432.632 281.036 432.632C282.284 432.632 283.412 432.912 284.42 433.472C285.428 434.016 286.22 434.8 286.796 435.824C287.388 436.848 287.684 438.04 287.684 439.4C287.684 440.76 287.38 441.96 286.772 443C286.18 444.024 285.372 444.816 284.348 445.376C283.324 445.936 282.188 446.216 280.94 446.216ZM280.94 444.296C281.724 444.296 282.46 444.112 283.148 443.744C283.836 443.376 284.388 442.824 284.804 442.088C285.236 441.352 285.452 440.456 285.452 439.4C285.452 438.344 285.244 437.448 284.828 436.712C284.412 435.976 283.868 435.432 283.196 435.08C282.524 434.712 281.796 434.528 281.012 434.528C280.212 434.528 279.476 434.712 278.804 435.08C278.148 435.432 277.62 435.976 277.22 436.712C276.82 437.448 276.62 438.344 276.62 439.4C276.62 440.472 276.812 441.376 277.196 442.112C277.596 442.848 278.124 443.4 278.78 443.768C279.436 444.12 280.156 444.296 280.94 444.296ZM292.739 435.272C293.171 434.52 293.811 433.896 294.659 433.4C295.523 432.888 296.523 432.632 297.659 432.632C298.827 432.632 299.883 432.912 300.827 433.472C301.787 434.032 302.539 434.824 303.083 435.848C303.627 436.856 303.899 438.032 303.899 439.376C303.899 440.704 303.627 441.888 303.083 442.928C302.539 443.968 301.787 444.776 300.827 445.352C299.883 445.928 298.827 446.216 297.659 446.216C296.539 446.216 295.547 445.968 294.683 445.472C293.835 444.96 293.187 444.328 292.739 443.576V452.24H290.555V432.848H292.739V435.272ZM301.667 439.376C301.667 438.384 301.467 437.52 301.067 436.784C300.667 436.048 300.123 435.488 299.435 435.104C298.763 434.72 298.019 434.528 297.203 434.528C296.403 434.528 295.659 434.728 294.971 435.128C294.299 435.512 293.755 436.08 293.339 436.832C292.939 437.568 292.739 438.424 292.739 439.4C292.739 440.392 292.939 441.264 293.339 442.016C293.755 442.752 294.299 443.32 294.971 443.72C295.659 444.104 296.403 444.296 297.203 444.296C298.019 444.296 298.763 444.104 299.435 443.72C300.123 443.32 300.667 442.752 301.067 442.016C301.467 441.264 301.667 440.384 301.667 439.376ZM308.958 435.272C309.39 434.52 310.03 433.896 310.878 433.4C311.742 432.888 312.742 432.632 313.878 432.632C315.046 432.632 316.102 432.912 317.046 433.472C318.006 434.032 318.758 434.824 319.302 435.848C319.846 436.856 320.118 438.032 320.118 439.376C320.118 440.704 319.846 441.888 319.302 442.928C318.758 443.968 318.006 444.776 317.046 445.352C316.102 445.928 315.046 446.216 313.878 446.216C312.758 446.216 311.766 445.968 310.902 445.472C310.054 444.96 309.406 444.328 308.958 443.576V452.24H306.774V432.848H308.958V435.272ZM317.886 439.376C317.886 438.384 317.686 437.52 317.286 436.784C316.886 436.048 316.342 435.488 315.654 435.104C314.982 434.72 314.238 434.528 313.422 434.528C312.622 434.528 311.878 434.728 311.19 435.128C310.518 435.512 309.974 436.08 309.558 436.832C309.158 437.568 308.958 438.424 308.958 439.4C308.958 440.392 309.158 441.264 309.558 442.016C309.974 442.752 310.518 443.32 311.19 443.72C311.878 444.104 312.622 444.296 313.422 444.296C314.238 444.296 314.982 444.104 315.654 443.72C316.342 443.32 316.886 442.752 317.286 442.016C317.686 441.264 317.886 440.384 317.886 439.376ZM324.121 430.712C323.705 430.712 323.353 430.568 323.065 430.28C322.777 429.992 322.633 429.64 322.633 429.224C322.633 428.808 322.777 428.456 323.065 428.168C323.353 427.88 323.705 427.736 324.121 427.736C324.521 427.736 324.857 427.88 325.129 428.168C325.417 428.456 325.561 428.808 325.561 429.224C325.561 429.64 325.417 429.992 325.129 430.28C324.857 430.568 324.521 430.712 324.121 430.712ZM325.177 432.848V446H322.993V432.848H325.177ZM335.307 432.608C336.907 432.608 338.203 433.096 339.195 434.072C340.187 435.032 340.683 436.424 340.683 438.248V446H338.523V438.56C338.523 437.248 338.195 436.248 337.539 435.56C336.883 434.856 335.987 434.504 334.851 434.504C333.699 434.504 332.779 434.864 332.091 435.584C331.419 436.304 331.083 437.352 331.083 438.728V446H328.899V432.848H331.083V434.72C331.515 434.048 332.099 433.528 332.835 433.16C333.587 432.792 334.411 432.608 335.307 432.608ZM348.906 446.216C347.898 446.216 346.994 446.048 346.194 445.712C345.394 445.36 344.762 444.88 344.298 444.272C343.834 443.648 343.578 442.936 343.53 442.136H345.786C345.85 442.792 346.154 443.328 346.698 443.744C347.258 444.16 347.986 444.368 348.882 444.368C349.714 444.368 350.37 444.184 350.85 443.816C351.33 443.448 351.57 442.984 351.57 442.424C351.57 441.848 351.314 441.424 350.802 441.152C350.29 440.864 349.498 440.584 348.426 440.312C347.45 440.056 346.65 439.8 346.026 439.544C345.418 439.272 344.89 438.88 344.442 438.368C344.01 437.84 343.794 437.152 343.794 436.304C343.794 435.632 343.994 435.016 344.394 434.456C344.794 433.896 345.362 433.456 346.098 433.136C346.834 432.8 347.674 432.632 348.618 432.632C350.074 432.632 351.25 433 352.146 433.736C353.042 434.472 353.522 435.48 353.586 436.76H351.402C351.354 436.072 351.074 435.52 350.562 435.104C350.066 434.688 349.394 434.48 348.546 434.48C347.762 434.48 347.138 434.648 346.674 434.984C346.21 435.32 345.978 435.76 345.978 436.304C345.978 436.736 346.114 437.096 346.386 437.384C346.674 437.656 347.026 437.88 347.442 438.056C347.874 438.216 348.466 438.4 349.218 438.608C350.162 438.864 350.93 439.12 351.522 439.376C352.114 439.616 352.618 439.984 353.034 440.48C353.466 440.976 353.69 441.624 353.706 442.424C353.706 443.144 353.506 443.792 353.106 444.368C352.706 444.944 352.138 445.4 351.402 445.736C350.682 446.056 349.85 446.216 348.906 446.216ZM1396.39 429.272V431.048H1389.12V436.688H1395.03V438.464H1389.12V446H1386.94V429.272H1396.39ZM1406.62 446.168C1405.06 446.168 1403.65 445.808 1402.37 445.088C1401.09 444.352 1400.07 443.336 1399.32 442.04C1398.58 440.728 1398.22 439.256 1398.22 437.624C1398.22 435.992 1398.58 434.528 1399.32 433.232C1400.07 431.92 1401.09 430.904 1402.37 430.184C1403.65 429.448 1405.06 429.08 1406.62 429.08C1408.18 429.08 1409.61 429.448 1410.89 430.184C1412.17 430.904 1413.18 431.912 1413.91 433.208C1414.65 434.504 1415.02 435.976 1415.02 437.624C1415.02 439.272 1414.65 440.744 1413.91 442.04C1413.18 443.336 1412.17 444.352 1410.89 445.088C1409.61 445.808 1408.18 446.168 1406.62 446.168ZM1406.62 444.272C1407.78 444.272 1408.83 444 1409.76 443.456C1410.7 442.912 1411.44 442.136 1411.97 441.128C1412.51 440.12 1412.78 438.952 1412.78 437.624C1412.78 436.28 1412.51 435.112 1411.97 434.12C1411.44 433.112 1410.71 432.336 1409.78 431.792C1408.86 431.248 1407.8 430.976 1406.62 430.976C1405.43 430.976 1404.38 431.248 1403.45 431.792C1402.52 432.336 1401.78 433.112 1401.24 434.12C1400.71 435.112 1400.45 436.28 1400.45 437.624C1400.45 438.952 1400.71 440.12 1401.24 441.128C1401.78 442.136 1402.52 442.912 1403.45 443.456C1404.39 444 1405.45 444.272 1406.62 444.272ZM1431.05 446H1428.87L1420.08 432.68V446H1417.9V429.248H1420.08L1428.87 442.544V429.248H1431.05V446ZM1445.07 429.272V431.048H1440.51V446H1438.33V431.048H1433.74V429.272H1445.07ZM1449.94 431.048V436.64H1456.04V438.44H1449.94V444.2H1456.76V446H1447.76V429.248H1456.76V431.048H1449.94ZM1477.65 434.168C1477.65 435.56 1477.17 436.72 1476.21 437.648C1475.26 438.56 1473.81 439.016 1471.86 439.016H1468.65V446H1466.46V429.272H1471.86C1473.75 429.272 1475.18 429.728 1476.16 430.64C1477.15 431.552 1477.65 432.728 1477.65 434.168ZM1471.86 437.216C1473.08 437.216 1473.97 436.952 1474.55 436.424C1475.13 435.896 1475.41 435.144 1475.41 434.168C1475.41 432.104 1474.23 431.072 1471.86 431.072H1468.65V437.216H1471.86ZM1489.17 446L1485.18 439.16H1482.54V446H1480.36V429.272H1485.76C1487.02 429.272 1488.09 429.488 1488.95 429.92C1489.83 430.352 1490.49 430.936 1490.92 431.672C1491.35 432.408 1491.57 433.248 1491.57 434.192C1491.57 435.344 1491.23 436.36 1490.56 437.24C1489.9 438.12 1488.91 438.704 1487.58 438.992L1491.78 446H1489.17ZM1482.54 437.408H1485.76C1486.94 437.408 1487.83 437.12 1488.42 436.544C1489.02 435.952 1489.31 435.168 1489.31 434.192C1489.31 433.2 1489.02 432.432 1488.42 431.888C1487.85 431.344 1486.96 431.072 1485.76 431.072H1482.54V437.408ZM1497.15 429.272V446H1494.96V429.272H1497.15ZM1517.84 429.392V446H1515.65V433.616L1510.13 446H1508.6L1503.05 433.592V446H1500.87V429.392H1503.22L1509.36 443.12L1515.51 429.392H1517.84ZM1531.43 442.28H1524.13L1522.79 446H1520.48L1526.53 429.368H1529.05L1535.08 446H1532.77L1531.43 442.28ZM1530.8 440.504L1527.78 432.056L1524.76 440.504H1530.8ZM1530.13 425.648L1525.02 428.384V426.752L1530.13 423.752V425.648ZM1546.52 446L1542.54 439.16H1539.9V446H1537.71V429.272H1543.11C1544.38 429.272 1545.44 429.488 1546.3 429.92C1547.18 430.352 1547.84 430.936 1548.27 431.672C1548.7 432.408 1548.92 433.248 1548.92 434.192C1548.92 435.344 1548.58 436.36 1547.91 437.24C1547.26 438.12 1546.26 438.704 1544.94 438.992L1549.14 446H1546.52ZM1539.9 437.408H1543.11C1544.3 437.408 1545.18 437.12 1545.78 436.544C1546.37 435.952 1546.66 435.168 1546.66 434.192C1546.66 433.2 1546.37 432.432 1545.78 431.888C1545.2 431.344 1544.31 431.072 1543.11 431.072H1539.9V437.408ZM1554.5 429.272V446H1552.31V429.272H1554.5ZM1568.11 442.28H1560.81L1559.47 446H1557.16L1563.21 429.368H1565.73L1571.76 446H1569.45L1568.11 442.28ZM1567.48 440.504L1564.46 432.056L1561.44 440.504H1567.48ZM260.113 496.938H265.762C267.043 496.938 268.125 497.133 269.008 497.523C269.898 497.914 270.574 498.492 271.035 499.258C271.504 500.016 271.738 500.949 271.738 502.059C271.738 502.84 271.578 503.555 271.258 504.203C270.945 504.844 270.492 505.391 269.898 505.844C269.313 506.289 268.609 506.621 267.789 506.84L267.156 507.086H261.848L261.824 505.246H265.832C266.645 505.246 267.32 505.105 267.859 504.824C268.398 504.535 268.805 504.148 269.078 503.664C269.352 503.18 269.488 502.645 269.488 502.059C269.488 501.402 269.359 500.828 269.102 500.336C268.844 499.844 268.438 499.465 267.883 499.199C267.336 498.926 266.629 498.789 265.762 498.789H262.375V514H260.113V496.938ZM270.086 514L265.938 506.266L268.293 506.254L272.5 513.859V514H270.086ZM288.039 504.93V506.008C288.039 507.289 287.879 508.438 287.559 509.453C287.238 510.469 286.777 511.332 286.176 512.043C285.574 512.754 284.852 513.297 284.008 513.672C283.172 514.047 282.234 514.234 281.195 514.234C280.188 514.234 279.262 514.047 278.418 513.672C277.582 513.297 276.856 512.754 276.238 512.043C275.629 511.332 275.156 510.469 274.82 509.453C274.484 508.438 274.316 507.289 274.316 506.008V504.93C274.316 503.648 274.481 502.504 274.809 501.496C275.145 500.48 275.617 499.617 276.227 498.906C276.836 498.188 277.559 497.641 278.395 497.266C279.238 496.891 280.164 496.703 281.172 496.703C282.211 496.703 283.148 496.891 283.984 497.266C284.828 497.641 285.551 498.188 286.152 498.906C286.762 499.617 287.227 500.48 287.547 501.496C287.875 502.504 288.039 503.648 288.039 504.93ZM285.801 506.008V504.906C285.801 503.891 285.695 502.992 285.484 502.211C285.281 501.43 284.981 500.773 284.582 500.242C284.184 499.711 283.695 499.309 283.117 499.035C282.547 498.762 281.898 498.625 281.172 498.625C280.469 498.625 279.832 498.762 279.262 499.035C278.699 499.309 278.215 499.711 277.809 500.242C277.41 500.773 277.102 501.43 276.883 502.211C276.664 502.992 276.555 503.891 276.555 504.906V506.008C276.555 507.031 276.664 507.938 276.883 508.727C277.102 509.508 277.414 510.168 277.82 510.707C278.234 511.238 278.723 511.641 279.285 511.914C279.856 512.188 280.492 512.324 281.195 512.324C281.93 512.324 282.582 512.188 283.152 511.914C283.723 511.641 284.203 511.238 284.594 510.707C284.992 510.168 285.293 509.508 285.496 508.727C285.699 507.938 285.801 507.031 285.801 506.008ZM297.508 506.02H293.184L293.16 504.203H297.086C297.734 504.203 298.301 504.094 298.785 503.875C299.27 503.656 299.645 503.344 299.91 502.938C300.184 502.523 300.32 502.031 300.32 501.461C300.32 500.836 300.199 500.328 299.957 499.938C299.723 499.539 299.359 499.25 298.867 499.07C298.383 498.883 297.766 498.789 297.016 498.789H293.688V514H291.426V496.938H297.016C297.891 496.938 298.672 497.027 299.359 497.207C300.047 497.379 300.629 497.652 301.106 498.027C301.59 498.395 301.957 498.863 302.207 499.434C302.457 500.004 302.582 500.688 302.582 501.484C302.582 502.188 302.402 502.824 302.043 503.395C301.684 503.957 301.184 504.418 300.543 504.777C299.91 505.137 299.168 505.367 298.316 505.469L297.508 506.02ZM297.402 514H292.293L293.57 512.16H297.402C298.121 512.16 298.731 512.035 299.231 511.785C299.738 511.535 300.125 511.184 300.391 510.73C300.656 510.27 300.789 509.727 300.789 509.102C300.789 508.469 300.676 507.922 300.449 507.461C300.223 507 299.867 506.645 299.383 506.395C298.898 506.145 298.273 506.02 297.508 506.02H294.285L294.309 504.203H298.715L299.195 504.859C300.016 504.93 300.711 505.164 301.281 505.562C301.852 505.953 302.285 506.453 302.582 507.062C302.887 507.672 303.039 508.344 303.039 509.078C303.039 510.141 302.805 511.039 302.336 511.773C301.875 512.5 301.223 513.055 300.379 513.438C299.535 513.812 298.543 514 297.402 514ZM319.516 504.93V506.008C319.516 507.289 319.356 508.438 319.035 509.453C318.715 510.469 318.254 511.332 317.652 512.043C317.051 512.754 316.328 513.297 315.484 513.672C314.648 514.047 313.711 514.234 312.672 514.234C311.664 514.234 310.738 514.047 309.895 513.672C309.059 513.297 308.332 512.754 307.715 512.043C307.106 511.332 306.633 510.469 306.297 509.453C305.961 508.438 305.793 507.289 305.793 506.008V504.93C305.793 503.648 305.957 502.504 306.285 501.496C306.621 500.48 307.094 499.617 307.703 498.906C308.313 498.188 309.035 497.641 309.871 497.266C310.715 496.891 311.641 496.703 312.648 496.703C313.688 496.703 314.625 496.891 315.461 497.266C316.305 497.641 317.027 498.188 317.629 498.906C318.238 499.617 318.703 500.48 319.023 501.496C319.352 502.504 319.516 503.648 319.516 504.93ZM317.277 506.008V504.906C317.277 503.891 317.172 502.992 316.961 502.211C316.758 501.43 316.457 500.773 316.059 500.242C315.66 499.711 315.172 499.309 314.594 499.035C314.023 498.762 313.375 498.625 312.648 498.625C311.945 498.625 311.309 498.762 310.738 499.035C310.176 499.309 309.691 499.711 309.285 500.242C308.887 500.773 308.578 501.43 308.359 502.211C308.141 502.992 308.031 503.891 308.031 504.906V506.008C308.031 507.031 308.141 507.938 308.359 508.727C308.578 509.508 308.891 510.168 309.297 510.707C309.711 511.238 310.199 511.641 310.762 511.914C311.332 512.188 311.969 512.324 312.672 512.324C313.406 512.324 314.059 512.188 314.629 511.914C315.199 511.641 315.68 511.238 316.07 510.707C316.469 510.168 316.77 509.508 316.973 508.727C317.176 507.938 317.277 507.031 317.277 506.008ZM328.879 496.938V514H326.652V496.938H328.879ZM334.363 496.938V498.789H321.18V496.938H334.363ZM349.703 504.93V506.008C349.703 507.289 349.543 508.438 349.223 509.453C348.902 510.469 348.441 511.332 347.84 512.043C347.238 512.754 346.516 513.297 345.672 513.672C344.836 514.047 343.898 514.234 342.859 514.234C341.852 514.234 340.926 514.047 340.082 513.672C339.246 513.297 338.52 512.754 337.902 512.043C337.293 511.332 336.82 510.469 336.484 509.453C336.148 508.438 335.981 507.289 335.981 506.008V504.93C335.981 503.648 336.145 502.504 336.473 501.496C336.809 500.48 337.281 499.617 337.891 498.906C338.5 498.188 339.223 497.641 340.059 497.266C340.902 496.891 341.828 496.703 342.836 496.703C343.875 496.703 344.813 496.891 345.648 497.266C346.492 497.641 347.215 498.188 347.816 498.906C348.426 499.617 348.891 500.48 349.211 501.496C349.539 502.504 349.703 503.648 349.703 504.93ZM347.465 506.008V504.906C347.465 503.891 347.359 502.992 347.148 502.211C346.945 501.43 346.645 500.773 346.246 500.242C345.848 499.711 345.359 499.309 344.781 499.035C344.211 498.762 343.563 498.625 342.836 498.625C342.133 498.625 341.496 498.762 340.926 499.035C340.363 499.309 339.879 499.711 339.473 500.242C339.074 500.773 338.766 501.43 338.547 502.211C338.328 502.992 338.219 503.891 338.219 504.906V506.008C338.219 507.031 338.328 507.938 338.547 508.727C338.766 509.508 339.078 510.168 339.484 510.707C339.898 511.238 340.387 511.641 340.949 511.914C341.52 512.188 342.156 512.324 342.859 512.324C343.594 512.324 344.246 512.188 344.816 511.914C345.387 511.641 345.867 511.238 346.258 510.707C346.656 510.168 346.957 509.508 347.16 508.727C347.363 507.938 347.465 507.031 347.465 506.008ZM1347.09 496.938V514H1344.82V496.938H1347.09ZM1354.23 504.613V506.465H1346.59V504.613H1354.23ZM1355.39 496.938V498.789H1346.59V496.938H1355.39ZM1371.23 504.93V506.008C1371.23 507.289 1371.07 508.438 1370.75 509.453C1370.43 510.469 1369.96 511.332 1369.36 512.043C1368.76 512.754 1368.04 513.297 1367.2 513.672C1366.36 514.047 1365.42 514.234 1364.38 514.234C1363.38 514.234 1362.45 514.047 1361.61 513.672C1360.77 513.297 1360.04 512.754 1359.43 512.043C1358.82 511.332 1358.34 510.469 1358.01 509.453C1357.67 508.438 1357.5 507.289 1357.5 506.008V504.93C1357.5 503.648 1357.67 502.504 1358 501.496C1358.33 500.48 1358.8 499.617 1359.41 498.906C1360.02 498.188 1360.75 497.641 1361.58 497.266C1362.43 496.891 1363.35 496.703 1364.36 496.703C1365.4 496.703 1366.34 496.891 1367.17 497.266C1368.02 497.641 1368.74 498.188 1369.34 498.906C1369.95 499.617 1370.41 500.48 1370.73 501.496C1371.06 502.504 1371.23 503.648 1371.23 504.93ZM1368.99 506.008V504.906C1368.99 503.891 1368.88 502.992 1368.67 502.211C1368.47 501.43 1368.17 500.773 1367.77 500.242C1367.37 499.711 1366.88 499.309 1366.3 499.035C1365.73 498.762 1365.09 498.625 1364.36 498.625C1363.66 498.625 1363.02 498.762 1362.45 499.035C1361.89 499.309 1361.4 499.711 1361 500.242C1360.6 500.773 1360.29 501.43 1360.07 502.211C1359.85 502.992 1359.74 503.891 1359.74 504.906V506.008C1359.74 507.031 1359.85 507.938 1360.07 508.727C1360.29 509.508 1360.6 510.168 1361.01 510.707C1361.42 511.238 1361.91 511.641 1362.47 511.914C1363.04 512.188 1363.68 512.324 1364.38 512.324C1365.12 512.324 1365.77 512.188 1366.34 511.914C1366.91 511.641 1367.39 511.238 1367.78 510.707C1368.18 510.168 1368.48 509.508 1368.68 508.727C1368.89 507.938 1368.99 507.031 1368.99 506.008ZM1387.74 496.938V514H1385.46L1376.88 500.84V514H1374.61V496.938H1376.88L1385.5 510.133V496.938H1387.74ZM1397.7 496.938V514H1395.47V496.938H1397.7ZM1403.18 496.938V498.789H1390V496.938H1403.18ZM1416.55 512.16V514H1407.52V512.16H1416.55ZM1407.98 496.938V514H1405.71V496.938H1407.98ZM1415.36 504.273V506.113H1407.52V504.273H1415.36ZM1416.44 496.938V498.789H1407.52V496.938H1416.44ZM1440.36 509.688C1440.36 509.289 1440.29 508.938 1440.17 508.633C1440.05 508.32 1439.84 508.039 1439.54 507.789C1439.24 507.539 1438.82 507.301 1438.29 507.074C1437.77 506.848 1437.11 506.617 1436.3 506.383C1435.46 506.133 1434.7 505.855 1434.02 505.551C1433.34 505.238 1432.75 504.883 1432.27 504.484C1431.79 504.086 1431.41 503.629 1431.16 503.113C1430.9 502.598 1430.77 502.008 1430.77 501.344C1430.77 500.68 1430.91 500.066 1431.18 499.504C1431.45 498.941 1431.84 498.453 1432.35 498.039C1432.87 497.617 1433.48 497.289 1434.19 497.055C1434.9 496.82 1435.7 496.703 1436.57 496.703C1437.85 496.703 1438.94 496.949 1439.83 497.441C1440.73 497.926 1441.41 498.562 1441.88 499.352C1442.35 500.133 1442.58 500.969 1442.58 501.859H1440.33C1440.33 501.219 1440.2 500.652 1439.92 500.16C1439.65 499.66 1439.23 499.27 1438.68 498.988C1438.13 498.699 1437.42 498.555 1436.57 498.555C1435.77 498.555 1435.1 498.676 1434.58 498.918C1434.05 499.16 1433.66 499.488 1433.41 499.902C1433.16 500.316 1433.03 500.789 1433.03 501.32C1433.03 501.68 1433.11 502.008 1433.25 502.305C1433.41 502.594 1433.65 502.863 1433.97 503.113C1434.3 503.363 1434.71 503.594 1435.21 503.805C1435.72 504.016 1436.32 504.219 1437.03 504.414C1438 504.688 1438.83 504.992 1439.54 505.328C1440.24 505.664 1440.82 506.043 1441.27 506.465C1441.73 506.879 1442.07 507.352 1442.29 507.883C1442.52 508.406 1442.63 509 1442.63 509.664C1442.63 510.359 1442.49 510.988 1442.21 511.551C1441.93 512.113 1441.52 512.594 1441 512.992C1440.48 513.391 1439.85 513.699 1439.11 513.918C1438.39 514.129 1437.57 514.234 1436.68 514.234C1435.89 514.234 1435.11 514.125 1434.34 513.906C1433.59 513.688 1432.89 513.359 1432.27 512.922C1431.65 512.484 1431.16 511.945 1430.78 511.305C1430.41 510.656 1430.23 509.906 1430.23 509.055H1432.48C1432.48 509.641 1432.59 510.145 1432.82 510.566C1433.05 510.98 1433.36 511.324 1433.75 511.598C1434.14 511.871 1434.59 512.074 1435.09 512.207C1435.6 512.332 1436.13 512.395 1436.68 512.395C1437.46 512.395 1438.13 512.285 1438.68 512.066C1439.23 511.848 1439.64 511.535 1439.92 511.129C1440.21 510.723 1440.36 510.242 1440.36 509.688ZM1456.35 512.16V514H1447.32V512.16H1456.35ZM1447.77 496.938V514H1445.51V496.938H1447.77ZM1455.16 504.273V506.113H1447.32V504.273H1455.16ZM1456.23 496.938V498.789H1447.32V496.938H1456.23ZM1469.45 508.574H1471.7C1471.59 509.652 1471.28 510.617 1470.78 511.469C1470.28 512.32 1469.57 512.996 1468.66 513.496C1467.74 513.988 1466.6 514.234 1465.23 514.234C1464.23 514.234 1463.32 514.047 1462.5 513.672C1461.69 513.297 1460.99 512.766 1460.41 512.078C1459.82 511.383 1459.37 510.551 1459.05 509.582C1458.73 508.605 1458.58 507.52 1458.58 506.324V504.625C1458.58 503.43 1458.73 502.348 1459.05 501.379C1459.37 500.402 1459.82 499.566 1460.42 498.871C1461.02 498.176 1461.74 497.641 1462.59 497.266C1463.43 496.891 1464.38 496.703 1465.43 496.703C1466.72 496.703 1467.81 496.945 1468.7 497.43C1469.59 497.914 1470.29 498.586 1470.78 499.445C1471.28 500.297 1471.59 501.285 1471.7 502.41H1469.45C1469.34 501.613 1469.14 500.93 1468.84 500.359C1468.55 499.781 1468.13 499.336 1467.58 499.023C1467.03 498.711 1466.32 498.555 1465.43 498.555C1464.68 498.555 1464.01 498.699 1463.43 498.988C1462.86 499.277 1462.38 499.688 1461.99 500.219C1461.61 500.75 1461.32 501.387 1461.12 502.129C1460.93 502.871 1460.83 503.695 1460.83 504.602V506.324C1460.83 507.16 1460.91 507.945 1461.09 508.68C1461.27 509.414 1461.54 510.059 1461.89 510.613C1462.25 511.168 1462.71 511.605 1463.27 511.926C1463.82 512.238 1464.48 512.395 1465.23 512.395C1466.2 512.395 1466.96 512.242 1467.53 511.938C1468.1 511.633 1468.53 511.195 1468.82 510.625C1469.12 510.055 1469.33 509.371 1469.45 508.574ZM1484.55 496.938H1486.8V508.48C1486.8 509.762 1486.51 510.828 1485.94 511.68C1485.37 512.531 1484.61 513.172 1483.67 513.602C1482.73 514.023 1481.71 514.234 1480.61 514.234C1479.45 514.234 1478.41 514.023 1477.47 513.602C1476.54 513.172 1475.8 512.531 1475.25 511.68C1474.71 510.828 1474.45 509.762 1474.45 508.48V496.938H1476.68V508.48C1476.68 509.371 1476.85 510.105 1477.18 510.684C1477.5 511.262 1477.96 511.691 1478.55 511.973C1479.14 512.254 1479.83 512.395 1480.61 512.395C1481.4 512.395 1482.09 512.254 1482.67 511.973C1483.27 511.691 1483.73 511.262 1484.05 510.684C1484.38 510.105 1484.55 509.371 1484.55 508.48V496.938ZM1503.47 496.938V514H1501.2L1492.61 500.84V514H1490.35V496.938H1492.61L1501.23 510.133V496.938H1503.47ZM1512.1 514H1508.54L1508.56 512.16H1512.1C1513.32 512.16 1514.33 511.906 1515.14 511.398C1515.96 510.883 1516.57 510.164 1516.97 509.242C1517.39 508.312 1517.59 507.227 1517.59 505.984V504.941C1517.59 503.965 1517.48 503.098 1517.24 502.34C1517.01 501.574 1516.66 500.93 1516.21 500.406C1515.76 499.875 1515.2 499.473 1514.55 499.199C1513.9 498.926 1513.15 498.789 1512.31 498.789H1508.46V496.938H1512.31C1513.43 496.938 1514.45 497.125 1515.37 497.5C1516.29 497.867 1517.08 498.402 1517.75 499.105C1518.42 499.801 1518.93 500.645 1519.29 501.637C1519.65 502.621 1519.83 503.73 1519.83 504.965V505.984C1519.83 507.219 1519.65 508.332 1519.29 509.324C1518.93 510.309 1518.41 511.148 1517.73 511.844C1517.06 512.539 1516.25 513.074 1515.3 513.449C1514.35 513.816 1513.29 514 1512.1 514ZM1509.74 496.938V514H1507.48V496.938H1509.74ZM1529.29 498.449L1523.64 514H1521.33L1527.84 496.938H1529.32L1529.29 498.449ZM1534.02 514L1528.36 498.449L1528.33 496.938H1529.82L1536.34 514H1534.02ZM1533.73 507.684V509.535H1524.14V507.684H1533.73ZM1527.67 495.801L1529.95 492.355H1532.56L1529.42 495.801H1527.67ZM1538.63 496.938H1544.28C1545.56 496.938 1546.64 497.133 1547.52 497.523C1548.41 497.914 1549.09 498.492 1549.55 499.258C1550.02 500.016 1550.25 500.949 1550.25 502.059C1550.25 502.84 1550.09 503.555 1549.77 504.203C1549.46 504.844 1549.01 505.391 1548.41 505.844C1547.83 506.289 1547.13 506.621 1546.3 506.84L1545.67 507.086H1540.36L1540.34 505.246H1544.35C1545.16 505.246 1545.84 505.105 1546.38 504.824C1546.91 504.535 1547.32 504.148 1547.59 503.664C1547.87 503.18 1548 502.645 1548 502.059C1548 501.402 1547.88 500.828 1547.62 500.336C1547.36 499.844 1546.95 499.465 1546.4 499.199C1545.85 498.926 1545.14 498.789 1544.28 498.789H1540.89V514H1538.63V496.938ZM1548.6 514L1544.45 506.266L1546.81 506.254L1551.02 513.859V514H1548.6ZM1555.84 496.938V514H1553.58V496.938H1555.84ZM1566.48 498.449L1560.84 514H1558.53L1565.03 496.938H1566.52L1566.48 498.449ZM1571.22 514L1565.56 498.449L1565.52 496.938H1567.01L1573.54 514H1571.22ZM1570.93 507.684V509.535H1561.34V507.684H1570.93ZM258.258 595.07C258.258 594.862 258.336 594.549 258.492 594.133C258.622 593.716 258.792 593.299 259 592.883C259.182 592.466 259.365 592.115 259.547 591.828C259.755 591.542 259.912 591.438 260.016 591.516C260.094 591.568 260.263 591.789 260.523 592.18C260.784 592.57 261.083 593.039 261.422 593.586C261.787 594.107 262.177 594.68 262.594 595.305C263.01 595.904 263.401 596.451 263.766 596.945C264.156 597.44 264.495 597.844 264.781 598.156C265.068 598.443 265.276 598.547 265.406 598.469C265.589 598.365 265.758 597.831 265.914 596.867C266.096 595.904 266.253 594.719 266.383 593.312C266.513 591.906 266.63 590.396 266.734 588.781C266.839 587.141 266.93 585.604 267.008 584.172C267.086 582.714 267.138 581.464 267.164 580.422C267.216 579.354 267.255 578.69 267.281 578.43C267.281 578.195 267.412 577.792 267.672 577.219C267.958 576.62 268.284 576.034 268.648 575.461C269.013 574.888 269.365 574.406 269.703 574.016C270.068 573.625 270.341 573.495 270.523 573.625C270.602 573.703 270.654 574.159 270.68 574.992C270.732 575.799 270.771 576.854 270.797 578.156C270.823 579.458 270.823 580.943 270.797 582.609C270.771 584.25 270.732 585.93 270.68 587.648C270.654 589.367 270.602 591.073 270.523 592.766C270.445 594.432 270.354 595.943 270.25 597.297C270.172 598.625 270.068 599.745 269.938 600.656C269.807 601.542 269.664 602.076 269.508 602.258C269.404 602.388 269.091 602.544 268.57 602.727C268.05 602.909 267.477 603.065 266.852 603.195C266.253 603.352 265.667 603.469 265.094 603.547C264.521 603.625 264.117 603.625 263.883 603.547C263.362 603.391 262.776 602.909 262.125 602.102C261.5 601.268 260.888 600.37 260.289 599.406C259.716 598.443 259.234 597.544 258.844 596.711C258.453 595.852 258.258 595.305 258.258 595.07ZM274.195 577.844C274.326 577.609 274.599 577.31 275.016 576.945C275.432 576.555 275.927 576.164 276.5 575.773C277.099 575.383 277.737 575.031 278.414 574.719C279.091 574.38 279.768 574.159 280.445 574.055C281.148 573.924 281.8 573.951 282.398 574.133C283.023 574.289 283.557 574.654 284 575.227C284.234 575.513 284.456 576.086 284.664 576.945C284.872 577.805 285.068 578.846 285.25 580.07C285.458 581.268 285.641 582.609 285.797 584.094C285.953 585.552 286.083 587.049 286.188 588.586C286.292 590.096 286.357 591.594 286.383 593.078C286.435 594.536 286.435 595.891 286.383 597.141C286.357 598.365 286.279 599.419 286.148 600.305C286.044 601.164 285.875 601.763 285.641 602.102C285.172 602.779 284.443 603.234 283.453 603.469C282.464 603.703 281.422 603.703 280.328 603.469C279.234 603.26 278.193 602.818 277.203 602.141C276.214 601.464 275.484 600.552 275.016 599.406C274.703 598.651 274.443 597.622 274.234 596.32C274.052 595.018 273.909 593.612 273.805 592.102C273.701 590.565 273.635 589.003 273.609 587.414C273.609 585.826 273.622 584.367 273.648 583.039C273.701 581.685 273.766 580.539 273.844 579.602C273.948 578.664 274.065 578.078 274.195 577.844ZM281.852 597.648C282.008 597.492 282.112 597.076 282.164 596.398C282.242 595.695 282.281 594.875 282.281 593.938C282.307 592.974 282.307 591.958 282.281 590.891C282.281 589.823 282.281 588.833 282.281 587.922C282.281 585.604 282.203 583.807 282.047 582.531C281.891 581.255 281.708 580.305 281.5 579.68C281.266 578.951 281.005 578.495 280.719 578.312C280.328 578.391 280.003 578.521 279.742 578.703C279.482 578.859 279.273 579.042 279.117 579.25C278.935 579.484 278.792 579.732 278.688 579.992C278.609 580.227 278.518 580.682 278.414 581.359C278.336 582.036 278.258 582.844 278.18 583.781C278.102 584.693 278.023 585.695 277.945 586.789C277.893 587.857 277.841 588.911 277.789 589.953C277.763 590.995 277.737 591.984 277.711 592.922C277.711 593.833 277.724 594.589 277.75 595.188C277.802 596.099 278.01 596.763 278.375 597.18C278.766 597.596 279.182 597.87 279.625 598C280.068 598.104 280.497 598.104 280.914 598C281.357 597.896 281.669 597.779 281.852 597.648ZM289.625 577.844C289.755 577.609 290.029 577.31 290.445 576.945C290.862 576.555 291.357 576.164 291.93 575.773C292.529 575.383 293.167 575.031 293.844 574.719C294.521 574.38 295.198 574.159 295.875 574.055C296.578 573.924 297.229 573.951 297.828 574.133C298.453 574.289 298.987 574.654 299.43 575.227C299.664 575.513 299.885 576.086 300.094 576.945C300.302 577.805 300.497 578.846 300.68 580.07C300.888 581.268 301.07 582.609 301.227 584.094C301.383 585.552 301.513 587.049 301.617 588.586C301.721 590.096 301.787 591.594 301.813 593.078C301.865 594.536 301.865 595.891 301.813 597.141C301.787 598.365 301.708 599.419 301.578 600.305C301.474 601.164 301.305 601.763 301.07 602.102C300.602 602.779 299.872 603.234 298.883 603.469C297.893 603.703 296.852 603.703 295.758 603.469C294.664 603.26 293.622 602.818 292.633 602.141C291.643 601.464 290.914 600.552 290.445 599.406C290.133 598.651 289.872 597.622 289.664 596.32C289.482 595.018 289.339 593.612 289.234 592.102C289.13 590.565 289.065 589.003 289.039 587.414C289.039 585.826 289.052 584.367 289.078 583.039C289.13 581.685 289.195 580.539 289.273 579.602C289.378 578.664 289.495 578.078 289.625 577.844ZM297.281 597.648C297.438 597.492 297.542 597.076 297.594 596.398C297.672 595.695 297.711 594.875 297.711 593.938C297.737 592.974 297.737 591.958 297.711 590.891C297.711 589.823 297.711 588.833 297.711 587.922C297.711 585.604 297.633 583.807 297.477 582.531C297.32 581.255 297.138 580.305 296.93 579.68C296.695 578.951 296.435 578.495 296.148 578.312C295.758 578.391 295.432 578.521 295.172 578.703C294.912 578.859 294.703 579.042 294.547 579.25C294.365 579.484 294.221 579.732 294.117 579.992C294.039 580.227 293.948 580.682 293.844 581.359C293.766 582.036 293.688 582.844 293.609 583.781C293.531 584.693 293.453 585.695 293.375 586.789C293.323 587.857 293.271 588.911 293.219 589.953C293.193 590.995 293.167 591.984 293.141 592.922C293.141 593.833 293.154 594.589 293.18 595.188C293.232 596.099 293.44 596.763 293.805 597.18C294.195 597.596 294.612 597.87 295.055 598C295.497 598.104 295.927 598.104 296.344 598C296.787 597.896 297.099 597.779 297.281 597.648ZM304.742 604.211C304.69 604.081 304.664 603.612 304.664 602.805C304.664 601.997 304.664 600.982 304.664 599.758C304.69 598.534 304.716 597.167 304.742 595.656C304.794 594.12 304.833 592.57 304.859 591.008C304.912 589.419 304.964 587.883 305.016 586.398C305.068 584.888 305.107 583.547 305.133 582.375C305.185 581.203 305.224 580.253 305.25 579.523C305.276 578.768 305.302 578.365 305.328 578.312C305.354 578.208 305.471 577.948 305.68 577.531C305.888 577.115 306.122 576.685 306.383 576.242C306.669 575.773 306.956 575.37 307.242 575.031C307.529 574.667 307.776 574.497 307.984 574.523C308.063 574.549 308.128 575.07 308.18 576.086C308.258 577.076 308.323 578.352 308.375 579.914C308.453 581.477 308.505 583.208 308.531 585.109C308.583 586.984 308.622 588.82 308.648 590.617C308.701 592.388 308.74 594.003 308.766 595.461C308.792 596.893 308.818 597.948 308.844 598.625C309.677 598.703 310.51 598.768 311.344 598.82C312.203 598.872 312.971 598.938 313.648 599.016C314.326 599.068 314.872 599.12 315.289 599.172C315.732 599.224 315.966 599.263 315.992 599.289C316.07 599.393 316.175 599.641 316.305 600.031C316.461 600.396 316.604 600.799 316.734 601.242C316.865 601.659 316.956 602.049 317.008 602.414C317.086 602.779 317.073 603 316.969 603.078C313.974 603.625 311.656 603.99 310.016 604.172C308.375 604.354 307.164 604.445 306.383 604.445C305.471 604.445 304.925 604.367 304.742 604.211ZM329.273 574.953C329.273 575.005 329.182 575.318 329 575.891C328.844 576.438 328.622 577.154 328.336 578.039C328.05 578.898 327.711 579.875 327.32 580.969C326.956 582.062 326.565 583.195 326.148 584.367C325.732 585.513 325.302 586.646 324.859 587.766C324.443 588.885 324.052 589.888 323.688 590.773C323.635 592.57 323.57 594.25 323.492 595.812C323.414 597.375 323.336 598.742 323.258 599.914C323.18 601.086 323.102 602.023 323.023 602.727C322.945 603.404 322.88 603.755 322.828 603.781C322.698 603.885 322.49 603.846 322.203 603.664C321.917 603.508 321.617 603.286 321.305 603C321.018 602.714 320.745 602.401 320.484 602.062C320.25 601.724 320.094 601.438 320.016 601.203C319.99 601.099 319.951 600.773 319.898 600.227C319.846 599.654 319.781 598.898 319.703 597.961C319.625 596.997 319.534 595.878 319.43 594.602C319.352 593.326 319.273 591.919 319.195 590.383C318.701 589.289 318.18 588 317.633 586.516C317.164 585.24 316.63 583.69 316.031 581.867C315.458 580.044 314.872 577.948 314.273 575.578C314.273 575.344 314.417 575.109 314.703 574.875C314.99 574.615 315.341 574.393 315.758 574.211C316.175 574.029 316.617 573.885 317.086 573.781C317.555 573.677 317.971 573.664 318.336 573.742C318.44 573.898 318.635 574.497 318.922 575.539C319.026 575.982 319.156 576.542 319.313 577.219C319.495 577.87 319.69 578.69 319.898 579.68C320.107 580.643 320.341 581.776 320.602 583.078C320.888 584.38 321.214 585.891 321.578 587.609C321.969 585.943 322.32 584.471 322.633 583.195C322.945 581.919 323.219 580.812 323.453 579.875C323.714 578.911 323.935 578.104 324.117 577.453C324.326 576.776 324.495 576.216 324.625 575.773C324.938 574.732 325.185 574.12 325.367 573.938C325.55 573.833 325.849 573.794 326.266 573.82C326.708 573.82 327.138 573.885 327.555 574.016C327.997 574.12 328.388 574.263 328.727 574.445C329.065 574.602 329.247 574.771 329.273 574.953ZM336.578 604.211C336.526 604.081 336.5 603.612 336.5 602.805C336.5 601.997 336.5 600.982 336.5 599.758C336.526 598.534 336.552 597.167 336.578 595.656C336.63 594.12 336.669 592.57 336.695 591.008C336.747 589.419 336.8 587.883 336.852 586.398C336.904 584.888 336.943 583.547 336.969 582.375C337.021 581.203 337.06 580.253 337.086 579.523C337.112 578.768 337.138 578.365 337.164 578.312C337.19 578.208 337.307 577.948 337.516 577.531C337.724 577.115 337.958 576.685 338.219 576.242C338.505 575.773 338.792 575.37 339.078 575.031C339.365 574.667 339.612 574.497 339.82 574.523C339.898 574.549 339.964 575.07 340.016 576.086C340.094 577.076 340.159 578.352 340.211 579.914C340.289 581.477 340.341 583.208 340.367 585.109C340.419 586.984 340.458 588.82 340.484 590.617C340.537 592.388 340.576 594.003 340.602 595.461C340.628 596.893 340.654 597.948 340.68 598.625C341.513 598.703 342.346 598.768 343.18 598.82C344.039 598.872 344.807 598.938 345.484 599.016C346.162 599.068 346.708 599.12 347.125 599.172C347.568 599.224 347.802 599.263 347.828 599.289C347.906 599.393 348.01 599.641 348.141 600.031C348.297 600.396 348.44 600.799 348.57 601.242C348.701 601.659 348.792 602.049 348.844 602.414C348.922 602.779 348.909 603 348.805 603.078C345.81 603.625 343.492 603.99 341.852 604.172C340.211 604.354 339 604.445 338.219 604.445C337.307 604.445 336.76 604.367 336.578 604.211ZM349.508 577.844C349.638 577.609 349.912 577.31 350.328 576.945C350.745 576.555 351.24 576.164 351.813 575.773C352.412 575.383 353.05 575.031 353.727 574.719C354.404 574.38 355.081 574.159 355.758 574.055C356.461 573.924 357.112 573.951 357.711 574.133C358.336 574.289 358.87 574.654 359.313 575.227C359.547 575.513 359.768 576.086 359.977 576.945C360.185 577.805 360.38 578.846 360.563 580.07C360.771 581.268 360.953 582.609 361.109 584.094C361.266 585.552 361.396 587.049 361.5 588.586C361.604 590.096 361.669 591.594 361.695 593.078C361.747 594.536 361.747 595.891 361.695 597.141C361.669 598.365 361.591 599.419 361.461 600.305C361.357 601.164 361.188 601.763 360.953 602.102C360.484 602.779 359.755 603.234 358.766 603.469C357.776 603.703 356.734 603.703 355.641 603.469C354.547 603.26 353.505 602.818 352.516 602.141C351.526 601.464 350.797 600.552 350.328 599.406C350.016 598.651 349.755 597.622 349.547 596.32C349.365 595.018 349.221 593.612 349.117 592.102C349.013 590.565 348.948 589.003 348.922 587.414C348.922 585.826 348.935 584.367 348.961 583.039C349.013 581.685 349.078 580.539 349.156 579.602C349.26 578.664 349.378 578.078 349.508 577.844ZM357.164 597.648C357.32 597.492 357.425 597.076 357.477 596.398C357.555 595.695 357.594 594.875 357.594 593.938C357.62 592.974 357.62 591.958 357.594 590.891C357.594 589.823 357.594 588.833 357.594 587.922C357.594 585.604 357.516 583.807 357.359 582.531C357.203 581.255 357.021 580.305 356.813 579.68C356.578 578.951 356.318 578.495 356.031 578.312C355.641 578.391 355.315 578.521 355.055 578.703C354.794 578.859 354.586 579.042 354.43 579.25C354.247 579.484 354.104 579.732 354 579.992C353.922 580.227 353.831 580.682 353.727 581.359C353.648 582.036 353.57 582.844 353.492 583.781C353.414 584.693 353.336 585.695 353.258 586.789C353.206 587.857 353.154 588.911 353.102 589.953C353.076 590.995 353.05 591.984 353.023 592.922C353.023 593.833 353.037 594.589 353.063 595.188C353.115 596.099 353.323 596.763 353.688 597.18C354.078 597.596 354.495 597.87 354.938 598C355.38 598.104 355.81 598.104 356.227 598C356.669 597.896 356.982 597.779 357.164 597.648ZM369.234 573.977C369.755 574.081 370.471 574.393 371.383 574.914C372.294 575.409 373.206 575.982 374.117 576.633C375.055 577.258 375.875 577.883 376.578 578.508C377.281 579.107 377.698 579.536 377.828 579.797C377.932 580.057 377.971 580.539 377.945 581.242C377.919 581.945 377.841 582.805 377.711 583.82C377.581 584.81 377.412 585.904 377.203 587.102C376.995 588.299 376.76 589.51 376.5 590.734C376.24 591.932 375.953 593.104 375.641 594.25C375.354 595.37 375.055 596.359 374.742 597.219C374.612 597.635 374.326 598.091 373.883 598.586C373.44 599.081 372.919 599.576 372.32 600.07C371.721 600.539 371.083 600.982 370.406 601.398C369.755 601.815 369.13 602.167 368.531 602.453C367.958 602.74 367.438 602.935 366.969 603.039C366.526 603.143 366.227 603.117 366.07 602.961C365.914 602.805 365.745 602.31 365.563 601.477C365.406 600.617 365.25 599.549 365.094 598.273C364.938 596.971 364.794 595.526 364.664 593.938C364.534 592.323 364.417 590.682 364.313 589.016C364.208 587.349 364.117 585.721 364.039 584.133C363.987 582.518 363.948 581.073 363.922 579.797C363.922 578.495 363.948 577.414 364 576.555C364.052 575.669 364.143 575.135 364.273 574.953C364.378 574.823 364.638 574.693 365.055 574.562C365.497 574.432 365.979 574.315 366.5 574.211C367.047 574.107 367.581 574.029 368.102 573.977C368.622 573.924 369 573.924 369.234 573.977ZM369 578.938C368.818 579.068 368.688 579.471 368.609 580.148C368.531 580.799 368.466 581.594 368.414 582.531C368.388 583.443 368.375 584.419 368.375 585.461C368.375 586.503 368.362 587.453 368.336 588.312C368.284 590.552 368.258 592.323 368.258 593.625C368.284 594.901 368.31 595.865 368.336 596.516C368.388 597.141 368.453 597.544 368.531 597.727C368.609 597.883 368.714 597.961 368.844 597.961C368.948 597.961 369.117 597.883 369.352 597.727C369.612 597.57 369.885 597.375 370.172 597.141C370.458 596.906 370.732 596.659 370.992 596.398C371.253 596.112 371.435 595.865 371.539 595.656C371.643 595.448 371.773 595.044 371.93 594.445C372.086 593.82 372.242 593.104 372.398 592.297C372.555 591.464 372.711 590.591 372.867 589.68C373.023 588.742 373.154 587.857 373.258 587.023C373.388 586.164 373.479 585.409 373.531 584.758C373.609 584.081 373.648 583.599 373.648 583.312C373.622 582.766 373.401 582.206 372.984 581.633C372.568 581.06 372.086 580.552 371.539 580.109C371.018 579.667 370.497 579.328 369.977 579.094C369.482 578.859 369.156 578.807 369 578.938ZM392.789 590.891C392.945 591.021 393.063 591.294 393.141 591.711C393.219 592.128 393.258 592.583 393.258 593.078C393.258 593.573 393.219 594.029 393.141 594.445C393.063 594.862 392.945 595.109 392.789 595.188C392.711 595.24 392.516 595.253 392.203 595.227C391.917 595.201 391.578 595.148 391.188 595.07C391.24 595.513 391.279 595.956 391.305 596.398C391.331 596.841 391.344 597.206 391.344 597.492C391.344 597.987 391.24 598.625 391.031 599.406C390.849 600.188 390.602 600.956 390.289 601.711C389.977 602.44 389.638 603.065 389.273 603.586C388.935 604.107 388.609 604.354 388.297 604.328C388.089 604.328 387.789 604.237 387.398 604.055C387.034 603.898 386.617 603.69 386.148 603.43C385.68 603.195 385.185 602.922 384.664 602.609C384.169 602.297 383.714 601.997 383.297 601.711C382.88 601.398 382.516 601.112 382.203 600.852C381.917 600.591 381.734 600.383 381.656 600.227C381.526 599.992 381.357 599.432 381.148 598.547C380.94 597.661 380.732 596.581 380.523 595.305C380.315 594.003 380.133 592.583 379.977 591.047C379.82 589.484 379.742 587.922 379.742 586.359C379.742 584.797 379.768 583.26 379.82 581.75C379.872 580.24 379.964 578.885 380.094 577.688C380.25 576.464 380.445 575.487 380.68 574.758C380.94 574.003 381.253 573.599 381.617 573.547C382.711 573.443 383.883 573.599 385.133 574.016C386.409 574.432 387.594 574.966 388.688 575.617C389.781 576.268 390.693 576.945 391.422 577.648C392.151 578.352 392.542 578.924 392.594 579.367C392.62 579.81 392.568 580.305 392.438 580.852C392.307 581.372 392.151 581.893 391.969 582.414C391.787 582.909 391.591 583.365 391.383 583.781C391.201 584.172 391.057 584.445 390.953 584.602C390.823 584.784 390.654 584.979 390.445 585.188C390.263 585.396 390.068 585.578 389.859 585.734C389.677 585.891 389.482 586.008 389.273 586.086C389.091 586.138 388.922 586.112 388.766 586.008C388.662 585.93 388.557 585.682 388.453 585.266C388.375 584.849 388.284 584.354 388.18 583.781C388.102 583.182 388.023 582.557 387.945 581.906C387.867 581.229 387.789 580.604 387.711 580.031C387.659 579.458 387.607 578.977 387.555 578.586C387.503 578.195 387.464 577.974 387.438 577.922C387.385 577.844 387.294 577.766 387.164 577.688C387.06 577.609 386.93 577.544 386.773 577.492C386.617 577.44 386.474 577.427 386.344 577.453C386.214 577.453 386.109 577.518 386.031 577.648C385.953 577.779 385.81 578.26 385.602 579.094C385.393 579.927 385.185 580.969 384.977 582.219C384.794 583.469 384.625 584.862 384.469 586.398C384.313 587.909 384.234 589.432 384.234 590.969C384.234 592.062 384.26 593.208 384.313 594.406C384.391 595.578 384.482 596.659 384.586 597.648C384.716 598.612 384.859 599.419 385.016 600.07C385.198 600.721 385.38 601.047 385.563 601.047C385.745 601.073 385.992 600.891 386.305 600.5C386.617 600.083 386.917 599.615 387.203 599.094C387.49 598.547 387.75 598.026 387.984 597.531C388.245 597.01 388.414 596.646 388.492 596.438C388.622 596.151 388.753 595.865 388.883 595.578C389.039 595.266 389.208 594.966 389.391 594.68C388.974 594.576 388.557 594.458 388.141 594.328C387.75 594.198 387.385 594.081 387.047 593.977C386.708 593.846 386.422 593.729 386.188 593.625C385.979 593.495 385.849 593.391 385.797 593.312C385.719 593.182 385.667 593.013 385.641 592.805C385.615 592.57 385.602 592.349 385.602 592.141C385.628 591.906 385.654 591.698 385.68 591.516C385.732 591.307 385.771 591.138 385.797 591.008C385.849 590.826 386.201 590.695 386.852 590.617C387.529 590.539 388.271 590.5 389.078 590.5C389.912 590.5 390.693 590.539 391.422 590.617C392.151 590.669 392.607 590.76 392.789 590.891ZM406.539 580.617C406.435 580.747 405.797 580.76 404.625 580.656C403.453 580.552 401.604 580.383 399.078 580.148C399.078 581.008 399.078 582.062 399.078 583.312C399.104 584.562 399.104 585.904 399.078 587.336C401.031 587.518 402.555 587.688 403.648 587.844C404.742 588 405.315 588.104 405.367 588.156C405.471 588.26 405.51 588.482 405.484 588.82C405.458 589.133 405.393 589.484 405.289 589.875C405.185 590.266 405.055 590.643 404.898 591.008C404.742 591.346 404.586 591.568 404.43 591.672C404.3 591.724 403.779 591.802 402.867 591.906C401.982 591.984 400.719 592.062 399.078 592.141C399.078 593.26 399.065 594.367 399.039 595.461C399.039 596.555 399.026 597.557 399 598.469C401.526 598.495 403.362 598.547 404.508 598.625C405.68 598.677 406.318 598.755 406.422 598.859C406.526 598.99 406.526 599.237 406.422 599.602C406.344 599.966 406.201 600.357 405.992 600.773C405.81 601.164 405.602 601.555 405.367 601.945C405.159 602.336 404.99 602.609 404.859 602.766C404.807 602.818 404.495 602.844 403.922 602.844C403.349 602.818 402.711 602.779 402.008 602.727C401.305 602.674 400.628 602.622 399.977 602.57C399.326 602.492 398.896 602.427 398.688 602.375C398.297 602.245 397.88 602.036 397.438 601.75C396.995 601.438 396.643 601.047 396.383 600.578C396.331 600.448 396.24 600.018 396.109 599.289C396.005 598.534 395.888 597.583 395.758 596.438C395.628 595.292 395.497 594.003 395.367 592.57C395.237 591.138 395.107 589.68 394.977 588.195C394.846 586.711 394.729 585.253 394.625 583.82C394.521 582.388 394.43 581.099 394.352 579.953C394.3 578.781 394.273 577.818 394.273 577.062C394.273 576.281 394.313 575.812 394.391 575.656C394.469 575.448 394.833 575.292 395.484 575.188C396.135 575.083 396.917 575.018 397.828 574.992C398.74 574.94 399.716 574.927 400.758 574.953C401.826 574.979 402.815 575.031 403.727 575.109C404.638 575.161 405.406 575.24 406.031 575.344C406.656 575.422 407.008 575.5 407.086 575.578C407.19 575.708 407.242 576.008 407.242 576.477C407.268 576.945 407.242 577.466 407.164 578.039C407.112 578.586 407.021 579.12 406.891 579.641C406.787 580.135 406.669 580.461 406.539 580.617ZM422.438 578.195C422.568 578.352 422.698 578.794 422.828 579.523C422.958 580.253 423.05 581.047 423.102 581.906C423.18 582.766 423.206 583.573 423.18 584.328C423.18 585.083 423.115 585.578 422.984 585.812C422.88 585.969 422.62 586.255 422.203 586.672C421.787 587.062 421.305 587.505 420.758 588C420.211 588.495 419.638 588.99 419.039 589.484C418.466 589.953 417.958 590.357 417.516 590.695C417.724 591.112 417.984 591.659 418.297 592.336C418.609 592.987 418.948 593.69 419.313 594.445C419.677 595.174 420.029 595.93 420.367 596.711C420.732 597.492 421.057 598.208 421.344 598.859C421.63 599.484 421.865 600.018 422.047 600.461C422.229 600.878 422.32 601.125 422.32 601.203C422.32 601.333 422.255 601.516 422.125 601.75C422.021 601.984 421.878 602.206 421.695 602.414C421.513 602.596 421.318 602.753 421.109 602.883C420.901 603.013 420.706 603.039 420.523 602.961C420.419 602.935 420.224 602.727 419.938 602.336C419.651 601.919 419.3 601.411 418.883 600.812C418.492 600.188 418.05 599.484 417.555 598.703C417.086 597.922 416.604 597.141 416.109 596.359C415.615 595.552 415.146 594.784 414.703 594.055C414.26 593.299 413.87 592.635 413.531 592.062C413.479 594.771 413.414 596.854 413.336 598.312C413.284 599.771 413.245 600.839 413.219 601.516C413.167 602.323 413.115 602.779 413.063 602.883C412.984 602.883 412.815 602.779 412.555 602.57C412.294 602.336 412.021 602.062 411.734 601.75C411.448 601.438 411.175 601.125 410.914 600.812C410.68 600.5 410.537 600.266 410.484 600.109C410.432 599.771 410.354 598.794 410.25 597.18C410.198 596.477 410.146 595.604 410.094 594.562C410.042 593.521 409.977 592.258 409.898 590.773C409.846 589.289 409.768 587.544 409.664 585.539C409.56 583.534 409.456 581.229 409.352 578.625C408.883 578.599 408.505 578.599 408.219 578.625C407.932 578.625 407.711 578.638 407.555 578.664C407.398 578.69 407.281 578.703 407.203 578.703C407.125 578.677 407.06 578.612 407.008 578.508C406.904 578.299 406.826 577.948 406.773 577.453C406.721 576.932 406.695 576.438 406.695 575.969C406.695 575.448 406.773 574.927 406.93 574.406C407.06 573.885 407.229 573.56 407.438 573.43C407.542 573.352 407.906 573.365 408.531 573.469C409.156 573.547 409.846 573.651 410.602 573.781C411.357 573.911 412.073 574.055 412.75 574.211C413.453 574.367 413.909 574.471 414.117 574.523C414.3 574.576 414.599 574.667 415.016 574.797C415.432 574.901 415.914 575.057 416.461 575.266C417.008 575.448 417.581 575.656 418.18 575.891C418.805 576.125 419.391 576.372 419.938 576.633C420.484 576.893 420.979 577.154 421.422 577.414C421.865 577.674 422.203 577.935 422.438 578.195ZM413.648 589.211C413.883 589.081 414.195 588.833 414.586 588.469C414.977 588.078 415.393 587.648 415.836 587.18C416.305 586.685 416.773 586.177 417.242 585.656C417.711 585.109 418.128 584.602 418.492 584.133C418.883 583.664 419.195 583.26 419.43 582.922C419.664 582.583 419.781 582.362 419.781 582.258C419.781 582.076 419.612 581.867 419.273 581.633C418.961 581.372 418.544 581.112 418.023 580.852C417.503 580.591 416.891 580.344 416.188 580.109C415.484 579.849 414.768 579.628 414.039 579.445L413.648 589.211ZM1349.97 594.144H1358.63V596.208H1349.97V594.144ZM1350.21 603H1347.81V586.2H1359.67V588.288H1350.21V603ZM1370.44 603.192C1369.16 603.192 1367.97 602.976 1366.86 602.544C1365.78 602.112 1364.83 601.512 1364.03 600.744C1363.23 599.96 1362.61 599.048 1362.16 598.008C1361.71 596.968 1361.49 595.832 1361.49 594.6C1361.49 593.368 1361.71 592.232 1362.16 591.192C1362.61 590.152 1363.23 589.248 1364.03 588.48C1364.83 587.696 1365.78 587.088 1366.86 586.656C1367.95 586.224 1369.14 586.008 1370.44 586.008C1371.72 586.008 1372.9 586.224 1373.97 586.656C1375.06 587.072 1376 587.672 1376.8 588.456C1377.62 589.224 1378.24 590.128 1378.67 591.168C1379.12 592.208 1379.34 593.352 1379.34 594.6C1379.34 595.848 1379.12 596.992 1378.67 598.032C1378.24 599.072 1377.62 599.984 1376.8 600.768C1376 601.536 1375.06 602.136 1373.97 602.568C1372.9 602.984 1371.72 603.192 1370.44 603.192ZM1370.44 601.056C1371.37 601.056 1372.22 600.896 1373.01 600.576C1373.81 600.256 1374.5 599.808 1375.07 599.232C1375.66 598.64 1376.12 597.952 1376.44 597.168C1376.78 596.384 1376.94 595.528 1376.94 594.6C1376.94 593.672 1376.78 592.816 1376.44 592.032C1376.12 591.248 1375.66 590.568 1375.07 589.992C1374.5 589.4 1373.81 588.944 1373.01 588.624C1372.22 588.304 1371.37 588.144 1370.44 588.144C1369.5 588.144 1368.62 588.304 1367.82 588.624C1367.04 588.944 1366.35 589.4 1365.76 589.992C1365.17 590.568 1364.7 591.248 1364.37 592.032C1364.05 592.816 1363.89 593.672 1363.89 594.6C1363.89 595.528 1364.05 596.384 1364.37 597.168C1364.7 597.952 1365.17 598.64 1365.76 599.232C1366.35 599.808 1367.04 600.256 1367.82 600.576C1368.62 600.896 1369.5 601.056 1370.44 601.056ZM1383.01 603V586.2H1384.98L1396.09 600H1395.06V586.2H1397.46V603H1395.49L1384.38 589.2H1385.41V603H1383.01ZM1405.82 603V588.288H1400.06V586.2H1413.96V588.288H1408.2V603H1405.82ZM1418.76 593.448H1427.4V595.488H1418.76V593.448ZM1418.97 600.912H1428.77V603H1416.57V586.2H1428.43V588.288H1418.97V600.912ZM1439.1 603V586.2H1446.18C1447.97 586.2 1449.55 586.552 1450.91 587.256C1452.28 587.96 1453.35 588.944 1454.1 590.208C1454.87 591.472 1455.25 592.936 1455.25 594.6C1455.25 596.264 1454.87 597.728 1454.1 598.992C1453.35 600.256 1452.28 601.24 1450.91 601.944C1449.55 602.648 1447.97 603 1446.18 603H1439.1ZM1441.5 600.912H1446.03C1447.43 600.912 1448.63 600.648 1449.63 600.12C1450.66 599.592 1451.45 598.856 1452.01 597.912C1452.57 596.952 1452.85 595.848 1452.85 594.6C1452.85 593.336 1452.57 592.232 1452.01 591.288C1451.45 590.344 1450.66 589.608 1449.63 589.08C1448.63 588.552 1447.43 588.288 1446.03 588.288H1441.5V600.912ZM1461.11 593.448H1469.75V595.488H1461.11V593.448ZM1461.33 600.912H1471.12V603H1458.93V586.2H1470.78V588.288H1461.33V600.912ZM1479.9 603.192C1478.62 603.192 1477.4 603 1476.23 602.616C1475.06 602.216 1474.14 601.704 1473.47 601.08L1474.36 599.208C1475 599.768 1475.81 600.232 1476.8 600.6C1477.8 600.968 1478.83 601.152 1479.9 601.152C1480.88 601.152 1481.67 601.04 1482.28 600.816C1482.88 600.592 1483.33 600.288 1483.62 599.904C1483.91 599.504 1484.05 599.056 1484.05 598.56C1484.05 597.984 1483.86 597.52 1483.48 597.168C1483.11 596.816 1482.62 596.536 1482.01 596.328C1481.42 596.104 1480.76 595.912 1480.04 595.752C1479.32 595.592 1478.6 595.408 1477.86 595.2C1477.14 594.976 1476.48 594.696 1475.87 594.36C1475.28 594.024 1474.8 593.576 1474.43 593.016C1474.06 592.44 1473.88 591.704 1473.88 590.808C1473.88 589.944 1474.1 589.152 1474.55 588.432C1475.01 587.696 1475.72 587.112 1476.66 586.68C1477.62 586.232 1478.84 586.008 1480.31 586.008C1481.28 586.008 1482.25 586.136 1483.21 586.392C1484.17 586.648 1485 587.016 1485.71 587.496L1484.92 589.416C1484.2 588.936 1483.44 588.592 1482.64 588.384C1481.84 588.16 1481.06 588.048 1480.31 588.048C1479.36 588.048 1478.59 588.168 1477.98 588.408C1477.37 588.648 1476.92 588.968 1476.64 589.368C1476.36 589.768 1476.23 590.216 1476.23 590.712C1476.23 591.304 1476.41 591.776 1476.78 592.128C1477.16 592.48 1477.65 592.76 1478.24 592.968C1478.85 593.176 1479.52 593.368 1480.24 593.544C1480.96 593.704 1481.68 593.888 1482.4 594.096C1483.13 594.304 1483.8 594.576 1484.39 594.912C1485 595.248 1485.48 595.696 1485.85 596.256C1486.22 596.816 1486.4 597.536 1486.4 598.416C1486.4 599.264 1486.17 600.056 1485.71 600.792C1485.24 601.512 1484.52 602.096 1483.55 602.544C1482.59 602.976 1481.37 603.192 1479.9 603.192ZM1493.01 603V588.288H1487.25V586.2H1501.15V588.288H1495.39V603H1493.01ZM1500.37 603L1507.98 586.2H1510.36L1517.99 603H1515.47L1508.68 587.544H1509.64L1502.85 603H1500.37ZM1503.61 598.8L1504.26 596.88H1513.72L1514.41 598.8H1503.61ZM1527.85 603.192C1526.57 603.192 1525.37 602.976 1524.27 602.544C1523.18 602.112 1522.24 601.512 1521.44 600.744C1520.64 599.96 1520.01 599.048 1519.57 598.008C1519.12 596.968 1518.89 595.832 1518.89 594.6C1518.89 593.368 1519.12 592.232 1519.57 591.192C1520.01 590.152 1520.64 589.248 1521.44 588.48C1522.24 587.696 1523.18 587.088 1524.27 586.656C1525.36 586.224 1526.55 586.008 1527.85 586.008C1529.13 586.008 1530.3 586.224 1531.37 586.656C1532.46 587.072 1533.41 587.672 1534.21 588.456C1535.02 589.224 1535.65 590.128 1536.08 591.168C1536.53 592.208 1536.75 593.352 1536.75 594.6C1536.75 595.848 1536.53 596.992 1536.08 598.032C1535.65 599.072 1535.02 599.984 1534.21 600.768C1533.41 601.536 1532.46 602.136 1531.37 602.568C1530.3 602.984 1529.13 603.192 1527.85 603.192ZM1533.34 606.504C1532.78 606.504 1532.25 606.432 1531.73 606.288C1531.22 606.16 1530.71 605.944 1530.2 605.64C1529.69 605.352 1529.16 604.968 1528.61 604.488C1528.07 604.024 1527.48 603.448 1526.84 602.76L1529.41 602.088C1529.89 602.68 1530.34 603.16 1530.77 603.528C1531.22 603.912 1531.66 604.184 1532.09 604.344C1532.53 604.52 1532.95 604.608 1533.37 604.608C1534.57 604.608 1535.59 604.128 1536.44 603.168L1537.57 604.536C1536.48 605.848 1535.07 606.504 1533.34 606.504ZM1527.85 601.056C1528.77 601.056 1529.63 600.896 1530.41 600.576C1531.21 600.256 1531.9 599.8 1532.48 599.208C1533.07 598.616 1533.53 597.928 1533.85 597.144C1534.18 596.36 1534.35 595.512 1534.35 594.6C1534.35 593.672 1534.18 592.816 1533.85 592.032C1533.53 591.248 1533.07 590.568 1532.48 589.992C1531.9 589.4 1531.21 588.944 1530.41 588.624C1529.63 588.304 1528.77 588.144 1527.85 588.144C1526.9 588.144 1526.03 588.304 1525.23 588.624C1524.45 588.944 1523.76 589.4 1523.17 589.992C1522.57 590.568 1522.11 591.248 1521.77 592.032C1521.45 592.816 1521.29 593.672 1521.29 594.6C1521.29 595.512 1521.45 596.36 1521.77 597.144C1522.11 597.928 1522.57 598.616 1523.17 599.208C1523.76 599.8 1524.45 600.256 1525.23 600.576C1526.03 600.896 1526.9 601.056 1527.85 601.056ZM1547.38 603.192C1545.17 603.192 1543.43 602.56 1542.17 601.296C1540.91 600.032 1540.27 598.184 1540.27 595.752V586.2H1542.67V595.656C1542.67 597.528 1543.08 598.896 1543.9 599.76C1544.73 600.624 1545.9 601.056 1547.4 601.056C1548.92 601.056 1550.09 600.624 1550.91 599.76C1551.74 598.896 1552.15 597.528 1552.15 595.656V586.2H1554.48V595.752C1554.48 598.184 1553.85 600.032 1552.59 601.296C1551.34 602.56 1549.6 603.192 1547.38 603.192ZM1561.59 593.448H1570.23V595.488H1561.59V593.448ZM1561.8 600.912H1571.59V603H1559.4V586.2H1571.26V588.288H1561.8V600.912Z" fill="black"/>
<path d="M367 435H1340" stroke="black" stroke-opacity="0.5" stroke-width="3"/>
<path d="M448 506H1325" stroke="black" stroke-opacity="0.5" stroke-width="3"/>
<path d="M438 596H1329" stroke="black" stroke-opacity="0.5" stroke-width="3"/>
<path d="M166.747 913L544.294 79.2999H662.204L1040.94 913H915.887L578.834 145.996H626.474L289.42 913H166.747ZM327.532 704.575L359.689 609.295H828.943L863.483 704.575H327.532ZM1540.47 913V779.608L1534.52 754.597V527.116C1534.52 478.682 1520.23 441.364 1491.64 415.162C1463.85 388.166 1421.77 374.668 1365.4 374.668C1328.08 374.668 1291.55 381.02 1255.82 393.724C1220.09 405.634 1189.92 421.911 1165.31 442.555L1117.67 356.803C1150.22 330.601 1189.13 310.751 1234.39 297.253C1280.44 282.961 1328.47 275.815 1378.5 275.815C1465.04 275.815 1531.74 296.856 1578.58 338.938C1625.43 381.02 1648.85 445.334 1648.85 531.88V913H1540.47ZM1333.24 920.146C1286.39 920.146 1245.1 912.206 1209.37 896.326C1174.44 880.446 1147.44 858.611 1128.39 830.821C1109.33 802.237 1099.8 770.08 1099.8 734.35C1099.8 700.208 1107.74 669.242 1123.62 641.452C1140.3 613.662 1166.9 591.43 1203.42 574.756C1240.74 558.082 1290.76 549.745 1353.49 549.745H1553.57V631.924H1358.25C1301.08 631.924 1262.57 641.452 1242.72 660.508C1222.87 679.564 1212.95 702.59 1212.95 729.586C1212.95 760.552 1225.25 785.563 1249.87 804.619C1274.48 822.881 1308.62 832.012 1352.29 832.012C1395.17 832.012 1432.49 822.484 1464.25 803.428C1496.8 784.372 1520.23 756.582 1534.52 720.058L1557.15 798.664C1542.06 835.982 1515.46 865.757 1477.35 887.989C1439.24 909.427 1391.2 920.146 1333.24 920.146Z" fill="#E75D00" fill-opacity="0.12"/>
</svg>
