<svg width="1920" height="1080" viewBox="0 0 1920 1080" fill="none" xmlns="http://www.w3.org/2000/svg">
<rect width="1920" height="1080" fill="#FF6A07"/>
<path d="M849.848 589.067C848.895 589.055 847.308 588.796 845.089 588.291C841.875 587.79 839.214 585.769 837.506 583.001C835.122 579.138 833.042 574.483 831.266 569.036C828.82 561.373 826.861 553.002 825.388 543.921C823.916 534.681 822.844 525.287 822.172 515.74C821.499 506.192 821.059 497.124 820.851 488.537C820.739 483.758 807.522 470.061 793.842 455.124C780.379 440.424 791.14 421.704 811.014 423.249L856.066 426.75C870.598 427.879 880.277 440.671 876.23 454.673C871.349 471.558 865.426 490.605 864.867 496.494C863.948 506.18 863.431 515.474 863.317 524.375C863.225 531.528 863.371 538.764 863.754 546.082C863.857 547.431 863.97 548.808 864.094 550.213C865.038 560.884 876.03 568.467 883.831 561.125C888.659 556.576 892.544 551.141 895.487 544.82C898.591 538.341 900.824 531.534 902.188 524.397C903.551 517.26 904.277 510.274 904.364 503.439C904.381 502.168 904.321 500.656 904.184 498.906C904.209 496.998 904.01 493.896 903.588 489.598C903.467 487.538 904.309 479.83 905.165 471.271C906.401 458.912 919.627 449.17 931.576 452.562C939.61 454.842 944.945 462.445 944.357 470.776L936.992 575.093C936.545 581.431 931.526 586.487 925.192 586.981C918.198 587.526 912.063 582.354 911.418 575.369L908.48 543.541C908.431 543.006 907.986 542.595 907.449 542.588C907.013 542.583 906.618 542.851 906.457 543.256C899.933 559.67 891.999 571.424 882.654 578.518C873.182 585.71 862.247 589.226 849.848 589.067Z" fill="white"/>
<path fill-rule="evenodd" clip-rule="evenodd" d="M830.359 569.332L830.357 569.326C827.896 561.613 825.926 553.194 824.446 544.074L824.446 544.071C822.97 534.803 821.895 525.381 821.221 515.807C820.547 506.246 820.106 497.164 819.898 488.56L819.898 488.559C819.888 488.153 819.731 487.556 819.354 486.742C818.984 485.943 818.434 485.003 817.715 483.932C816.278 481.788 814.216 479.194 811.709 476.259C807.921 471.822 803.169 466.665 798.116 461.181C796.481 459.407 794.814 457.598 793.139 455.768C786.165 448.153 785.379 439.359 789.092 432.634C792.791 425.934 800.836 421.501 811.088 422.298L856.14 425.799C871.22 426.97 881.377 440.304 877.146 454.938C876.1 458.557 875.009 462.266 873.933 465.922C872.494 470.815 871.082 475.611 869.845 479.968C867.675 487.611 866.086 493.747 865.817 496.584C864.9 506.247 864.385 515.514 864.271 524.388C864.18 531.516 864.325 538.727 864.706 546.021C864.808 547.362 864.921 548.731 865.044 550.129C865.491 555.173 868.314 559.458 871.883 561.607C875.406 563.727 879.627 563.771 883.177 560.431C887.913 555.969 891.728 550.635 894.623 544.417L894.627 544.408C897.695 538.004 899.903 531.275 901.251 524.218C902.605 517.133 903.324 510.203 903.411 503.427C903.427 502.193 903.368 500.712 903.233 498.98L903.23 498.937L903.23 498.894C903.254 497.043 903.06 493.986 902.639 489.691L902.637 489.672L902.636 489.653C902.57 488.534 902.761 486.004 903.061 482.783C903.27 480.53 903.538 477.886 903.824 475.057C903.952 473.794 904.084 472.495 904.216 471.176C904.865 464.686 908.653 458.928 913.797 455.235C918.943 451.541 925.533 449.855 931.836 451.644C940.305 454.048 945.928 462.061 945.308 470.843L937.944 575.16C937.463 581.969 932.071 587.401 925.266 587.931C917.753 588.517 911.161 582.961 910.469 575.456L907.53 543.628C907.526 543.58 907.486 543.543 907.437 543.542C907.402 543.542 907.361 543.565 907.343 543.608C900.785 560.108 892.767 572.038 883.231 579.278C873.582 586.604 862.438 590.183 849.836 590.021C848.776 590.008 847.113 589.729 844.909 589.228C841.39 588.668 838.517 586.456 836.694 583.501C834.262 579.56 832.153 574.833 830.359 569.332ZM845.089 588.291C847.308 588.796 848.895 589.055 849.849 589.067C862.247 589.226 873.182 585.71 882.655 578.518C891.999 571.424 899.933 559.67 906.457 543.256C906.618 542.851 907.013 542.583 907.449 542.588C907.986 542.595 908.431 543.006 908.48 543.541L911.418 575.369C912.063 582.354 918.198 587.526 925.192 586.981C931.526 586.486 936.545 581.431 936.992 575.093L944.357 470.776C944.945 462.445 939.611 454.842 931.576 452.562C919.627 449.17 906.401 458.912 905.165 471.271C905.033 472.593 904.901 473.894 904.773 475.157C904.072 482.076 903.486 487.856 903.588 489.598C904.01 493.896 904.209 496.998 904.184 498.906C904.321 500.656 904.381 502.168 904.365 503.439C904.277 510.274 903.551 517.26 902.188 524.397C900.825 531.534 898.591 538.341 895.487 544.82C892.545 551.141 888.659 556.576 883.832 561.125C876.03 568.467 865.038 560.884 864.094 550.213C863.97 548.808 863.857 547.431 863.754 546.082C863.371 538.764 863.225 531.528 863.317 524.375C863.431 515.474 863.948 506.18 864.867 496.494C865.306 491.864 869.063 479.097 873.021 465.643C874.096 461.988 875.187 458.281 876.23 454.673C880.278 440.671 870.598 427.879 856.066 426.749L811.014 423.249C791.14 421.704 780.379 440.424 793.842 455.124C795.512 456.947 797.174 458.751 798.807 460.523C810.553 473.271 820.753 484.341 820.852 488.537C821.059 497.124 821.5 506.192 822.172 515.74C822.844 525.287 823.916 534.681 825.388 543.921C826.861 553.002 828.821 561.373 831.266 569.036C833.043 574.483 835.123 579.138 837.506 583.001C839.214 585.769 841.875 587.79 845.089 588.291Z" fill="white"/>
<path d="M1110.07 589.774C1102.86 590.347 1096.53 585 1095.89 577.792L1088.32 492.225C1087.25 480.185 1095.79 469.413 1107.75 467.695C1122.7 465.55 1135.55 478.287 1133.54 493.251L1122.09 578.387C1121.27 584.54 1116.26 589.283 1110.07 589.774Z" fill="white"/>
<path fill-rule="evenodd" clip-rule="evenodd" d="M1094.94 577.876L1087.37 492.309C1086.26 479.764 1095.15 468.541 1107.62 466.751C1123.19 464.516 1136.58 477.787 1134.48 493.378L1123.04 578.514C1122.15 585.112 1116.78 590.198 1110.14 590.725C1102.41 591.34 1095.62 585.606 1094.94 577.876ZM1095.89 577.792C1096.53 585 1102.85 590.347 1110.07 589.774C1116.26 589.283 1121.26 584.54 1122.09 578.387L1133.54 493.251C1135.55 478.288 1122.7 465.55 1107.75 467.695C1095.79 469.413 1087.25 480.185 1088.32 492.225L1095.89 577.792Z" fill="white"/>
<path d="M972.738 588.39C958.804 589.237 947.657 576.985 949.813 563.193L963.466 475.872C964.771 467.524 971.224 460.922 979.539 459.427C992.033 457.18 1003.39 467.094 1002.85 479.777L1001.81 504.085C1001.78 504.808 1002.35 505.414 1003.08 505.423C1003.58 505.429 1004.04 505.141 1004.26 504.689C1010.55 491.608 1017.72 481.218 1025.77 473.52C1033.98 465.676 1042.54 461.811 1051.44 461.925C1051.96 461.932 1052.48 461.953 1052.99 461.988C1057.83 462.315 1061.99 465.407 1064.29 469.679C1066.17 473.172 1067.84 477.262 1069.31 481.948C1071.75 489.61 1073.71 498.141 1075.18 507.54C1076.65 516.939 1077.72 526.571 1078.39 536.436C1079.06 546.143 1079.49 555.449 1079.7 564.355C1079.72 565.341 1079.74 566.311 1079.76 567.267C1079.99 578.426 1071.32 587.615 1060.18 588.399C1047.66 589.282 1037.08 579.269 1037.08 566.714C1037.07 560.705 1037.03 555.125 1036.96 549.975C1036.78 538.685 1036.44 528.347 1035.92 518.96C1035.72 513.427 1035.43 507.865 1035.07 502.276C1034.66 496.102 1028.55 492.467 1023.58 496.147C1019.72 499.118 1015.76 503.996 1011.7 510.78C1007.64 517.564 1003.78 527.133 1000.13 539.487C997.645 547.77 995.397 557.779 993.385 569.515C991.618 579.814 983.168 587.756 972.738 588.39Z" fill="white"/>
<path fill-rule="evenodd" clip-rule="evenodd" d="M1023.58 496.147C1019.72 499.118 1015.76 503.996 1011.7 510.78C1007.64 517.564 1003.78 527.133 1000.13 539.487C997.645 547.77 995.398 557.779 993.385 569.516C991.619 579.815 983.168 587.756 972.738 588.39C958.804 589.237 947.657 576.985 949.813 563.193L963.466 475.872C964.771 467.525 971.224 460.922 979.539 459.427C992.033 457.18 1003.39 467.094 1002.85 479.777L1001.81 504.085C1001.78 504.808 1002.35 505.414 1003.08 505.423C1003.58 505.429 1004.04 505.141 1004.26 504.689C1010.55 491.608 1017.72 481.218 1025.77 473.52C1033.98 465.676 1042.54 461.811 1051.44 461.926C1051.96 461.932 1052.48 461.953 1052.99 461.988C1057.83 462.315 1061.99 465.407 1064.29 469.68C1066.17 473.173 1067.84 477.262 1069.31 481.948C1071.75 489.611 1073.71 498.141 1075.18 507.54C1076.65 516.939 1077.72 526.571 1078.39 536.436C1079.06 546.143 1079.49 555.449 1079.7 564.355C1079.72 565.341 1079.74 566.312 1079.76 567.267C1079.99 578.426 1071.32 587.615 1060.18 588.399C1047.66 589.282 1037.08 579.269 1037.08 566.714C1037.08 560.705 1037.03 555.125 1036.96 549.975C1036.78 538.685 1036.44 528.347 1035.92 518.96C1035.72 513.427 1035.43 507.865 1035.07 502.276C1034.66 496.103 1028.55 492.467 1023.58 496.147ZM1080.65 564.332C1080.67 565.319 1080.69 566.291 1080.71 567.248C1080.95 578.933 1071.88 588.532 1060.25 589.351C1047.17 590.273 1036.13 579.813 1036.12 566.714C1036.12 560.709 1036.08 555.134 1036 549.99C1035.83 538.71 1035.48 528.384 1034.97 519.013L1034.97 519.004L1034.97 518.996C1034.76 513.471 1034.48 507.919 1034.11 502.339C1033.93 499.555 1032.47 497.404 1030.57 496.35C1028.7 495.31 1026.33 495.298 1024.15 496.908C1020.43 499.776 1016.55 504.537 1012.52 511.27C1008.52 517.956 1004.69 527.439 1001.04 539.758L1001.04 539.761C998.573 547.996 996.333 557.966 994.325 569.677C992.488 580.39 983.69 588.68 972.796 589.342C958.254 590.226 946.62 577.439 948.871 563.045L962.523 475.724C963.891 466.976 970.655 460.056 979.37 458.488C992.465 456.133 1004.37 466.524 1003.8 479.817L1002.77 504.125C1002.76 504.311 1002.9 504.467 1003.09 504.469C1003.22 504.471 1003.34 504.397 1003.4 504.276C1009.72 491.121 1016.95 480.628 1025.11 472.831C1033.45 464.864 1042.24 460.854 1051.45 460.972C1051.99 460.979 1052.52 461 1053.05 461.036C1058.27 461.389 1062.71 464.715 1065.13 469.228C1067.05 472.784 1068.74 476.931 1070.22 481.661M1080.65 564.332C1080.45 555.411 1080.01 546.091 1079.34 536.371L1080.65 564.332Z" fill="white"/>
<path d="M1122.08 456.647C1114.43 462.837 1105.26 463.914 1098.03 455.97C1088.85 444.531 1096.27 437.399 1096.58 437.037C1102.12 430.52 1104.97 430.397 1113.77 430.98C1121.59 431.497 1127.07 440.254 1126.41 448.061C1126.13 451.347 1125.69 453.715 1122.08 456.647Z" fill="white"/>
<path fill-rule="evenodd" clip-rule="evenodd" d="M1109.89 460.655C1113.77 460.608 1117.77 458.907 1121.47 455.906C1123.2 454.511 1124.1 453.302 1124.62 452.106C1125.15 450.892 1125.32 449.615 1125.46 447.981C1125.77 444.315 1124.64 440.394 1122.49 437.334C1120.35 434.277 1117.26 432.166 1113.71 431.931C1109.27 431.638 1106.54 431.547 1104.23 432.258C1101.99 432.95 1100.03 434.446 1097.3 437.655C1097.29 437.672 1097.26 437.699 1097.23 437.736C1096.84 438.153 1095.3 439.812 1094.68 442.562C1094 445.496 1094.34 449.838 1098.75 455.35C1102.2 459.127 1106.04 460.701 1109.89 460.655ZM1098.03 455.97C1105.26 463.914 1114.43 462.837 1122.08 456.647C1125.69 453.715 1126.13 451.347 1126.41 448.061C1127.07 440.254 1121.59 431.497 1113.77 430.98C1104.97 430.397 1102.12 430.52 1096.58 437.037C1096.57 437.05 1096.54 437.073 1096.51 437.105C1095.74 437.936 1089.19 444.957 1098.03 455.97Z" fill="white"/>
<path d="M1077.75 615.483C1080.38 616.009 1083.99 617.588 1088.6 620.219C1093.2 622.718 1097.81 625.612 1102.41 628.901C1107.15 632.058 1111.29 635.215 1114.84 638.372C1118.39 641.397 1120.5 643.568 1121.16 644.883C1121.68 646.198 1121.88 648.632 1121.75 652.184C1121.62 655.735 1121.22 660.076 1120.56 665.206C1119.91 670.205 1119.05 675.73 1118 681.781C1116.95 687.832 1115.76 693.948 1114.45 700.131C1113.13 706.182 1111.68 712.101 1110.11 717.889C1108.66 723.546 1107.15 728.544 1105.57 732.885C1104.91 734.99 1103.46 737.292 1101.23 739.791C1098.99 742.29 1096.36 744.79 1093.33 747.289C1090.31 749.657 1087.09 751.893 1083.67 753.998C1080.38 756.102 1077.22 757.878 1074.19 759.325C1071.3 760.772 1068.67 761.759 1066.3 762.285C1064.07 762.811 1062.55 762.68 1061.76 761.89C1060.97 761.101 1060.12 758.602 1059.2 754.392C1058.41 750.051 1057.62 744.658 1056.83 738.213C1056.04 731.635 1055.32 724.335 1054.66 716.311C1054 708.155 1053.41 699.868 1052.88 691.449C1052.36 683.03 1051.9 674.809 1051.5 666.785C1051.24 658.629 1051.04 651.329 1050.91 644.883C1050.91 638.306 1051.04 632.847 1051.31 628.506C1051.57 624.033 1052.03 621.337 1052.69 620.416C1053.21 619.758 1054.53 619.101 1056.63 618.443C1058.87 617.785 1061.3 617.193 1063.93 616.667C1066.7 616.141 1069.39 615.746 1072.02 615.483C1074.65 615.22 1076.56 615.22 1077.75 615.483ZM1076.56 640.542C1075.64 641.2 1074.98 643.239 1074.59 646.659C1074.19 649.947 1073.87 653.959 1073.6 658.695C1073.47 663.299 1073.41 668.232 1073.41 673.494C1073.41 678.755 1073.34 683.557 1073.21 687.897C1072.94 699.21 1072.81 708.155 1072.81 714.732C1072.94 721.178 1073.08 726.045 1073.21 729.333C1073.47 732.491 1073.8 734.529 1074.19 735.45C1074.59 736.239 1075.12 736.634 1075.77 736.634C1076.3 736.634 1077.15 736.239 1078.34 735.45C1079.65 734.661 1081.03 733.674 1082.48 732.491C1083.93 731.307 1085.31 730.057 1086.63 728.742C1087.94 727.295 1088.86 726.045 1089.39 724.993C1089.91 723.94 1090.57 721.901 1091.36 718.876C1092.15 715.719 1092.94 712.101 1093.73 708.024C1094.52 703.814 1095.31 699.407 1096.1 694.803C1096.89 690.068 1097.54 685.595 1098.07 681.386C1098.73 677.045 1099.19 673.23 1099.45 669.942C1099.85 666.522 1100.04 664.088 1100.04 662.641C1099.91 659.879 1098.79 657.051 1096.69 654.157C1094.58 651.263 1092.15 648.698 1089.39 646.461C1086.76 644.225 1084.13 642.515 1081.5 641.331C1079 640.147 1077.35 639.884 1076.56 640.542Z" fill="white"/>
<path d="M977.708 635.017C978.366 633.833 979.747 632.321 981.851 630.479C983.956 628.506 986.455 626.533 989.349 624.56C992.375 622.587 995.598 620.811 999.018 619.232C1002.44 617.522 1005.86 616.404 1009.28 615.878C1012.83 615.22 1016.12 615.352 1019.14 616.272C1022.3 617.062 1025 618.903 1027.23 621.797C1028.42 623.244 1029.54 626.138 1030.59 630.479C1031.64 634.82 1032.63 640.082 1033.55 646.264C1034.6 652.315 1035.52 659.09 1036.31 666.588C1037.1 673.954 1037.76 681.518 1038.28 689.279C1038.81 696.908 1039.14 704.472 1039.27 711.97C1039.53 719.336 1039.53 726.177 1039.27 732.491C1039.14 738.673 1038.74 744.001 1038.09 748.473C1037.56 752.814 1036.7 755.839 1035.52 757.55C1033.15 760.97 1029.47 763.272 1024.47 764.456C1019.47 765.639 1014.21 765.639 1008.69 764.456C1003.16 763.403 997.9 761.167 992.901 757.747C987.902 754.327 984.219 749.723 981.851 743.935C980.273 740.12 978.957 734.924 977.905 728.347C976.984 721.77 976.261 714.667 975.735 707.037C975.209 699.276 974.88 691.383 974.748 683.359C974.748 675.335 974.814 667.969 974.945 661.26C975.209 654.42 975.537 648.632 975.932 643.896C976.458 639.161 977.05 636.201 977.708 635.017ZM1016.38 735.056C1017.17 734.266 1017.7 732.162 1017.96 728.742C1018.35 725.19 1018.55 721.046 1018.55 716.311C1018.68 711.444 1018.68 706.314 1018.55 700.92C1018.55 695.527 1018.55 690.528 1018.55 685.924C1018.55 674.217 1018.16 665.141 1017.37 658.695C1016.58 652.249 1015.66 647.448 1014.61 644.291C1013.42 640.608 1012.11 638.306 1010.66 637.385C1008.69 637.78 1007.04 638.437 1005.73 639.358C1004.41 640.148 1003.36 641.068 1002.57 642.121C1001.65 643.305 1000.93 644.554 1000.4 645.87C1000 647.054 999.544 649.356 999.018 652.776C998.623 656.196 998.229 660.274 997.834 665.009C997.439 669.613 997.045 674.678 996.65 680.202C996.387 685.596 996.124 690.923 995.861 696.185C995.729 701.446 995.598 706.445 995.466 711.181C995.466 715.785 995.532 719.599 995.663 722.625C995.927 727.229 996.979 730.583 998.82 732.688C1000.79 734.793 1002.9 736.174 1005.13 736.832C1007.37 737.358 1009.54 737.358 1011.65 736.832C1013.88 736.305 1015.46 735.713 1016.38 735.056Z" fill="white"/>
<path d="M899.769 635.017C900.426 633.833 901.808 632.321 903.912 630.479C906.017 628.506 908.516 626.533 911.41 624.56C914.436 622.587 917.659 620.811 921.079 619.232C924.499 617.522 927.919 616.404 931.339 615.878C934.891 615.22 938.179 615.352 941.205 616.272C944.362 617.062 947.058 618.903 949.295 621.797C950.479 623.244 951.597 626.138 952.649 630.479C953.701 634.82 954.688 640.082 955.609 646.264C956.661 652.315 957.582 659.09 958.371 666.588C959.16 673.954 959.818 681.518 960.344 689.279C960.87 696.908 961.199 704.472 961.331 711.97C961.594 719.336 961.594 726.177 961.331 732.491C961.199 738.673 960.805 744.001 960.147 748.473C959.621 752.814 958.766 755.839 957.582 757.55C955.214 760.97 951.531 763.272 946.532 764.456C941.534 765.639 936.272 765.639 930.747 764.456C925.222 763.403 919.961 761.167 914.962 757.747C909.963 754.327 906.28 749.723 903.912 743.935C902.334 740.12 901.018 734.924 899.966 728.347C899.045 721.77 898.322 714.667 897.796 707.037C897.269 699.276 896.941 691.383 896.809 683.359C896.809 675.335 896.875 667.969 897.006 661.26C897.269 654.42 897.598 648.632 897.993 643.896C898.519 639.161 899.111 636.201 899.769 635.017ZM938.442 735.056C939.232 734.266 939.758 732.162 940.021 728.742C940.415 725.19 940.613 721.046 940.613 716.311C940.744 711.444 940.744 706.314 940.613 700.92C940.613 695.527 940.613 690.528 940.613 685.924C940.613 674.217 940.218 665.141 939.429 658.695C938.64 652.249 937.719 647.448 936.667 644.291C935.483 640.608 934.167 638.306 932.72 637.385C930.747 637.78 929.103 638.437 927.787 639.358C926.472 640.148 925.42 641.068 924.63 642.121C923.71 643.305 922.986 644.554 922.46 645.87C922.065 647.054 921.605 649.356 921.079 652.776C920.684 656.196 920.289 660.274 919.895 665.009C919.5 669.613 919.106 674.678 918.711 680.202C918.448 685.596 918.185 690.923 917.922 696.185C917.79 701.446 917.659 706.445 917.527 711.181C917.527 715.785 917.593 719.599 917.724 722.625C917.987 727.229 919.04 730.583 920.881 732.688C922.855 734.793 924.959 736.174 927.195 736.832C929.432 737.358 931.602 737.358 933.707 736.832C935.943 736.305 937.522 735.713 938.442 735.056Z" fill="white"/>
<path d="M854.781 700.526C854.781 702.236 854.715 704.932 854.584 708.616C854.584 712.299 854.518 716.442 854.386 721.046C854.255 725.65 854.058 730.452 853.794 735.45C853.663 740.317 853.4 744.79 853.005 748.868C852.611 752.814 852.15 756.102 851.624 758.733C851.229 761.364 850.703 762.68 850.045 762.68C848.072 762.68 846.165 761.298 844.323 758.536C842.613 755.642 840.837 752.551 838.996 749.262C838.601 748.473 838.141 746.171 837.615 742.356C837.22 738.41 836.76 733.477 836.233 727.558C835.839 721.638 835.444 715.061 835.05 707.826C834.655 700.591 834.26 693.225 833.866 685.727C833.471 678.229 833.142 670.863 832.879 663.628C832.748 656.393 832.616 649.882 832.485 644.094C832.353 638.306 832.353 633.505 832.485 629.69C832.616 625.744 832.879 623.442 833.274 622.784C833.8 621.863 835.642 621.205 838.799 620.811C841.956 620.285 845.77 620.021 850.243 620.021C854.847 620.021 859.78 620.153 865.041 620.416C870.303 620.679 875.17 621.074 879.643 621.6C884.247 621.995 888.061 622.455 891.087 622.981C894.244 623.507 896.02 623.968 896.414 624.362C896.94 624.889 897.006 626.335 896.612 628.703C896.349 630.939 895.822 633.439 895.033 636.201C894.375 638.832 893.52 641.331 892.468 643.699C891.547 646.067 890.758 647.58 890.1 648.237C889.443 648.895 886.351 648.829 880.827 648.04C875.433 647.251 866.751 646.33 854.781 645.278V678.229C863.989 679.018 871.158 679.742 876.288 680.4C881.55 681.057 884.312 681.518 884.575 681.781C885.102 682.307 885.299 683.359 885.167 684.938C885.036 686.516 884.707 688.226 884.181 690.068C883.655 691.778 882.997 693.422 882.208 695.001C881.418 696.448 880.629 697.434 879.84 697.961C879.445 698.224 877.078 698.618 872.737 699.144C868.527 699.671 862.542 700.131 854.781 700.526Z" fill="white"/>
<path d="M923.994 620.376C923.869 620.218 923.671 620.149 923.48 620.196C922.367 620.479 921.321 621.155 920.455 622.149L920.111 622.544L920.074 622.009C920.062 621.823 920.049 621.635 920.037 621.445C919.84 618.426 919.617 615.004 917.099 612.94C913.089 609.649 911.235 607.002 910.387 605.361C910.288 605.171 910.091 605.061 909.888 605.083C909.684 605.105 909.511 605.252 909.449 605.459C909.019 606.885 908.555 608.904 908.785 610.423C908.968 611.633 909.761 612.864 910.53 614.057C911.402 615.411 912.227 616.69 911.985 617.778C911.871 618.293 911.522 618.728 910.948 619.071C910.552 619.308 910.154 619.423 909.764 619.415C908.993 619.397 908.255 618.879 907.684 617.956C907.037 616.91 906.663 615.457 906.731 614.255C906.74 614.084 906.672 613.918 906.548 613.808C906.423 613.698 906.255 613.658 906.098 613.699C905.234 613.924 904.392 614.448 903.725 615.173C902.799 616.18 902.301 617.451 902.36 618.66C902.431 620.097 903.158 621.384 903.861 622.629C904.482 623.729 905.124 624.867 905.25 626.056C905.328 626.802 905.203 627.372 904.876 627.749C904.675 627.981 904.29 628.254 903.598 628.238C902.795 628.22 901.788 627.829 900.905 627.192C900.748 627.079 900.545 627.067 900.376 627.161C900.208 627.255 900.103 627.44 900.103 627.641C900.104 630.806 901.072 633.645 902.904 635.852C904.936 638.301 907.856 639.691 911.126 639.765C912.457 639.796 913.838 639.609 915.23 639.211C919.85 637.889 923.156 632.894 922.757 627.839C922.641 626.376 922.775 623.992 924.067 620.942C924.147 620.754 924.118 620.535 923.994 620.376Z" fill="white"/>
<path d="M944.697 610.886C944.579 610.731 944.383 610.658 944.191 610.695C943.069 610.917 941.999 611.514 941.097 612.42L940.74 612.779L940.722 612.272C940.716 612.095 940.711 611.917 940.705 611.736C940.618 608.871 940.519 605.624 938.079 603.568C934.191 600.289 932.435 597.709 931.647 596.121C931.556 595.937 931.363 595.825 931.159 595.838C930.954 595.849 930.776 595.982 930.706 596.175C930.225 597.508 929.688 599.399 929.863 600.846C930.002 601.998 930.75 603.196 931.474 604.356C932.297 605.673 933.075 606.918 932.794 607.938C932.661 608.42 932.296 608.817 931.71 609.119C931.306 609.327 930.904 609.42 930.514 609.396C929.746 609.348 929.027 608.827 928.49 607.93C927.881 606.914 927.56 605.524 927.672 604.389C927.687 604.227 927.625 604.067 927.505 603.958C927.384 603.849 927.218 603.804 927.059 603.837C926.188 604.015 925.327 604.476 924.635 605.135C923.673 606.051 923.13 607.233 923.144 608.379C923.163 609.742 923.843 610.99 924.5 612.197C925.081 613.264 925.681 614.367 925.763 615.497C925.815 616.207 925.669 616.741 925.329 617.084C925.119 617.296 924.725 617.538 924.034 617.495C923.232 617.445 922.24 617.034 921.381 616.395C921.229 616.282 921.026 616.262 920.854 616.344C920.683 616.426 920.571 616.597 920.564 616.787C920.449 619.782 921.314 622.509 923.064 624.672C925.006 627.073 927.873 628.508 931.138 628.711C932.466 628.794 933.852 628.674 935.258 628.354C939.922 627.291 943.406 622.699 943.191 617.898C943.129 616.509 943.349 614.259 944.75 611.425C944.837 611.25 944.816 611.041 944.697 610.886Z" fill="white"/>
<path d="M956.702 626.874C956.695 626.679 956.577 626.507 956.398 626.427C955.352 625.963 954.134 625.835 952.876 626.058L952.376 626.146L952.654 625.721C952.751 625.573 952.849 625.423 952.948 625.273C954.525 622.879 956.312 620.166 955.499 617.08C954.205 612.163 954.254 609.042 954.522 607.289C954.553 607.087 954.46 606.884 954.286 606.777C954.112 606.669 953.89 606.674 953.722 606.792C952.562 607.605 951.034 608.844 950.344 610.128C949.795 611.15 949.718 612.56 949.643 613.926C949.559 615.477 949.479 616.942 948.662 617.614C948.276 617.932 947.749 618.048 947.096 617.957C946.646 617.895 946.264 617.74 945.959 617.496C945.358 617.014 945.069 616.175 945.146 615.132C945.233 613.951 945.77 612.629 946.514 611.765C946.62 611.642 946.661 611.476 946.625 611.317C946.589 611.158 946.48 611.026 946.331 610.961C945.516 610.606 944.547 610.488 943.601 610.628C942.287 610.824 941.163 611.478 940.515 612.424C939.747 613.55 939.585 614.962 939.428 616.327C939.289 617.534 939.146 618.781 938.563 619.753C938.197 620.363 937.77 620.716 937.294 620.801C937.002 620.854 936.54 620.825 935.999 620.392C935.372 619.89 934.797 618.983 934.462 617.967C934.402 617.786 934.247 617.654 934.06 617.622C933.872 617.59 933.683 617.665 933.568 617.817C931.751 620.201 930.89 622.929 931.076 625.705C931.283 628.786 932.804 631.609 935.357 633.654C936.395 634.486 937.599 635.185 938.932 635.731C943.359 637.545 948.851 635.793 951.436 631.743C952.184 630.571 953.659 628.857 956.436 627.345C956.607 627.252 956.71 627.069 956.702 626.874Z" fill="white"/>
<path d="M1001.13 619.745C1001.01 619.587 1000.81 619.518 1000.62 619.565C999.508 619.848 998.462 620.524 997.596 621.518L997.252 621.913L997.215 621.378C997.202 621.192 997.19 621.004 997.178 620.814C996.981 617.795 996.757 614.373 994.24 612.309C990.23 609.018 988.376 606.371 987.527 604.73C987.429 604.54 987.232 604.43 987.029 604.452C986.825 604.474 986.652 604.621 986.589 604.828C986.16 606.254 985.696 608.273 985.925 609.792C986.108 611.002 986.902 612.233 987.67 613.426C988.543 614.78 989.368 616.059 989.126 617.147C989.012 617.662 988.663 618.097 988.088 618.44C987.693 618.677 987.295 618.792 986.904 618.783C986.134 618.766 985.396 618.248 984.825 617.325C984.178 616.278 983.804 614.826 983.872 613.624C983.881 613.453 983.813 613.287 983.688 613.177C983.563 613.067 983.396 613.027 983.238 613.068C982.375 613.293 981.532 613.817 980.866 614.542C979.939 615.549 979.442 616.82 979.5 618.029C979.572 619.466 980.298 620.753 981.001 621.998C981.623 623.098 982.265 624.236 982.39 625.425C982.469 626.171 982.343 626.741 982.017 627.118C981.816 627.35 981.431 627.623 980.739 627.607C979.936 627.589 978.929 627.198 978.046 626.561C977.889 626.448 977.685 626.436 977.517 626.53C977.349 626.624 977.244 626.809 977.244 627.01C977.244 630.175 978.213 633.014 980.044 635.221C982.077 637.67 984.997 639.06 988.267 639.134C989.598 639.165 990.979 638.978 992.371 638.58C996.991 637.257 1000.3 632.262 999.898 627.208C999.782 625.745 999.916 623.361 1001.21 620.311C1001.29 620.123 1001.26 619.904 1001.13 619.745Z" fill="white"/>
<path d="M1021.84 610.255C1021.72 610.1 1021.52 610.027 1021.33 610.064C1020.21 610.286 1019.14 610.883 1018.24 611.789L1017.88 612.148L1017.86 611.641C1017.86 611.464 1017.85 611.286 1017.85 611.105C1017.76 608.24 1017.66 604.993 1015.22 602.936C1011.33 599.658 1009.58 597.078 1008.79 595.49C1008.7 595.306 1008.5 595.194 1008.3 595.207C1008.09 595.218 1007.92 595.351 1007.85 595.544C1007.37 596.876 1006.83 598.768 1007 600.215C1007.14 601.367 1007.89 602.565 1008.62 603.725C1009.44 605.042 1010.22 606.287 1009.93 607.307C1009.8 607.789 1009.44 608.186 1008.85 608.488C1008.45 608.696 1008.05 608.789 1007.66 608.765C1006.89 608.717 1006.17 608.196 1005.63 607.299C1005.02 606.283 1004.7 604.893 1004.81 603.758C1004.83 603.596 1004.77 603.436 1004.65 603.327C1004.52 603.218 1004.36 603.173 1004.2 603.206C1003.33 603.384 1002.47 603.845 1001.78 604.504C1000.81 605.42 1000.27 606.602 1000.29 607.748C1000.3 609.111 1000.98 610.359 1001.64 611.566C1002.22 612.633 1002.82 613.736 1002.9 614.866C1002.96 615.576 1002.81 616.11 1002.47 616.453C1002.26 616.664 1001.87 616.907 1001.17 616.864C1000.37 616.814 999.381 616.403 998.522 615.764C998.369 615.651 998.166 615.631 997.995 615.713C997.823 615.795 997.712 615.966 997.704 616.156C997.59 619.151 998.455 621.878 1000.2 624.041C1002.15 626.442 1005.01 627.877 1008.28 628.08C1009.61 628.163 1010.99 628.043 1012.4 627.723C1017.06 626.66 1020.55 622.068 1020.33 617.267C1020.27 615.878 1020.49 613.628 1021.89 610.794C1021.98 610.619 1021.96 610.41 1021.84 610.255Z" fill="white"/>
<path d="M1033.84 626.243C1033.84 626.048 1033.72 625.875 1033.54 625.796C1032.49 625.332 1031.28 625.204 1030.02 625.427L1029.52 625.515L1029.79 625.09C1029.89 624.942 1029.99 624.792 1030.09 624.642C1031.67 622.248 1033.45 619.535 1032.64 616.449C1031.35 611.532 1031.39 608.411 1031.66 606.658C1031.69 606.456 1031.6 606.252 1031.43 606.146C1031.25 606.038 1031.03 606.043 1030.86 606.161C1029.7 606.974 1028.17 608.213 1027.49 609.496C1026.94 610.519 1026.86 611.929 1026.78 613.295C1026.7 614.846 1026.62 616.311 1025.8 616.983C1025.42 617.301 1024.89 617.417 1024.24 617.326C1023.79 617.264 1023.4 617.109 1023.1 616.865C1022.5 616.383 1022.21 615.544 1022.29 614.501C1022.37 613.32 1022.91 611.998 1023.65 611.134C1023.76 611.011 1023.8 610.844 1023.77 610.686C1023.73 610.527 1023.62 610.395 1023.47 610.33C1022.66 609.975 1021.69 609.857 1020.74 609.997C1019.43 610.193 1018.3 610.847 1017.66 611.793C1016.89 612.919 1016.73 614.331 1016.57 615.696C1016.43 616.903 1016.29 618.15 1015.7 619.122C1015.34 619.732 1014.91 620.085 1014.44 620.17C1014.14 620.223 1013.68 620.194 1013.14 619.761C1012.51 619.259 1011.94 618.352 1011.6 617.336C1011.54 617.155 1011.39 617.022 1011.2 616.991C1011.01 616.959 1010.82 617.034 1010.71 617.186C1008.89 619.57 1008.03 622.298 1008.22 625.074C1008.42 628.155 1009.94 630.978 1012.5 633.022C1013.54 633.855 1014.74 634.554 1016.07 635.1C1020.5 636.914 1025.99 635.162 1028.58 631.112C1029.33 629.94 1030.8 628.226 1033.58 626.714C1033.75 626.621 1033.85 626.438 1033.84 626.243Z" fill="white"/>
<path d="M1110.91 617.342C1110.83 617.165 1110.65 617.051 1110.46 617.046C1109.31 617.021 1108.14 617.373 1107.06 618.063L1106.64 618.337L1106.73 617.838C1106.76 617.664 1106.79 617.488 1106.83 617.311C1107.36 614.494 1107.96 611.302 1106.02 608.768C1102.94 604.728 1101.78 601.83 1101.35 600.109C1101.3 599.91 1101.14 599.759 1100.94 599.727C1100.73 599.695 1100.53 599.786 1100.42 599.959C1099.66 601.156 1098.73 602.888 1098.59 604.338C1098.48 605.493 1098.95 606.824 1099.41 608.113C1099.92 609.577 1100.42 610.96 1099.92 611.895C1099.69 612.337 1099.25 612.647 1098.61 612.815C1098.17 612.931 1097.76 612.935 1097.38 612.827C1096.64 612.614 1096.05 611.951 1095.72 610.959C1095.35 609.835 1095.33 608.409 1095.69 607.325C1095.74 607.17 1095.71 607.001 1095.62 606.869C1095.52 606.736 1095.37 606.656 1095.21 606.654C1094.32 606.64 1093.38 606.904 1092.56 607.398C1091.42 608.085 1090.64 609.122 1090.4 610.245C1090.13 611.58 1090.52 612.945 1090.9 614.265C1091.24 615.432 1091.59 616.638 1091.43 617.76C1091.32 618.464 1091.06 618.954 1090.66 619.216C1090.41 619.377 1089.97 619.529 1089.31 619.337C1088.53 619.116 1087.65 618.5 1086.95 617.691C1086.83 617.548 1086.63 617.485 1086.45 617.528C1086.26 617.571 1086.12 617.713 1086.07 617.897C1085.31 620.798 1085.57 623.646 1086.81 626.137C1088.19 628.9 1090.68 630.919 1093.82 631.822C1095.1 632.19 1096.48 632.371 1097.92 632.362C1102.71 632.33 1107.1 628.598 1107.92 623.864C1108.16 622.494 1108.86 620.344 1110.84 617.88C1110.97 617.728 1110.99 617.519 1110.91 617.342Z" fill="white"/>
<path d="M1096.6 610.666C1096.52 610.489 1096.34 610.375 1096.15 610.37C1095 610.345 1093.83 610.696 1092.76 611.386L1092.33 611.66L1092.42 611.161C1092.45 610.987 1092.49 610.812 1092.52 610.635C1093.05 607.818 1093.66 604.626 1091.72 602.091C1088.63 598.052 1087.47 595.153 1087.04 593.433C1086.99 593.234 1086.83 593.082 1086.63 593.051C1086.43 593.018 1086.22 593.109 1086.11 593.283C1085.36 594.48 1084.42 596.211 1084.28 597.661C1084.17 598.817 1084.64 600.148 1085.1 601.437C1085.62 602.9 1083.57 605.215 1083.07 606.15C1082.84 606.593 1084.94 605.97 1084.3 606.138C1083.86 606.254 1083.45 606.258 1083.07 606.15C1082.33 605.938 1081.74 605.274 1081.41 604.283C1081.04 603.159 1081.02 601.732 1081.38 600.648C1081.43 600.494 1081.4 600.324 1081.31 600.192C1081.21 600.059 1081.06 599.98 1080.9 599.977C1080.01 599.963 1079.07 600.227 1078.25 600.722C1077.12 601.408 1076.33 602.446 1076.1 603.568C1075.82 604.903 1076.22 606.268 1076.6 607.588C1076.93 608.755 1077.28 609.961 1077.12 611.083C1077.02 611.787 1076.76 612.277 1076.35 612.539C1076.1 612.7 1075.66 612.852 1075 612.661C1074.23 612.439 1073.35 611.824 1072.65 611.015C1072.52 610.871 1072.33 610.808 1072.14 610.851C1071.96 610.895 1071.81 611.037 1071.76 611.221C1071.01 614.121 1071.26 616.97 1072.5 619.46C1073.88 622.223 1076.37 624.242 1079.52 625.146C1080.79 625.513 1082.17 625.695 1083.62 625.685C1088.4 625.654 1092.79 621.921 1093.62 617.188C1093.86 615.818 1094.56 613.668 1096.54 611.203C1096.66 611.051 1096.68 610.843 1096.6 610.666Z" fill="white"/>
<path d="M1082.29 612.573C1082.21 612.396 1082.04 612.282 1081.84 612.277C1080.7 612.252 1079.52 612.604 1078.45 613.294L1078.02 613.568L1078.11 613.069C1078.15 612.895 1078.18 612.719 1078.21 612.542C1078.75 609.726 1079.35 606.533 1077.41 603.999C1074.32 599.959 1073.16 597.061 1072.74 595.34C1072.69 595.141 1072.52 594.99 1072.32 594.958C1072.12 594.926 1071.92 595.017 1071.81 595.19C1071.05 596.387 1070.12 598.119 1069.97 599.569C1069.86 600.724 1070.33 602.055 1070.79 603.344C1071.31 604.808 1071.8 606.191 1071.31 607.126C1071.07 607.568 1070.63 607.878 1069.99 608.046C1069.55 608.162 1069.14 608.166 1068.77 608.058C1068.03 607.845 1067.44 607.182 1067.11 606.19C1066.73 605.066 1066.72 603.64 1067.07 602.556C1067.12 602.401 1067.1 602.232 1067 602.1C1066.91 601.967 1066.75 601.887 1066.59 601.885C1065.7 601.871 1064.76 602.135 1063.94 602.629C1062.81 603.316 1062.02 604.353 1061.79 605.476C1061.51 606.811 1061.91 608.176 1062.29 609.496C1062.63 610.663 1062.97 611.869 1062.81 612.991C1062.71 613.695 1062.45 614.185 1062.04 614.447C1061.79 614.608 1061.36 614.76 1060.69 614.568C1059.92 614.347 1059.04 613.731 1058.34 612.922C1058.21 612.779 1058.02 612.716 1057.83 612.759C1057.65 612.802 1057.5 612.944 1057.46 613.129C1056.7 616.029 1056.95 618.878 1058.2 621.368C1059.57 624.131 1062.06 626.15 1065.21 627.053C1066.49 627.421 1067.87 627.603 1069.31 627.593C1074.09 627.561 1078.48 623.829 1079.31 619.095C1079.55 617.725 1080.25 615.575 1082.23 613.111C1082.35 612.959 1082.38 612.75 1082.29 612.573Z" fill="white"/>
<path d="M1122.02 625.339C1121.95 625.166 1121.79 625.057 1121.61 625.057C1120.57 625.06 1119.49 625.439 1118.49 626.151L1118.09 626.433L1118.19 625.935C1118.23 625.762 1118.26 625.587 1118.3 625.41C1118.85 622.6 1119.48 619.416 1117.78 616.948C1115.06 613.015 1114.07 610.166 1113.72 608.468C1113.68 608.272 1113.54 608.126 1113.35 608.099C1113.17 608.072 1112.98 608.167 1112.88 608.342C1112.16 609.55 1111.26 611.292 1111.1 612.736C1110.96 613.885 1111.36 615.195 1111.75 616.463C1112.19 617.904 1112.6 619.264 1112.12 620.205C1111.9 620.65 1111.49 620.968 1110.9 621.151C1110.5 621.277 1110.12 621.291 1109.78 621.194C1109.11 621.001 1108.59 620.357 1108.31 619.381C1108 618.275 1108.02 616.858 1108.37 615.774C1108.42 615.619 1108.4 615.451 1108.32 615.322C1108.23 615.193 1108.1 615.118 1107.95 615.119C1107.14 615.127 1106.27 615.413 1105.51 615.924C1104.46 616.634 1103.72 617.684 1103.48 618.804C1103.19 620.137 1103.52 621.482 1103.83 622.783C1104.11 623.933 1104.4 625.122 1104.22 626.24C1104.11 626.941 1103.86 627.434 1103.48 627.705C1103.25 627.871 1102.85 628.032 1102.25 627.859C1101.55 627.658 1100.76 627.069 1100.14 626.284C1100.03 626.144 1099.85 626.087 1099.68 626.134C1099.51 626.181 1099.38 626.326 1099.33 626.51C1098.56 629.408 1098.73 632.231 1099.8 634.672C1100.99 637.381 1103.21 639.323 1106.06 640.142C1107.22 640.475 1108.47 640.621 1109.79 640.575C1114.16 640.424 1118.26 636.609 1119.13 631.889C1119.39 630.523 1120.08 628.371 1121.95 625.874C1122.06 625.72 1122.09 625.513 1122.02 625.339Z" fill="white"/>
<path d="M895.62 614.481C895.538 614.304 895.363 614.19 895.167 614.185C894.023 614.16 892.85 614.511 891.774 615.201L891.347 615.475L891.44 614.976C891.472 614.802 891.505 614.626 891.539 614.449C892.072 611.633 892.676 608.441 890.737 605.906C887.648 601.867 886.49 598.968 886.063 597.248C886.013 597.049 885.849 596.897 885.647 596.866C885.445 596.833 885.242 596.924 885.132 597.097C884.375 598.295 883.443 600.026 883.301 601.476C883.188 602.631 883.66 603.963 884.117 605.251C884.637 606.715 885.127 608.098 884.633 609.033C884.399 609.476 883.958 609.785 883.32 609.953C882.881 610.069 882.468 610.073 882.093 609.965C881.352 609.752 880.763 609.089 880.432 608.098C880.057 606.974 880.044 605.547 880.397 604.463C880.447 604.309 880.421 604.139 880.327 604.007C880.232 603.874 880.081 603.795 879.918 603.792C879.029 603.778 878.089 604.042 877.271 604.536C876.134 605.223 875.348 606.26 875.116 607.383C874.84 608.718 875.234 610.083 875.616 611.403C875.953 612.57 876.301 613.776 876.137 614.898C876.035 615.602 875.777 616.092 875.371 616.354C875.121 616.515 874.683 616.667 874.018 616.476C873.246 616.254 872.366 615.638 871.665 614.83C871.54 614.686 871.346 614.623 871.161 614.666C870.976 614.709 870.83 614.852 870.782 615.036C870.024 617.936 870.28 620.785 871.522 623.275C872.9 626.038 875.391 628.057 878.534 628.961C879.814 629.328 881.193 629.51 882.635 629.5C887.418 629.469 891.811 625.736 892.637 621.003C892.875 619.633 893.576 617.483 895.556 615.018C895.678 614.866 895.703 614.657 895.62 614.481Z" fill="white"/>
<path d="M873.274 608.445C873.146 608.308 872.946 608.251 872.757 608.297C871.65 608.568 870.62 609.184 869.776 610.077L869.442 610.431L869.393 609.961C869.376 609.798 869.359 609.632 869.343 609.465C869.077 606.81 868.776 603.801 866.212 602.034C862.128 599.216 860.215 596.922 859.329 595.494C859.226 595.329 859.027 595.236 858.824 595.259C858.62 595.282 858.451 595.415 858.393 595.599C857.996 596.864 857.578 598.651 857.842 599.984C858.053 601.045 858.874 602.114 859.67 603.149C860.573 604.324 861.426 605.434 861.21 606.397C861.107 606.853 860.768 607.243 860.202 607.557C859.812 607.773 859.416 607.883 859.026 607.883C858.255 607.883 857.505 607.441 856.914 606.64C856.243 605.731 855.836 604.46 855.876 603.4C855.882 603.249 855.81 603.104 855.683 603.01C855.555 602.916 855.387 602.883 855.231 602.923C854.372 603.139 853.542 603.616 852.892 604.268C851.989 605.174 851.52 606.303 851.607 607.366C851.71 608.631 852.466 609.75 853.197 610.832C853.843 611.789 854.511 612.778 854.664 613.822C854.76 614.478 854.647 614.982 854.329 615.321C854.133 615.529 853.755 615.777 853.062 615.777C852.259 615.777 851.244 615.453 850.346 614.91C850.187 614.814 849.983 614.807 849.817 614.893C849.651 614.979 849.55 615.144 849.555 615.321C849.627 618.108 850.66 620.589 852.542 622.496C854.629 624.613 857.58 625.778 860.851 625.778C862.182 625.778 863.558 625.586 864.941 625.207C869.53 623.95 872.721 619.485 872.207 615.041C872.058 613.755 872.138 611.654 873.36 608.942C873.436 608.774 873.402 608.582 873.274 608.445Z" fill="white"/>
<path d="M825.512 614.042C825.582 613.848 825.76 613.705 825.971 613.67C827.207 613.472 828.514 613.656 829.751 614.203L830.242 614.419L830.09 613.921C830.037 613.748 829.982 613.572 829.927 613.396C829.054 610.585 828.065 607.399 829.898 604.506C832.817 599.894 833.766 596.745 834.047 594.914C834.08 594.703 834.242 594.522 834.457 594.46C834.673 594.396 834.902 594.458 835.039 594.62C835.985 595.735 837.176 597.372 837.482 598.839C837.726 600.008 837.354 601.445 836.995 602.837C836.587 604.417 836.201 605.911 836.834 606.796C837.134 607.215 837.644 607.466 838.353 607.543C838.84 607.595 839.287 607.537 839.682 607.37C840.461 607.04 841.03 606.271 841.284 605.203C841.571 603.993 841.436 602.527 840.94 601.467C840.869 601.316 840.879 601.138 840.967 600.988C841.056 600.838 841.212 600.733 841.388 600.706C842.349 600.558 843.394 600.688 844.332 601.072C845.635 601.605 846.594 602.552 846.964 603.669C847.403 604.998 847.12 606.458 846.846 607.871C846.604 609.119 846.353 610.41 846.648 611.536C846.834 612.244 847.165 612.708 847.632 612.916C847.919 613.043 848.408 613.133 849.109 612.837C849.922 612.493 850.809 611.728 851.484 610.793C851.603 610.627 851.806 610.533 852.012 610.549C852.217 610.565 852.39 610.689 852.461 610.871C853.586 613.734 853.608 616.697 852.526 619.44C851.324 622.484 848.84 624.931 845.532 626.332C844.186 626.902 842.711 627.296 841.149 627.503C835.967 628.191 830.819 625.021 829.428 620.287C829.025 618.917 828.041 616.816 825.638 614.584C825.49 614.446 825.441 614.236 825.512 614.042Z" fill="white"/>
<path d="M999.215 330.815C1000.19 336.039 998.545 340.288 993.335 340.836C986.122 341.098 984.672 335.667 984.583 335.421C983.136 331.436 985.024 323.748 987.24 318.27C988.914 314.131 992.71 314.542 994.749 318.514C997.205 323.297 998.523 327.119 999.215 330.815Z" fill="white"/>
<path fill-rule="evenodd" clip-rule="evenodd" d="M997.752 337.134C998.556 335.61 998.745 333.484 998.278 330.99C997.605 327.403 996.324 323.669 993.9 318.95C992.966 317.13 991.751 316.358 990.802 316.303C989.934 316.253 988.866 316.793 988.124 318.628C987.036 321.318 986.031 324.547 985.476 327.577C984.914 330.651 984.847 333.355 985.479 335.095C985.484 335.108 985.49 335.129 985.499 335.156C985.596 335.456 985.958 336.576 986.982 337.665C988.068 338.819 989.959 339.996 993.268 339.884C995.576 339.633 996.981 338.597 997.752 337.134ZM993.335 340.836C998.545 340.288 1000.19 336.039 999.215 330.815C998.523 327.119 997.205 323.297 994.749 318.514C992.71 314.542 988.914 314.131 987.24 318.27C985.024 323.748 983.136 331.436 984.583 335.421C984.586 335.43 984.591 335.446 984.598 335.469C984.788 336.064 986.39 341.088 993.335 340.836Z" fill="white"/>
<path d="M1121.35 400.678C1121.35 423.066 1092.73 439.784 1012.61 400.678C932.49 361.571 840.924 429.265 840.924 406.877C840.924 384.489 895.291 346.787 978.273 339.633C1058.87 339.633 1121.35 378.29 1121.35 400.678Z" fill="white"/>
</svg>
