<svg width="1920" height="1080" viewBox="0 0 1920 1080" fill="none" xmlns="http://www.w3.org/2000/svg">
<rect width="485" height="1080" fill="#FAAB35"/>
<rect x="485" width="485" height="1080" fill="#FF6A07"/>
<rect x="960" width="485" height="1080" fill="#6E2C00"/>
<rect x="1435" width="485" height="1080" fill="#FFE6D5"/>
<path d="M1573.68 759.562V788H1567.82L1556.4 768.938V788H1550.54V759.562H1556.4L1567.84 778.645V759.562H1573.68ZM1590.93 782.941V766.867H1596.55V788H1591.26L1590.93 782.941ZM1591.55 778.605L1593.21 778.566C1593.21 779.973 1593.05 781.281 1592.73 782.492C1592.4 783.69 1591.91 784.732 1591.26 785.617C1590.61 786.49 1589.79 787.173 1588.8 787.668C1587.81 788.15 1586.65 788.391 1585.3 788.391C1584.28 788.391 1583.33 788.247 1582.45 787.961C1581.59 787.661 1580.85 787.199 1580.23 786.574C1579.61 785.936 1579.13 785.122 1578.78 784.133C1578.44 783.13 1578.27 781.926 1578.27 780.52V766.867H1583.9V780.559C1583.9 781.184 1583.97 781.711 1584.11 782.141C1584.27 782.57 1584.48 782.922 1584.76 783.195C1585.03 783.469 1585.35 783.664 1585.71 783.781C1586.09 783.898 1586.51 783.957 1586.96 783.957C1588.12 783.957 1589.04 783.723 1589.7 783.254C1590.38 782.785 1590.85 782.147 1591.12 781.34C1591.41 780.52 1591.55 779.608 1591.55 778.605ZM1613.33 783.391V758H1619V788H1613.9L1613.33 783.391ZM1599.97 777.688V777.277C1599.97 775.663 1600.15 774.198 1600.52 772.883C1600.88 771.555 1601.42 770.415 1602.12 769.465C1602.82 768.514 1603.69 767.779 1604.72 767.258C1605.75 766.737 1606.92 766.477 1608.23 766.477C1609.47 766.477 1610.55 766.737 1611.48 767.258C1612.41 767.779 1613.21 768.521 1613.86 769.484C1614.52 770.435 1615.06 771.561 1615.46 772.863C1615.86 774.152 1616.16 775.565 1616.34 777.102V778C1616.16 779.471 1615.86 780.839 1615.46 782.102C1615.06 783.365 1614.52 784.471 1613.86 785.422C1613.21 786.359 1612.41 787.089 1611.48 787.609C1610.54 788.13 1609.45 788.391 1608.2 788.391C1606.88 788.391 1605.71 788.124 1604.68 787.59C1603.66 787.056 1602.8 786.307 1602.1 785.344C1601.41 784.38 1600.88 783.247 1600.52 781.945C1600.15 780.643 1599.97 779.224 1599.97 777.688ZM1605.6 777.277V777.688C1605.6 778.56 1605.66 779.374 1605.79 780.129C1605.94 780.884 1606.16 781.555 1606.48 782.141C1606.8 782.714 1607.22 783.163 1607.73 783.488C1608.25 783.801 1608.88 783.957 1609.62 783.957C1610.58 783.957 1611.38 783.742 1612 783.312C1612.63 782.87 1613.1 782.264 1613.43 781.496C1613.77 780.728 1613.96 779.842 1614.02 778.84V776.281C1613.98 775.461 1613.86 774.725 1613.66 774.074C1613.48 773.41 1613.21 772.844 1612.84 772.375C1612.49 771.906 1612.05 771.542 1611.52 771.281C1610.99 771.021 1610.38 770.891 1609.66 770.891C1608.93 770.891 1608.31 771.06 1607.79 771.398C1607.26 771.724 1606.84 772.173 1606.52 772.746C1606.2 773.319 1605.97 773.996 1605.81 774.777C1605.67 775.546 1605.6 776.379 1605.6 777.277ZM1633.12 788.391C1631.48 788.391 1630.01 788.13 1628.7 787.609C1627.4 787.076 1626.29 786.34 1625.38 785.402C1624.48 784.465 1623.79 783.378 1623.31 782.141C1622.83 780.891 1622.59 779.562 1622.59 778.156V777.375C1622.59 775.773 1622.82 774.309 1623.27 772.98C1623.73 771.652 1624.38 770.5 1625.23 769.523C1626.09 768.547 1627.13 767.798 1628.35 767.277C1629.58 766.743 1630.96 766.477 1632.49 766.477C1633.99 766.477 1635.32 766.724 1636.48 767.219C1637.64 767.714 1638.61 768.417 1639.39 769.328C1640.18 770.24 1640.78 771.333 1641.18 772.609C1641.59 773.872 1641.79 775.279 1641.79 776.828V779.172H1624.99V775.422H1636.26V774.992C1636.26 774.211 1636.12 773.514 1635.83 772.902C1635.56 772.277 1635.14 771.783 1634.58 771.418C1634.02 771.053 1633.31 770.871 1632.43 770.871C1631.69 770.871 1631.05 771.034 1630.52 771.359C1629.99 771.685 1629.55 772.141 1629.21 772.727C1628.89 773.312 1628.64 774.003 1628.47 774.797C1628.31 775.578 1628.23 776.438 1628.23 777.375V778.156C1628.23 779.003 1628.35 779.784 1628.59 780.5C1628.83 781.216 1629.18 781.835 1629.62 782.355C1630.08 782.876 1630.62 783.28 1631.26 783.566C1631.91 783.853 1632.65 783.996 1633.47 783.996C1634.48 783.996 1635.43 783.801 1636.3 783.41C1637.19 783.007 1637.95 782.401 1638.59 781.594L1641.32 784.562C1640.88 785.201 1640.27 785.812 1639.5 786.398C1638.75 786.984 1637.84 787.466 1636.77 787.844C1635.7 788.208 1634.48 788.391 1633.12 788.391ZM1666.38 777.863H1659.13V773.293H1666.38C1667.5 773.293 1668.41 773.111 1669.11 772.746C1669.82 772.368 1670.33 771.848 1670.66 771.184C1670.98 770.52 1671.14 769.771 1671.14 768.938C1671.14 768.091 1670.98 767.303 1670.66 766.574C1670.33 765.845 1669.82 765.259 1669.11 764.816C1668.41 764.374 1667.5 764.152 1666.38 764.152H1661.16V788H1655.3V759.562H1666.38C1668.61 759.562 1670.51 759.966 1672.1 760.773C1673.7 761.568 1674.93 762.668 1675.77 764.074C1676.62 765.48 1677.04 767.089 1677.04 768.898C1677.04 770.734 1676.62 772.323 1675.77 773.664C1674.93 775.005 1673.7 776.04 1672.1 776.77C1670.51 777.499 1668.61 777.863 1666.38 777.863ZM1690.19 788.391C1688.55 788.391 1687.08 788.13 1685.77 787.609C1684.47 787.076 1683.36 786.34 1682.45 785.402C1681.55 784.465 1680.86 783.378 1680.38 782.141C1679.9 780.891 1679.66 779.562 1679.66 778.156V777.375C1679.66 775.773 1679.89 774.309 1680.34 772.98C1680.8 771.652 1681.45 770.5 1682.3 769.523C1683.16 768.547 1684.2 767.798 1685.42 767.277C1686.65 766.743 1688.03 766.477 1689.56 766.477C1691.06 766.477 1692.39 766.724 1693.55 767.219C1694.71 767.714 1695.68 768.417 1696.46 769.328C1697.25 770.24 1697.85 771.333 1698.25 772.609C1698.66 773.872 1698.86 775.279 1698.86 776.828V779.172H1682.06V775.422H1693.33V774.992C1693.33 774.211 1693.19 773.514 1692.9 772.902C1692.63 772.277 1692.21 771.783 1691.65 771.418C1691.09 771.053 1690.38 770.871 1689.5 770.871C1688.76 770.871 1688.12 771.034 1687.59 771.359C1687.06 771.685 1686.62 772.141 1686.28 772.727C1685.96 773.312 1685.71 774.003 1685.54 774.797C1685.38 775.578 1685.3 776.438 1685.3 777.375V778.156C1685.3 779.003 1685.42 779.784 1685.66 780.5C1685.9 781.216 1686.25 781.835 1686.69 782.355C1687.15 782.876 1687.69 783.28 1688.33 783.566C1688.98 783.853 1689.72 783.996 1690.54 783.996C1691.55 783.996 1692.5 783.801 1693.37 783.41C1694.26 783.007 1695.02 782.401 1695.66 781.594L1698.39 784.562C1697.95 785.201 1697.34 785.812 1696.57 786.398C1695.82 786.984 1694.91 787.466 1693.84 787.844C1692.77 788.208 1691.55 788.391 1690.19 788.391ZM1690.54 757.98L1696.44 763.41V763.645H1691.96L1688.9 760.793L1685.87 763.645H1681.48V763.352L1687.28 757.98H1690.54ZM1713.49 782.16C1713.49 781.757 1713.37 781.392 1713.14 781.066C1712.9 780.741 1712.47 780.441 1711.83 780.168C1711.2 779.882 1710.3 779.621 1709.11 779.387C1708.05 779.152 1707.05 778.859 1706.12 778.508C1705.21 778.143 1704.42 777.707 1703.74 777.199C1703.08 776.691 1702.56 776.092 1702.18 775.402C1701.8 774.699 1701.61 773.898 1701.61 773C1701.61 772.115 1701.8 771.281 1702.18 770.5C1702.57 769.719 1703.12 769.029 1703.84 768.43C1704.57 767.818 1705.45 767.342 1706.5 767.004C1707.55 766.652 1708.74 766.477 1710.05 766.477C1711.89 766.477 1713.46 766.77 1714.78 767.355C1716.11 767.941 1717.12 768.749 1717.82 769.777C1718.54 770.793 1718.9 771.952 1718.9 773.254H1713.27C1713.27 772.707 1713.16 772.219 1712.92 771.789C1712.7 771.346 1712.35 771.001 1711.87 770.754C1711.4 770.493 1710.79 770.363 1710.03 770.363C1709.41 770.363 1708.87 770.474 1708.41 770.695C1707.95 770.904 1707.6 771.19 1707.36 771.555C1707.12 771.906 1707 772.297 1707 772.727C1707 773.052 1707.07 773.345 1707.2 773.605C1707.34 773.853 1707.57 774.081 1707.88 774.289C1708.2 774.497 1708.6 774.693 1709.09 774.875C1709.6 775.044 1710.23 775.201 1710.97 775.344C1712.49 775.656 1713.85 776.066 1715.05 776.574C1716.25 777.069 1717.2 777.746 1717.9 778.605C1718.61 779.452 1718.96 780.565 1718.96 781.945C1718.96 782.883 1718.75 783.742 1718.33 784.523C1717.92 785.305 1717.32 785.988 1716.54 786.574C1715.75 787.147 1714.82 787.596 1713.72 787.922C1712.64 788.234 1711.42 788.391 1710.07 788.391C1708.1 788.391 1706.44 788.039 1705.07 787.336C1703.72 786.633 1702.69 785.741 1701.98 784.66C1701.29 783.566 1700.95 782.447 1700.95 781.301H1706.28C1706.31 782.069 1706.5 782.688 1706.87 783.156C1707.24 783.625 1707.72 783.964 1708.29 784.172C1708.88 784.38 1709.51 784.484 1710.19 784.484C1710.92 784.484 1711.52 784.387 1712 784.191C1712.49 783.983 1712.85 783.71 1713.1 783.371C1713.36 783.02 1713.49 782.616 1713.49 782.16ZM1734.04 782.16C1734.04 781.757 1733.92 781.392 1733.68 781.066C1733.45 780.741 1733.01 780.441 1732.38 780.168C1731.75 779.882 1730.85 779.621 1729.66 779.387C1728.59 779.152 1727.6 778.859 1726.67 778.508C1725.76 778.143 1724.97 777.707 1724.29 777.199C1723.62 776.691 1723.1 776.092 1722.73 775.402C1722.35 774.699 1722.16 773.898 1722.16 773C1722.16 772.115 1722.35 771.281 1722.73 770.5C1723.12 769.719 1723.67 769.029 1724.39 768.43C1725.12 767.818 1726 767.342 1727.04 767.004C1728.1 766.652 1729.28 766.477 1730.6 766.477C1732.43 766.477 1734.01 766.77 1735.32 767.355C1736.65 767.941 1737.67 768.749 1738.37 769.777C1739.09 770.793 1739.45 771.952 1739.45 773.254H1733.82C1733.82 772.707 1733.7 772.219 1733.47 771.789C1733.25 771.346 1732.9 771.001 1732.41 770.754C1731.95 770.493 1731.33 770.363 1730.58 770.363C1729.95 770.363 1729.41 770.474 1728.96 770.695C1728.5 770.904 1728.15 771.19 1727.9 771.555C1727.67 771.906 1727.55 772.297 1727.55 772.727C1727.55 773.052 1727.62 773.345 1727.75 773.605C1727.89 773.853 1728.12 774.081 1728.43 774.289C1728.74 774.497 1729.15 774.693 1729.64 774.875C1730.15 775.044 1730.77 775.201 1731.52 775.344C1733.04 775.656 1734.4 776.066 1735.6 776.574C1736.8 777.069 1737.75 777.746 1738.45 778.605C1739.15 779.452 1739.5 780.565 1739.5 781.945C1739.5 782.883 1739.3 783.742 1738.88 784.523C1738.46 785.305 1737.86 785.988 1737.08 786.574C1736.3 787.147 1735.36 787.596 1734.27 787.922C1733.19 788.234 1731.97 788.391 1730.62 788.391C1728.65 788.391 1726.98 788.039 1725.62 787.336C1724.26 786.633 1723.23 785.741 1722.53 784.66C1721.84 783.566 1721.5 782.447 1721.5 781.301H1726.83C1726.85 782.069 1727.05 782.688 1727.41 783.156C1727.79 783.625 1728.27 783.964 1728.84 784.172C1729.43 784.38 1730.06 784.484 1730.73 784.484C1731.46 784.484 1732.07 784.387 1732.55 784.191C1733.03 783.983 1733.4 783.71 1733.64 783.371C1733.9 783.02 1734.04 782.616 1734.04 782.16ZM1752.88 788.391C1751.24 788.391 1749.77 788.13 1748.47 787.609C1747.17 787.076 1746.06 786.34 1745.15 785.402C1744.25 784.465 1743.56 783.378 1743.08 782.141C1742.6 780.891 1742.36 779.562 1742.36 778.156V777.375C1742.36 775.773 1742.58 774.309 1743.04 772.98C1743.49 771.652 1744.15 770.5 1744.99 769.523C1745.85 768.547 1746.89 767.798 1748.12 767.277C1749.34 766.743 1750.72 766.477 1752.26 766.477C1753.76 766.477 1755.08 766.724 1756.24 767.219C1757.4 767.714 1758.37 768.417 1759.15 769.328C1759.95 770.24 1760.55 771.333 1760.95 772.609C1761.35 773.872 1761.55 775.279 1761.55 776.828V779.172H1744.76V775.422H1756.03V774.992C1756.03 774.211 1755.88 773.514 1755.6 772.902C1755.32 772.277 1754.91 771.783 1754.35 771.418C1753.79 771.053 1753.07 770.871 1752.2 770.871C1751.46 770.871 1750.82 771.034 1750.29 771.359C1749.75 771.685 1749.32 772.141 1748.98 772.727C1748.65 773.312 1748.4 774.003 1748.23 774.797C1748.08 775.578 1748 776.438 1748 777.375V778.156C1748 779.003 1748.12 779.784 1748.35 780.5C1748.6 781.216 1748.94 781.835 1749.39 782.355C1749.84 782.876 1750.39 783.28 1751.03 783.566C1751.68 783.853 1752.41 783.996 1753.23 783.996C1754.25 783.996 1755.19 783.801 1756.07 783.41C1756.95 783.007 1757.71 782.401 1758.35 781.594L1761.09 784.562C1760.64 785.201 1760.04 785.812 1759.27 786.398C1758.51 786.984 1757.6 787.466 1756.54 787.844C1755.47 788.208 1754.25 788.391 1752.88 788.391ZM1778.14 766.867H1783.23V787.297C1783.23 789.224 1782.8 790.858 1781.95 792.199C1781.1 793.553 1779.91 794.576 1778.39 795.266C1776.87 795.969 1775.1 796.32 1773.08 796.32C1772.19 796.32 1771.26 796.203 1770.27 795.969C1769.29 795.734 1768.35 795.37 1767.45 794.875C1766.57 794.38 1765.83 793.755 1765.23 793L1767.71 789.68C1768.36 790.435 1769.11 791.021 1769.97 791.438C1770.83 791.867 1771.78 792.082 1772.82 792.082C1773.84 792.082 1774.7 791.893 1775.4 791.516C1776.11 791.151 1776.65 790.611 1777.02 789.895C1777.4 789.191 1777.59 788.339 1777.59 787.336V771.75L1778.14 766.867ZM1763.92 777.688V777.277C1763.92 775.663 1764.11 774.198 1764.5 772.883C1764.91 771.555 1765.47 770.415 1766.2 769.465C1766.95 768.514 1767.84 767.779 1768.9 767.258C1769.95 766.737 1771.14 766.477 1772.47 766.477C1773.88 766.477 1775.06 766.737 1776.01 767.258C1776.96 767.779 1777.74 768.521 1778.35 769.484C1778.96 770.435 1779.44 771.561 1779.78 772.863C1780.13 774.152 1780.4 775.565 1780.6 777.102V778C1780.4 779.471 1780.11 780.839 1779.72 782.102C1779.33 783.365 1778.81 784.471 1778.18 785.422C1777.54 786.359 1776.74 787.089 1775.79 787.609C1774.86 788.13 1773.74 788.391 1772.43 788.391C1771.13 788.391 1769.95 788.124 1768.9 787.59C1767.86 787.056 1766.96 786.307 1766.22 785.344C1765.48 784.38 1764.91 783.247 1764.5 781.945C1764.11 780.643 1763.92 779.224 1763.92 777.688ZM1769.54 777.277V777.688C1769.54 778.56 1769.63 779.374 1769.8 780.129C1769.97 780.884 1770.23 781.555 1770.58 782.141C1770.94 782.714 1771.39 783.163 1771.93 783.488C1772.47 783.801 1773.12 783.957 1773.86 783.957C1774.89 783.957 1775.73 783.742 1776.38 783.312C1777.03 782.87 1777.52 782.264 1777.84 781.496C1778.17 780.728 1778.36 779.842 1778.41 778.84V776.281C1778.38 775.461 1778.27 774.725 1778.08 774.074C1777.88 773.41 1777.61 772.844 1777.26 772.375C1776.91 771.906 1776.45 771.542 1775.89 771.281C1775.33 771.021 1774.67 770.891 1773.9 770.891C1773.16 770.891 1772.51 771.06 1771.96 771.398C1771.43 771.724 1770.98 772.173 1770.62 772.746C1770.27 773.319 1770 773.996 1769.82 774.777C1769.63 775.546 1769.54 776.379 1769.54 777.277ZM1786.71 777.648V777.238C1786.71 775.689 1786.93 774.263 1787.38 772.961C1787.82 771.646 1788.46 770.507 1789.31 769.543C1790.15 768.579 1791.2 767.831 1792.43 767.297C1793.67 766.75 1795.09 766.477 1796.69 766.477C1798.29 766.477 1799.72 766.75 1800.97 767.297C1802.22 767.831 1803.27 768.579 1804.11 769.543C1804.97 770.507 1805.62 771.646 1806.07 772.961C1806.51 774.263 1806.73 775.689 1806.73 777.238V777.648C1806.73 779.185 1806.51 780.611 1806.07 781.926C1805.62 783.228 1804.97 784.367 1804.11 785.344C1803.27 786.307 1802.23 787.056 1800.99 787.59C1799.75 788.124 1798.33 788.391 1796.73 788.391C1795.13 788.391 1793.7 788.124 1792.45 787.59C1791.22 787.056 1790.17 786.307 1789.31 785.344C1788.46 784.367 1787.82 783.228 1787.38 781.926C1786.93 780.611 1786.71 779.185 1786.71 777.648ZM1792.34 777.238V777.648C1792.34 778.534 1792.41 779.361 1792.57 780.129C1792.73 780.897 1792.97 781.574 1793.31 782.16C1793.66 782.733 1794.12 783.182 1794.68 783.508C1795.24 783.833 1795.92 783.996 1796.73 783.996C1797.51 783.996 1798.18 783.833 1798.74 783.508C1799.3 783.182 1799.75 782.733 1800.09 782.16C1800.43 781.574 1800.68 780.897 1800.83 780.129C1801 779.361 1801.09 778.534 1801.09 777.648V777.238C1801.09 776.379 1801 775.572 1800.83 774.816C1800.68 774.048 1800.42 773.371 1800.07 772.785C1799.73 772.186 1799.28 771.717 1798.72 771.379C1798.16 771.04 1797.49 770.871 1796.69 770.871C1795.9 770.871 1795.22 771.04 1794.66 771.379C1794.11 771.717 1793.66 772.186 1793.31 772.785C1792.97 773.371 1792.73 774.048 1792.57 774.816C1792.41 775.572 1792.34 776.379 1792.34 777.238Z" fill="#6E2C00"/>
<path d="M1623.62 847.836L1622.44 853.38H1627.01V857.88H1621.46L1620.17 864H1615.38L1616.68 857.88H1610.12L1608.83 864H1604.08L1605.37 857.88H1599.94V853.38H1606.34L1607.53 847.836H1602.13V843.336H1608.5L1609.76 837.36H1614.52L1613.26 843.336H1619.81L1621.07 837.36H1625.86L1624.6 843.336H1629.2V847.836H1623.62ZM1618.84 847.836H1612.28L1611.1 853.38H1617.65L1618.84 847.836ZM1648.92 838.872V842.94H1638.45V849.384H1646.47V853.38H1638.45V864H1633.41V838.872H1648.92ZM1668.01 838.872V842.94H1657.54V849.384H1665.56V853.38H1657.54V864H1652.5V838.872H1668.01ZM1676.63 842.94V849.24H1685.09V853.236H1676.63V859.896H1686.17V864H1671.59V838.836H1686.17V842.94H1676.63ZM1707.81 842.112H1696.15V848.268C1696.65 847.644 1697.37 847.14 1698.31 846.756C1699.24 846.348 1700.24 846.144 1701.29 846.144C1703.21 846.144 1704.79 846.564 1706.01 847.404C1707.23 848.244 1708.12 849.324 1708.67 850.644C1709.23 851.94 1709.5 853.332 1709.5 854.82C1709.5 857.58 1708.71 859.8 1707.13 861.48C1705.57 863.16 1703.33 864 1700.43 864C1697.69 864 1695.51 863.316 1693.88 861.948C1692.25 860.58 1691.32 858.792 1691.11 856.584H1696C1696.22 857.544 1696.7 858.312 1697.44 858.888C1698.21 859.464 1699.18 859.752 1700.36 859.752C1701.77 859.752 1702.84 859.308 1703.56 858.42C1704.28 857.532 1704.64 856.356 1704.64 854.892C1704.64 853.404 1704.27 852.276 1703.53 851.508C1702.81 850.716 1701.74 850.32 1700.32 850.32C1699.31 850.32 1698.47 850.572 1697.8 851.076C1697.13 851.58 1696.65 852.252 1696.36 853.092H1691.54V837.684H1707.81V842.112ZM1722.7 838.872C1725.34 838.872 1727.65 839.388 1729.65 840.42C1731.66 841.452 1733.21 842.928 1734.29 844.848C1735.39 846.744 1735.95 848.952 1735.95 851.472C1735.95 853.992 1735.39 856.2 1734.29 858.096C1733.21 859.968 1731.66 861.42 1729.65 862.452C1727.65 863.484 1725.34 864 1722.7 864H1713.91V838.872H1722.7ZM1722.52 859.716C1725.16 859.716 1727.2 858.996 1728.64 857.556C1730.08 856.116 1730.8 854.088 1730.8 851.472C1730.8 848.856 1730.08 846.816 1728.64 845.352C1727.2 843.864 1725.16 843.12 1722.52 843.12H1718.95V859.716H1722.52ZM1738.93 858.888V854.928L1750.7 838.08H1756.57V854.496H1759.73V858.888H1756.57V864H1751.53V858.888H1738.93ZM1751.85 843.48L1744.47 854.496H1751.85V843.48Z" fill="#6E2C00"/>
<path d="M181.438 764.426L173.703 788H167.473L178.039 759.562H182.004L181.438 764.426ZM187.863 788L180.109 764.426L179.484 759.562H183.488L194.113 788H187.863ZM187.512 777.414V782.004H172.492V777.414H187.512ZM201.398 771.242V788H195.754V766.867H201.047L201.398 771.242ZM200.617 776.691H199.055C199.055 775.22 199.23 773.866 199.582 772.629C199.947 771.379 200.474 770.298 201.164 769.387C201.867 768.462 202.733 767.746 203.762 767.238C204.79 766.73 205.982 766.477 207.336 766.477C208.273 766.477 209.133 766.62 209.914 766.906C210.695 767.18 211.366 767.616 211.926 768.215C212.499 768.801 212.941 769.569 213.254 770.52C213.566 771.457 213.723 772.583 213.723 773.898V788H208.098V774.523C208.098 773.56 207.967 772.818 207.707 772.297C207.447 771.776 207.076 771.411 206.594 771.203C206.125 770.995 205.559 770.891 204.895 770.891C204.165 770.891 203.527 771.04 202.98 771.34C202.447 771.639 202.004 772.056 201.652 772.59C201.301 773.111 201.04 773.723 200.871 774.426C200.702 775.129 200.617 775.884 200.617 776.691ZM213.195 776.047L211.184 776.301C211.184 774.921 211.353 773.638 211.691 772.453C212.043 771.268 212.557 770.227 213.234 769.328C213.924 768.43 214.777 767.733 215.793 767.238C216.809 766.73 217.98 766.477 219.309 766.477C220.324 766.477 221.249 766.626 222.082 766.926C222.915 767.212 223.625 767.674 224.211 768.312C224.81 768.938 225.266 769.758 225.578 770.773C225.904 771.789 226.066 773.033 226.066 774.504V788H220.422V774.504C220.422 773.527 220.292 772.785 220.031 772.277C219.784 771.757 219.419 771.398 218.938 771.203C218.469 770.995 217.909 770.891 217.258 770.891C216.581 770.891 215.988 771.027 215.48 771.301C214.973 771.561 214.549 771.926 214.211 772.395C213.872 772.863 213.618 773.41 213.449 774.035C213.28 774.647 213.195 775.318 213.195 776.047ZM241.828 783.234V773.82C241.828 773.143 241.717 772.564 241.496 772.082C241.275 771.587 240.93 771.203 240.461 770.93C240.005 770.656 239.413 770.52 238.684 770.52C238.059 770.52 237.518 770.63 237.062 770.852C236.607 771.06 236.255 771.366 236.008 771.77C235.76 772.16 235.637 772.622 235.637 773.156H230.012C230.012 772.258 230.22 771.405 230.637 770.598C231.053 769.79 231.659 769.081 232.453 768.469C233.247 767.844 234.191 767.355 235.285 767.004C236.392 766.652 237.629 766.477 238.996 766.477C240.637 766.477 242.095 766.75 243.371 767.297C244.647 767.844 245.65 768.664 246.379 769.758C247.121 770.852 247.492 772.219 247.492 773.859V782.902C247.492 784.061 247.564 785.012 247.707 785.754C247.85 786.483 248.059 787.121 248.332 787.668V788H242.648C242.375 787.427 242.167 786.711 242.023 785.852C241.893 784.979 241.828 784.107 241.828 783.234ZM242.57 775.129L242.609 778.312H239.465C238.723 778.312 238.078 778.397 237.531 778.566C236.984 778.736 236.535 778.977 236.184 779.289C235.832 779.589 235.572 779.94 235.402 780.344C235.246 780.747 235.168 781.19 235.168 781.672C235.168 782.154 235.279 782.59 235.5 782.98C235.721 783.358 236.04 783.658 236.457 783.879C236.874 784.087 237.362 784.191 237.922 784.191C238.768 784.191 239.504 784.022 240.129 783.684C240.754 783.345 241.236 782.928 241.574 782.434C241.926 781.939 242.108 781.47 242.121 781.027L243.605 783.41C243.397 783.944 243.111 784.497 242.746 785.07C242.395 785.643 241.945 786.184 241.398 786.691C240.852 787.186 240.194 787.596 239.426 787.922C238.658 788.234 237.746 788.391 236.691 788.391C235.35 788.391 234.133 788.124 233.039 787.59C231.958 787.043 231.099 786.294 230.461 785.344C229.836 784.38 229.523 783.286 229.523 782.062C229.523 780.956 229.732 779.973 230.148 779.113C230.565 778.254 231.177 777.531 231.984 776.945C232.805 776.346 233.827 775.897 235.051 775.598C236.275 775.285 237.694 775.129 239.309 775.129H242.57ZM257.453 771.477V788H251.828V766.867H257.121L257.453 771.477ZM263.82 766.73L263.723 771.945C263.449 771.906 263.117 771.874 262.727 771.848C262.349 771.809 262.004 771.789 261.691 771.789C260.897 771.789 260.207 771.893 259.621 772.102C259.048 772.297 258.566 772.59 258.176 772.98C257.798 773.371 257.512 773.846 257.316 774.406C257.134 774.966 257.03 775.604 257.004 776.32L255.871 775.969C255.871 774.602 256.008 773.345 256.281 772.199C256.555 771.04 256.952 770.031 257.473 769.172C258.007 768.312 258.658 767.648 259.426 767.18C260.194 766.711 261.073 766.477 262.062 766.477C262.375 766.477 262.694 766.503 263.02 766.555C263.345 766.594 263.612 766.652 263.82 766.73ZM275.812 788.391C274.172 788.391 272.701 788.13 271.398 787.609C270.096 787.076 268.99 786.34 268.078 785.402C267.18 784.465 266.49 783.378 266.008 782.141C265.526 780.891 265.285 779.562 265.285 778.156V777.375C265.285 775.773 265.513 774.309 265.969 772.98C266.424 771.652 267.076 770.5 267.922 769.523C268.781 768.547 269.823 767.798 271.047 767.277C272.271 766.743 273.651 766.477 275.188 766.477C276.685 766.477 278.013 766.724 279.172 767.219C280.331 767.714 281.301 768.417 282.082 769.328C282.876 770.24 283.475 771.333 283.879 772.609C284.283 773.872 284.484 775.279 284.484 776.828V779.172H267.688V775.422H278.957V774.992C278.957 774.211 278.814 773.514 278.527 772.902C278.254 772.277 277.837 771.783 277.277 771.418C276.717 771.053 276.001 770.871 275.129 770.871C274.387 770.871 273.749 771.034 273.215 771.359C272.681 771.685 272.245 772.141 271.906 772.727C271.581 773.312 271.333 774.003 271.164 774.797C271.008 775.578 270.93 776.438 270.93 777.375V778.156C270.93 779.003 271.047 779.784 271.281 780.5C271.529 781.216 271.874 781.835 272.316 782.355C272.772 782.876 273.319 783.28 273.957 783.566C274.608 783.853 275.344 783.996 276.164 783.996C277.18 783.996 278.124 783.801 278.996 783.41C279.882 783.007 280.643 782.401 281.281 781.594L284.016 784.562C283.573 785.201 282.967 785.812 282.199 786.398C281.444 786.984 280.533 787.466 279.465 787.844C278.397 788.208 277.18 788.391 275.812 788.391ZM293.625 758V788H287.98V758H293.625ZM297.375 777.648V777.238C297.375 775.689 297.596 774.263 298.039 772.961C298.482 771.646 299.126 770.507 299.973 769.543C300.819 768.579 301.861 767.831 303.098 767.297C304.335 766.75 305.754 766.477 307.355 766.477C308.957 766.477 310.383 766.75 311.633 767.297C312.883 767.831 313.931 768.579 314.777 769.543C315.637 770.507 316.288 771.646 316.73 772.961C317.173 774.263 317.395 775.689 317.395 777.238V777.648C317.395 779.185 317.173 780.611 316.73 781.926C316.288 783.228 315.637 784.367 314.777 785.344C313.931 786.307 312.889 787.056 311.652 787.59C310.415 788.124 308.996 788.391 307.395 788.391C305.793 788.391 304.367 788.124 303.117 787.59C301.88 787.056 300.832 786.307 299.973 785.344C299.126 784.367 298.482 783.228 298.039 781.926C297.596 780.611 297.375 779.185 297.375 777.648ZM303 777.238V777.648C303 778.534 303.078 779.361 303.234 780.129C303.391 780.897 303.638 781.574 303.977 782.16C304.328 782.733 304.784 783.182 305.344 783.508C305.904 783.833 306.587 783.996 307.395 783.996C308.176 783.996 308.846 783.833 309.406 783.508C309.966 783.182 310.415 782.733 310.754 782.16C311.092 781.574 311.34 780.897 311.496 780.129C311.665 779.361 311.75 778.534 311.75 777.648V777.238C311.75 776.379 311.665 775.572 311.496 774.816C311.34 774.048 311.086 773.371 310.734 772.785C310.396 772.186 309.947 771.717 309.387 771.379C308.827 771.04 308.15 770.871 307.355 770.871C306.561 770.871 305.884 771.04 305.324 771.379C304.777 771.717 304.328 772.186 303.977 772.785C303.638 773.371 303.391 774.048 303.234 774.816C303.078 775.572 303 776.379 303 777.238Z" fill="#6E2C00"/>
<path d="M188.624 847.836L187.436 853.38H192.008V857.88H186.464L185.168 864H180.38L181.676 857.88H175.124L173.828 864H169.076L170.372 857.88H164.936V853.38H171.344L172.532 847.836H167.132V843.336H173.504L174.764 837.36H179.516L178.256 843.336H184.808L186.068 837.36H190.856L189.596 843.336H194.204V847.836H188.624ZM183.836 847.836H177.284L176.096 853.38H182.648L183.836 847.836ZM213.922 838.872V842.94H203.446V849.384H211.474V853.38H203.446V864H198.406V838.872H213.922ZM232.904 859.212H222.896L221.24 864H215.948L224.984 838.836H230.852L239.888 864H234.56L232.904 859.212ZM231.536 855.18L227.9 844.668L224.264 855.18H231.536ZM258.673 859.212H248.665L247.009 864H241.717L250.753 838.836H256.621L265.657 864H260.329L258.673 859.212ZM257.305 855.18L253.669 844.668L250.033 855.18H257.305ZM283.291 851.112C284.707 851.376 285.871 852.084 286.783 853.236C287.695 854.388 288.151 855.708 288.151 857.196C288.151 858.54 287.815 859.728 287.143 860.76C286.495 861.768 285.547 862.56 284.299 863.136C283.051 863.712 281.575 864 279.871 864H269.035V838.872H279.403C281.107 838.872 282.571 839.148 283.795 839.7C285.043 840.252 285.979 841.02 286.603 842.004C287.251 842.988 287.575 844.104 287.575 845.352C287.575 846.816 287.179 848.04 286.387 849.024C285.619 850.008 284.587 850.704 283.291 851.112ZM274.075 849.24H278.683C279.883 849.24 280.807 848.976 281.455 848.448C282.103 847.896 282.427 847.116 282.427 846.108C282.427 845.1 282.103 844.32 281.455 843.768C280.807 843.216 279.883 842.94 278.683 842.94H274.075V849.24ZM279.151 859.896C280.375 859.896 281.323 859.608 281.995 859.032C282.691 858.456 283.039 857.64 283.039 856.584C283.039 855.504 282.679 854.664 281.959 854.064C281.239 853.44 280.267 853.128 279.043 853.128H274.075V859.896H279.151ZM291.664 844.668C291.784 842.268 292.624 840.42 294.184 839.124C295.768 837.804 297.844 837.144 300.412 837.144C302.164 837.144 303.664 837.456 304.912 838.08C306.16 838.68 307.096 839.508 307.72 840.564C308.368 841.596 308.692 842.772 308.692 844.092C308.692 845.604 308.296 846.888 307.504 847.944C306.736 848.976 305.812 849.672 304.732 850.032V850.176C306.124 850.608 307.204 851.376 307.972 852.48C308.764 853.584 309.16 855 309.16 856.728C309.16 858.168 308.824 859.452 308.152 860.58C307.504 861.708 306.532 862.596 305.236 863.244C303.964 863.868 302.428 864.18 300.628 864.18C297.916 864.18 295.708 863.496 294.004 862.128C292.3 860.76 291.4 858.744 291.304 856.08H296.2C296.248 857.256 296.644 858.204 297.388 858.924C298.156 859.62 299.2 859.968 300.52 859.968C301.744 859.968 302.68 859.632 303.328 858.96C304 858.264 304.336 857.376 304.336 856.296C304.336 854.856 303.88 853.824 302.968 853.2C302.056 852.576 300.64 852.264 298.72 852.264H297.676V848.124H298.72C302.128 848.124 303.832 846.984 303.832 844.704C303.832 843.672 303.52 842.868 302.896 842.292C302.296 841.716 301.42 841.428 300.268 841.428C299.14 841.428 298.264 841.74 297.64 842.364C297.04 842.964 296.692 843.732 296.596 844.668H291.664ZM330.782 842.112H319.118V848.268C319.622 847.644 320.342 847.14 321.278 846.756C322.214 846.348 323.21 846.144 324.266 846.144C326.186 846.144 327.758 846.564 328.982 847.404C330.206 848.244 331.094 849.324 331.646 850.644C332.198 851.94 332.474 853.332 332.474 854.82C332.474 857.58 331.682 859.8 330.098 861.48C328.538 863.16 326.306 864 323.402 864C320.666 864 318.482 863.316 316.85 861.948C315.218 860.58 314.294 858.792 314.078 856.584H318.974C319.19 857.544 319.67 858.312 320.414 858.888C321.182 859.464 322.154 859.752 323.33 859.752C324.746 859.752 325.814 859.308 326.534 858.42C327.254 857.532 327.614 856.356 327.614 854.892C327.614 853.404 327.242 852.276 326.498 851.508C325.778 850.716 324.71 850.32 323.294 850.32C322.286 850.32 321.446 850.572 320.774 851.076C320.102 851.58 319.622 852.252 319.334 853.092H314.51V837.684H330.782V842.112Z" fill="#6E2C00"/>
<path d="M708.473 787.43V792H694.156V787.43H708.473ZM696.051 763.562V792H690.191V763.562H696.051ZM722.887 787.234V777.82C722.887 777.143 722.776 776.564 722.555 776.082C722.333 775.587 721.988 775.203 721.52 774.93C721.064 774.656 720.471 774.52 719.742 774.52C719.117 774.52 718.577 774.63 718.121 774.852C717.665 775.06 717.314 775.366 717.066 775.77C716.819 776.16 716.695 776.622 716.695 777.156H711.07C711.07 776.258 711.279 775.405 711.695 774.598C712.112 773.79 712.717 773.081 713.512 772.469C714.306 771.844 715.25 771.355 716.344 771.004C717.451 770.652 718.688 770.477 720.055 770.477C721.695 770.477 723.154 770.75 724.43 771.297C725.706 771.844 726.708 772.664 727.438 773.758C728.18 774.852 728.551 776.219 728.551 777.859V786.902C728.551 788.061 728.622 789.012 728.766 789.754C728.909 790.483 729.117 791.121 729.391 791.668V792H723.707C723.434 791.427 723.225 790.711 723.082 789.852C722.952 788.979 722.887 788.107 722.887 787.234ZM723.629 779.129L723.668 782.312H720.523C719.781 782.312 719.137 782.397 718.59 782.566C718.043 782.736 717.594 782.977 717.242 783.289C716.891 783.589 716.63 783.94 716.461 784.344C716.305 784.747 716.227 785.19 716.227 785.672C716.227 786.154 716.337 786.59 716.559 786.98C716.78 787.358 717.099 787.658 717.516 787.879C717.932 788.087 718.421 788.191 718.98 788.191C719.827 788.191 720.562 788.022 721.188 787.684C721.812 787.345 722.294 786.928 722.633 786.434C722.984 785.939 723.167 785.47 723.18 785.027L724.664 787.41C724.456 787.944 724.169 788.497 723.805 789.07C723.453 789.643 723.004 790.184 722.457 790.691C721.91 791.186 721.253 791.596 720.484 791.922C719.716 792.234 718.805 792.391 717.75 792.391C716.409 792.391 715.191 792.124 714.098 791.59C713.017 791.043 712.158 790.294 711.52 789.344C710.895 788.38 710.582 787.286 710.582 786.062C710.582 784.956 710.79 783.973 711.207 783.113C711.624 782.254 712.236 781.531 713.043 780.945C713.863 780.346 714.885 779.897 716.109 779.598C717.333 779.285 718.753 779.129 720.367 779.129H723.629ZM738.512 775.477V792H732.887V770.867H738.18L738.512 775.477ZM744.879 770.73L744.781 775.945C744.508 775.906 744.176 775.874 743.785 775.848C743.408 775.809 743.062 775.789 742.75 775.789C741.956 775.789 741.266 775.893 740.68 776.102C740.107 776.297 739.625 776.59 739.234 776.98C738.857 777.371 738.57 777.846 738.375 778.406C738.193 778.966 738.089 779.604 738.062 780.32L736.93 779.969C736.93 778.602 737.066 777.345 737.34 776.199C737.613 775.04 738.01 774.031 738.531 773.172C739.065 772.312 739.716 771.648 740.484 771.18C741.253 770.711 742.132 770.477 743.121 770.477C743.434 770.477 743.753 770.503 744.078 770.555C744.404 770.594 744.671 770.652 744.879 770.73ZM758.277 787.234V777.82C758.277 777.143 758.167 776.564 757.945 776.082C757.724 775.587 757.379 775.203 756.91 774.93C756.454 774.656 755.862 774.52 755.133 774.52C754.508 774.52 753.967 774.63 753.512 774.852C753.056 775.06 752.704 775.366 752.457 775.77C752.21 776.16 752.086 776.622 752.086 777.156H746.461C746.461 776.258 746.669 775.405 747.086 774.598C747.503 773.79 748.108 773.081 748.902 772.469C749.697 771.844 750.641 771.355 751.734 771.004C752.841 770.652 754.078 770.477 755.445 770.477C757.086 770.477 758.544 770.75 759.82 771.297C761.096 771.844 762.099 772.664 762.828 773.758C763.57 774.852 763.941 776.219 763.941 777.859V786.902C763.941 788.061 764.013 789.012 764.156 789.754C764.299 790.483 764.508 791.121 764.781 791.668V792H759.098C758.824 791.427 758.616 790.711 758.473 789.852C758.342 788.979 758.277 788.107 758.277 787.234ZM759.02 779.129L759.059 782.312H755.914C755.172 782.312 754.527 782.397 753.98 782.566C753.434 782.736 752.984 782.977 752.633 783.289C752.281 783.589 752.021 783.94 751.852 784.344C751.695 784.747 751.617 785.19 751.617 785.672C751.617 786.154 751.728 786.59 751.949 786.98C752.171 787.358 752.49 787.658 752.906 787.879C753.323 788.087 753.811 788.191 754.371 788.191C755.217 788.191 755.953 788.022 756.578 787.684C757.203 787.345 757.685 786.928 758.023 786.434C758.375 785.939 758.557 785.47 758.57 785.027L760.055 787.41C759.846 787.944 759.56 788.497 759.195 789.07C758.844 789.643 758.395 790.184 757.848 790.691C757.301 791.186 756.643 791.596 755.875 791.922C755.107 792.234 754.195 792.391 753.141 792.391C751.799 792.391 750.582 792.124 749.488 791.59C748.408 791.043 747.548 790.294 746.91 789.344C746.285 788.38 745.973 787.286 745.973 786.062C745.973 784.956 746.181 783.973 746.598 783.113C747.014 782.254 747.626 781.531 748.434 780.945C749.254 780.346 750.276 779.897 751.5 779.598C752.724 779.285 754.143 779.129 755.758 779.129H759.02ZM773.785 775.379V792H768.16V770.867H773.434L773.785 775.379ZM772.965 780.691H771.441C771.441 779.129 771.643 777.723 772.047 776.473C772.451 775.21 773.017 774.135 773.746 773.25C774.475 772.352 775.341 771.668 776.344 771.199C777.359 770.717 778.492 770.477 779.742 770.477C780.732 770.477 781.637 770.62 782.457 770.906C783.277 771.193 783.98 771.648 784.566 772.273C785.165 772.898 785.621 773.725 785.934 774.754C786.259 775.783 786.422 777.039 786.422 778.523V792H780.758V778.504C780.758 777.566 780.628 776.837 780.367 776.316C780.107 775.796 779.723 775.431 779.215 775.223C778.72 775.001 778.108 774.891 777.379 774.891C776.624 774.891 775.966 775.04 775.406 775.34C774.859 775.639 774.404 776.056 774.039 776.59C773.688 777.111 773.421 777.723 773.238 778.426C773.056 779.129 772.965 779.884 772.965 780.691ZM791.012 770.867H796.656V793.27C796.656 794.832 796.37 796.154 795.797 797.234C795.224 798.315 794.397 799.135 793.316 799.695C792.236 800.255 790.927 800.535 789.391 800.535C788.909 800.535 788.44 800.509 787.984 800.457C787.516 800.405 787.034 800.32 786.539 800.203L786.559 795.887C786.871 795.939 787.177 795.978 787.477 796.004C787.763 796.043 788.056 796.062 788.355 796.062C788.941 796.062 789.43 795.965 789.82 795.77C790.211 795.574 790.504 795.268 790.699 794.852C790.908 794.448 791.012 793.921 791.012 793.27V770.867ZM790.562 765.359C790.562 764.539 790.849 763.862 791.422 763.328C792.008 762.794 792.776 762.527 793.727 762.527C794.69 762.527 795.458 762.794 796.031 763.328C796.604 763.862 796.891 764.539 796.891 765.359C796.891 766.18 796.604 766.857 796.031 767.391C795.458 767.924 794.69 768.191 793.727 768.191C792.776 768.191 792.008 767.924 791.422 767.391C790.849 766.857 790.562 766.18 790.562 765.359ZM812.535 787.234V777.82C812.535 777.143 812.424 776.564 812.203 776.082C811.982 775.587 811.637 775.203 811.168 774.93C810.712 774.656 810.12 774.52 809.391 774.52C808.766 774.52 808.225 774.63 807.77 774.852C807.314 775.06 806.962 775.366 806.715 775.77C806.467 776.16 806.344 776.622 806.344 777.156H800.719C800.719 776.258 800.927 775.405 801.344 774.598C801.76 773.79 802.366 773.081 803.16 772.469C803.954 771.844 804.898 771.355 805.992 771.004C807.099 770.652 808.336 770.477 809.703 770.477C811.344 770.477 812.802 770.75 814.078 771.297C815.354 771.844 816.357 772.664 817.086 773.758C817.828 774.852 818.199 776.219 818.199 777.859V786.902C818.199 788.061 818.271 789.012 818.414 789.754C818.557 790.483 818.766 791.121 819.039 791.668V792H813.355C813.082 791.427 812.874 790.711 812.73 789.852C812.6 788.979 812.535 788.107 812.535 787.234ZM813.277 779.129L813.316 782.312H810.172C809.43 782.312 808.785 782.397 808.238 782.566C807.691 782.736 807.242 782.977 806.891 783.289C806.539 783.589 806.279 783.94 806.109 784.344C805.953 784.747 805.875 785.19 805.875 785.672C805.875 786.154 805.986 786.59 806.207 786.98C806.428 787.358 806.747 787.658 807.164 787.879C807.581 788.087 808.069 788.191 808.629 788.191C809.475 788.191 810.211 788.022 810.836 787.684C811.461 787.345 811.943 786.928 812.281 786.434C812.633 785.939 812.815 785.47 812.828 785.027L814.312 787.41C814.104 787.944 813.818 788.497 813.453 789.07C813.102 789.643 812.652 790.184 812.105 790.691C811.559 791.186 810.901 791.596 810.133 791.922C809.365 792.234 808.453 792.391 807.398 792.391C806.057 792.391 804.84 792.124 803.746 791.59C802.665 791.043 801.806 790.294 801.168 789.344C800.543 788.38 800.23 787.286 800.23 786.062C800.23 784.956 800.439 783.973 800.855 783.113C801.272 782.254 801.884 781.531 802.691 780.945C803.512 780.346 804.534 779.897 805.758 779.598C806.982 779.285 808.401 779.129 810.016 779.129H813.277Z" fill="#FFE5D4"/>
<path d="M699.624 851.836L698.436 857.38H703.008V861.88H697.464L696.168 868H691.38L692.676 861.88H686.124L684.828 868H680.076L681.372 861.88H675.936V857.38H682.344L683.532 851.836H678.132V847.336H684.504L685.764 841.36H690.516L689.256 847.336H695.808L697.068 841.36H701.856L700.596 847.336H705.204V851.836H699.624ZM694.836 851.836H688.284L687.096 857.38H693.648L694.836 851.836ZM724.922 842.872V846.94H714.446V853.384H722.474V857.38H714.446V868H709.406V842.872H724.922ZM744.012 842.872V846.94H733.536V853.384H741.564V857.38H733.536V868H728.496V842.872H744.012ZM760.618 848.308C760.378 847.3 759.958 846.544 759.358 846.04C758.782 845.536 757.942 845.284 756.838 845.284C755.182 845.284 753.958 845.956 753.166 847.3C752.398 848.62 752.002 850.78 751.978 853.78C752.554 852.82 753.394 852.076 754.498 851.548C755.602 850.996 756.802 850.72 758.098 850.72C759.658 850.72 761.038 851.056 762.238 851.728C763.438 852.4 764.374 853.384 765.046 854.68C765.718 855.952 766.054 857.488 766.054 859.288C766.054 860.992 765.706 862.516 765.01 863.86C764.338 865.18 763.342 866.212 762.022 866.956C760.702 867.7 759.13 868.072 757.306 868.072C754.81 868.072 752.842 867.52 751.402 866.416C749.986 865.312 748.99 863.776 748.414 861.808C747.862 859.816 747.586 857.368 747.586 854.464C747.586 850.072 748.342 846.76 749.854 844.528C751.366 842.272 753.754 841.144 757.018 841.144C759.538 841.144 761.494 841.828 762.886 843.196C764.278 844.564 765.082 846.268 765.298 848.308H760.618ZM756.946 854.86C755.674 854.86 754.606 855.232 753.742 855.976C752.878 856.72 752.446 857.8 752.446 859.216C752.446 860.632 752.842 861.748 753.634 862.564C754.45 863.38 755.59 863.788 757.054 863.788C758.35 863.788 759.37 863.392 760.114 862.6C760.882 861.808 761.266 860.74 761.266 859.396C761.266 858.004 760.894 856.9 760.15 856.084C759.43 855.268 758.362 854.86 756.946 854.86ZM786.021 863.212H776.013L774.357 868H769.065L778.101 842.836H783.969L793.005 868H787.677L786.021 863.212ZM784.653 859.18L781.017 848.668L777.381 859.18H784.653ZM795.806 854.536C795.806 850.384 796.55 847.132 798.038 844.78C799.55 842.428 802.046 841.252 805.526 841.252C809.006 841.252 811.49 842.428 812.978 844.78C814.49 847.132 815.246 850.384 815.246 854.536C815.246 858.712 814.49 861.988 812.978 864.364C811.49 866.74 809.006 867.928 805.526 867.928C802.046 867.928 799.55 866.74 798.038 864.364C796.55 861.988 795.806 858.712 795.806 854.536ZM810.278 854.536C810.278 852.76 810.158 851.272 809.918 850.072C809.702 848.848 809.246 847.852 808.55 847.084C807.878 846.316 806.87 845.932 805.526 845.932C804.182 845.932 803.162 846.316 802.466 847.084C801.794 847.852 801.338 848.848 801.098 850.072C800.882 851.272 800.774 852.76 800.774 854.536C800.774 856.36 800.882 857.896 801.098 859.144C801.314 860.368 801.77 861.364 802.466 862.132C803.162 862.876 804.182 863.248 805.526 863.248C806.87 863.248 807.89 862.876 808.586 862.132C809.282 861.364 809.738 860.368 809.954 859.144C810.17 857.896 810.278 856.36 810.278 854.536ZM835.784 845.572L826.208 868H821.096L830.744 846.148H818.432V841.828H835.784V845.572Z" fill="#FFE5D4"/>
<path d="M1137.02 759.562H1141.98L1149.29 780.441L1156.59 759.562H1161.55L1151.28 788H1147.3L1137.02 759.562ZM1134.35 759.562H1139.29L1140.19 779.914V788H1134.35V759.562ZM1159.29 759.562H1164.25V788H1158.39V779.914L1159.29 759.562ZM1180.44 783.234V773.82C1180.44 773.143 1180.33 772.564 1180.11 772.082C1179.89 771.587 1179.54 771.203 1179.07 770.93C1178.62 770.656 1178.03 770.52 1177.3 770.52C1176.67 770.52 1176.13 770.63 1175.68 770.852C1175.22 771.06 1174.87 771.366 1174.62 771.77C1174.37 772.16 1174.25 772.622 1174.25 773.156H1168.62C1168.62 772.258 1168.83 771.405 1169.25 770.598C1169.67 769.79 1170.27 769.081 1171.07 768.469C1171.86 767.844 1172.8 767.355 1173.9 767.004C1175.01 766.652 1176.24 766.477 1177.61 766.477C1179.25 766.477 1180.71 766.75 1181.98 767.297C1183.26 767.844 1184.26 768.664 1184.99 769.758C1185.73 770.852 1186.11 772.219 1186.11 773.859V782.902C1186.11 784.061 1186.18 785.012 1186.32 785.754C1186.46 786.483 1186.67 787.121 1186.95 787.668V788H1181.26C1180.99 787.427 1180.78 786.711 1180.64 785.852C1180.51 784.979 1180.44 784.107 1180.44 783.234ZM1181.18 775.129L1181.22 778.312H1178.08C1177.34 778.312 1176.69 778.397 1176.14 778.566C1175.6 778.736 1175.15 778.977 1174.8 779.289C1174.45 779.589 1174.18 779.94 1174.02 780.344C1173.86 780.747 1173.78 781.19 1173.78 781.672C1173.78 782.154 1173.89 782.59 1174.11 782.98C1174.33 783.358 1174.65 783.658 1175.07 783.879C1175.49 784.087 1175.98 784.191 1176.54 784.191C1177.38 784.191 1178.12 784.022 1178.74 783.684C1179.37 783.345 1179.85 782.928 1180.19 782.434C1180.54 781.939 1180.72 781.47 1180.73 781.027L1182.22 783.41C1182.01 783.944 1181.72 784.497 1181.36 785.07C1181.01 785.643 1180.56 786.184 1180.01 786.691C1179.46 787.186 1178.81 787.596 1178.04 787.922C1177.27 788.234 1176.36 788.391 1175.3 788.391C1173.96 788.391 1172.75 788.124 1171.65 787.59C1170.57 787.043 1169.71 786.294 1169.07 785.344C1168.45 784.38 1168.14 783.286 1168.14 782.062C1168.14 780.956 1168.35 779.973 1168.76 779.113C1169.18 778.254 1169.79 777.531 1170.6 776.945C1171.42 776.346 1172.44 775.897 1173.66 775.598C1174.89 775.285 1176.31 775.129 1177.92 775.129H1181.18ZM1196.07 771.477V788H1190.44V766.867H1195.73L1196.07 771.477ZM1202.43 766.73L1202.34 771.945C1202.06 771.906 1201.73 771.874 1201.34 771.848C1200.96 771.809 1200.62 771.789 1200.3 771.789C1199.51 771.789 1198.82 771.893 1198.23 772.102C1197.66 772.297 1197.18 772.59 1196.79 772.98C1196.41 773.371 1196.12 773.846 1195.93 774.406C1195.75 774.966 1195.64 775.604 1195.62 776.32L1194.48 775.969C1194.48 774.602 1194.62 773.345 1194.89 772.199C1195.17 771.04 1195.57 770.031 1196.09 769.172C1196.62 768.312 1197.27 767.648 1198.04 767.18C1198.81 766.711 1199.69 766.477 1200.68 766.477C1200.99 766.477 1201.31 766.503 1201.63 766.555C1201.96 766.594 1202.23 766.652 1202.43 766.73ZM1210.71 771.477V788H1205.09V766.867H1210.38L1210.71 771.477ZM1217.08 766.73L1216.98 771.945C1216.71 771.906 1216.38 771.874 1215.99 771.848C1215.61 771.809 1215.27 771.789 1214.95 771.789C1214.16 771.789 1213.47 771.893 1212.88 772.102C1212.31 772.297 1211.83 772.59 1211.44 772.98C1211.06 773.371 1210.77 773.846 1210.58 774.406C1210.4 774.966 1210.29 775.604 1210.27 776.32L1209.13 775.969C1209.13 774.602 1209.27 773.345 1209.54 772.199C1209.82 771.04 1210.21 770.031 1210.73 769.172C1211.27 768.312 1211.92 767.648 1212.69 767.18C1213.46 766.711 1214.33 766.477 1215.32 766.477C1215.64 766.477 1215.96 766.503 1216.28 766.555C1216.61 766.594 1216.87 766.652 1217.08 766.73ZM1218.25 777.648V777.238C1218.25 775.689 1218.48 774.263 1218.92 772.961C1219.36 771.646 1220.01 770.507 1220.85 769.543C1221.7 768.579 1222.74 767.831 1223.98 767.297C1225.21 766.75 1226.63 766.477 1228.23 766.477C1229.84 766.477 1231.26 766.75 1232.51 767.297C1233.76 767.831 1234.81 768.579 1235.66 769.543C1236.52 770.507 1237.17 771.646 1237.61 772.961C1238.05 774.263 1238.27 775.689 1238.27 777.238V777.648C1238.27 779.185 1238.05 780.611 1237.61 781.926C1237.17 783.228 1236.52 784.367 1235.66 785.344C1234.81 786.307 1233.77 787.056 1232.53 787.59C1231.29 788.124 1229.88 788.391 1228.27 788.391C1226.67 788.391 1225.25 788.124 1224 787.59C1222.76 787.056 1221.71 786.307 1220.85 785.344C1220.01 784.367 1219.36 783.228 1218.92 781.926C1218.48 780.611 1218.25 779.185 1218.25 777.648ZM1223.88 777.238V777.648C1223.88 778.534 1223.96 779.361 1224.11 780.129C1224.27 780.897 1224.52 781.574 1224.86 782.16C1225.21 782.733 1225.66 783.182 1226.22 783.508C1226.78 783.833 1227.47 783.996 1228.27 783.996C1229.05 783.996 1229.73 783.833 1230.29 783.508C1230.85 783.182 1231.29 782.733 1231.63 782.16C1231.97 781.574 1232.22 780.897 1232.38 780.129C1232.54 779.361 1232.63 778.534 1232.63 777.648V777.238C1232.63 776.379 1232.54 775.572 1232.38 774.816C1232.22 774.048 1231.96 773.371 1231.61 772.785C1231.27 772.186 1230.83 771.717 1230.27 771.379C1229.71 771.04 1229.03 770.871 1228.23 770.871C1227.44 770.871 1226.76 771.04 1226.2 771.379C1225.66 771.717 1225.21 772.186 1224.86 772.785C1224.52 773.371 1224.27 774.048 1224.11 774.816C1223.96 775.572 1223.88 776.379 1223.88 777.238ZM1247.36 771.242V788H1241.71V766.867H1247L1247.36 771.242ZM1246.57 776.691H1245.01C1245.01 775.22 1245.19 773.866 1245.54 772.629C1245.9 771.379 1246.43 770.298 1247.12 769.387C1247.82 768.462 1248.69 767.746 1249.72 767.238C1250.75 766.73 1251.94 766.477 1253.29 766.477C1254.23 766.477 1255.09 766.62 1255.87 766.906C1256.65 767.18 1257.32 767.616 1257.88 768.215C1258.46 768.801 1258.9 769.569 1259.21 770.52C1259.52 771.457 1259.68 772.583 1259.68 773.898V788H1254.05V774.523C1254.05 773.56 1253.92 772.818 1253.66 772.297C1253.4 771.776 1253.03 771.411 1252.55 771.203C1252.08 770.995 1251.52 770.891 1250.85 770.891C1250.12 770.891 1249.48 771.04 1248.94 771.34C1248.4 771.639 1247.96 772.056 1247.61 772.59C1247.26 773.111 1247 773.723 1246.83 774.426C1246.66 775.129 1246.57 775.884 1246.57 776.691ZM1259.15 776.047L1257.14 776.301C1257.14 774.921 1257.31 773.638 1257.65 772.453C1258 771.268 1258.51 770.227 1259.19 769.328C1259.88 768.43 1260.73 767.733 1261.75 767.238C1262.77 766.73 1263.94 766.477 1265.27 766.477C1266.28 766.477 1267.21 766.626 1268.04 766.926C1268.87 767.212 1269.58 767.674 1270.17 768.312C1270.77 768.938 1271.22 769.758 1271.54 770.773C1271.86 771.789 1272.02 773.033 1272.02 774.504V788H1266.38V774.504C1266.38 773.527 1266.25 772.785 1265.99 772.277C1265.74 771.757 1265.38 771.398 1264.89 771.203C1264.43 770.995 1263.87 770.891 1263.21 770.891C1262.54 770.891 1261.95 771.027 1261.44 771.301C1260.93 771.561 1260.51 771.926 1260.17 772.395C1259.83 772.863 1259.58 773.41 1259.41 774.035C1259.24 774.647 1259.15 775.318 1259.15 776.047Z" fill="#FFE5D4"/>
<path d="M1148.62 847.836L1147.44 853.38H1152.01V857.88H1146.46L1145.17 864H1140.38L1141.68 857.88H1135.12L1133.83 864H1129.08L1130.37 857.88H1124.94V853.38H1131.34L1132.53 847.836H1127.13V843.336H1133.5L1134.76 837.36H1139.52L1138.26 843.336H1144.81L1146.07 837.36H1150.86L1149.6 843.336H1154.2V847.836H1148.62ZM1143.84 847.836H1137.28L1136.1 853.38H1142.65L1143.84 847.836ZM1171.44 844.308C1171.2 843.3 1170.78 842.544 1170.18 842.04C1169.6 841.536 1168.76 841.284 1167.66 841.284C1166 841.284 1164.78 841.956 1163.99 843.3C1163.22 844.62 1162.82 846.78 1162.8 849.78C1163.37 848.82 1164.21 848.076 1165.32 847.548C1166.42 846.996 1167.62 846.72 1168.92 846.72C1170.48 846.72 1171.86 847.056 1173.06 847.728C1174.26 848.4 1175.19 849.384 1175.87 850.68C1176.54 851.952 1176.87 853.488 1176.87 855.288C1176.87 856.992 1176.53 858.516 1175.83 859.86C1175.16 861.18 1174.16 862.212 1172.84 862.956C1171.52 863.7 1169.95 864.072 1168.13 864.072C1165.63 864.072 1163.66 863.52 1162.22 862.416C1160.81 861.312 1159.81 859.776 1159.23 857.808C1158.68 855.816 1158.41 853.368 1158.41 850.464C1158.41 846.072 1159.16 842.76 1160.67 840.528C1162.19 838.272 1164.57 837.144 1167.84 837.144C1170.36 837.144 1172.31 837.828 1173.71 839.196C1175.1 840.564 1175.9 842.268 1176.12 844.308H1171.44ZM1167.77 850.86C1166.49 850.86 1165.43 851.232 1164.56 851.976C1163.7 852.72 1163.27 853.8 1163.27 855.216C1163.27 856.632 1163.66 857.748 1164.45 858.564C1165.27 859.38 1166.41 859.788 1167.87 859.788C1169.17 859.788 1170.19 859.392 1170.93 858.6C1171.7 857.808 1172.09 856.74 1172.09 855.396C1172.09 854.004 1171.71 852.9 1170.97 852.084C1170.25 851.268 1169.18 850.86 1167.77 850.86ZM1186.47 842.94V849.24H1194.93V853.236H1186.47V859.896H1196.01V864H1181.43V838.836H1196.01V842.94H1186.47ZM1201.6 858.312C1203.91 856.392 1205.74 854.796 1207.11 853.524C1208.48 852.228 1209.62 850.884 1210.53 849.492C1211.44 848.1 1211.9 846.732 1211.9 845.388C1211.9 844.164 1211.61 843.204 1211.03 842.508C1210.46 841.812 1209.57 841.464 1208.37 841.464C1207.17 841.464 1206.25 841.872 1205.6 842.688C1204.95 843.48 1204.61 844.572 1204.59 845.964H1199.69C1199.79 843.084 1200.64 840.9 1202.25 839.412C1203.88 837.924 1205.95 837.18 1208.44 837.18C1211.18 837.18 1213.28 837.912 1214.74 839.376C1216.21 840.816 1216.94 842.724 1216.94 845.1C1216.94 846.972 1216.43 848.76 1215.43 850.464C1214.42 852.168 1213.27 853.656 1211.97 854.928C1210.67 856.176 1208.98 857.688 1206.89 859.464H1217.51V863.64H1199.73V859.896L1201.6 858.312ZM1220.04 851.4C1220.04 848.928 1220.59 846.72 1221.7 844.776C1222.83 842.808 1224.35 841.284 1226.27 840.204C1228.21 839.1 1230.39 838.548 1232.79 838.548C1235.59 838.548 1238.05 839.268 1240.17 840.708C1242.28 842.148 1243.75 844.14 1244.59 846.684H1238.8C1238.22 845.484 1237.41 844.584 1236.35 843.984C1235.32 843.384 1234.12 843.084 1232.75 843.084C1231.29 843.084 1229.98 843.432 1228.83 844.128C1227.7 844.8 1226.81 845.76 1226.16 847.008C1225.54 848.256 1225.23 849.72 1225.23 851.4C1225.23 853.056 1225.54 854.52 1226.16 855.792C1226.81 857.04 1227.7 858.012 1228.83 858.708C1229.98 859.38 1231.29 859.716 1232.75 859.716C1234.12 859.716 1235.32 859.416 1236.35 858.816C1237.41 858.192 1238.22 857.28 1238.8 856.08H1244.59C1243.75 858.648 1242.28 860.652 1240.17 862.092C1238.08 863.508 1235.62 864.216 1232.79 864.216C1230.39 864.216 1228.21 863.676 1226.27 862.596C1224.35 861.492 1222.83 859.968 1221.7 858.024C1220.59 856.08 1220.04 853.872 1220.04 851.4ZM1248.32 850.536C1248.32 846.384 1249.07 843.132 1250.55 840.78C1252.07 838.428 1254.56 837.252 1258.04 837.252C1261.52 837.252 1264.01 838.428 1265.49 840.78C1267.01 843.132 1267.76 846.384 1267.76 850.536C1267.76 854.712 1267.01 857.988 1265.49 860.364C1264.01 862.74 1261.52 863.928 1258.04 863.928C1254.56 863.928 1252.07 862.74 1250.55 860.364C1249.07 857.988 1248.32 854.712 1248.32 850.536ZM1262.79 850.536C1262.79 848.76 1262.67 847.272 1262.43 846.072C1262.22 844.848 1261.76 843.852 1261.07 843.084C1260.39 842.316 1259.39 841.932 1258.04 841.932C1256.7 841.932 1255.68 842.316 1254.98 843.084C1254.31 843.852 1253.85 844.848 1253.61 846.072C1253.4 847.272 1253.29 848.76 1253.29 850.536C1253.29 852.36 1253.4 853.896 1253.61 855.144C1253.83 856.368 1254.29 857.364 1254.98 858.132C1255.68 858.876 1256.7 859.248 1258.04 859.248C1259.39 859.248 1260.41 858.876 1261.1 858.132C1261.8 857.364 1262.25 856.368 1262.47 855.144C1262.69 853.896 1262.79 852.36 1262.79 850.536ZM1271.6 850.536C1271.6 846.384 1272.34 843.132 1273.83 840.78C1275.34 838.428 1277.84 837.252 1281.32 837.252C1284.8 837.252 1287.28 838.428 1288.77 840.78C1290.28 843.132 1291.04 846.384 1291.04 850.536C1291.04 854.712 1290.28 857.988 1288.77 860.364C1287.28 862.74 1284.8 863.928 1281.32 863.928C1277.84 863.928 1275.34 862.74 1273.83 860.364C1272.34 857.988 1271.6 854.712 1271.6 850.536ZM1286.07 850.536C1286.07 848.76 1285.95 847.272 1285.71 846.072C1285.49 844.848 1285.04 843.852 1284.34 843.084C1283.67 842.316 1282.66 841.932 1281.32 841.932C1279.97 841.932 1278.95 842.316 1278.26 843.084C1277.58 843.852 1277.13 844.848 1276.89 846.072C1276.67 847.272 1276.56 848.76 1276.56 850.536C1276.56 852.36 1276.67 853.896 1276.89 855.144C1277.1 856.368 1277.56 857.364 1278.26 858.132C1278.95 858.876 1279.97 859.248 1281.32 859.248C1282.66 859.248 1283.68 858.876 1284.38 858.132C1285.07 857.364 1285.53 856.368 1285.74 855.144C1285.96 853.896 1286.07 852.36 1286.07 850.536Z" fill="#FFE5D4"/>
</svg>
